<?xml version="1.0" encoding="utf-8"?>
<!-- Generator: Adobe Illustrator 21.0.0, SVG Export Plug-In . SVG Version: 6.00 Build 0)  -->
<svg version="1.1" id="Layer_1" xmlns="http://www.w3.org/2000/svg" xmlns:xlink="http://www.w3.org/1999/xlink" x="0px" y="0px"
	 width="24px" height="24px" viewBox="0 0 24 24" style="enable-background:new 0 0 24 24;" xml:space="preserve">
<title>ED_dots</title>
<path d="M3,0c1.7,0,3,1.3,3,3S4.7,6,3,6S0,4.7,0,3S1.3,0,3,0z M12,0c1.7,0,3,1.3,3,3s-1.3,3-3,3S9,4.7,9,3S10.3,0,12,0z M21,0
	c1.7,0,3,1.3,3,3s-1.3,3-3,3s-3-1.3-3-3S19.3,0,21,0z M3,9c1.7,0,3,1.3,3,3s-1.3,3-3,3s-3-1.3-3-3S1.3,9,3,9z M12,9c1.7,0,3,1.3,3,3
	s-1.3,3-3,3s-3-1.3-3-3S10.3,9,12,9z M21,9c1.7,0,3,1.3,3,3s-1.3,3-3,3s-3-1.3-3-3S19.3,9,21,9z M3,18c1.7,0,3,1.3,3,3s-1.3,3-3,3
	s-3-1.3-3-3S1.3,18,3,18z M12,18c1.7,0,3,1.3,3,3s-1.3,3-3,3s-3-1.3-3-3S10.3,18,12,18z M21,18c1.7,0,3,1.3,3,3s-1.3,3-3,3
	s-3-1.3-3-3S19.3,18,21,18z"/>
</svg>
