<?xml version="1.0" encoding="utf-8"?>
<!-- Generator: Adobe Illustrator 24.0.2, SVG Export Plug-In . SVG Version: 6.00 Build 0)  -->
<svg version="1.1" id="Layer_1" xmlns="http://www.w3.org/2000/svg" xmlns:xlink="http://www.w3.org/1999/xlink" x="0px" y="0px"
	 viewBox="0 0 433 150" style="enable-background:new 0 0 433 150;" xml:space="preserve">
<style type="text/css">
	.st0{fill-rule:evenodd;clip-rule:evenodd;fill:#999999;}
</style>
<g>
	<path class="st0" d="M47.9,39.7c0.2-2.9,0.1-5.8,0.1-8.7c-0.1-0.7,0.4-1.4,1.1-1.5c7.7-2.5,15.5-4.4,23.5-5.7
		c5.5-0.9,11-1.5,16.5-1.9c1.5-0.1,1.5-0.1,1.5,1.3c0,12.5-0.3,25-0.8,37.5c-0.1,5.4-1.1,10.8-2.9,16c-3.2,8.8-9.3,14.5-18,17.6
		c-2.9,1.1-5.8,1.9-8.8,2.5c-3.6,0.7-7.3,1.3-10.9,1.9c-7.5,1.3-14.8,2.9-21.6,6.5c-3.7,2-7.1,4.6-10,7.7c-0.3,0.3-0.6,0.6-1.1,1.2
		c0.2-1.1,0.7-2.1,1.3-3c3-5.3,7.3-9.2,12.3-12.5c5.2-3.5,11-6.1,17.1-7.5c0.4-0.1,0.8-0.2,0.8-0.7c-0.1-1.3-0.1-2.6-0.1-3.9
		C48,86,48.4,86,48.8,86c6.1-0.5,11.7-3.5,15.6-8.2C65,78,65,77.6,65,77.2c1.2-1.4,2.1-3,2.7-4.7c0.9-2.6,1.8-5.1,1.8-7.8
		c0.3,0.2,0.4,0,0.3-0.3c-0.2-0.6-2.1-1.6-2.7-1.3c-1.9,0.6-3.9,1.1-5.9,1.4c-0.1-1.2-0.1-2.4,0-3.6c3,0.4,6,1.3,8.6,2.7
		c-0.3-3.7-0.9-7.1-2.4-10.4c0.2-0.2,0.1-0.3,0-0.5c-0.1-0.1-0.1-0.1-0.1-0.2v0c-0.6-1.1-1.4-2.2-2.1-3.2c-4.3-5.4-9.7-8.5-16.5-9.2
		C48.3,40.2,47.9,40.2,47.9,39.7z"/>
	<path class="st0" d="M45.4,86.5c-4.7,1.3-9.3,3.3-13.5,5.9c-10.8,7-17.4,17-20.7,29.3c-0.2,0.7-0.3,1.5-0.5,2.3
		c-0.3-0.2-0.2-0.5-0.2-0.7c0-15.3,0-30.6,0-45.8c0-3.3,0.3-6.5,0.6-9.8c0.5-5.4,1.7-10.7,3.4-15.9c1.3-3.8,3-7.5,5.1-11
		c6-9.7,14.7-15.9,25.4-19.5c0.1,0,0.3,0,0.4-0.1v18.3c-0.1,0.1-0.1,0.3-0.2,0.4c-0.1,0.1-0.2,0.1-0.4,0.2
		c-7.3,0.6-13.6,4.2-18,10.9c-0.6,0.9-0.9,2-1.7,2.8c-0.3,0.3-0.1,0.5,0,0.8c-1.1,3.1-1.7,6.4-1.8,9.7c0.1,0.2,0.2,0.4,0.3,0.5
		c0.1,0.9,0.2,1.9,0.4,2.8c0.6,2.9,1.7,5.7,3.2,8.2c0.1,0.1,0.2,0.2,0.4,0.2c4.3,5.9,10,9.3,17.3,9.8l0.4,0.2
		C45.4,86.3,45.4,86.4,45.4,86.5z"/>
	<path class="st0" d="M41.6,120.7c0,4.3,0,8.5,0,12.8c0,0.9-0.2,1.3-1.2,1.2c-2.5-0.1-5.1-0.2-7.5-0.5c-2.9-0.4-5.7-0.9-8.4-1.7
		c-2.7-0.8-5.3-1.7-7.6-3.3c-2.8-2-3.6-4.4-2.7-7.7c0.5-1.9,1.5-3.7,2.7-5.1c3.2-3.7,7.4-5.7,11.8-7.3c3.7-1.3,7.6-2.2,11.5-2.7
		c1.3-0.2,1.3-0.2,1.3,1.2C41.6,112.1,41.6,116.4,41.6,120.7z"/>
	<g>
		<path class="st0" d="M247.3,64.9h0.8c0,0,0,0,0,0c0.1-0.1,0.2,0,0.2,0c1.3,0,2.6,0,3.9,0c2.5,0,5-0.7,7.2-2
			c3.4-2.1,5.1-6.2,4.1-10.1c-0.7-2.8-3-5-5.9-5.4c3.5-1.6,5-3.9,5.4-6.5c0.6-4.4-1.7-7.2-5.4-8.3c-3.1-0.9-6.2-0.7-9.3-0.7
			c-0.1,0.1-0.2,0.1-0.3,0c-0.4,0-0.8,0-1.3,0c-0.6,0.3-1.2,0.2-1.8,0.1c-2.3,0-4.6,0.1-6.8,0.1c0,1.1,0,2.2,0,3.3l0.2,0.1
			c0.1,0,0.2,0.1,0.3,0.1c1.1,0.5,2.3,0.4,3.5,0.5c0.4,0.2,0.2,0.6,0.2,0.9c0,7.6,0,15.3,0,22.9c0,0.3,0.2,0.7-0.2,0.9
			c-1.3,0.2-2.5,0.3-3.7,0.5l-0.3,0.2c0,1,0,2.1,0,3.1l7.7,0.1C246.4,64.7,246.9,64.5,247.3,64.9z M247.5,41.1L247.5,41.1
			c0-1.3,0-2.6,0-3.9c0-0.3-0.1-0.7,0.5-0.7c2.1,0,4.2-0.3,6.3,0.2s3.1,1.5,3.4,3.3c0.3,1.9-0.6,3.8-2.3,4.7
			c-1.6,0.9-3.3,1.1-5.1,1.1c-2.8,0.1-2.8,0.1-2.8-2.7V41.1z M247.5,55.1L247.5,55.1c0-1.5,0-3,0-4.5c0-0.4,0-0.7,0.5-0.7
			c1.9,0,3.8-0.1,5.6,0.3c3,0.6,4.6,2.2,4.6,4.7c0,2.8-1.6,4.7-4.5,5.3c-1.8,0.3-3.7,0.3-5.5,0.1c-0.6-0.1-0.8-0.3-0.8-0.9
			C247.5,58,247.5,56.5,247.5,55.1z"/>
		<path class="st0" d="M207.1,107.6c-1.2-0.1-2.2-0.8-2.7-1.8c-0.5-1-1-1.9-1.6-2.7c-1.6-2-2.8-4.2-4.3-6.2
			c-0.4-0.5-0.5-0.8,0.4-0.9c2.4-0.5,4.6-1.5,6-3.5c1.7-2.3,2.2-5.3,1.3-8.1c-1-3.7-3.8-5.2-7.9-5.8c-2.9-0.4-5.8-0.2-8.6-0.2
			c-0.5,0.3-1.1,0.1-1.6,0.1l-5.7,0.1c0,1-0.1,1.9-0.1,2.9c0,0.1,0,0.1,0.1,0.2l0.2,0.2c1.2,0.5,2.5,0.4,3.7,0.5
			c0.5,0.2,0.2,0.7,0.2,1c0,7.6,0,15.2,0,22.9c0,0.3,0.3,0.9-0.4,1l-3.5,0.5c-0.1,0.1-0.2,0.1-0.3,0.2c0,1,0.1,2.1,0.1,3.1
			c4,0,7.9,0,11.9,0c0.5,0,0.8-0.1,0.8-0.7c0.1-2.7,0.1-2.7-2.6-3c-0.7-0.1-0.8-0.3-0.8-0.9c0-2.8,0-5.6,0-8.5
			c0-0.3-0.2-0.8,0.2-0.9c0.4,0,0.8,0.2,1,0.6c1,1.6,2,3.2,3,4.8c1.7,2.7,3.4,5.3,5,8c0.3,0.4,0.7,0.7,1.3,0.6
			c1.9-0.1,3.8-0.1,5.7,0c1.1,0.1,1.4-0.3,1.4-1.4C208.9,107.9,208.9,107.9,207.1,107.6z M192.1,93.3c-0.6,0-0.5-0.5-0.5-0.8
			c0-1.5,0-3,0-4.4c0-1.5,0-3,0-4.4c0-0.3-0.1-0.7,0.4-0.7c1.8,0,3.7-0.2,5.5,0.3c1.8,0.5,3,1.7,3.3,3.6c0.3,2-0.2,3.8-1.9,5.1
			C196.9,93.5,194.5,93.4,192.1,93.3z"/>
		<path class="st0" d="M146.6,61c-0.6-0.2-1.5,0.2-2-0.6c-2.3-3.4-4.6-6.8-6.9-10.1c-0.3-0.5-0.3-0.6,0.3-0.8
			c3.6-0.7,7.2-3.4,7.7-7.5c0.5-4-1.1-7.8-5.3-9.2c-3.4-1.1-6.9-0.8-10.3-0.8c0,0,0,0,0,0c-0.1,0.1-0.4,0.1-0.5,0h-0.6
			c-0.5,0.3-1.1,0.2-1.6,0.1c-1.9,0-3.8,0.1-5.7,0.1c0,1-0.1,1.9-0.1,2.9c0,0.1,0,0.1,0.1,0.2l0.3,0.2c1.2,0.5,2.5,0.4,3.7,0.5
			c0.4,0.2,0.2,0.6,0.2,0.9c0,7.7,0,15.4,0,23.1c0,0.3,0.2,0.7-0.2,0.9l-3.7,0.5l-0.3,0.2c0,0.1-0.1,0.1-0.1,0.2
			c0,1,0.1,1.9,0.1,2.9c4,0,7.9,0,11.9,0c0.3,0,0.6,0.2,0.8-0.4c0.5-2.3-0.1-3.2-2.4-3.4c-0.1,0-0.2,0-0.3,0
			c-0.5,0.1-0.6-0.2-0.6-0.6c0-3,0-6,0-9c0-0.2-0.1-0.6,0.3-0.6c0.3,0,0.5,0.2,0.6,0.4c0.4,0.5,0.7,1.1,1.1,1.6
			c2.4,3.8,4.7,7.5,7.1,11.3c0.3,0.5,0.8,0.8,1.4,0.8c1.8-0.1,3.6,0,5.5,0c1.5,0,1.5,0,1.5-1.5C148.4,61.3,148.4,61.4,146.6,61z
			 M131.4,46.7c-0.5,0-0.4-0.4-0.4-0.7c0-3,0-6.1,0-9.1c0-0.5,0.2-0.6,0.7-0.6c0.6,0,1.3,0,1.9,0c1-0.1,2.1,0,3.1,0.2
			c1.7,0.4,3.1,1.3,3.5,3.1c0.5,2,0.3,3.9-1.3,5.3C136.7,47,134.1,46.9,131.4,46.7z"/>
		<path class="st0" d="M176.5,84c-1.3-2-3.1-3.7-5.3-4.7c-1.5-0.6-3.1-1.1-4.7-1.3c-2.3-0.3-4.6-0.1-6.8,0.5
			c-2.7,0.7-5.1,2.3-6.9,4.4c-1.2,1.4-2.2,3.1-2.8,4.8c-0.9,2.2-1.3,4.6-1.1,7c-0.1,1.9,0.1,3.9,0.5,5.8c0.6,2.6,1.6,5,3.4,6.9
			c2.4,2.6,5.5,3.8,9.1,4.1c3.4,0.2,6.7-0.2,9.6-1.9c3.1-1.8,5.4-4.7,6.6-8.1c1-2.9,1.4-6,1.1-9.1C178.7,89.5,178.1,86.6,176.5,84z
			 M173.4,94.8c0,3-0.5,5.8-2.3,8.3c-1.9,2.8-5.3,4.2-8.6,3.7c-3.6-0.4-6-2.5-7.1-6c-1.3-4.1-1.5-8.3,0.2-12.4
			c1.7-4,5.2-6.2,9.4-5.8c4.1,0.4,7,3.1,8,7.5C173.2,91.7,173.4,93.2,173.4,94.8L173.4,94.8z"/>
		<path class="st0" d="M302.9,94.3c-2.9,0-5.9,0-8.8,0c-2.7,0-2.7,0-2.5,2.7c0,0,0,0.1,0,0.1c0,0.4,0.2,0.6,0.6,0.7
			c0.9,0.3,1.9,0.2,2.8,0.4c0.6,0.1,0.7,0.3,0.7,0.8c0,1.6,0,3.1,0,4.7c0,2.9,0,2.9-2.9,3.1c-0.2,0.2-0.5,0.2-0.7,0.1h-2.8
			c-0.2,0.1-0.4,0.1-0.5-0.1c-5-0.4-8.8-4.4-9.1-9.4c-0.2-0.3-0.2-0.6-0.1-0.9v-2.6c-0.1-0.3-0.1-0.7,0.1-0.9c0.5-5,4.1-9.3,9.6-9.8
			c0.2-0.2,0.5-0.2,0.7-0.1h2.6c0.2-0.1,0.5-0.1,0.7,0.1c0.6,0.4,1.4,0.3,2,0.4s0.7,0.3,0.7,0.8c0,1.1,0.2,2.3,0.6,3.3h3.8
			c0.3-0.3,0.1-0.7,0.1-1.1c0-2.1,0-4.2,0-6.3c0-0.1-0.1-0.1-0.1-0.2c0,0,0-0.1,0.1-0.1c0-0.1,0-0.3,0-0.4l-0.2-0.3
			c-0.2,0-0.4,0-0.5,0c-4.4-1.1-8.7-1.5-13.2-0.6c-4.1,0.9-7.5,2.9-9.9,6.4c-2,2.8-3,6.2-2.9,9.6c0.1,0.6,0.1,1.2,0,1.8
			c0.1,2.2,0.3,4.3,1.2,6.3c1,2.4,2.6,4.4,4.6,5.9c2.3,1.7,5.1,2.7,7.9,2.9c4.3,0.3,8.5-0.2,12.6-1.5c0.8-0.3,1-0.6,1-1.3
			c0-3.5,0-7,0-10.4c0-0.2,0-0.2,0.2-0.2c0.9-0.1,1.8-0.3,2.6-0.5c0-1,0.1-2.1,0.1-3.1C303.6,94.2,303.2,94.3,302.9,94.3z"/>
		<path class="st0" d="M365.6,61.1c-0.8,0-1.5-0.6-1.7-1.4c-2.1-5.8-4.3-11.7-6.4-17.5c-1.1-3.1-2.2-6.2-3.4-9.4c0,0,0,0,0,0
			c-0.1,0-0.2-0.2-0.1-0.3c0-0.1,0-0.1,0-0.2c-0.1-0.1-0.1-0.2-0.2-0.3h-6.3c-0.1,0.1-0.1,0.1-0.2,0.2c-0.2,0.6-0.4,1.2-0.7,1.8
			c-1.1,3-2.2,6-3.3,9c-1,2.7-1.7,5.4-2.8,8c-1.1,2.4-1.8,4.9-2.7,7.4c-0.6,1.8-1.3,2.8-3.2,2.8c-0.1,0.1-0.2,0.1-0.2,0.2v0
			c0,1,0.1,2.1,0.1,3.1c3.6,0,7.2,0,10.8,0c0.3,0,0.8,0.2,0.8-0.4c0-0.9,0.2-2-0.2-2.7c-0.2-0.6-1.3-0.4-2-0.4
			c-0.5-0.1-0.9-0.2-1.4-0.3c0.5-1.4,1-2.7,1.4-4.1c0.2-0.5,0.6-0.5,1-0.5h9.1c1,0,2.1-0.3,2.8,0.2c0.6,0.3,0.6,1.6,0.9,2.4
			c1,2.4,1,2-1.4,2.3c-0.9,0.1-1.6,0.3-1.4,1.4c0.1,0.4,0.1,0.9,0,1.3c-0.3,0.8,0.1,0.8,0.6,0.8c3.7,0,7.4,0,11.1,0
			c0.5,0,0.6-0.2,0.6-0.7c0-0.4,0-0.7,0-1.1C367.3,61.6,366.7,61.1,365.6,61.1z M345.4,52.1c1.5-4.8,3.7-9.4,5-14.7
			c1.3,5.2,3.4,9.8,5,14.7H345.4z"/>
		<path class="st0" d="M422.9,108.1c-0.1-0.6-1-0.5-1.6-0.5c-0.9,0-1.3-0.4-1.5-1.2c-0.6-1.9-1.3-3.9-2-5.8c-0.9-2.3-1.7-4.7-2.6-7
			c-1.1-2.8-2-5.6-3-8.3c-0.7-2.2-1.6-4.3-2.4-6.5c0-0.1-0.1-0.2-0.2-0.3h-6.3c-0.1,0-0.1,0.1-0.2,0.1l-0.2,0.2c0,1-0.5,1.9-0.9,2.8
			c-1.2,3.2-2.3,6.5-3.5,9.7c-1.8,4.8-3.6,9.6-5.2,14.5c-0.3,0.9-0.8,1.7-2,1.7c-0.4,0-0.9,0.1-1.2,0.4c0,1,0,2.1,0.1,3.1
			c3.6,0,7.3,0,10.9,0c0.3,0,0.7,0.1,0.7-0.4c0-0.8,0-1.6,0-2.4c0-0.4-0.3-0.4-0.6-0.5c-0.9-0.1-1.7-0.3-2.6-0.4
			c-0.3,0-0.6-0.1-0.3-0.4c0.7-1.1,0.7-2.4,1.3-3.6c0.3-0.5,0.5-0.6,1-0.6c3.5,0,7,0.1,10.5,0c1,0,1.8,0,2,1.3
			c0.1,0.7,0.4,1.3,0.7,1.9c0.5,1.4,0.4,1.5-1,1.6c-2.1,0.2-2.1,0.2-2.1,2.2c0,0.3,0,0.5,0,0.8c-0.1,0.5,0.1,0.6,0.6,0.6
			c3.7,0,7.4,0,11,0c0.2,0,0.6,0.1,0.6-0.2C423,110,423,109.1,422.9,108.1z M401.3,98.6c1.6-4.8,3.7-9.5,5-14.4v0
			c1.3,4.9,3.5,9.5,5,14.3H401.3z"/>
		<path class="st0" d="M258.4,78.4c0.3,0.8,0.2,1.7,0.2,2.4c0,0.7,0.2,1,0.9,1.2c0.9,0.2,1.9-0.1,2.7,0.5c0.4-0.1,0.2,0.3,0.2,0.4
			c0,5.6,0,11.2,0,16.9c0,0.2,0,0.5-0.2,0.6c-0.1,0.3-0.2,0.7-0.2,1.1c0.1,3-2.7,5.4-5.3,5.7c-0.2,0.2-0.5,0.2-0.7,0.1h-2.4
			c-0.3,0.1-0.7,0.1-0.9-0.2c-3-0.2-5.4-2.8-5.3-5.9c-0.1-5.9,0-11.9-0.1-17.8c0-0.8,0.2-1.1,1.1-1.2c2.8-0.3,2.7-0.3,2.6-3.1
			c0-0.6-0.2-0.7-0.7-0.7c-3.8,0-7.6,0.1-11.3,0.1c0,1,0,2.1-0.1,3.1c0,0.3,0.3,0.4,0.5,0.4c0.8,0,1.6,0.1,2.4,0.2
			c0.2,0,0.2,0,0.2,0.2c0,5.7,0,11.4,0,17c-0.1,1.4,0,2.9,0.3,4.3c0.7,3.1,2.3,5.4,5.3,6.8c1.6,0.7,3.2,1.1,5,1.1
			c2.9,0.1,5.9,0,8.6-1.1c2.3-0.9,4.2-2.6,5.2-4.8c0.9-2.3,1.4-4.7,1.3-7.2c-0.1-5.1,0-10.2,0-15.4c0-0.6,0-0.9,0.8-1
			c0.8-0.1,1.7,0,2.4-0.6c0-1.1,0-2.1,0-3.1H258.4z"/>
		<path class="st0" d="M326.2,78.4c0.3,0.8,0.2,1.7,0.2,2.4c0,0.7,0.2,1,0.9,1.2c0.9,0.2,1.8-0.1,2.6,0.5c0.4-0.1,0.2,0.3,0.2,0.4
			c0,5.6,0,11.2,0,16.9c0,0.2,0,0.5-0.2,0.6c-0.1,0.3-0.2,0.7-0.2,1.1c0.1,3-2.7,5.4-5.3,5.7c-0.2,0.2-0.5,0.2-0.7,0.1h-2.4
			c-0.3,0.1-0.7,0.1-0.9-0.2c-3-0.2-5.4-2.8-5.3-5.9c-0.1-5.9,0-11.9-0.1-17.8c0-0.8,0.2-1.1,1.1-1.2c2.8-0.3,2.7-0.3,2.6-3.1
			c0-0.6-0.2-0.7-0.7-0.7c-3.8,0-7.5,0.1-11.3,0.1c0,1,0,2.1-0.1,3.1c0,0.3,0.3,0.4,0.5,0.4c0.8,0,1.6,0.1,2.4,0.2
			c0.2,0,0.3,0,0.2,0.2c0,5.7,0,11.4,0,17c-0.1,1.4,0,2.9,0.3,4.3c0.7,3.1,2.3,5.4,5.3,6.8c1.6,0.7,3.2,1.1,5,1.1
			c2.9,0.1,5.8,0,8.6-1.1c2.3-0.9,4.2-2.6,5.2-4.8c1-2.3,1.4-4.7,1.3-7.2c-0.1-5.1,0-10.2,0-15.4c0-0.6,0-0.9,0.8-1
			c0.8-0.1,1.7,0,2.4-0.6c0-1.1-0.1-2.1-0.1-3.1H326.2z"/>
		<path class="st0" d="M220.4,65c2.8-0.2,5.5-0.9,7.6-2.9c2.7-2.5,3.5-5.7,3.6-9.2c0.1-5.5,0-10.9,0-16.4c0-0.6,0-0.9,0.8-1
			c0.8-0.1,1.7,0,2.4-0.5c0-1-0.1-2.1-0.1-3.1c-3.9,0-7.9,0-11.8,0c-0.1,0.1-0.1,0.2-0.2,0.3v0.2c0,2.9,0,2.9,2.8,3.2
			c0.7,0.1,0.9,0.3,0.9,1c0,3.7,0,7.5,0,11.2c0.1,2.2,0,4.4-0.2,6.7c-0.3,3.3-2.1,5.3-5,5.9c-1.2,0.2-2.4,0.3-3.5,0.2
			c-4.1-0.2-6.3-2.4-6.4-6.5c-0.1-5.3-0.1-10.7-0.1-16c0-2.4,0-2.4,2.5-2.7c0.1-0.1,0.3-0.2,0.5-0.1l0.4-0.1
			c0.1-0.1,0.2-0.1,0.2-0.3c0-0.8,0-1.7,0-2.5c0-0.5-0.2-0.6-0.6-0.6c-3.8,0-7.6,0-11.4,0c0,1.1,0,2.1-0.1,3.1
			c0.5,0.7,1.3,0.5,1.9,0.5c1,0,1.3,0.3,1.3,1.3c0,5.7,0,11.4,0,17c0,1.1,0,2.2,0.3,3.3c0.9,3.7,3.1,6.2,6.7,7.3
			C215.5,65.2,218,65.1,220.4,65z"/>
		<path class="st0" d="M359.5,102.9c0,0.1-0.1,0.1-0.1,0.2c0,0,0,0,0,0c0,0.1,0,0.2-0.1,0.3c-0.3,0.8-0.4,1.6-0.4,2.4
			c0,0.6,0,0.9-0.8,0.9c-2.1,0-4.2,0-6.3,0c-0.5,0-0.7-0.1-0.7-0.6c0-3,0-5.9,0-8.9c0-0.5,0.1-0.7,0.7-0.7c1.6,0,3.1,0,4.7,0
			c0.8,0,1,0.3,0.9,1c0,0.6,0.1,1.2,0.4,1.7l0.2,0.2l3.3-0.1v-9.7c-1.1,0-2.2-0.1-3.3-0.1h0c0,0,0,0,0,0c0,0.1-0.1,0.2-0.2,0.2
			c-0.3,0.6-0.4,1.3-0.4,1.9c0.1,0.6-0.3,0.8-0.9,0.8c-1.5,0-3,0-4.5,0c-0.6,0-0.8-0.2-0.8-0.8c0-2.7,0.1-5.5,0-8.2
			c0-0.7,0.3-0.8,0.9-0.8c2,0,3.9,0.1,5.9,0c0.9,0,1,0.4,1.1,1.1c0.1,0.9-0.1,1.8,0.6,2.6c1.2-0.1,2.4-0.1,3.6,0
			c0.3-0.3,0.1-0.7,0.1-1.1c0-2.1,0-4.2,0-6.3c-0.1-0.1-0.1-0.2-0.2-0.2h-19.6c-2,0-1.9,0-2,2c0,0.9,0.3,1.2,1.2,1.4
			c1,0.2,2,0.1,3,0.3c0.5,0.2,0.2,0.7,0.2,1c0,7.7,0,15.4,0,23.1c0,0.4,0.3,1-0.5,1l-3.5,0.5l-0.3,0.2c0,1,0.1,2.1,0.1,3.1
			c6.9,0,13.9,0,20.8,0c0.5,0,0.8,0,0.8-0.7c-0.1-2.5-0.1-5-0.1-7.6H359.5z"/>
		<path class="st0" d="M154.6,35.7c0.5,0.2,0.2,0.7,0.3,1c0,7.7,0,15.4,0,23.1c0,0.4,0.3,1-0.4,1l-3.5,0.5l-0.3,0.2v0
			c0,1,0,2.1,0.1,3.1c6.9,0,13.9,0,20.8,0c0.5,0,0.8,0,0.8-0.7c-0.1-2.5-0.1-5-0.1-7.6c-1.3,0-2.5,0-3.8,0c0,0.1-0.1,0.1-0.1,0.2
			c0,0,0,0,0,0c0,0.1,0,0.2-0.1,0.2c-0.3,0.8-0.4,1.6-0.4,2.5c0,0.6-0.1,0.8-0.8,0.8c-2.1-0.1-4.2,0-6.3,0c-0.6,0-0.7-0.2-0.7-0.8
			c0-2.9,0-5.9,0-8.8c0-0.6,0.2-0.7,0.8-0.7c1.4,0,2.8,0,4.2,0c0.8,0,1.3,0.2,1.3,1.2c0.1,0.5,0.2,1,0.4,1.5l0.2,0.2l3.3-0.1v-9.7
			l-3.3-0.1c-0.1,0.1-0.1,0.1-0.2,0.2c-0.3,0.5-0.4,1.1-0.4,1.7c0,0.6-0.2,1-1,1c-1.5,0-3,0-4.6,0c-0.6,0-0.8-0.1-0.8-0.7
			c0-2.8,0-5.6,0-8.3c0-0.7,0.3-0.8,0.8-0.8c1.9,0,3.9,0.1,5.9,0c0.9,0,1.1,0.4,1.2,1.2c0.1,0.8,0,1.7,0.5,2.5l3.8-0.1
			c0-2.3,0-4.5,0-6.8c0-0.6-0.2-0.7-0.8-0.7c-6.9,0-13.8,0-20.8,0c0,1-0.1,1.9-0.1,2.9l0.3,0.2C152.1,35.7,153.3,35.6,154.6,35.7z"
			/>
		<path class="st0" d="M139.8,79.3c-3.1-1-6.2-0.8-9.4-0.8c0,0,0,0,0,0c-0.1,0.1-0.3,0.1-0.5,0h-0.6c-0.5,0.2-1.1,0.3-1.6,0.1
			c-2,0-4,0.1-6,0.1c-0.1,1-0.1,1.9-0.1,3c0,0.1,0,0.1,0.1,0.2l0.3,0.2c1.2,0.5,2.5,0.4,3.7,0.5c0.5,0.2,0.2,0.7,0.2,1
			c0,7.6,0,15.2,0,22.9c0,0.3,0.3,0.9-0.5,1l-3.5,0.5l-0.3,0.2c0,1,0.1,2.1,0.1,3.1c3.7,0,7.5,0,11.2,0c2.5,0,2.4,0,2.3-2.5
			c0-0.6-0.2-0.8-0.7-0.9c-0.9-0.1-1.9-0.3-2.8-0.4c-0.6,0-0.7-0.3-0.7-0.8c0-2.1,0-4.2,0-6.2c0-0.9,0.3-1.1,1.1-1.1
			c1.3,0,2.6,0,4-0.2c5.5-0.8,9-4.2,9.9-9.7C146.7,84.8,144.1,80.7,139.8,79.3z M138.1,93.6c-2,1.3-4.2,1.5-6.5,1.2
			c-0.5-0.1-0.5-0.3-0.5-0.7c0-1.7,0-3.5,0-5.2l0,0c0-1.8,0-3.5,0-5.2c0-0.5,0.1-0.8,0.6-0.8c1.7,0,3.5-0.1,5.2,0.4
			c2,0.5,3.5,2.3,3.7,4.4C140.9,90,140.3,92.2,138.1,93.6z"/>
		<path class="st0" d="M180.4,36c0.4,0.2,0.2,0.5,0.2,0.8c0,7.8,0,15.6,0,23.4c0,0.2-0.1,0.4-0.1,0.5c0,0,0,0-0.1,0
			c0,0-0.1,0-0.1-0.1c-1.2,0.5-2.5,0.4-3.7,0.7l-0.3,0.2c0,1,0.1,2.1,0.1,3.1h11.2c2.5,0,2.4,0,2.3-2.5c0-0.6-0.2-0.8-0.8-0.8
			c-0.9-0.1-1.9-0.3-2.8-0.4c-0.5,0-0.7-0.2-0.7-0.7c0-2.2,0-4.5,0-6.7c0-0.7,0.3-0.7,0.8-0.7c1.4,0,2.7,0,4.1-0.2
			c3.9-0.6,7-2.3,9-5.9c1.3-2.3,1.6-5,1-7.5c-0.7-3.2-2.8-5.4-6.1-6.5c-3.2-1-6.4-0.8-9.6-0.8c0,0,0,0-0.1,0.1c-0.1,0-0.2,0-0.2-0.1
			c-0.3,0-0.5,0-0.8,0c-0.4,0.3-0.9,0.2-1.4,0.1l-6,0.1c0,1,0,2.1-0.1,3.2l0.3,0.2C177.9,36,179.2,35.9,180.4,36z M185.8,37
			c0-0.6,0.2-0.8,0.7-0.8c1.4-0.1,2.9,0,4.3,0.2c2.6,0.5,4.1,2.1,4.5,4.6c0.4,2.8-0.7,5.2-3.1,6.4c-1.8,0.8-3.7,1.1-5.6,0.8
			c-0.7-0.1-0.8-0.4-0.8-1c0-1.7,0-3.4,0-5.1h0C185.8,40.5,185.8,38.7,185.8,37z"/>
		<path class="st0" d="M383.4,93.8c-2.2-1.1-4.6-1.7-6.7-2.9c-0.9-0.5-1.9-1-2.3-2.1c-1.3-3.2,0.3-4.9,2.8-5.9
			c1.3-0.5,2.6-0.1,3.9-0.2c0.7-0.1,1.2-0.1,1.1,0.9c0,0.5,0.2,1,0.2,1.5c0,1.4,0.3,1.6,1.6,1.6l2.6,0l0-7.9
			c-3.6-0.8-7.3-1.1-10.9-0.2c-2.9,0.7-5.3,2.1-6.6,5.1c-0.7,1.7-0.9,3.6-0.7,5.4c0.1,1.3,0.6,2.4,1.4,3.4c1.8,2.3,4.4,3.3,7.1,4.3
			c1.6,0.6,3.3,1.2,4.6,2.4c1.6,1.6,1.8,3.5,0.6,5.3c-0.9,1.3-2.3,2.1-3.9,2.3c-0.2,0.2-0.5,0.2-0.7,0.1c-0.7,0-1.4,0-2.2,0
			c-0.2,0.1-0.5,0-0.7-0.1c-0.9,0-1.3-0.3-1.3-1.3c0-0.7-0.1-1.4-0.3-2c-0.1-0.7-0.4-1-1.2-1c-0.9,0.1-1.8,0.1-2.7,0
			c0,2.8,0,5.5,0,8.2l0.3,0.2c0.1,0.1,0.2,0.2,0.4,0.2c2.6,0.5,5.2,0.6,7.8,0.4c4.2-0.3,7.8-1.8,9.9-5.8c1.3-2.4,1.5-5.2,0.4-7.7
			C387.1,96,385.3,94.8,383.4,93.8z"/>
		<path class="st0" d="M308.5,56c1,2.7,2.4,5,4.8,6.6c2.2,1.5,4.8,2.3,7.5,2.4c3.4,0.3,6.8-0.1,10.1-1.1c0.4-0.1,1.1,0,0.9-0.8
			c-0.2-1.2-0.1-2.4-0.2-3.5c-0.1-0.5-0.2-0.9-1-0.6c-1.4,0.7-2.9,1.1-4.5,1.2c-0.2,0.2-0.5,0.2-0.7,0.1h-2.6
			c-0.2,0.1-0.5,0.1-0.7-0.1c-3.5-0.2-6.6-2.5-7.7-5.9c-1.2-3.7-1.2-7.7,0-11.5c0.9-2.8,2.7-4.9,5.6-5.9c2-0.6,4.2-0.6,6.3,0
			c0.2,0.1,0.8-0.3,0.7,0.3c0,0.9,0.5,1.8,0.4,2.8c-0.1,0.6,0.2,1.3,1.2,1.2c0.8-0.1,1.6-0.1,2.3,0c0.7,0,0.9-0.2,0.9-0.9
			c-0.1-2.3-0.1-4.5,0-6.8c0-0.9-0.4-1.2-1.1-1.3c-1.3-0.1-2.5-0.4-3.8-0.5c-3.5-0.5-7.1-0.1-10.5,1.2c-3.3,1.3-5.6,3.8-7,6.9
			c-1.2,2.7-1.8,5.6-1.7,8.5C307.7,51,307.6,53.6,308.5,56z"/>
		<path class="st0" d="M211.4,78.7c-0.5,0-0.7,0.1-0.7,0.7c0.1,2.7,0.1,5.3,0.1,8c1.2,0,2.5,0,3.8,0c0-0.1,0-0.3,0.1-0.4
			c-0.1-0.2,0-0.4,0.1-0.5c0.1-0.9,0.2-1.8,0.3-2.6c0,0,0-0.1,0-0.1c0.1-0.4,0.4-0.6,0.8-0.6c1.6,0,3.1,0,4.7,0c0.3,0,0.7,0,0.6,0.4
			c-0.1,0.5,0,1,0,1.5c0,6.7,0,13.5,0,20.2c0,2.1,0,2.1-2,2.4c-2.3,0.4-2.3,0.4-2.3,2.7c0,0.7,0.2,0.9,0.9,0.9c3.5,0,7,0,10.6,0
			c2.4,0,2.3,0,2.3-2.4c0-0.7-0.3-0.9-0.9-1c-0.9-0.1-1.8-0.3-2.7-0.4c-0.6,0-0.7-0.2-0.7-0.7c0-7.6,0-15.3,0-22.9
			c0-0.6,0.2-0.7,0.7-0.7c1.5,0,3,0,4.5,0c0.4,0,0.6,0,0.7,0.6c0.2,1.2,0.2,2.4,0.7,3.6l3.8,0.1l0-8.7
			C228.1,78.7,219.8,78.7,211.4,78.7z"/>
		<path class="st0" d="M271.5,35.9c0.2-0.2,0.3-0.2,0.4,0c0,0.3,0.1,0.5,0,0.8c0,7.6,0,15.3,0,22.9c0,0.3,0.2,0.7-0.2,1l-4,0.7v3.3
			c6.8,0,13.6,0,20.3,0c0.7,0,0.8-0.3,0.8-0.9c0-1.6,0-3.2,0-4.8c0-1,0.5-2.4-0.2-2.9c-0.7-0.5-2-0.2-3-0.2c-0.4,0-0.7,0-0.8,0.4
			c-0.2,1-0.3,2-0.4,3c0,0.7-0.2,0.9-0.9,0.9c-1.9,0-3.8-0.1-5.7,0c-0.8,0-0.9-0.2-0.9-0.9c0-3.6,0-7.1,0-10.7c0-3.9,0-7.9,0-11.8
			c0-0.9,0.3-1.2,1.1-1.1h0.3c2.6-0.1,2.8-0.4,2.8-3c0-0.6-0.1-0.8-0.8-0.8c-4.3,0-8.5,0-12.8,0c0,1,0,2.1,0,3.1
			c0.1,0.1,0.2,0.1,0.3,0.2C269.1,35.8,270.4,35.4,271.5,35.9z"/>
		<path class="st0" d="M303.5,61.2c-0.4,0-0.9-0.2-1.4-0.2c-1.8-0.1-1.8-0.1-1.8-1.9V37.9c0-2.1,0-2.1,2.1-2.3
			c2.1-0.2,2.1-0.2,2.1-2.3c0-0.4,0-0.8,0-1.2l-13.6-0.1c0,1,0,2.1,0,3.1c0.1,0,0.1,0.1,0.2,0.1c0.2-0.1,0.4,0,0.5,0.2
			c1.1,0.3,2.2,0.5,3.3,0.5c0.4,0.3,0.2,0.7,0.2,1c0,7.6,0,15.2,0,22.9c0,0.4,0.3,1-0.5,1c-1.2,0.2-2.4,0.4-3.5,0.5
			c-0.1,0-0.2,0.1-0.3,0.2c0,0.1-0.1,0.1-0.1,0.2c0,1,0.1,1.9,0.1,2.9h11.4c2.1,0,2.1,0,2.1-2.1C304.5,61.7,304.5,61.2,303.5,61.2z"
			/>
		<path class="st0" d="M217.2,29.1c0.2,0.3,0.5,0.5,0.8,0.7c0.3-0.2,0.5-0.3,0.7-0.4c2-1.2,4-2.5,6.1-3.6c0.9-0.5,1.2-0.9,0.4-1.8
			c-0.5-0.6-0.9-1.3-1.3-1.9c-0.3-0.5-0.5-0.6-1.1-0.2c-1.5,1.2-3.1,2.4-4.8,3.3c-0.7,0.4-1.3,0.8-1.8,1.4c-0.8,0.8,0.5,1.2,0.7,1.9
			C217,28.7,217.1,28.9,217.2,29.1z"/>
	</g>
	<g>
		<path class="st0" d="M58.7,46.5c-3-2.4-6.4-3.4-10.1-3.9c-0.5-0.1-0.6,0.2-0.6,0.7c0,1.1,0,2.2,0,3.3L58.7,46.5
			C58.7,46.5,58.7,46.5,58.7,46.5z"/>
		<path class="st0" d="M45.4,42.8C45.4,42.8,45.4,42.8,45.4,42.8C45.4,42.8,45.4,42.8,45.4,42.8c0.3-0.9,0.3-1.9,0-2.8
			c-0.1,0.1-0.2,0.1-0.4,0.2c0.1,0.9-0.1,1.8-0.4,2.6c-3.6,0.2-7,1.6-9.9,3.8c3.5,0,7.1,0,10.6,0C45.4,45.3,45.4,44,45.4,42.8z"/>
		<path class="st0" d="M69.8,64.5c-0.2-0.6-2.1-1.6-2.7-1.3c-1.9,0.6-3.9,1-5.9,1.4c-0.1-1.2-0.1-2.4,0-3.5c-0.2-0.7-0.2-1.4,0-2.1
			c0,0,0,0,0,0c1.6,0.2,3.2,0.6,4.8,1.2c0.8,0.3,1.1,0,0.9-0.8c-0.3-1.8-0.9-3.5-1.8-5.2c-1.3,0.4-2.6,0.7-3.9,0.9c0,0,0,0,0,0
			c1.3-0.2,2.6-0.5,3.9-0.9c0.1-0.4-0.5-0.7-0.3-1.2c1-0.1,1.9-0.1,2.7,0.4c0.2-0.1,0.1-0.3,0-0.5c-0.1-0.1-0.1-0.1-0.1-0.2v0
			c-1.1-0.4-2.3-0.8-3.4-1.1c-0.8,0.4-1.7,0.5-2.6,0.8c-0.1-0.5-0.1-1.1,0-1.6c0-0.5-0.1-1-0.1-1.4c0-2.5,0-2.5-2.4-2.7H47.9h-2.5
			c-3.5,0-7.1,0-10.6,0l-0.3,0c-2.4,0.1-2.3,0.1-2.3,2.4c0,2.2-0.1,4.5-0.1,6.7c0,0,0,0,0,0c-1.4-0.7-3-1.3-4.5-1.8
			c-0.7-0.2-1.5-0.6-2.3-0.1c-0.3,0.3-0.1,0.5,0,0.8c0.3-0.5,0.6-0.5,1.1-0.3c1.2,0.5,1.3,1.3,0.9,2.3c0.8,0.9,2,1.4,2.8,2.4
			c0.7,0.2,1.4-0.2,2.1-0.3c0-0.5,0.1-1,0.1-1.5c0,0.5,0,1-0.1,1.6c0.1,0.9,0.1,1.7,0,2.6c0,1.5,0,3,0,4.4c0,1.7,0.3,3.3,0.8,4.9
			c0.4,0.8,0.8,1.6,1.2,2.5c-1.4,0.3-2.7,0.6-4,1.2c0.5,0.2,0.9,0.3,1.4,0.4c-0.5-0.1-0.9-0.3-1.4-0.4c-1.1,0.2-2.1,0.4-2.6,1.6
			c0.1,0.1,0.2,0.2,0.3,0.2c0.1-0.1,0.2-0.2,0.3-0.3c0.9-0.7,2.1-0.5,2.8,0.3c0.4,0.7,1,1.2,1.7,1.6c0.1,0,0.3,0,0.3,0.2
			c1.8-0.1,3.5,0.7,5.2,0.8c0.6,0,1.2,0.1,1.7,0.1c0,0,0,0,0,0c0,0,0,0,0,0c-0.6,0-1.2-0.1-1.8-0.1c-1.8-0.1-3.5-0.8-5.2-0.8
			c0.4,0.5,0.8,1,1.3,1.3c3.1,2.4,6.8,3.9,10.7,4.3c0,0.8,0.4,1.6,0.2,2.4l0.4,0.2c0.2-0.9,0.2-1.8,0-2.7l-0.1-3c0,0,0,0,0,0h2.5
			c0.1,0,0.2,0,0.2,0c-0.1,0-0.1,0-0.2,0v0.9c0,2.4,0,2.5,2.4,2c4.1-0.8,7.7-2.5,10.6-5.5c0,0,0.1,0,0.1,0c0.5-0.1,0.7-0.6,1.1-1
			c0.3-0.4,0.6-0.6,1.1-0.3c0.5,0.3,1.3,0.3,1.2,1.2c0.5,0.2,0.6-0.1,0.5-0.5c-1.3-2.1-3.2-3.5-5.2-4.8c0.6-1.5,1.1-3.1,1.4-4.7
			c0,0,0,0,0,0c1.1,0.9,2.2,1.7,3.3,2.7c1.2,1,1.2,1,1.7-0.5c0.4-1.3,0.8-2.6,0.9-3.9c0.2-1.9,0.6-2.1,2.3-1.2c0,0,0,0,0.1,0.1
			C69.8,64.9,70,64.8,69.8,64.5z M60.2,66.4c0,6.2-5,12.1-11.1,13c-7.8,1.2-14.6-3.6-15.9-11.4C33,67,33,66.1,33.1,65.2
			c0-5.5,0-11.1,0-16.6c0-0.8,0.2-1.1,1-1.1c4.2,0,8.4,0,12.6,0v0c4.2,0,8.4,0,12.6,0c0.8,0,1,0.2,1,1.1
			C60.2,54.5,60.2,60.4,60.2,66.4z"/>
		<path class="st0" d="M31.3,67c-1.6-0.3-3.2-0.6-4.8-1c0.3,1.9,0.8,3.7,1.5,5.4c0.2,0.6,0.5,0.7,1.1,0.5c1.3-0.4,2.5-0.7,3.8-1.1
			c-0.5-1.6-0.8-3.2-0.8-4.9c0-0.1,0-0.1,0-0.2c0,0,0,0,0,0.1c0-0.2,0-0.4,0-0.5c0-1.3,0-2.6,0-3.8c-2,0.2-3.9,0.9-5.8,1.5
			c0.4,0.5,0.9,0.5,1.5,0.6c-0.5-0.1-1.1-0.1-1.5-0.6c-0.9,0.3-2,0.5-2.5,1.5c0,0,0,0,0,0.1c0.1,0.1,0.2,0.1,0.3,0.1
			c0.5-0.2,1.1-0.5,1.7-0.3c0.8,0.2,0.1,1.1,0.5,1.5c0.1,0.1,0.1,0.2,0.1,0.3C28,66.3,29.7,66.6,31.3,67c0.5,0.1,0.7,0,0.7-0.5
			c0-0.2,0-0.3,0.1-0.5c0,0.2,0,0.3-0.1,0.5C31.9,67,31.7,67.1,31.3,67z"/>
		<path class="st0" d="M30,59.1c-0.7-1-2-1.5-2.8-2.4c-0.4,1.1-0.6,2.3-0.8,3.5C27.7,59.8,28.8,59.4,30,59.1z"/>
		<path class="st0" d="M54.7,54.1c0-0.9-0.3-1-1.1-1c-2.3,0-4.7,0-7,0c-2.4,0-4.7,0-7.1,0c-0.7,0-0.9,0.2-0.9,0.9
			c0,4.1,0,8.2,0,12.3c0,0.6,0.1,1.1,0.3,1.6c1.1,3.8,4.8,6.4,8.5,6c4.1-0.5,7.2-3.9,7.2-8.1C54.7,61.9,54.7,58,54.7,54.1z
			 M43.5,63.8c0,1-0.8,1.8-1.8,1.9c-1,0-1.6-0.7-1.8-1.7c0-0.3-0.1-0.6-0.1-0.9c0-1.9,0-1.9,1.8-1.9c1.8,0,1.8,0,1.8,1.9
			C43.5,63.3,43.5,63.6,43.5,63.8z M46.7,71.9c-1.2,0-1.9-0.9-1.9-2.7c0-1.8,0-1.8,1.8-1.8h0c1.8,0,1.8,0,1.8,1.8
			S47.9,71.8,46.7,71.9z M44.8,63c0-1.8,0-1.8,1.8-1.8c1.8,0,1.8,0,1.8,1.8c0,1.8-0.5,2.7-1.7,2.7C45.5,65.7,44.8,64.8,44.8,63z
			 M46.6,59.5c-1.2,0-1.8-0.9-1.8-2.7c0-1.8,0-1.8,1.9-1.8c1.7,0,1.7,0,1.7,1.8C48.4,58.7,47.8,59.5,46.6,59.5z M53.4,64
			c-0.1,0.9-0.8,1.7-1.7,1.7c-1,0-1.8-0.7-1.8-1.7c0-0.4,0-0.8,0-1.2c0-0.3,0-0.7,0-1c0-0.5,0.2-0.6,0.6-0.6c0.2,0,0.4,0,0.7,0
			C53.7,61.2,53.7,61.3,53.4,64z"/>
		<path class="st0" d="M40.3,72.3c-0.1-0.2-0.2-0.4-0.4-0.5c-0.6-0.2-0.9-1.4-1.8-0.4c-0.1,0.1-0.3,0.2-0.3,0
			c-0.5-0.1-0.9,0.3-0.7,0.8c0.1,0.1,0.3,0.2,0.1,0.3c-1.1,0.5-0.2,1.1,0,1.5c1.3,2,1.3,2,3.1,0.3c0,0,0.1-0.1,0.1-0.1
			c0.3-0.4,0.8-0.7,0.9-1.1C41.4,72.4,40.5,72.7,40.3,72.3z M38.9,74.4L38.9,74.4L38.9,74.4L38.9,74.4c-0.3-0.5-0.6-0.9-0.1-1.4
			c0,0,0,0,0,0c0.3-0.2,0.7-0.1,0.9,0.2C40,73.8,39.3,74,38.9,74.4z"/>
		<path class="st0" d="M56.4,71.6c-0.1-0.2-0.4-0.5-0.5-0.4c-0.8,0.9-0.8-0.3-1.4-0.4c-0.3,0.4-1.5,1.6-2,1.8
			c-0.6,0.2-0.5,0.4-0.2,0.8c0.4,0.5,1,0.9,1.4,1.4c0.7,0.8,1.2,1.2,1.7-0.1c0.1-0.2,0.4-0.3,0.4-0.5c0.2-0.5,1.1-0.7,0.8-1.2
			C56.4,72.5,56.6,72.1,56.4,71.6z M54.9,73.6c0,0.3-0.1,0.8-0.5,0.7c-0.4-0.2-0.7-0.5-0.9-0.9C53.5,73,54,73,54.3,72.9
			c0.1,0,0.1,0,0.2,0C54.7,73,54.9,73.3,54.9,73.6z"/>
		<path class="st0" d="M47.2,52.4c0.9,0.1,1.7,0.1,1.2-1.2c-0.1-0.2-0.1-0.4,0-0.5c0.2-0.5-0.4-1,0-1.4c-0.2-0.2-0.5-0.1-0.8-0.1
			c-0.8,0,0.2,0.6-0.5,0.9c0-0.4,0-0.7,0-1.1c0.1-0.4-0.2-0.5-0.4-0.4c-0.6,0.2-1,0.8-1.7,0.8c0,0,0,0.1,0,0.1c-0.1,1,0,2-0.3,3
			C45.6,52.5,46.4,52.3,47.2,52.4z M47.4,51.4c0,0.6-0.5,0.2-0.7,0.3C46.5,51.7,46,52,46,51.4c0-0.4,0.3-0.7,0.7-0.7
			C47.1,50.7,47.4,51,47.4,51.4z M46,49.4c0.2-0.1,0.1,0.1,0.2,0.2h0c-0.1,0.1-0.1,0.2-0.2,0.3C46,49.8,46,49.7,46,49.6
			C46,49.5,46,49.5,46,49.4z"/>
		<path class="st0" d="M36.6,52.4c0.7,0,1.6,0.2,0.9-1.1c-0.1-0.3-0.1-0.6,0-0.9c0.4-1.2-0.9-1.3-1.2-1.9c-0.1-0.2-0.3-0.2-0.5-0.2
			c-0.3,0-0.6,0-0.4,0.5c0.1,0.3,0.2,0.7-0.4,1.2c0.3-0.8,0.4-1.2-0.4-1.1c-1,0.1-0.2,0.6-0.2,0.8c-0.2,0.8-0.6,1.9-0.3,2.3
			C34.6,52.8,35.8,52.4,36.6,52.4z M36.5,49.5c0,0,0.1,0.1,0.1,0.1v0c0,0.1,0,0.2-0.1,0.2c-0.1,0-0.1-0.1-0.1-0.2
			C36.4,49.6,36.5,49.5,36.5,49.5z M35.9,50.6c0.4,0,0.7,0.4,0.7,0.8c0,0.6-0.5,0.2-0.7,0.3l0,0c-0.2-0.1-0.7,0.2-0.7-0.3
			C35.2,51.1,35.4,50.6,35.9,50.6z"/>
		<path class="st0" d="M37.5,62.3c-0.1-0.3,0-0.5,0.1-0.8c0.3-1.1-0.7-1.3-1.2-1.8c-0.1-0.1-0.3-0.2-0.5-0.2c-0.4,0-0.5,0.1-0.4,0.5
			c0.1,0.4,0,0.8-0.3,1c0.3-1-0.2-1.1-0.8-0.9c-0.5,0.2,0,0.6-0.1,1c-0.6,2.3-0.6,2.3,1.8,2.3h0.3C37.1,63.5,38.3,63.9,37.5,62.3z
			 M36.6,62.6c-0.3,0.6-0.9,0.2-1.5,0.2c0.2-0.5,0.3-1.1,1-1C36.4,61.9,36.7,62.3,36.6,62.6z M36.5,61c0-0.1-0.1-0.2-0.1-0.3
			c0-0.1,0-0.2,0.2-0.1c0.1,0.1,0.1,0.2,0.1,0.3L36.5,61z"/>
		<path class="st0" d="M59,60.2c-0.3,0-0.6,0-0.9,0c-0.3,0.1,0.3,0.6-0.1,0.7c-0.8-0.3,0.5-1.4-0.6-1.4c-1.1,0-0.1,1-0.7,1.4
			c0-0.3,0-0.8-0.5-0.8c-0.2,0-0.4,0-0.4,0.3c-0.2,1,0.1,2-0.3,2.9c0.7,0.3,1.5,0.1,2.2,0.1c0.3,0,0.7,0,1,0c0.5,0,0.7-0.1,0.5-0.7
			C59.1,62,59,61.1,59,60.2z M57.4,62.9c-0.3-0.1-0.7,0.2-0.7-0.4c0-0.4,0.3-0.7,0.7-0.8c0.5,0,0.7,0.4,0.8,0.8
			C58.2,63.1,57.7,62.8,57.4,62.9z"/>
		<path class="st0" d="M59,49.8c-0.1-0.3,0.3-0.7-0.4-0.8c-0.8,0-0.3,0.6-0.5,0.9c-0.6-0.5,0.1-1.1-0.3-1.4
			c-0.6-0.4-0.7,0.4-1.1,0.6c-0.1,0-0.3,0-0.4,0c-0.2,0-0.4,0-0.4,0.3c-0.1,1,0,2-0.3,2.9c0.8,0.2,1.5,0.1,2.3,0.1
			c0.4,0,0.8,0,1.1,0c0.3,0,0.5-0.2,0.3-0.5C58.9,51.2,59.3,50.5,59,49.8z M56.8,49.3c0.1,0.1,0.1,0.2,0.1,0.3
			c0,0.1-0.1,0.2-0.1,0.3c0-0.1-0.1-0.2-0.1-0.3C56.6,49.5,56.7,49.4,56.8,49.3z M56.7,51.4c-0.2-0.3,0.2-0.7,0.6-0.8
			c0.7,0,0.8,0.5,0.9,1.1C57.6,51.7,57,52,56.7,51.4z"/>
	</g>
</g>
</svg>
