<svg xmlns="http://www.w3.org/2000/svg" width="204.27mm" height="35.65mm" viewBox="0 0 579.04 101.07"><title>logo_accessmonitor_02_v2-1</title><path d="M97.91,2.18a49.44,49.44,0,0,0,0,98.88h49.44V51.63A49.44,49.44,0,0,0,97.91,2.18Zm0,79.57A30.13,30.13,0,1,1,128,51.63c0,7.62-.78,30.41-.78,30.41S106.92,81.76,97.91,81.76Z" style="fill:#363795"/><circle cx="97.91" cy="51.63" r="12.86" style="fill:#363795"/><circle cx="12.86" cy="51.63" r="12.86" style="fill:#363795"/><path d="M189.89,44.88a12.29,12.29,0,0,1-8.1-2.58,8.31,8.31,0,0,1-3.12-6.72,8.07,8.07,0,0,1,3.3-6.81q3.3-2.49,9.06-2.49a20.52,20.52,0,0,1,4.32.45,24.2,24.2,0,0,1,4,1.23V24.72a6,6,0,0,0-1.92-4.86,8.35,8.35,0,0,0-5.52-1.62,16.44,16.44,0,0,0-4.38.63,33,33,0,0,0-5.1,1.95l-2.22-4.5A34.32,34.32,0,0,1,186.7,14a25.38,25.38,0,0,1,6.06-.75q5.94,0,9.21,2.85t3.27,8.07V44.34h-5.88V41.7A14.26,14.26,0,0,1,195,44.1,16.05,16.05,0,0,1,189.89,44.88Zm-5.46-9.42a4.26,4.26,0,0,0,1.89,3.6,8.2,8.2,0,0,0,5,1.38,13.25,13.25,0,0,0,4.44-.72,11,11,0,0,0,3.66-2.16V32.28a14.24,14.24,0,0,0-3.66-1.41,18.36,18.36,0,0,0-4.2-.45,8.67,8.67,0,0,0-5.16,1.38A4.3,4.3,0,0,0,184.43,35.46Z" style="fill:#363795"/><path d="M226,39.6a10.28,10.28,0,0,0,4.32-.93,13.43,13.43,0,0,0,3.9-2.79l3.6,3.9a17.67,17.67,0,0,1-5.52,3.75,16.32,16.32,0,0,1-6.54,1.35,15.46,15.46,0,0,1-14.49-9.57,16.17,16.17,0,0,1,3.33-17.52,15.41,15.41,0,0,1,5-3.36,15.59,15.59,0,0,1,6.18-1.23,17.65,17.65,0,0,1,12.3,5.1l-3.78,4.08a12.36,12.36,0,0,0-3.9-2.85,10.68,10.68,0,0,0-4.5-1,9.28,9.28,0,0,0-7,3.06A10.46,10.46,0,0,0,216,29a10.44,10.44,0,0,0,2.91,7.53A9.48,9.48,0,0,0,226,39.6Z" style="fill:#363795"/><path d="M255.63,39.6a10.28,10.28,0,0,0,4.32-.93,13.43,13.43,0,0,0,3.9-2.79l3.6,3.9a17.67,17.67,0,0,1-5.52,3.75,16.32,16.32,0,0,1-6.54,1.35,15.46,15.46,0,0,1-14.49-9.57,16.17,16.17,0,0,1,3.33-17.52,15.4,15.4,0,0,1,5-3.36,15.59,15.59,0,0,1,6.18-1.23,17.65,17.65,0,0,1,12.3,5.1l-3.78,4.08a12.36,12.36,0,0,0-3.9-2.85,10.68,10.68,0,0,0-4.5-1,9.28,9.28,0,0,0-7,3.06A10.46,10.46,0,0,0,245.61,29a10.44,10.44,0,0,0,2.91,7.53A9.48,9.48,0,0,0,255.63,39.6Z" style="fill:#363795"/><path d="M297.09,40.86a18.39,18.39,0,0,1-11.82,4,16.32,16.32,0,0,1-11.4-4.56,15.09,15.09,0,0,1-3.39-5,16.55,16.55,0,0,1,0-12.45,15.75,15.75,0,0,1,3.24-5,15.11,15.11,0,0,1,4.86-3.33,14.84,14.84,0,0,1,6-1.23,14.23,14.23,0,0,1,10.53,4.59A16,16,0,0,1,298.17,23a17.29,17.29,0,0,1,1.14,6.3V31H275.19a10.32,10.32,0,0,0,10.32,8.76,12.7,12.7,0,0,0,4.26-.72,10.56,10.56,0,0,0,3.48-2Zm-12.66-22.5a8.68,8.68,0,0,0-6,2.28,10.07,10.07,0,0,0-3.21,5.88h18.12a10.44,10.44,0,0,0-3.15-5.82A8.19,8.19,0,0,0,284.43,18.36Z" style="fill:#363795"/><path d="M301.41,40.38l3.24-4a20.16,20.16,0,0,0,4.89,2.85,13.61,13.61,0,0,0,5.07,1A9.92,9.92,0,0,0,319.89,39a3.77,3.77,0,0,0,2-3.3,3.13,3.13,0,0,0-1.2-2.58A7.73,7.73,0,0,0,317,31.8L311.49,31a12.51,12.51,0,0,1-6.81-2.79,7.34,7.34,0,0,1-2.31-5.67,8.05,8.05,0,0,1,3.3-6.69,13.73,13.73,0,0,1,8.64-2.55,21,21,0,0,1,6.39,1,22.29,22.29,0,0,1,5.91,2.94l-3.06,4a19.53,19.53,0,0,0-4.89-2.43,15.73,15.73,0,0,0-4.77-.75,7.77,7.77,0,0,0-4.44,1.14,3.48,3.48,0,0,0-1.68,3,3,3,0,0,0,1.17,2.55A9,9,0,0,0,312.81,26l5.52.78a12.74,12.74,0,0,1,6.87,2.82,7.34,7.34,0,0,1,2.37,5.7,7.67,7.67,0,0,1-1,3.81,9.48,9.48,0,0,1-2.7,3,13.93,13.93,0,0,1-4,2,16.42,16.42,0,0,1-5,.75,23.48,23.48,0,0,1-7.41-1.14A17,17,0,0,1,301.41,40.38Z" style="fill:#363795"/><path d="M329.28,40.38l3.24-4a20.14,20.14,0,0,0,4.89,2.85,13.61,13.61,0,0,0,5.07,1A9.92,9.92,0,0,0,347.75,39a3.77,3.77,0,0,0,2-3.3,3.13,3.13,0,0,0-1.2-2.58,7.74,7.74,0,0,0-3.72-1.32L339.36,31a12.51,12.51,0,0,1-6.81-2.79,7.34,7.34,0,0,1-2.31-5.67,8.05,8.05,0,0,1,3.3-6.69,13.73,13.73,0,0,1,8.64-2.55,21,21,0,0,1,6.39,1,22.29,22.29,0,0,1,5.91,2.94l-3.06,4a19.55,19.55,0,0,0-4.89-2.43,15.75,15.75,0,0,0-4.77-.75,7.77,7.77,0,0,0-4.44,1.14,3.48,3.48,0,0,0-1.68,3,3,3,0,0,0,1.17,2.55A9,9,0,0,0,340.67,26l5.52.78a12.73,12.73,0,0,1,6.87,2.82,7.34,7.34,0,0,1,2.37,5.7,7.67,7.67,0,0,1-1,3.81,9.48,9.48,0,0,1-2.7,3,13.94,13.94,0,0,1-4,2,16.43,16.43,0,0,1-5,.75,23.49,23.49,0,0,1-7.41-1.14A16.93,16.93,0,0,1,329.28,40.38Z" style="fill:#363795"/><path d="M383.26,41.34l-14.52-27.9v30.9h-8v-42h11.16L383.38,24.9,394.9,2.34h11.16v42h-8.22V13.5Z" style="fill:#363795"/><path d="M411.4,28.74a15.87,15.87,0,0,1,1.29-6.39,16.05,16.05,0,0,1,3.54-5.16,16.58,16.58,0,0,1,5.31-3.45,17.6,17.6,0,0,1,13.08,0,16.58,16.58,0,0,1,5.31,3.45,16.07,16.07,0,0,1,3.54,5.16,16.47,16.47,0,0,1,0,12.78,15.7,15.7,0,0,1-3.54,5.13,16.81,16.81,0,0,1-5.31,3.42,17.6,17.6,0,0,1-13.08,0,16.81,16.81,0,0,1-5.31-3.42,15.69,15.69,0,0,1-3.54-5.13A15.87,15.87,0,0,1,411.4,28.74Zm16.68,9.06a8.14,8.14,0,0,0,6.12-2.64,9,9,0,0,0,2.52-6.42,9,9,0,0,0-2.52-6.48,8.42,8.42,0,0,0-12.24,0,9,9,0,0,0-2.52,6.48A9,9,0,0,0,422,35.16,8.14,8.14,0,0,0,428.08,37.8Z" style="fill:#363795"/><path d="M449.2,44.34V13.08h8.22v2.46a13,13,0,0,1,4-2.28,14.13,14.13,0,0,1,4.77-.78A11.92,11.92,0,0,1,478.54,24.9V44.34h-8.22V26.1a6.47,6.47,0,0,0-1.77-4.74,6.31,6.31,0,0,0-4.71-1.8,8.24,8.24,0,0,0-3.69.81,7.26,7.26,0,0,0-2.73,2.31V44.34Z" style="fill:#363795"/><path d="M488.48,9.36A4.5,4.5,0,0,1,485.18,8a4.5,4.5,0,0,1-1.38-3.3,4.5,4.5,0,0,1,1.38-3.3,4.63,4.63,0,0,1,6.6,0,4.5,4.5,0,0,1,1.38,3.3A4.5,4.5,0,0,1,491.78,8,4.5,4.5,0,0,1,488.48,9.36Zm4.14,3.72V44.34H484.4V13.08Z" style="fill:#363795"/><path d="M502.27,35.52V20h-6.42v-6.9h6.42v-8l8.22-1.86v9.84h8.88V20h-8.88V33.84a4.17,4.17,0,0,0,1,3.12,4.9,4.9,0,0,0,3.36.9,14.92,14.92,0,0,0,2.16-.15,12.16,12.16,0,0,0,2.22-.57v6.72a20,20,0,0,1-3.18.69,22.7,22.7,0,0,1-3.18.27q-5.22,0-7.89-2.37T502.27,35.52Z" style="fill:#363795"/><path d="M521.25,28.74a15.87,15.87,0,0,1,1.29-6.39,16.05,16.05,0,0,1,3.54-5.16,16.58,16.58,0,0,1,5.31-3.45,17.6,17.6,0,0,1,13.08,0,16.58,16.58,0,0,1,5.31,3.45,16.07,16.07,0,0,1,3.54,5.16,16.47,16.47,0,0,1,0,12.78,15.7,15.7,0,0,1-3.54,5.13,16.81,16.81,0,0,1-5.31,3.42,17.6,17.6,0,0,1-13.08,0,16.81,16.81,0,0,1-5.31-3.42,15.69,15.69,0,0,1-3.54-5.13A15.87,15.87,0,0,1,521.25,28.74Zm16.68,9.06a8.14,8.14,0,0,0,6.12-2.64,9,9,0,0,0,2.52-6.42,9,9,0,0,0-2.52-6.48,8.42,8.42,0,0,0-12.24,0,9,9,0,0,0-2.52,6.48,9,9,0,0,0,2.52,6.42A8.14,8.14,0,0,0,537.94,37.8Z" style="fill:#363795"/><path d="M559.06,44.34V13.08h8.22V16.5a9.93,9.93,0,0,1,3.63-3.09,10.52,10.52,0,0,1,4.71-1.05,15.82,15.82,0,0,1,2,.21,4.2,4.2,0,0,1,1.41.51v7.2a8.47,8.47,0,0,0-2-.63,11.57,11.57,0,0,0-2.22-.21,8.43,8.43,0,0,0-4.41,1.2,8.21,8.21,0,0,0-3.15,3.48V44.34Z" style="fill:#363795"/><path d="M264.16,79.89a3.26,3.26,0,0,0-2.45,1.06,3.8,3.8,0,0,0,0,5.16,3.37,3.37,0,0,0,4.9,0,3.81,3.81,0,0,0,0-5.16A3.26,3.26,0,0,0,264.16,79.89Z" style="fill:#363795"/><path d="M249.69,84.52a3.18,3.18,0,0,0-1.76.42,1.35,1.35,0,0,0,0,2.28,2.92,2.92,0,0,0,1.66.42,5.24,5.24,0,0,0,1.5-.2,4.65,4.65,0,0,0,1.26-.59V85a6,6,0,0,0-1.26-.35A8.63,8.63,0,0,0,249.69,84.52Z" style="fill:#363795"/><path d="M216.58,80.48a2.85,2.85,0,0,0-1.91-.71,2.93,2.93,0,0,0-1.94.68,3.53,3.53,0,0,0-1.13,1.84h6.12A3.62,3.62,0,0,0,216.58,80.48Z" style="fill:#363795"/><path d="M178.68,61.54v39.31H320.13V61.54Zm67.63,11.29a2.3,2.3,0,0,1,1.74-.72,2.72,2.72,0,0,1,1,.19q.49.19.94.41l.85.41a1.76,1.76,0,0,0,.74.19.77.77,0,0,0,.62-.29,2.54,2.54,0,0,0,.41-1l2,.43a4.56,4.56,0,0,1-1,2.2,2.28,2.28,0,0,1-1.74.73,2.57,2.57,0,0,1-1-.19q-.48-.19-.92-.41l-.86-.41a1.89,1.89,0,0,0-.78-.19.73.73,0,0,0-.61.3,2.78,2.78,0,0,0-.4,1l-2-.43A4.49,4.49,0,0,1,246.32,72.83ZM202.89,89.78h-3.17l-5.38-12.5h3.58l3.43,8.33,3.41-8.33h3.5Zm18-5.14h-9.31a3.5,3.5,0,0,0,1.3,1.9,3.65,3.65,0,0,0,2.26.72,4.41,4.41,0,0,0,1.54-.26,3.49,3.49,0,0,0,1.22-.74l2.16,2A7.52,7.52,0,0,1,215,90a7,7,0,0,1-2.65-.5,6.69,6.69,0,0,1-2.14-1.37,6.27,6.27,0,0,1-1.42-2.05,6.34,6.34,0,0,1-.52-2.56,6.55,6.55,0,0,1,.49-2.53,6.38,6.38,0,0,1,1.36-2.06,6.3,6.3,0,0,1,2.05-1.38,6.42,6.42,0,0,1,2.53-.5,5.9,5.9,0,0,1,2.46.52,6.11,6.11,0,0,1,2,1.4,6.39,6.39,0,0,1,1.3,2.12,7.48,7.48,0,0,1,.47,2.68Zm10-4.49a3.47,3.47,0,0,0-.79-.25,4.67,4.67,0,0,0-.89-.08,3.38,3.38,0,0,0-1.76.48,3.28,3.28,0,0,0-1.26,1.39v8.09H223V77.27h3.29v1.37a4,4,0,0,1,1.45-1.24,4.21,4.21,0,0,1,1.88-.42,6.32,6.32,0,0,1,.8.08,1.69,1.69,0,0,1,.56.2Zm11.61,7.38a4.23,4.23,0,0,1-1.14,1.31,5.44,5.44,0,0,1-1.73.86,7.35,7.35,0,0,1-2.18.31,11.11,11.11,0,0,1-3.19-.44,7.45,7.45,0,0,1-2.54-1.28l1.63-2.18a10,10,0,0,0,2.09,1.07,5.88,5.88,0,0,0,2,.35,3.69,3.69,0,0,0,1.76-.36,1.08,1.08,0,0,0,.66-1,.92.92,0,0,0-.37-.77,2.59,2.59,0,0,0-1.19-.41l-2.4-.36a5.19,5.19,0,0,1-2.82-1.2,3.17,3.17,0,0,1-1-2.42,3.44,3.44,0,0,1,1.42-2.88,6.1,6.1,0,0,1,3.79-1.08,9,9,0,0,1,2.66.4,9.68,9.68,0,0,1,2.47,1.16l-1.58,2.11a10.12,10.12,0,0,0-2-.9,6.17,6.17,0,0,0-1.9-.3,2.67,2.67,0,0,0-1.43.34,1,1,0,0,0-.54.89.9.9,0,0,0,.4.78,3.09,3.09,0,0,0,1.31.4l2.4.36a5.07,5.07,0,0,1,2.82,1.2,3.12,3.12,0,0,1,1,2.38A3.34,3.34,0,0,1,242.55,87.53Zm13,2.24h-3.24v-.86a5.86,5.86,0,0,1-1.67.82,6.78,6.78,0,0,1-2,.26,4.94,4.94,0,0,1-3.29-1.07,3.45,3.45,0,0,1-1.27-2.77,3.27,3.27,0,0,1,1.37-2.78,6.23,6.23,0,0,1,3.77-1,9.93,9.93,0,0,1,3,.48V82a2,2,0,0,0-.67-1.63,3,3,0,0,0-2-.55A6.54,6.54,0,0,0,248,80a14.56,14.56,0,0,0-2.1.78l-1.2-2.42a15.89,15.89,0,0,1,2.84-1,11.5,11.5,0,0,1,2.72-.34,5.82,5.82,0,0,1,3.92,1.21,4.27,4.27,0,0,1,1.4,3.42Zm14.75-3.68a6.27,6.27,0,0,1-1.42,2.05,6.72,6.72,0,0,1-2.12,1.37,7,7,0,0,1-5.23,0,6.72,6.72,0,0,1-2.12-1.37A6.27,6.27,0,0,1,258,86.09,6.58,6.58,0,0,1,258,81a6.41,6.41,0,0,1,1.42-2.06,6.62,6.62,0,0,1,2.12-1.38,7,7,0,0,1,5.23,0,6.62,6.62,0,0,1,2.12,1.38A6.41,6.41,0,0,1,270.32,81a6.58,6.58,0,0,1,0,5.11Zm19.09,3.68H277.29v-2.3l6.62-5.93a9.08,9.08,0,0,0,1.61-1.81,3,3,0,0,0,.48-1.62,2.27,2.27,0,0,0-.86-1.82,3.26,3.26,0,0,0-2.16-.72,5.3,5.3,0,0,0-2.24.48,9.32,9.32,0,0,0-2.27,1.58l-1.85-2.21a10.73,10.73,0,0,1,3.1-2,8.74,8.74,0,0,1,3.36-.67,8,8,0,0,1,2.48.37,5.8,5.8,0,0,1,1.94,1,4.63,4.63,0,0,1,1.25,1.63,4.91,4.91,0,0,1,.44,2.09,5.16,5.16,0,0,1-.72,2.66,12.66,12.66,0,0,1-2.5,2.81L281.87,87h7.54Zm5.88-.34a1.9,1.9,0,0,1-1.39.58,2,2,0,0,1-1.94-1.94,1.9,1.9,0,0,1,.58-1.39,1.87,1.87,0,0,1,1.37-.58,2,2,0,0,1,2,2A1.87,1.87,0,0,1,295.28,89.44Zm7.89.34h-3.29V76.31l-3.29,1.34V74.8L301.08,73h2.09Z" style="fill:#363795"/></svg>