<svg xmlns="http://www.w3.org/2000/svg" width="24" height="24" viewBox="0 0 24 24"><title>icon_globe_language</title><path d="M13.14,8.17c0-.07.34-.1.41-.1S13.36,8.52,13.14,8.17ZM11,5.1c0,.06.09,0,.11,0S11,5.16,11,5.2a.38.38,0,0,1,0,.33c0,.08-.1,0-.15.09s.26.08.26.08-.37.09-.3.17.82-.2.71-.18c.22-.11,0-.12-.1-.19a1.54,1.54,0,0,0-.21-.68s.11-.07.09-.1C11.15,4.44,11,5.1,11,5.1ZM24,12A12,12,0,1,1,12,0,12,12,0,0,1,24,12ZM15.69,6.63c0-.15-.19-.28-.38,0s-.11.44-.18.56.57.34.57.17.73-.06.87,0,.64-.23.21-.38-.54-.27-.58-.52c0,0,.19-.18.11-.17S15.69,7,15.69,6.63ZM22,12a9.52,9.52,0,0,0-.36-2.63A.61.61,0,0,0,21.27,9c-.26-.1-1.34.6-1.5.25s-.32.15-.57,0-.45-.51-.61-.46c-.31.11.47,1,.69,1.08.2-.15.85-.46,1,0,.27.8-.74,1.68-1.25,2.15-.77.69-.62-.45-1.15-.85-.28-.21-.27-.66-.55-.82a3.42,3.42,0,0,1-.69-.81.25.25,0,0,1,0,.17c-.09.07-.29-.27-.32-.32,0,.29.48.76.64,1a8.6,8.6,0,0,0,.75,1.33c.18.18.86.91,1,.9s.8-.46.91-.43c.64.15-1.52,3.21-1.72,3.58s.14,1.1.11,1.48-.37.57-.69.81-.26.75-.56.92c-.52.32-.89,1.35-1.62,1.35-.22,0-1.14.36-1.26,0a5.69,5.69,0,0,0-.35-.7c-.13-.25,0-.5-.17-.72s-.47-.5-.51-.68.12-.63.28-.71,0-.46,0-.66a1.33,1.33,0,0,0-.53-.85c-.39-.3-.19-.54-.1-1,0-.2-.12-.47-.4-.39-.56.16-.39-.44-.8-.41a3.85,3.85,0,0,0-.81.29c-.35.1-.7-.08-1-.12-1.41-.18-1.87-1.79-1.5-2.95,0-.19-.11-.54,0-.69a3.61,3.61,0,0,1,.76-1c.16-.15.36-.11.55-.23s.29-.55.57-.78a2.81,2.81,0,0,1,1.47-.39c.28,0,1.34-.27,1.5-.06,0,0,.19.6,0,.57.43,0,1,.75,1.46.58.21-.09.13-.74.57-.42a2.49,2.49,0,0,0,1.68.07c.15-.12.23-.93.05-1,.12.12-.61.12-.68.1s-.23.11-.42,0c.12.05-.65-.35-.22-.67-.18.13-.35,0-.54.11s.06.18-.13.27-.53-.53-.64-.6-1-.71-.77-.29.89.72.79.79-.21-.29-.21-.06c.05-.13,0,.58-.1.35s.09-.14,0-.27-.23-.17-.27-.23A2.73,2.73,0,0,0,12.69,7a5.12,5.12,0,0,0-.82.11,1.76,1.76,0,0,0-.18.31,2,2,0,0,0-.42.21c-.1.09-.08.29-.16.35s-.76.29-.77.3-.49-.17-.45-.32a3,3,0,0,0,.17-.87c0-.2,1.07.28,1.15-.24,0-.22,0-.49-.31-.53a2.65,2.65,0,0,0,.8-.36,1.28,1.28,0,0,1,.72-.44c.28,0,.22-.41.35-.62.13.05-.07.38.09.51,0-.1.45.06.49,0s.68,0,.59-.3.05-.2.18-.25c0,0,.34-.62.4-.41,0-.21-.42.07-.55.06-.3,0-.18-.52-.06-.66s-.24-.26-.25,0-.31.63-.24,1.06c.11.66-.74-.16-.81-.11-.28.17-.51-.21-.36-.44s.5-.22.65-.48a2,2,0,0,1,.38-.52c.54-.45.68-.09,1.22,0s.18.12.1.32.29.26.41.1a2.6,2.6,0,0,0,.3-.49c.09-.22.9-.2.33-.54A8.9,8.9,0,0,0,12.55,2c-.24,0-.4.26-.58.41-.36.29-1.27.87-1.78.7s-1.63.66-1.81.67,0-.63.36-.68c-.15,0,1.25-.71,1.21-.86a6.65,6.65,0,0,0-2.68,1c.06.09.3.09,0,.29s-.37.8-.54.8c-.5.22-.54-.43-1.1.41-.11.16-.71.18-.89.36a10,10,0,0,0-2.58,5.18c0,.08.33.23.38.28s.11.71.17.9a5.11,5.11,0,0,0,.74,1.18,2.23,2.23,0,0,1,.33,1.19c.11-.18,1.07.82,1.25,1,.41.49.73,1.08.06,1.56-.22.16.33,1.13,0,1.37,0,0-.27,0-.36.09-.36.22-.2.76,0,1A10,10,0,0,0,22,12ZM10.48,5.64c.13-.05.29-.05.31-.22s0,0,.08-.1-.07-.14-.11-.15-.11.07-.15.1,0,0-.07,0a.61.61,0,0,0-.07.09s0,0,0,0-.07.09-.09.11,0,.14.09.1Z"/></svg>