<?xml version="1.0" encoding="utf-8"?>
<!-- Generator: Adobe Illustrator 24.0.2, SVG Export Plug-In . SVG Version: 6.00 Build 0)  -->
<svg version="1.1" id="Layer_1" xmlns="http://www.w3.org/2000/svg" xmlns:xlink="http://www.w3.org/1999/xlink" x="0px" y="0px"
	 viewBox="0 0 388 119.8" style="enable-background:new 0 0 388 119.8;" xml:space="preserve">
<style type="text/css">
	.st0{fill:#999999;}
</style>
<path class="st0" d="M239.8,47l-1.5-3.9h-5.6l-1.5,3.9h-1.9l5.3-13.6h1.7l5.3,13.6H239.8z M235.5,35.9l-2.2,5.5h4.3L235.5,35.9z"/>
<path class="st0" d="M252.9,47h-1.5v-1.4c-0.8,1.1-1.9,1.6-3.3,1.6c-1.8,0-3.4-0.8-4.3-2.3c-0.8-1.2-1.1-2.5-1.1-4.6
	s0.3-3.4,1.1-4.6c1-1.5,2.6-2.4,4.4-2.3c1.8,0,2.9,0.6,4.5,2.4l-1.3,1.1c-1.3-1.5-2-1.8-3.2-1.8c-1.3,0-2.3,0.5-3,1.6
	c-0.6,0.9-0.8,1.9-0.8,3.7c0,1.9,0.2,2.9,0.8,3.7c0.6,1,1.7,1.6,2.9,1.6c1,0,1.8-0.5,2.4-1.4c0.5-0.8,0.7-1.7,0.7-2.9h-3.4v-1.7h5.1
	L252.9,47z"/>
<path class="st0" d="M255.7,47V33.4h8.8v1.7h-7.1v4h6.2v1.7h-6.2v4.5h7.1V47L255.7,47L255.7,47z M261.2,31.9l-1.2-2l-1.2,2h-2
	L259,29h2l2.3,2.9H261.2z"/>
<path class="st0" d="M274.9,47l-6.2-10.2V47H267V33.4h1.6l6.2,10.2V33.4h1.7V47H274.9z"/>
<path class="st0" d="M287.5,36.7c-1.3-1.5-1.9-1.8-3.2-1.8c-1.3,0-2.3,0.5-3,1.6c-0.6,0.9-0.8,1.9-0.8,3.7s0.2,2.9,0.8,3.7
	c0.7,1,1.7,1.6,3,1.6c1.2,0,1.9-0.3,3.2-1.8l1.3,1.1c-1.6,1.8-2.7,2.4-4.5,2.4c-1.8,0-3.4-0.8-4.4-2.3c-0.8-1.2-1.1-2.5-1.1-4.6
	s0.3-3.4,1.1-4.6c1-1.5,2.6-2.4,4.4-2.3c1.8,0,2.9,0.6,4.5,2.4L287.5,36.7z"/>
<path class="st0" d="M291.2,47V33.4h1.8V47H291.2z"/>
<path class="st0" d="M305.3,47l-1.5-3.9h-5.6l-1.5,3.9h-1.9l5.3-13.6h1.7l5.3,13.6H305.3z M300.9,35.9l-2.2,5.5h4.3L300.9,35.9z"/>
<path class="st0" d="M322.3,40.5c-0.9,0.6-2.1,0.6-3,0.6h-3.4V47h-1.7V33.4h5.1c0.9,0,2,0.1,3,0.6c1.1,0.7,1.6,1.8,1.6,3.2
	S323.4,39.9,322.3,40.5z M321.4,35.4c-0.5-0.3-1.3-0.4-2.1-0.4h-3.4v4.4h3.4c0.8,0,1.5-0.1,2.1-0.4c0.5-0.3,0.8-0.9,0.8-1.8
	S321.9,35.8,321.4,35.4L321.4,35.4z"/>
<path class="st0" d="M333.5,47L332,43h-5.6l-1.5,3.9H323l5.3-13.6h1.7l5.3,13.6H333.5z M329.2,35.9l-2.2,5.5h4.3L329.2,35.9z"/>
<path class="st0" d="M345,47c0,0-1.5-2.5-2.9-4.8c-0.2-0.4-0.4-0.8-0.8-1c-0.2-0.2-0.6-0.3-0.9-0.3h-1.7V47h-1.7V33.4h4.8
	c0.9,0,2,0.1,2.9,0.6c1,0.6,1.6,1.8,1.6,3.1c0,1.3-0.6,2.5-1.6,3.1c-0.4,0.3-0.9,0.4-1.4,0.5c0.1,0.2,0.2,0.4,0.3,0.5
	c1.6,2.6,3.4,5.6,3.4,5.6H345z M343.7,35.4c-0.5-0.3-1.2-0.4-2-0.4h-3v4.1h3.1c0.7,0,1.5-0.1,1.9-0.4c0.5-0.3,0.8-0.9,0.8-1.7
	C344.6,36.3,344.2,35.7,343.7,35.4z"/>
<path class="st0" d="M358.1,47l-1.5-3.9H351l-1.5,3.9h-1.9l5.3-13.6h1.7L360,47H358.1z M353.8,35.9l-2.2,5.5h4.3L353.8,35.9z"/>
<path class="st0" d="M376.3,47l-1.5-3.9h-5.6l-1.5,3.9h-1.9l5.3-13.6h1.7l5.3,13.6H376.3z M372,35.9l-2.2,5.5h4.3L372,35.9z"/>
<path class="st0" d="M240.3,68.1v-8.8l-3.3,8.8h-1.5l-3.3-8.7v8.7h-1.7V54.6h1.4l4.3,11l4.1-11h1.6v13.6H240.3z"/>
<path class="st0" d="M255,66c-1.7,2.4-5,3.1-7.4,1.4c-0.5-0.4-1-0.8-1.4-1.4c-0.8-1.2-1.1-2.5-1.1-4.6s0.3-3.4,1.1-4.6
	c1.7-2.4,5-3.1,7.4-1.4c0.5,0.4,1,0.8,1.4,1.4c0.8,1.2,1.1,2.5,1.1,4.6S255.8,64.8,255,66z M253.6,57.6c-0.7-1-1.7-1.6-3-1.6
	c-1.3,0-2.3,0.5-3,1.6c-0.6,0.9-0.8,1.9-0.8,3.7s0.2,2.9,0.8,3.7c0.7,1,1.7,1.6,3,1.6c1.3,0,2.3-0.5,3-1.6c0.6-0.9,0.8-1.9,0.8-3.7
	S254.2,58.5,253.6,57.6z"/>
<path class="st0" d="M269,64.4c-0.4,3.3-2.9,3.8-5.6,3.8h-4.2V54.6h4.2c2.7,0,5.1,0.5,5.6,3.8c0.1,0.4,0.2,1.9,0.2,3
	S269,63.9,269,64.4z M267.3,58.5c-0.1-1.1-0.5-1.6-1.1-1.9c-0.7-0.3-1.8-0.4-2.8-0.4h-2.5v10.2h2.5c1,0,2-0.1,2.8-0.4
	c0.6-0.3,1-0.8,1.1-1.9c0.1-0.4,0.1-1.8,0.1-2.8C267.4,60.4,267.3,58.9,267.3,58.5z"/>
<path class="st0" d="M272.4,68.1V54.6h8.8v1.7h-7.1v4h6.2v1.7h-6.2v4.5h7.1v1.7H272.4z"/>
<path class="st0" d="M292.5,68.1c0,0-1.5-2.5-2.9-4.8c-0.2-0.4-0.4-0.8-0.8-1c-0.2-0.2-0.6-0.3-0.9-0.3h-1.7v6.1h-1.7V54.6h4.8
	c0.9,0,2,0.1,2.9,0.6c1,0.6,1.6,1.8,1.6,3.1c0,1.3-0.6,2.5-1.6,3.1c-0.4,0.3-0.9,0.4-1.4,0.5c0.1,0.2,0.2,0.4,0.3,0.5
	c1.6,2.6,3.4,5.6,3.4,5.6H292.5z M291.2,56.6c-0.5-0.3-1.2-0.4-2-0.4h-3v4.1h3.1c0.7,0,1.5-0.1,1.9-0.4c0.5-0.3,0.8-0.9,0.8-1.7
	S291.7,56.9,291.2,56.6z"/>
<path class="st0" d="M305,68.1L298.8,58v10.2h-1.7V54.6h1.6l6.2,10.2V54.6h1.7v13.6H305z"/>
<path class="st0" d="M310.4,68.1V54.6h1.8v13.6H310.4z"/>
<path class="st0" d="M315.3,68.1v-1.4l7.3-10.6H316v-1.7h8.9V56l-7.3,10.5h7.3v1.7L315.3,68.1z"/>
<path class="st0" d="M337.4,68.1l-1.5-3.9h-5.6l-1.5,3.9h-1.9l5.3-13.6h1.7l5.3,13.6H337.4z M333.1,57l-2.2,5.5h4.3L333.1,57z"/>
<path class="st0" d="M349.8,57.9c-1.3-1.5-1.9-1.8-3.2-1.8c-1.3,0-2.3,0.5-3,1.6c-0.6,0.9-0.8,1.9-0.8,3.7s0.2,2.9,0.8,3.7
	c0.7,1,1.7,1.6,3,1.6c1.2,0,1.9-0.3,3.2-1.8l1.3,1.1c-1.3,1.5-2.2,2.2-3.5,2.4l0.4,1.2l-1.3,2.5h-1.9l1.8-2.6l-0.4-1.1
	c-1.6-0.1-3.1-1-3.9-2.3c-0.8-1.2-1.1-2.5-1.1-4.6s0.3-3.4,1.1-4.6c1-1.5,2.6-2.4,4.4-2.3c1.8,0,2.9,0.6,4.5,2.4L349.8,57.9z"/>
<path class="st0" d="M363.5,68.1l-1.5-3.9h-5.6l-1.5,3.9h-1.9l5.3-13.6h1.7l5.3,13.6H363.5z M362.3,52.4c-1.1,1.3-2.2,1-3.2,0.6
	c-0.3-0.1-0.7-0.3-1-0.4c-0.5-0.1-0.6,0-0.9,0.3c-0.1,0.1-0.1,0.2-0.3,0.3l-1.1-0.9c1.1-1.4,2-1.6,3.7-0.7c0.4,0.2,1.1,0.5,1.5,0.2
	c0.2-0.2,0.3-0.4,0.5-0.6l1.1,0.9L362.3,52.4z M359.1,57l-2.2,5.5h4.3L359.1,57z"/>
<path class="st0" d="M377.1,66c-1.7,2.4-5,3.1-7.4,1.4c-0.5-0.4-1-0.8-1.4-1.4c-0.8-1.2-1.1-2.5-1.1-4.6s0.3-3.4,1.1-4.6
	c1.7-2.4,5-3.1,7.4-1.4c0.5,0.4,1,0.8,1.4,1.4c0.8,1.2,1.1,2.5,1.1,4.6S377.9,64.8,377.1,66z M375.6,57.6c-0.7-1-1.7-1.6-3-1.6
	s-2.3,0.5-3,1.6c-0.6,0.9-0.8,1.9-0.8,3.7s0.2,2.9,0.8,3.7c0.7,1,1.7,1.6,3,1.6s2.3-0.5,3-1.6c0.6-0.9,0.8-1.9,0.8-3.7
	S376.2,58.5,375.6,57.6z"/>
<path class="st0" d="M239.8,89.4l-1.5-3.9h-5.6l-1.5,3.9h-1.8l5.3-13.6h1.7l5.3,13.6L239.8,89.4L239.8,89.4z M235.5,78.3l-2.2,5.5
	h4.3L235.5,78.3z"/>
<path class="st0" d="M253.1,85.6c-0.4,3.3-2.9,3.8-5.6,3.8h-4.2V75.8h4.2c2.7,0,5.1,0.5,5.6,3.8c0.1,0.4,0.2,1.9,0.2,3
	S253.2,85.1,253.1,85.6z M251.4,79.7c-0.1-1.1-0.5-1.6-1.1-1.9c-0.7-0.3-1.8-0.4-2.8-0.4H245v10.2h2.5c1,0,2-0.1,2.8-0.4
	c0.6-0.3,1-0.8,1.1-1.9c0.1-0.4,0.1-1.8,0.1-2.8C251.5,81.6,251.5,80.2,251.4,79.7z"/>
<path class="st0" d="M265.6,89.4v-8.8l-3.3,8.8h-1.5l-3.3-8.7v8.7h-1.7V75.7h1.4l4.3,11l4.1-11h1.6v13.6L265.6,89.4L265.6,89.4z"/>
<path class="st0" d="M270.4,89.4V75.8h1.8v13.6L270.4,89.4L270.4,89.4z"/>
<path class="st0" d="M283.2,89.4l-6.2-10.2v10.2h-1.7V75.8h1.6l6.2,10.2V75.8h1.7v13.6L283.2,89.4L283.2,89.4z"/>
<path class="st0" d="M287.8,89.4V75.8h1.8v13.6L287.8,89.4L287.8,89.4z"/>
<path class="st0" d="M301.8,87.5c-0.9,1.5-2.7,2.1-4.3,2.1c-2.7,0-4.9-1.2-5.4-4.2l1.7-0.3c0.2,1.3,0.7,2,1.6,2.4
	c0.6,0.3,1.4,0.4,2.1,0.4c1.1,0,2.3-0.4,2.8-1.3c0.2-0.3,0.4-0.8,0.3-1.2c0-0.9-0.4-1.4-1.3-1.9c-0.2-0.1-0.9-0.4-2.5-0.7
	c-2.1-0.5-2.8-0.9-3.2-1.3c-0.6-0.6-1-1.4-1-2.3c0-1,0.5-2,1.3-2.6c0.8-0.7,1.9-1,3.2-1c1.9,0,3.6,0.6,4.6,2.3
	c0.1,0.2,0.2,0.3,0.4,0.8l-1.6,0.7c-0.4-0.9-0.7-1.3-1.3-1.7c-0.5-0.3-1.1-0.4-2.1-0.4c-1,0-1.7,0.2-2.1,0.5
	c-0.4,0.3-0.6,0.8-0.6,1.3c0,0.5,0.2,0.9,0.6,1.2c0.5,0.3,1.7,0.7,2.3,0.8c1.4,0.3,2.3,0.6,2.9,0.8c1.4,0.7,2.3,1.8,2.3,3.4
	C302.4,86.2,302.2,86.9,301.8,87.5z"/>
<path class="st0" d="M309.6,77.4v11.9h-1.7V77.4h-4.1v-1.7h10v1.7H309.6z"/>
<path class="st0" d="M323.6,89.4c0,0-1.5-2.5-2.9-4.8c-0.2-0.4-0.4-0.8-0.8-1c-0.2-0.2-0.6-0.3-0.9-0.3h-1.7v6.1h-1.7V75.8h4.8
	c0.9,0,2,0.1,2.9,0.6c1,0.6,1.6,1.8,1.6,3.1c0,1.3-0.6,2.5-1.6,3.1c-0.4,0.3-0.9,0.4-1.4,0.5c0.1,0.2,0.2,0.4,0.3,0.5
	c1.6,2.6,3.4,5.6,3.4,5.6L323.6,89.4L323.6,89.4z M322.3,77.8c-0.5-0.3-1.2-0.4-2-0.4h-3v4.1h3.1c0.7,0,1.5-0.1,1.9-0.4
	c0.5-0.3,0.8-0.9,0.8-1.7S322.8,78.1,322.3,77.8z"/>
<path class="st0" d="M336.8,89.4l-1.5-3.9h-5.6l-1.5,3.9h-1.9l5.3-13.6h1.7l5.3,13.6L336.8,89.4L336.8,89.4z M332.4,78.3l-2.2,5.5
	h4.3L332.4,78.3z"/>
<path class="st0" d="M345.1,77.4v11.9h-1.7V77.4h-4.1v-1.7h10v1.7H345.1z"/>
<path class="st0" d="M351.3,89.4V75.8h1.8v13.6L351.3,89.4L351.3,89.4z"/>
<path class="st0" d="M361.1,89.4h-1.5l-4.4-13.6h1.8l3.4,10.5l3.4-10.5h1.8L361.1,89.4z"/>
<path class="st0" d="M376.8,89.4l-1.5-3.9h-5.6l-1.5,3.9h-1.9l5.3-13.6h1.7l5.3,13.6L376.8,89.4L376.8,89.4z M372.5,78.3l-2.2,5.5
	h4.3L372.5,78.3z"/>
<path class="st0" d="M53.4,79.9c0,2.3,1.2,3.2,3,3.2c1,0,2-0.1,3-0.3v6.6c-1.5,0.4-2.9,1.1-4.9,1.1c-8.1,0-9.4-4.2-9.6-8.3
	c-3.5,3.9-9,8.8-19.6,8.8c-9.9,0-17-6.2-17-15.6c0-4.5,1.4-15.1,16.5-16.9l15-1.9c2.2-0.3,4.7-1,4.7-6.5c0-5.7-4.1-8.8-12.7-8.8
	c-10.4,0-11.8,6.3-12.4,10.5H11c0.4-12.9,9-18,22.3-18c4.3,0,20.1,1.2,20.1,15.1L53.4,79.9 M44.3,61.8c-1.5,1.1-3.7,2-15,3.4
	c-4.4,0.6-11.6,2-11.6,8.8c0,5.9,3,9.4,9.9,9.4c8.5,0,16.8-5.5,16.8-12.7L44.3,61.8z"/>
<rect x="224.3" y="33.5" class="st0" width="0.6" height="56.2"/>
<path class="st0" d="M133.6,42.8v-9.3l0,0h-0.1h-6.4h-2.6l0,0l0,0h-9.6c-3.8,0.5-6.9,2.9-9.1,6.3l0,0c-0.6,0.9-1.1,1.8-1.5,2.7
	c-1.5-2.9-4.7-8.8-14.4-8.8c-9.8,0-14.4,6.3-16.4,9.3h-0.2v-7.7h-8.6v54h9.1V59.9c0-14.7,9.1-18,14.2-18c6.7,0,8.5,5.5,8.5,10v37.4
	h9.2V50.8h1.2h8v-8l0,0h9.3v46.9h5.6h3.7h9.2V42.8H133.6z"/>
<path class="st0" d="M204.7,80.3V42.8h-9.3h-0.1v-9.3h-3.7h-5.4H186h-27.9v9.3H186v9.3l0.3-0.3l-0.3,0.3l0,0h-27.9v9.3h-9.3v18.9
	h9.3v9.3H214v-9.3H204.7z M167.4,80.3V61.4H186l0,18.9H167.4z"/>
</svg>
