<?xml version="1.0" encoding="utf-8"?>
<!-- Generator: Adobe Illustrator 24.3.0, SVG Export Plug-In . SVG Version: 6.00 Build 0)  -->
<svg version="1.1" id="Camada_1" xmlns="http://www.w3.org/2000/svg" xmlns:xlink="http://www.w3.org/1999/xlink" x="0px" y="0px"
	 viewBox="0 0 122.1 48.7" style="enable-background:new 0 0 122.1 48.7;" xml:space="preserve">
<style type="text/css">
	.st0{opacity:0.8;fill:#8D8D8E;}
	.st1{fill-rule:evenodd;clip-rule:evenodd;fill:#8D8D8E;}
</style>
<g>
	<g>
		<path class="st0" d="M58.8,37.5v-3.7h2.8v0.4h-2.2v1.2h1.9v0.4h-1.9v1.7H58.8z"/>
		<path class="st0" d="M64.2,37.5v-0.4c-0.2,0.3-0.6,0.5-1,0.5c-0.2,0-0.3,0-0.5-0.1c-0.2-0.1-0.3-0.1-0.3-0.2
			c-0.1-0.1-0.1-0.2-0.2-0.3c0-0.1,0-0.2,0-0.4v-1.7h0.5v1.5c0,0.2,0,0.4,0,0.5c0,0.1,0.1,0.2,0.2,0.3c0.1,0.1,0.2,0.1,0.4,0.1
			c0.2,0,0.3,0,0.4-0.1c0.1-0.1,0.2-0.2,0.3-0.3c0.1-0.1,0.1-0.3,0.1-0.5v-1.4h0.5v2.7H64.2z"/>
		<path class="st0" d="M65.4,37.5v-2.7h0.5v0.4c0.2-0.3,0.5-0.4,1-0.4c0.2,0,0.3,0,0.5,0.1c0.1,0.1,0.3,0.1,0.3,0.2
			c0.1,0.1,0.1,0.2,0.2,0.3c0,0.1,0,0.2,0,0.4v1.7h-0.5v-1.6c0-0.2,0-0.3-0.1-0.4c0-0.1-0.1-0.2-0.2-0.2c-0.1-0.1-0.2-0.1-0.4-0.1
			c-0.2,0-0.4,0.1-0.6,0.2c-0.2,0.1-0.2,0.4-0.2,0.7v1.5H65.4z"/>
		<path class="st0" d="M70.5,37.5v-0.3c-0.2,0.3-0.5,0.4-0.8,0.4c-0.2,0-0.5-0.1-0.7-0.2c-0.2-0.1-0.4-0.3-0.5-0.5
			c-0.1-0.2-0.2-0.5-0.2-0.7c0-0.3,0-0.5,0.2-0.7c0.1-0.2,0.2-0.4,0.4-0.5c0.2-0.1,0.4-0.2,0.7-0.2c0.2,0,0.3,0,0.5,0.1
			c0.1,0.1,0.3,0.2,0.3,0.3v-1.3H71v3.7H70.5z M68.9,36.2c0,0.3,0.1,0.6,0.2,0.8c0.2,0.2,0.4,0.3,0.6,0.3c0.2,0,0.4-0.1,0.6-0.2
			c0.2-0.2,0.2-0.4,0.2-0.8c0-0.4-0.1-0.6-0.2-0.8c-0.2-0.2-0.4-0.3-0.6-0.3c-0.2,0-0.4,0.1-0.6,0.2C68.9,35.6,68.9,35.8,68.9,36.2z
			"/>
		<path class="st0" d="M71.5,36.2c0-0.5,0.2-0.9,0.5-1.1c0.3-0.2,0.6-0.3,0.9-0.3c0.4,0,0.7,0.1,1,0.4c0.3,0.2,0.4,0.6,0.4,1
			c0,0.3-0.1,0.6-0.2,0.8c-0.1,0.2-0.3,0.4-0.5,0.5c-0.2,0.1-0.5,0.2-0.7,0.2c-0.4,0-0.8-0.1-1-0.4C71.6,37,71.5,36.7,71.5,36.2z
			 M72,36.2c0,0.3,0.1,0.6,0.3,0.8c0.2,0.2,0.4,0.3,0.6,0.3c0.3,0,0.5-0.1,0.6-0.3c0.2-0.2,0.3-0.4,0.3-0.8c0-0.3-0.1-0.6-0.3-0.8
			c-0.2-0.2-0.4-0.3-0.6-0.3c-0.3,0-0.5,0.1-0.6,0.3C72.1,35.6,72,35.9,72,36.2z"/>
		<path class="st0" d="M76.3,36.3l0.5,0c0,0.2,0.1,0.3,0.2,0.5c0.1,0.1,0.2,0.2,0.4,0.3c0.2,0.1,0.4,0.1,0.6,0.1
			c0.2,0,0.4,0,0.6-0.1c0.2-0.1,0.3-0.1,0.4-0.2c0.1-0.1,0.1-0.2,0.1-0.3c0-0.1,0-0.2-0.1-0.3c-0.1-0.1-0.2-0.2-0.4-0.2
			c-0.1,0-0.4-0.1-0.7-0.2c-0.4-0.1-0.7-0.2-0.8-0.2c-0.2-0.1-0.3-0.2-0.4-0.3c-0.1-0.1-0.1-0.3-0.1-0.5c0-0.2,0.1-0.4,0.2-0.5
			c0.1-0.2,0.3-0.3,0.5-0.4c0.2-0.1,0.5-0.1,0.8-0.1c0.3,0,0.6,0,0.8,0.1c0.2,0.1,0.4,0.2,0.5,0.4c0.1,0.2,0.2,0.4,0.2,0.6l-0.5,0
			c0-0.2-0.1-0.4-0.3-0.5c-0.2-0.1-0.4-0.2-0.7-0.2c-0.3,0-0.6,0.1-0.7,0.2c-0.2,0.1-0.2,0.2-0.2,0.4c0,0.1,0.1,0.2,0.2,0.3
			c0.1,0.1,0.4,0.2,0.8,0.3c0.4,0.1,0.7,0.2,0.9,0.2c0.2,0.1,0.4,0.2,0.5,0.4c0.1,0.2,0.2,0.3,0.2,0.5c0,0.2-0.1,0.4-0.2,0.6
			c-0.1,0.2-0.3,0.3-0.5,0.4c-0.2,0.1-0.5,0.1-0.8,0.1c-0.4,0-0.7-0.1-0.9-0.1c-0.3-0.1-0.4-0.2-0.6-0.4
			C76.4,36.8,76.3,36.6,76.3,36.3z"/>
		<path class="st0" d="M80,36.2c0-0.5,0.2-0.9,0.5-1.1c0.3-0.2,0.6-0.3,0.9-0.3c0.4,0,0.7,0.1,1,0.4c0.3,0.2,0.4,0.6,0.4,1
			c0,0.3-0.1,0.6-0.2,0.8c-0.1,0.2-0.3,0.4-0.5,0.5c-0.2,0.1-0.5,0.2-0.7,0.2c-0.4,0-0.8-0.1-1-0.4C80.2,37,80,36.7,80,36.2z
			 M80.5,36.2c0,0.3,0.1,0.6,0.2,0.8c0.2,0.2,0.4,0.3,0.6,0.3c0.2,0,0.5-0.1,0.6-0.3c0.2-0.2,0.3-0.4,0.3-0.8c0-0.3-0.1-0.6-0.3-0.8
			c-0.2-0.2-0.4-0.3-0.6-0.3c-0.3,0-0.5,0.1-0.6,0.3C80.6,35.6,80.5,35.9,80.5,36.2z"/>
		<path class="st0" d="M85.3,36.6l0.5,0.1c-0.1,0.3-0.2,0.6-0.4,0.7c-0.2,0.2-0.5,0.3-0.8,0.3c-0.4,0-0.7-0.1-1-0.4
			c-0.2-0.2-0.4-0.6-0.4-1c0-0.3,0.1-0.5,0.2-0.8c0.1-0.2,0.3-0.4,0.5-0.5c0.2-0.1,0.5-0.2,0.7-0.2c0.3,0,0.6,0.1,0.8,0.2
			c0.2,0.1,0.3,0.4,0.4,0.6l-0.5,0.1c0-0.2-0.1-0.3-0.2-0.4c-0.1-0.1-0.3-0.1-0.4-0.1c-0.3,0-0.5,0.1-0.6,0.2
			c-0.2,0.2-0.2,0.4-0.2,0.8s0.1,0.6,0.2,0.8c0.2,0.2,0.4,0.2,0.6,0.2c0.2,0,0.4-0.1,0.5-0.2C85.2,37,85.3,36.8,85.3,36.6z"/>
		<path class="st0" d="M86.2,34.3v-0.5h0.5v0.5H86.2z M86.2,37.5v-2.7h0.5v2.7H86.2z"/>
		<path class="st0" d="M89.4,37.2c-0.2,0.1-0.4,0.2-0.5,0.3c-0.2,0.1-0.4,0.1-0.6,0.1c-0.3,0-0.6-0.1-0.8-0.2
			c-0.2-0.1-0.3-0.3-0.3-0.6c0-0.1,0-0.3,0.1-0.4c0.1-0.1,0.2-0.2,0.3-0.3c0.1-0.1,0.2-0.1,0.4-0.1c0.1,0,0.2,0,0.5-0.1
			c0.4,0,0.7-0.1,0.9-0.2c0-0.1,0-0.1,0-0.1c0-0.2,0-0.3-0.1-0.4c-0.1-0.1-0.3-0.2-0.6-0.2c-0.2,0-0.4,0-0.5,0.1
			c-0.1,0.1-0.2,0.2-0.3,0.4l-0.5-0.1c0-0.2,0.1-0.3,0.2-0.5c0.1-0.1,0.3-0.2,0.4-0.3c0.2-0.1,0.4-0.1,0.7-0.1c0.3,0,0.5,0,0.6,0.1
			c0.2,0.1,0.3,0.1,0.4,0.2c0.1,0.1,0.1,0.2,0.2,0.3c0,0.1,0,0.2,0,0.4v0.6c0,0.4,0,0.7,0,0.8c0,0.1,0.1,0.2,0.1,0.3h-0.5
			C89.4,37.5,89.4,37.3,89.4,37.2z M89.4,36.2c-0.2,0.1-0.5,0.1-0.8,0.2c-0.2,0-0.4,0.1-0.4,0.1c-0.1,0-0.2,0.1-0.2,0.1
			c0,0.1-0.1,0.1-0.1,0.2c0,0.1,0.1,0.2,0.2,0.3c0.1,0.1,0.3,0.1,0.4,0.1c0.2,0,0.4,0,0.5-0.1c0.2-0.1,0.3-0.2,0.3-0.3
			c0.1-0.1,0.1-0.3,0.1-0.5V36.2z"/>
		<path class="st0" d="M90.6,37.5v-3.7h0.5v3.7H90.6z"/>
		<path class="st0" d="M93.5,37.5v-3.7h3v0.4H94v1.1h2.3v0.4H94v1.3h2.5v0.4H93.5z"/>
		<path class="st0" d="M99.2,37.5v-0.4c-0.2,0.3-0.6,0.5-1,0.5c-0.2,0-0.3,0-0.5-0.1c-0.2-0.1-0.3-0.1-0.3-0.2
			c-0.1-0.1-0.1-0.2-0.2-0.3c0-0.1,0-0.2,0-0.4v-1.7h0.5v1.5c0,0.2,0,0.4,0,0.5c0,0.1,0.1,0.2,0.2,0.3c0.1,0.1,0.2,0.1,0.4,0.1
			c0.2,0,0.3,0,0.4-0.1c0.1-0.1,0.2-0.2,0.3-0.3c0.1-0.1,0.1-0.3,0.1-0.5v-1.4h0.5v2.7H99.2z"/>
		<path class="st0" d="M100.3,37.5v-2.7h0.5v0.4c0.1-0.2,0.2-0.3,0.3-0.4c0.1-0.1,0.2-0.1,0.3-0.1c0.2,0,0.3,0.1,0.5,0.1l-0.2,0.4
			c-0.1-0.1-0.3-0.1-0.4-0.1c-0.1,0-0.2,0-0.3,0.1c-0.1,0.1-0.2,0.1-0.2,0.2c-0.1,0.2-0.1,0.3-0.1,0.5v1.4H100.3z"/>
		<path class="st0" d="M102,36.2c0-0.5,0.2-0.9,0.5-1.1c0.3-0.2,0.6-0.3,0.9-0.3c0.4,0,0.7,0.1,1,0.4c0.3,0.2,0.4,0.6,0.4,1
			c0,0.3-0.1,0.6-0.2,0.8c-0.1,0.2-0.3,0.4-0.5,0.5c-0.2,0.1-0.5,0.2-0.7,0.2c-0.4,0-0.8-0.1-1-0.4C102.2,37,102,36.7,102,36.2z
			 M102.6,36.2c0,0.3,0.1,0.6,0.3,0.8c0.2,0.2,0.4,0.3,0.6,0.3c0.3,0,0.5-0.1,0.6-0.3c0.2-0.2,0.3-0.4,0.3-0.8
			c0-0.3-0.1-0.6-0.3-0.8c-0.2-0.2-0.4-0.3-0.6-0.3c-0.3,0-0.5,0.1-0.6,0.3C102.6,35.6,102.6,35.9,102.6,36.2z"/>
		<path class="st0" d="M105.4,38.6v-3.7h0.5v0.4c0.1-0.1,0.2-0.2,0.4-0.3c0.1-0.1,0.3-0.1,0.5-0.1c0.3,0,0.5,0.1,0.7,0.2
			c0.2,0.1,0.3,0.3,0.4,0.5c0.1,0.2,0.1,0.5,0.1,0.7c0,0.3-0.1,0.5-0.2,0.7c-0.1,0.2-0.3,0.4-0.5,0.5c-0.2,0.1-0.4,0.2-0.7,0.2
			c-0.2,0-0.3,0-0.5-0.1c-0.1-0.1-0.2-0.1-0.3-0.2v1.3H105.4z M105.8,36.2c0,0.4,0.1,0.6,0.2,0.8c0.2,0.2,0.3,0.2,0.6,0.2
			c0.2,0,0.4-0.1,0.6-0.3c0.2-0.2,0.2-0.4,0.2-0.8c0-0.3-0.1-0.6-0.2-0.8c-0.2-0.2-0.3-0.3-0.6-0.3c-0.2,0-0.4,0.1-0.6,0.3
			C105.9,35.6,105.8,35.9,105.8,36.2z"/>
		<path class="st0" d="M110.6,36.7l0.5,0.1c-0.1,0.3-0.2,0.5-0.5,0.6c-0.2,0.2-0.5,0.2-0.9,0.2c-0.4,0-0.8-0.1-1-0.4
			c-0.3-0.2-0.4-0.6-0.4-1c0-0.5,0.1-0.8,0.4-1.1c0.3-0.2,0.6-0.4,1-0.4c0.4,0,0.7,0.1,1,0.4c0.3,0.2,0.4,0.6,0.4,1c0,0,0,0.1,0,0.1
			h-2.2c0,0.3,0.1,0.5,0.3,0.7c0.2,0.2,0.4,0.2,0.6,0.2c0.2,0,0.3,0,0.5-0.1C110.4,37,110.5,36.9,110.6,36.7z M108.9,35.9h1.7
			c0-0.2-0.1-0.4-0.2-0.5c-0.2-0.2-0.4-0.3-0.6-0.3c-0.2,0-0.4,0.1-0.6,0.2C109,35.5,108.9,35.7,108.9,35.9z"/>
		<path class="st0" d="M113.7,37.5v-0.4c-0.2,0.3-0.5,0.5-1,0.5c-0.2,0-0.3,0-0.5-0.1c-0.2-0.1-0.3-0.1-0.3-0.2
			c-0.1-0.1-0.1-0.2-0.2-0.3c0-0.1,0-0.2,0-0.4v-1.7h0.5v1.5c0,0.2,0,0.4,0,0.5c0,0.1,0.1,0.2,0.2,0.3c0.1,0.1,0.2,0.1,0.4,0.1
			c0.2,0,0.3,0,0.4-0.1c0.1-0.1,0.2-0.2,0.3-0.3c0.1-0.1,0.1-0.3,0.1-0.5v-1.4h0.5v2.7H113.7z"/>
	</g>
	<path class="st0" d="M61.6,17.2h0.5v2.2c0,0.4,0,0.7-0.1,0.9c-0.1,0.2-0.2,0.4-0.5,0.5C61.3,21,61,21,60.6,21
		c-0.4,0-0.6-0.1-0.9-0.2c-0.2-0.1-0.4-0.3-0.5-0.5c-0.1-0.2-0.1-0.5-0.1-0.9v-2.2h0.5v2.2c0,0.3,0,0.6,0.1,0.7
		c0.1,0.2,0.2,0.3,0.3,0.4c0.2,0.1,0.3,0.1,0.5,0.1c0.4,0,0.6-0.1,0.8-0.2c0.2-0.2,0.2-0.5,0.2-1V17.2z"/>
	<path class="st0" d="M62.9,21v-3.8h0.5l2,3v-3h0.5V21h-0.5l-2-3v3H62.9z"/>
	<path class="st0" d="M66.8,21v-3.8h0.5V21H66.8z"/>
	<path class="st0" d="M67.8,21l1.5-3.8h0.5l1.5,3.8h-0.6l-0.4-1.1h-1.6L68.3,21H67.8z M68.7,17c0-0.2,0-0.3,0.1-0.4
		c0.1-0.1,0.2-0.2,0.4-0.2c0.1,0,0.3,0,0.4,0.1c0.1,0,0.2,0.1,0.2,0.1c0.1,0,0.1,0,0.1,0c0,0,0-0.1,0.1-0.2h0.3
		c0,0.2-0.1,0.3-0.2,0.4C70.2,16.9,70,17,69.9,17c-0.1,0-0.3,0-0.4-0.1c-0.1-0.1-0.2-0.1-0.3-0.1c-0.1,0-0.1,0-0.1,0.1
		c0,0-0.1,0.1-0.1,0.2H68.7z M68.9,19.4h1.3l-0.4-1c-0.1-0.3-0.2-0.6-0.3-0.8c0,0.2-0.1,0.5-0.2,0.7L68.9,19.4z"/>
	<path class="st0" d="M71.6,19.1c0-0.6,0.2-1.1,0.5-1.5c0.3-0.4,0.8-0.5,1.3-0.5c0.3,0,0.7,0.1,0.9,0.2c0.3,0.2,0.5,0.4,0.6,0.7
		c0.1,0.3,0.2,0.6,0.2,1c0,0.4-0.1,0.7-0.2,1c-0.1,0.3-0.4,0.5-0.7,0.7C74,21,73.7,21,73.4,21c-0.4,0-0.7-0.1-1-0.3
		c-0.3-0.2-0.5-0.4-0.6-0.7C71.6,19.8,71.6,19.5,71.6,19.1z M72.1,19.2c0,0.5,0.1,0.8,0.4,1.1c0.2,0.3,0.6,0.4,0.9,0.4
		c0.4,0,0.7-0.1,0.9-0.4c0.2-0.3,0.4-0.6,0.4-1.1c0-0.3-0.1-0.6-0.2-0.8c-0.1-0.2-0.3-0.4-0.5-0.5c-0.2-0.1-0.4-0.2-0.7-0.2
		c-0.4,0-0.7,0.1-0.9,0.4C72.2,18.2,72.1,18.6,72.1,19.2z"/>
	<path class="st0" d="M77.3,21v-3.8H80v0.4h-2.2v1.2h2.1v0.4h-2.1v1.3h2.3V21H77.3z"/>
	<path class="st0" d="M83.3,17.2h0.5v2.2c0,0.4,0,0.7-0.1,0.9c-0.1,0.2-0.2,0.4-0.5,0.5C82.9,21,82.6,21,82.3,21
		c-0.4,0-0.6-0.1-0.9-0.2c-0.2-0.1-0.4-0.3-0.5-0.5c-0.1-0.2-0.1-0.5-0.1-0.9v-2.2h0.5v2.2c0,0.3,0,0.6,0.1,0.7
		c0.1,0.2,0.2,0.3,0.3,0.4c0.1,0.1,0.3,0.1,0.5,0.1c0.4,0,0.6-0.1,0.8-0.2c0.2-0.2,0.2-0.5,0.2-1V17.2z"/>
	<path class="st0" d="M84.6,21v-3.8h1.7c0.3,0,0.6,0,0.8,0.1c0.2,0.1,0.3,0.2,0.4,0.4c0.1,0.2,0.2,0.4,0.2,0.6
		c0,0.3-0.1,0.5-0.3,0.7c-0.2,0.2-0.4,0.3-0.8,0.4c0.1,0.1,0.2,0.1,0.3,0.2c0.1,0.1,0.3,0.3,0.4,0.5l0.7,1h-0.6l-0.5-0.8
		c-0.1-0.2-0.3-0.4-0.4-0.5c-0.1-0.1-0.2-0.2-0.3-0.3c-0.1,0-0.2-0.1-0.2-0.1c-0.1,0-0.1,0-0.3,0h-0.6V21H84.6z M85.1,18.9h1.1
		c0.2,0,0.4,0,0.5-0.1c0.1,0,0.2-0.1,0.3-0.2c0.1-0.1,0.1-0.2,0.1-0.3c0-0.2-0.1-0.3-0.2-0.4c-0.1-0.1-0.3-0.2-0.6-0.2h-1.2V18.9z"
		/>
	<path class="st0" d="M88.2,19.1c0-0.6,0.2-1.1,0.5-1.5c0.3-0.4,0.8-0.5,1.3-0.5c0.3,0,0.7,0.1,0.9,0.2c0.3,0.2,0.5,0.4,0.6,0.7
		c0.1,0.3,0.2,0.6,0.2,1c0,0.4-0.1,0.7-0.2,1c-0.2,0.3-0.4,0.5-0.7,0.7C90.7,21,90.4,21,90.1,21c-0.4,0-0.7-0.1-1-0.3
		c-0.3-0.2-0.5-0.4-0.6-0.7C88.3,19.8,88.2,19.5,88.2,19.1z M88.8,19.2c0,0.5,0.1,0.8,0.4,1.1c0.2,0.3,0.5,0.4,0.9,0.4
		c0.4,0,0.7-0.1,0.9-0.4c0.2-0.3,0.4-0.6,0.4-1.1c0-0.3,0-0.6-0.2-0.8c-0.1-0.2-0.2-0.4-0.5-0.5c-0.2-0.1-0.4-0.2-0.7-0.2
		c-0.4,0-0.7,0.1-0.9,0.4C88.9,18.2,88.8,18.6,88.8,19.2z"/>
	<path class="st0" d="M92.5,21v-3.8h1.4c0.2,0,0.4,0,0.6,0c0.2,0,0.3,0.1,0.5,0.2c0.1,0.1,0.2,0.2,0.3,0.4c0.1,0.2,0.1,0.3,0.1,0.5
		c0,0.3-0.1,0.6-0.3,0.8c-0.2,0.2-0.6,0.3-1.1,0.3h-1V21H92.5z M93,19h1c0.3,0,0.5-0.1,0.7-0.2c0.1-0.1,0.2-0.3,0.2-0.5
		c0-0.2,0-0.3-0.1-0.4c-0.1-0.1-0.2-0.2-0.3-0.2c-0.1,0-0.2,0-0.5,0h-1V19z"/>
	<path class="st0" d="M96,21v-3.8h2.7v0.4h-2.2v1.2h2.1v0.4h-2.1v1.3h2.3V21H96z"/>
	<path class="st0" d="M99.6,21v-3.8h0.5V21H99.6z"/>
	<path class="st0" d="M100.6,21l1.4-3.8h0.5l1.5,3.8h-0.6l-0.4-1.1h-1.6l-0.4,1.1H100.6z M101.7,19.4h1.3l-0.4-1
		c-0.1-0.3-0.2-0.6-0.3-0.8c0,0.2-0.1,0.5-0.2,0.7L101.7,19.4z"/>
	<path class="st1" d="M6.5,7.3h48.4v32.3H6.5V7.3z M30,13l-0.2,1.1l0.9-0.7l1,0.7L31.4,13l0.9-0.8h-1.2l-0.5-1.1l-0.3,1.1h-1.3
		L30,13L30,13z M35.5,14.4l-0.3,1.1l1-0.7l1,0.8l-0.3-1.2l0.9-0.7l-1.2-0.1l-0.5-1.1l-0.3,1.1h-1.3L35.5,14.4L35.5,14.4z M39.2,18.3
		l-0.3,1.2l1-0.7l1,0.7l-0.3-1.2l0.9-0.7l-1.3-0.1l-0.3-1.1l-0.5,1.1l-1.2,0.1L39.2,18.3L39.2,18.3z M41.2,23.7L40.9,25l1-0.7l1,0.7
		l-0.3-1.2l0.9-0.7l-1.3-0.1l-0.3-1.1l-0.5,1.1L40.2,23L41.2,23.7L41.2,23.7z M39.4,29.1l-0.2,1.1l0.9-0.7l1,0.7l-0.3-1.1l0.9-0.8
		h-1.2l-0.5-1.2l-0.3,1.2h-1.3L39.4,29.1L39.4,29.1z M35.8,33l-0.3,1.2l1-0.7l1,0.7L37.2,33l0.9-0.7l-1.3-0.1L36.5,31L36,32.2
		l-1.3,0.1L35.8,33L35.8,33z M30.1,34.8l-0.3,1.1l1-0.7l1,0.7l-0.5-1.1l1-0.8h-1.3l-0.3-1.2L30.4,34h-1.3L30.1,34.8L30.1,34.8z
		 M24.5,33.2l-0.2,1.1l0.9-0.7l1,0.7l-0.3-1.1l0.9-0.8h-1.2l-0.5-1.2l-0.3,1.2h-1.3L24.5,33.2L24.5,33.2z M20.9,29.4l-0.3,1.1
		l0.9-0.7l1,0.7l-0.3-1.1l1-0.8h-1.3l-0.5-1.2l-0.3,1.2h-1.3L20.9,29.4L20.9,29.4z M18.8,23.8L18.6,25l0.9-0.7l1,0.7l-0.3-1.1
		l0.9-0.7L20,23l-0.5-1.1L19.2,23l-1.3,0.1L18.8,23.8L18.8,23.8z M20.8,18.5l-0.4,1.2l1-0.7l1,0.7l-0.3-1.2l0.9-0.7l-1.3-0.1
		l-0.3-1.1L21,17.8l-1.2,0.1L20.8,18.5L20.8,18.5z M24,15.7l1-0.7l1,0.7l-0.3-1.2l0.9-0.7l-1.2-0.1L25,12.6l-0.5,1.1l-1.2,0.1
		l0.9,0.7L24,15.7z"/>
</g>
</svg>
