<svg xmlns="http://www.w3.org/2000/svg" viewBox="0 0 115 35"><defs><style>.a{fill:#8d8d8e;}</style></defs><title>logo_compete</title><path class="a" d="M12.65335,12.03828a6.0817,6.0817,0,0,1-2.71912,1.65285,4.65972,4.65972,0,0,1-1.16511.149,5.59936,5.59936,0,0,1-.65274-.03864,4.81666,4.81666,0,0,1-2.914-1.46883,4.99409,4.99409,0,0,1-.08492-7.0622h0q.042-.043.08492-.08491a4.7737,4.7737,0,0,1,3.56674-1.4889A5.50812,5.50812,0,0,1,12.65335,5.479l1.96137-1.88088a8.21117,8.21117,0,0,0-5.8456-2.59748A7.5142,7.5142,0,0,0,3.26085,3.30015,7.44535,7.44535,0,0,0,1.00122,8.76942a7.46912,7.46912,0,0,0,2.25963,5.48872,7.5017,7.5017,0,0,0,5.50828,2.278,7.42247,7.42247,0,0,0,5.33052-2.12554c.17316-.15018.3452-.3059.51507-.47194Z"/><polygon class="a" points="48.797 16.2 46.101 16.2 46.101 6.807 42.673 16.2 40.157 16.2 36.729 6.768 36.729 16.2 34.034 16.2 34.034 1.358 37.621 1.358 41.405 11.761 45.21 1.358 48.797 1.358 48.797 16.2"/><path class="a" d="M62.56887,5.73773a4.00041,4.00041,0,0,1-1.48636,3.17,4.89611,4.89611,0,0,1-3.3295,1.2083H54.06776v6.08406H51.37235V1.35789H57.753a4.9659,4.9659,0,0,1,3.3099,1.19A4.07188,4.07188,0,0,1,62.56887,5.73773Zm-2.69573,0a1.41721,1.41721,0,0,0-.63572-1.20831,2.38376,2.38376,0,0,0-1.47109-.47583H54.06776v3.368h3.69857A2.391,2.391,0,0,0,59.23742,6.946a1.41718,1.41718,0,0,0,.63574-1.2083Z"/><polygon class="a" points="75.211 16.2 64.529 16.2 64.529 1.358 75.211 1.358 75.211 4.054 67.225 4.054 67.225 7.422 73.467 7.422 73.467 10.116 67.225 10.116 67.225 13.505 75.211 13.505 75.211 16.2"/><polygon class="a" points="88.765 4.054 84.267 4.054 84.267 16.2 81.571 16.2 81.571 4.054 77.073 4.054 77.073 1.358 88.765 1.358 88.765 4.054"/><polygon class="a" points="101.347 16.2 90.667 16.2 90.667 1.358 101.347 1.358 101.347 4.054 93.362 4.054 93.362 7.422 99.604 7.422 99.604 10.116 93.362 10.116 93.362 13.505 101.347 13.505 101.347 16.2"/><path class="a" d="M16.37134,9.2348V9.23474c.00165.0188.003.04694.00555.08069l.00031.00555c.00384.05274.011.121.02075.19977-.0094-.11017-.01929-.24322-.03125-.414l-.00086-.024c-.00048-.01111-.0036-.02191-.004-.033Z"/><path class="a" d="M20.50769,1.90088l-.00641.0025.02094-.01025-.00788.00451c.101-.04968.20136-.09954.31092-.15051l.00048-.00024.00879-.00409c.15583-.07239.3125-.14289.44745-.202-.14667.05817-.28814.12781-.431.1944.0846-.04047.16986-.07947.25165-.11621V1.619c-.19568.0852-.33417.14782-.46246.21136-.01636.00818-.03308.01557-.04932.02387-.02954.01416-.05859.02856-.08673.04388l-.03094.01642-.01087.00427c-.02453.01319-.05762.03144-.08252.044l.03528-.01709-.003.00183.02728-.01355C20.46051,1.92328,20.48553,1.91174,20.50769,1.90088Z"/><path class="a" d="M20.51093,1.8996c-.08246.04327-.162.09179-.243.13794.13691-.0763.27814-.14319.42048-.208C20.62994,1.855,20.56891,1.87286,20.51093,1.8996Z"/><polygon class="a" points="20.508 1.901 20.511 1.9 20.514 1.898 20.508 1.901"/><path class="a" d="M22.46436,1.18561l.11468-.02777c-.05475.012-.08643.02-.13269.03039l-.0553.0127c-.18182.04156-.32617.07727-.4765.12335.11755-.03345.26331-.06928.43823-.11163a7.77956,7.77956,0,0,0-1.0708.32818,7.98218,7.98218,0,0,1,1.22309-.36114C22.49158,1.18256,22.47778,1.18268,22.46436,1.18561Z"/><path class="a" d="M23.03125,1.10291c-.15045.02142-.30316.02471-.45221.05493-.02527.00518-.04877.01642-.074.02185C22.67883,1.1427,22.85565,1.12793,23.03125,1.10291Z"/><path class="a" d="M21.207,1.62482c-.17633.06042-.34894.12744-.51855.20471C20.85919,1.75525,21.03241,1.68811,21.207,1.62482Z"/><path class="a" d="M20.13782,15.41962c.02759.016.0553.03143.08307.04705-.01783-.01031-.035-.0216-.05274-.0321C20.15839,15.42889,20.14752,15.42529,20.13782,15.41962Z"/><path class="a" d="M16.44592,7.60187l.00012-.00049-.00012.00043-.00189.01825Z"/><path class="a" d="M20.042,15.36536c.0315.0191.064.03564.09583.05426C20.10608,15.40118,20.07349,15.38428,20.042,15.36536Z"/><path class="a" d="M17.01959,5.67365l.01258-.0188c.01806-.04084.037-.08112.05578-.12159-.03863.08033-.08337.15729-.119.2392C16.98444,5.7428,17.00336,5.70386,17.01959,5.67365Z"/><path class="a" d="M16.51422,7.2326l.00385-.018c.00586-.03021.01123-.06043.01745-.09009C16.52808,7.15894,16.52191,7.196,16.51422,7.2326Z"/><path class="a" d="M27.92493,1.99689l.00171.00091-.0207-.01227Z"/><polygon class="a" points="16.614 6.805 16.613 6.806 16.614 6.805 16.614 6.805"/><path class="a" d="M18.31549,13.92151c.01953.02338.04083.04584.06189.06982-.00769-.00988-.0163-.01886-.02466-.0282C18.33978,13.949,18.32709,13.93561,18.31549,13.92151Z"/><path class="a" d="M18.31549,13.92151c-.08313-.09339-.1604-.186-.234-.27789C18.16785,13.75623,18.21722,13.81219,18.31549,13.92151Z"/><polygon class="a" points="18.755 3.159 18.755 3.16 18.755 3.159 18.755 3.159"/><path class="a" d="M20.37988,1.96277c-.03027.01855-.06128.03625-.0921.05389q.0649-.03726.12427-.06915C20.40082,1.95288,20.39105,1.95831,20.37988,1.96277Z"/><path class="a" d="M18.03534,13.58612c.01532.01947.03076.03925.04614.0575-.00775-.009-.01745-.02094-.0263-.0329Z"/><path class="a" d="M18.68506,14.31079v.00006c.11249.11377.16778.16168.30621.28449l-.01837-.01709C18.87146,14.4884,18.77557,14.39856,18.68506,14.31079Z"/><path class="a" d="M18.63629,14.26172h-.00006l.04883.04913-.0213-.02215Z"/><path class="a" d="M19.89429,2.25745c.02075-.01471.042-.02906.06482-.04462l-.06543.04462Z"/><polygon class="a" points="20.288 2.017 20.283 2.019 20.28 2.021 20.288 2.017"/><path class="a" d="M31.8941,8.86371H31.894c-.0011.0506-.00531.11224-.00757.16913l.00208-.0188Z"/><path class="a" d="M31.88135,9.07935l-.00128.01037A6.71141,6.71141,0,0,0,30.72687,5.423a5.37256,5.37256,0,0,0-1.68659-2.65466c.0102.0069.02124.01245.03144.01941-.01795-.01446-.03705-.02808-.05518-.04248-.01141-.0097-.02057-.02161-.0321-.03119l-.01484-.01257c-.121-.09961-.251-.19605-.387-.29065l-.02838-.02142c-.09821-.06379-.21576-.13923-.33252-.21167.01733.01123.032.02282.04913.03411-.08551-.05371-.16919-.11041-.25659-.16076.06769.04077.13587.08178.20746.12658-.07849-.0509-.16186-.10211-.24707-.15362l-.00476-.00256-.04327-.02375.00952.00568.02832.01727a7.92834,7.92834,0,0,0-1.89643-.771L25.96918,1.224l-.02039-.00568c-.23785-.04913-.38879-.08026-.50537-.10211-.11835-.01855-.27429-.03986-.52136-.07306l-.11017-.00757c-.0318-.00274-.06335-.00409-.09515-.00653-.14307-.00982-.26362-.01782-.35413-.02215-.0849-.00391-.155-.00629-.229-.00629-.07209,0-.14911.00226-.24457.00446h-.00336l-.02911.00207-.03333.0014-.0047.00013h-.00006l-.00055.00012-.019.00079h-.00006c-.08075.00391-.13361.00788-.19531.01172l-.0232.00141c-.1391.009-.25872.0191-.39264.03747.09125-.00989.2071-.01953.342-.03-.16735.01288-.33209.049-.49847.07276.2215-.03156.4422-.06861.66571-.08094-.01843.001-.037-.00152-.05542-.00036l.15729-.012c-.03424.00141-.06769.0105-.10187.01239.0174-.001.03479.00122.05225.00037a3.57576,3.57576,0,0,0-.78711.15546l-.00049.00006c-.01074.00348-.02075.009-.0315.01251a8.89052,8.89052,0,0,0-1.72314.43445c.17615-.06043.35046-.12647.5321-.16962a7.79041,7.79041,0,0,0-2.26739,1.14264c.00653-.00574.01105-.01343.01764-.0191h-.00006a5.39908,5.39908,0,0,1,.62359-.45319c.051-.03064.10346-.05853.15509-.088-.02563.01428-.05334.02423-.07873.03894l.06427-.03919-.07416.04407c-.01446.00836-.03039.01361-.0448.02216l-.10724.06683.002-.00128h-.00007l-.07006.0437.00354-.00214-.00354.0022.02545-.01447c-.02088.01288-.04132.0268-.06183.04047.01251-.00812.0238-.01794.03638-.026-.01526.00964-.02906.02142-.04425.03119l-.02057.01343-.05316.03662.05255-.03662.02514-.01715.04029-.02747-.00641.00433.00641-.00439-.00757.00519c-.27179.17913-.42029.28143-.58362.41052l-.00537.00439c-.01947.01514-.03778.0315-.05707.04676l-.02161.0177.00415-.00269.00043-.00037q-.23565.18778-.4563.39374l.02661-.02441c-.01892.01678-.03906.03351-.0592.05206l-.01715.01526-.00183.00122L18.78,3.13306l.002-.00171L18.78,3.13306a.27452.27452,0,0,0-.02454.02606c.013-.01264.02576-.02417.03864-.03589.00714-.00616.01587-.00989.02344-.0155.15448-.14392.31079-.28589.47589-.41718l.042-.03192c.12561-.09857.25836-.18744.38953-.27844a5.063,5.063,0,0,0-.40979.3294c-.0152.01368-.02619.03138-.0412.04523-.12921.10053-.2616.19672-.38452.30548a.3681.3681,0,0,0-.072.04743c-.02247.02093-.04694.03949-.06916.06067l.00165-.00379-.02423.02228.02429-.0224.00458-.00464-.04883.04547-.00635.00586c-.10345.109-.21978.238-.33508.36841.00867-.0094.01575-.02008.02448-.02942A.58911.58911,0,0,0,18.298,3.634c-.06152.076-.13458.16382-.20733.25092-.06958.08838-.13849.17609-.19885.25189l.003-.00372-.006.00763c.11323-.14038.24885-.30115.38672-.45972l-.0047.01086c-.15118.171-.29821.34528-.433.52918A8.02527,8.02527,0,0,0,17.088,5.53326a6.9658,6.9658,0,0,1,1.10291-1.65118,8.00849,8.00849,0,0,0-.29993.91626l-.00018.00079a2.12706,2.12706,0,0,0-.85858.85572c-.04743.10717-.104.2099-.14667.31921l.01721-.04767c.01624-.04315.0343-.08746.05231-.13293-.03363.07989-.06745.16345-.1026.25268-.11426.34619-.18433.55548-.23877.75885l-.0008.00293-.00012.00049.00067-.00262-.00122.00445-.00152.00525-.00562.01972c-.00744.02868-.014.05847-.02112.0874-.004.01776-.01226.034-.01587.05188-.00964.04913-.022.10815-.0335.16351l-.01648.0766-.01294.06689-.00275.01416-.00647.03217c-.01544.082-.03168.17249-.05.274l.00714-.03882-.007.03839c.00733-.0459.02039-.09052.02851-.13629a7.52011,7.52011,0,0,0-.10028,1.17853c0,.04956.00451.093.00543.14141-.0033.07648-.01715.152-.01636.22876.00025.02069.00171.04529.0025.06891.00385.08844.02527.17493.03205.26313-.00037-.0254.00348-.05073.00348-.07612.01153.14771.02661.29059.04394.42353.01514.11682.032.22766.04938.33368l.00049.00348c-.00446-.01972-.01148-.046-.01532-.06617-.00379-.01434-.00824-.029-.01123-.04266V9.92139l-.002-.01105c-.02819-.18762-.05413-.37531-.06872-.56451.00183.11273.01629.2246.02679.33685-.00464-.02893-.01306-.06323-.01666-.09039-.00391-.02424-.00677-.04761-.01-.07154.00549.06586.01093.12305.01678.17694.00239.01953.00593.03986.00831.06079l-.002-.022c.00458.03906.01361.07745.01892.1164l.003.0332c-.007-.04419-.01416-.08893-.01989-.12763H16.423l.00037.00251c.00726.06463.01611.12982.02631.19934l.06836.37286.00012.00037c.06494.26983.10583.43628.14007.56677a5.81853,5.81853,0,0,1-.14007-.56677l.00006.00024-.00018-.00067c-.00623-.03027-.00531-.06158-.01117-.09192.01422.06409.02777.12756.04815.20483.00354.01331.00861.02613.01215.03943.01288.062.03229.1225.04687.18415-.02856-.113-.07251-.22168-.09582-.33582.04846.23493.11114.46594.18079.69452-.01386-.04315-.02955-.09119-.04078-.128.0506.18988.09034.30334.17792.54773l-.0683-.20734c.01038.0315.02491.06171.03571.09308l-.00244-.00848c.00982.02807.021.0556.03119.08355.0523.14618.10461.29242.16687.43525-.01062-.02533-.02076-.04749-.03138-.07325l-.00366-.009c-.04852-.11584-.089-.23486-.13183-.353-.009-.02526-.02-.04974-.02875-.07507.01318.03742.0188.077.03259.11426l.01105.02722.03686.09131.02216.05481.00647.01593-.00482-.0119.02191.05322.03558.08655-.00085-.00232.00323.00781-.00238-.00549c.01752.04187.03357.08429.05188.12591.00592.01337.00959.02753.01563.04084l.02478.05407.00268.00641c.06275.14185.109.23322.20478.41547l.00116.00232.05719.09924c.02588.047.05352.0929.08038.1394l.02814.04883c.02105.03308.046.06971.06848.10437.07879.12934.15588.25965.24237.38446-.01282-.01861-.02661-.03759-.03894-.056l-.00092-.00134c-.03808-.05749-.07538-.11346-.11126-.17-.04017-.06256-.07929-.124-.11622-.18628.0124.02246.02424.04254.03522.0614.09638.16223.144.23224.26508.4046l.00116.00177c.01751.02362.03375.04553.05.06677l-.02216-.03186a7.41917,7.41917,0,0,0,.548.68769l.00037.00036c.00818.00916.01666.01807.02423.02771q.12159.13349.25891.27045l.02747.02692c-.07135-.07319-.16468-.171-.31-.32447a7.17727,7.17727,0,0,0,.63049.62421l-.01129-.01013.01831.01709.01575.01349-.01013-.0091c.08813.07678.18487.143.27612.21607l.01343.00964.00635.00586-.01978-.0155c-.03754-.03009-.08026-.0528-.11725-.08374-.04626-.03846-.08356-.06952-.14874-.12323l.01245.01074c.0437.0376.078.0664.11115.09448h0c-.03321-.028-.06751-.05688-.11121-.09448.034.02966.06836.05926.10382.08923.00824.00763.017.0138.02521.02063l.00561.00458-.00036-.00031.0003.00025-.01123-.00952c.0365.03.075.06018.11542.09246l-.05286-.04376c.05164.04077.10376.08173.15961.125l.00415.00385c-.03754-.02814-.07452-.05689-.1109-.085.11981.0982.18793.14849.32336.24823.02576.01794.05207.0371.08142.05835l.03424.02429c-.02154-.01557-.04229-.02936-.06091-.04462l.00354.0033.004.003-.00372-.00269-.00031-.0003-.00268-.002-.01319-.01.01233.00867-.03021-.02216-.04553-.03442.02356.01672c.03753.0279.07867.05988.11309.08448-.01965-.0138-.03717-.03046-.0567-.04438.032.02295.06354.046.09687.06885-.01294-.00891-.02729-.0155-.04017-.02447l.19294.13025c-.022-.01557-.04352-.03-.06531-.04468l.08636.05786c.0163.01025.03382.01831.05017.02844l.00428.00275.00317.002c.04193.02771.07965.05158.11249.07166l.00439.0036c.16156.1018.22815.13775.40479.2312l.05707.02936-.00971-.00543-.01892-.01056a5.96274,5.96274,0,0,0,2.16632.66174l.01459.00439.00067.00006a7.90158,7.90158,0,0,0,1.70093.19062,6.52029,6.52029,0,0,0,1.2633-.11914l.008-.00183.0141-.00342.00036-.00006-.01446.00348.44409-.1045-.30646.07129-.001.00025.001-.00025-.04443.01074-.00256.00055c.14184-.034.30072-.0711.42779-.10864.03131-.01111.0625-.02423.09381-.0357-.17224.05334-.35461.10211-.54455.14788a7.751,7.751,0,0,1-2.80121-.03338l-.03131-.00781a5.34336,5.34336,0,0,0,2.55835-.49335l.0039.00043q.304.02783.57868.02752a4.94237,4.94237,0,0,0,1.33795-.173,5.43589,5.43589,0,0,1-1.10181.53174,5.35311,5.35311,0,0,0,1.32068-.59937l.03082-.00964a4.15589,4.15589,0,0,0,.95685-.48163l-.0227.01715.02575-.01892.005-.00293.11187-.08264-.03735.02759.03729-.02759q-.05053.03817-.09942.07336c.038-.02606.06854-.05121.10418-.07709l-.00476.00373.00177-.00135-.00171.00135.00507-.004.00147-.0011.00012-.00012.00042-.00031c.16938-.12329.31977-.2445.44568-.35l-.1.082-.03235.02307-.00037.00031-.00378.0025.13653-.10791c.064-.05451.107-.12732.166-.18652.03973-.03186.08081-.05994.12-.09351l-.00006.00006c.12293-.10663.239-.22076.35157-.33832-.02051.02094-.03473.04706-.05567.06763l.061-.06647c.00628-.007.01068-.0155.0169-.02258l.01953-.0188.00123-.00146c.06054-.06531.12091-.13843.18133-.2085-.02454.02649-.04858.05316-.07428.08l-.01813.02172.01807-.02166c-.01379.0144-.0296.02667-.04358.04089a4.74112,4.74112,0,0,0,.80036-1.20575c.01776-.02484.03656-.04632.05419-.0719.02485-.05841.05152-.11828.07666-.17993-.0252.06171-.05181.12158-.07666.18a6.64946,6.64946,0,0,0,.68677-1.31256c.02728-.083.05121-.16681.07129-.25329-.02008.08471-.043.16888-.07007.25091l.00147-.00391c.03039-.08056.08374-.24133.09887-.29345l.01825-.06018.00629-.02747c.02777-.10162.057-.21216.08521-.32318l.0039-.01593.001-.00629-.0025.01123c-.01422.05213-.02948.10346-.0495.16681.0589-.23.116-.45794.1502-.65948a6.18893,6.18893,0,0,1-.16186.69519c-.018.05627-.03711.11523-.06525.201l-.00152.00512v.00238a4.84527,4.84527,0,0,1-.55744,1.049l-.01172.01489a6.73438,6.73438,0,0,0,.2201-.85785,4.72789,4.72789,0,0,0,.429-.79987l.07593-.20007c.03168-.1.06763-.22729.09967-.35931-.0108.08532-.01153.15881-.02692.24951.01679-.10114.03-.20154.04181-.30335l.00354-.01263c.00733-.03265.01471-.068.02094-.10333a2.30312,2.30312,0,0,0,.0318-.25129v.00007c.00537-.06116.00976-.12989.01288-.20392.005-.07532.00689-.14673.00988-.22113ZM19.46155,2.56317q.11389-.084.2586-.18481c-.04913.03405-.09954.06891-.14087.098-.05969.04193-.11218.07941-.16015.11444l.006-.00433c.04645-.03388.09674-.06977.15417-.11011.04273-.03.09449-.06586.14545-.1012l-.00458.00324.05335-.03711.00055-.00043.00793-.00555.00043-.00025-.00891.00623-.02307.01849C19.653,2.42609,19.55573,2.49243,19.46155,2.56317Zm.1546,12.52594-.07867-.05835.00659.00482ZM30.618,12.729l-.00012.00013.00061-.00177Zm-.29339-.69354c-.004.07282-.0069.147-.01288.21668a5.98738,5.98738,0,0,0,.54455-.56977,5.74959,5.74959,0,0,1-.15588.75019,3.91,3.91,0,0,1-.49078.469l-.01276.00928a4.64777,4.64777,0,0,0,.10449-.64984l.01038-.009m-1.31372,1.87609a3.931,3.931,0,0,0,.704-.38891,3.49781,3.49781,0,0,1-.31141.57788c-.03741.05475-.08349.10235-.1242.15454a4.2808,4.2808,0,0,1-.82581.44257l-.01819.00659a4.64925,4.64925,0,0,0,.56861-.79l.007-.00275m-10.10211.20752c.11083.10266.2265.19953.34472.29328l-.00024-.00025c-.11792-.09356-.23346-.19012-.344-.29254Zm.96087.71979c-.13367-.08063-.26629-.16284-.393-.25372l-.00019-.00013c.127.091.25971.17341.39362.25416Zm-2.63666-2.92029c-.05822-.10864-.1-.225-.15136-.337.05139.11212.0932.22845.15155.33722Zm-.53723-1.44586.00073.00812c-.00531-.05139-.01171-.11328-.01678-.1723l-.03717-.08655c-.006-.02942-.01331-.06085-.01813-.0871a5.9036,5.9036,0,0,1-.07074-1.9602,5.35271,5.35271,0,0,0,.24622.975l.01117.02814a3.05507,3.05507,0,0,0-.13635,1.0625c.001.0213.00433.04687.00646.07117l-.0014-.00287C16.67169,10.58142,16.67786,10.6394,16.68292,10.68927Zm.01062-2.91376.00025-.00079a3.70134,3.70134,0,0,0-.14978.59241h0A3.70516,3.70516,0,0,1,16.69354,7.77551Zm1.09381-2.0252c.0196-.12653.04279-.25251.06879-.37787a2.86784,2.86784,0,0,1,.45911-.13715l.02185.05145.0003.00061c.05744-.04223.10443-.07635.14051-.10064h0l-.00037.0003c-.036.02429-.08289.05823-.14014.10034l.006.01123a5.3299,5.3299,0,0,0-.55743.46393l.0014-.0122c-.03436.033-.068.06646-.10327.1015l-.0011.0108a5.33715,5.33715,0,0,0-.58947.71118c-.01123.01618-.0246.03656-.03492.054a6.05894,6.05894,0,0,1,.68586-1.1659q-.03351.18814-.06037.39C17.7193,5.81677,17.75305,5.78326,17.78735,5.75031ZM18.61371,3.558c.03619-.05059.0722-.1.10834-.14911a2.56638,2.56638,0,0,1,1.09417.06373A7.48469,7.48469,0,0,0,18.71,4.27338L18.70544,4.259A2.00786,2.00786,0,0,1,18.61371,3.558ZM18.696,3.4129l.00025-.00006-.01709.00458.00024-.00006ZM30.753,5.62683l.00031.00061c-.0962-.16229-.20606-.31567-.3133-.47088l.001.00146C30.54773,5.31256,30.65717,5.46521,30.753,5.62683Zm-.42389,6.33429h0c.00086-.02069.003-.03967.0036-.06061l-.0036.00318a9.37056,9.37056,0,0,0-.21643-2.262l.00147-.00152V9.64014a3.5148,3.5148,0,0,0,.5838-.93073,9.222,9.222,0,0,1,.198,2.59186,5.75829,5.75829,0,0,1-.56324.59924C30.33209,11.92145,30.33,11.94043,30.3291,11.96112ZM27.31726,14.48c.035-.03766.07257-.0744.10608-.11255-.04907.05591-.10071.11218-.15363.16779C27.28778,14.51874,27.29962,14.49689,27.31726,14.48Zm-9.4859-6.60144a6.5389,6.5389,0,0,1-.092-1.69977,6.16647,6.16647,0,0,1,.74884-.61249c.46228.82392.56958,1.05652.76117,1.47046a6.58362,6.58362,0,0,0-1.0191.57257A3.06168,3.06168,0,0,0,17.83136,7.87854Zm3.46-3.87231-.02984.00781.00061-.00147h0L21.27,3.99689Zm7.58905,6.45434-.00012-.00024c.01453.03015.03156.06006.04559.09021a3.81043,3.81043,0,0,0,1.02033-.73035,8.92263,8.92263,0,0,1,.1195,2.31293,7.49612,7.49612,0,0,1-.66912.493l-.014.00873a4.6534,4.6534,0,0,0-.463-2.0813l.00634-.00293C28.91193,10.52051,28.8949,10.49066,28.88043,10.46057Zm-2.4093,3.32117c.01337.0014.0155.00152.00018-.00037a4.589,4.589,0,0,0,.43122-2.79034l.01086.00067c-.01422-.11023-.03119-.22492-.05182-.342.02063.11712.0376.23181.05182.342h.02338a5.06179,5.06179,0,0,0,.57843-.033,3.42963,3.42963,0,0,1-.01679,2.59875,1.97929,1.97929,0,0,1-1.02765.22516ZM20.62128,6.57562h0a8.37113,8.37113,0,0,1,.19085-1.24756,8.90318,8.90318,0,0,1,2.525,1.24512A6.59128,6.59128,0,0,0,20.621,6.58ZM24.99072,8.1543a8.16875,8.16875,0,0,1,1.03137,1.9248A12.56829,12.56829,0,0,1,20.9729,7.32141,7.13442,7.13442,0,0,1,24.99072,8.1543Zm1.39069,1.05261a5.67469,5.67469,0,0,1,.8053,1.07153c-.14154-.01166-.28443-.02771-.42994-.04919l-.01153-.00232A7.20335,7.20335,0,0,0,26.38141,9.20691Zm1.69507,4.12134a4.55609,4.55609,0,0,0,.2157-2.52918l.00708-.00146c-.00568-.02783-.01581-.05451-.022-.08222h0c.00617.02771.0163.05439.022.08222a4.4185,4.4185,0,0,0,.43493-.15955,4.12538,4.12538,0,0,1,.3877,2.15631,8.849,8.849,0,0,1-1.03894.53125v-.00006Zm.00616-.00208c-.00989.02551-.02368.0492-.03412.07446l.01221-.03161C28.06659,13.354,28.077,13.34131,28.08264,13.32617ZM28.5282,10.211c-.12006.02484-.24317.04486-.36981.059.02209.06653.03515.13556.0542.20306l-.00007-.00024c-.019-.06738-.032-.13635-.05413-.20276V10.27l-.00946.00049a5.47569,5.47569,0,0,0-3.17981-3.16693A8.41819,8.41819,0,0,0,21.00146,4.6626l.00031-.0011h-.00006c.02875-.08411.05878-.1673.09039-.24835a1.18893,1.18893,0,0,1,1.27063.163,23.66635,23.66635,0,0,1,4.97016,4.00647,9.39163,9.39163,0,0,1,1.19549,1.62836ZM19.40552,5.61975c-.05036-.07519-.11957-.17309-.16809-.24914-.04523-.06946-.08521-.13654-.12384-.20337.03143-.01813.05859-.03675.09076-.05481a1.88882,1.88882,0,0,1,.32287-.0116C19.482,5.26794,19.44183,5.44037,19.40552,5.61975Zm6.89215,5.33356a4.00217,4.00217,0,0,1-.14,2.78406,6.94955,6.94955,0,0,1-5.1156-4.1615,6.65156,6.65156,0,0,1-.37634-1.46314A11.01642,11.01642,0,0,0,26.29767,10.95331Zm-1.66229,4.04376a9.77583,9.77583,0,0,1-1.49884-.553c.77581.05322,1.49566.1023,2.16314.12744C25.07544,14.72534,24.85168,14.87769,24.63538,14.99707Zm1.38543-.40814c.02625-.00116.05262-.00232.07587-.00232.238,0,.46851-.00482.69208-.01593a5.9326,5.9326,0,0,1-.79541.67255q-.20014-.01612-.40522-.046l-.02777-.00433A4.91112,4.91112,0,0,0,26.02081,14.58893Zm1.91761-.94806c-.01593.032-.02778.06592-.04462.09741a9.87432,9.87432,0,0,0,1.18359-.58777,4.02206,4.02206,0,0,1-.12549.42829,5.05458,5.05458,0,0,1-1.09973.23339l-.00543.00708C27.8786,13.7641,27.90808,13.70135,27.93842,13.64087Zm.92712.23212h0l-.00067.0014h0l.00067-.0014Zm.421-.42072h0l-.016.00623a3.91126,3.91126,0,0,0,.09564-.48475l.00623-.00384a7.44225,7.44225,0,0,0,.66595-.48169,5.56183,5.56183,0,0,1-.12646.62824A4.07314,4.07314,0,0,1,29.28656,13.45227Zm.96021-8.57538c.04223.13434.081.26837.1192.40418.0816.30182.144.56927.19195.80731.00324.01562.00452.03149.00763.04712A10.92154,10.92154,0,0,0,29.423,3.92841c-.0094-.0138-.02185-.03235-.03228-.04554A8.22462,8.22462,0,0,1,30.24677,4.87689Zm.04046,2.28388c.12036.377.21777.74029.30457,1.09729a2.804,2.804,0,0,1-.54462,1.08746c.00452.01825.00806.03632.01239.05457l-.01239-.05451-.00586.00635a12.33585,12.33585,0,0,0-.93408-2.59186,10.19349,10.19349,0,0,0-1.00189-1.61255C29.87384,5.91473,30.09662,6.56573,30.28723,7.16077ZM28.193,5.51166A11.44,11.44,0,0,1,29.882,9.521a2.6245,2.6245,0,0,1-1.15259.64087c.03265.05883.05988.11865.09.178l-.00013-.00024c-.03009-.05926-.05725-.119-.08984-.17779l-.00848.00207c-1.2403-2.27576-3.99854-4.36993-6.54779-5.93341C23.17377,4.11346,27.22015,4.13562,28.193,5.51166Zm-6.52728-1.5788c-.09473-.0534-.19647-.09277-.2926-.14355l.00616-.01245a5.51288,5.51288,0,0,1,.74695-1.0951,5.49771,5.49771,0,0,1,5.18005,1.7536A11.51465,11.51465,0,0,0,21.66571,3.93286Zm-1.93329.52381-.00146.00457a4.40808,4.40808,0,0,0-.93384.06385l-.00525-.01062c-.01569-.0423-.03064-.08393-.0448-.12446a6.99171,6.99171,0,0,1,1.23212-.87817c.05542.01459.10858.03619.16357.05219A6.41215,6.41215,0,0,0,19.73242,4.45667ZM17.64166,6.27386a6.67855,6.67855,0,0,0,.08472,1.69684,3.0602,3.0602,0,0,0-.72516.9173l-.00708-.01709a5.33327,5.33327,0,0,1-.28723-1.1369A3.9452,3.9452,0,0,1,17.64166,6.27386Zm-.6148,3.39277c.01031-.02564.02288-.05024.03393-.07557-.01105.02533-.02356.05-.03393.07569Zm-.05378.162a8.62146,8.62146,0,0,0,1.17731,1.88477c.14.162.32434.37762.46954.53363l.25415.25958.13294.127.02777.0263.03223.033c.20208.18927.34118.31683.59143.52948-.09613-.04523-.22418-.10248-.31922-.15a5.45064,5.45064,0,0,1-2.51037-2.21491A2.8975,2.8975,0,0,1,16.97308,9.82861Zm2.40436,2.48725-.10034-.09674-.03967-.03864-.134-.12964-.25708-.26532A10.006,10.006,0,0,1,17.189,9.33691a3.1637,3.1637,0,0,1,.66523-.8208c.027.09125.05493.18274.08581.27423a9.85273,9.85273,0,0,0,3.88428,5.11054l-.084-.01709C21.22693,13.7757,20.85443,13.697,19.37744,12.31586ZM17.95618,8.433a4.56172,4.56172,0,0,1,1.30963-.74456,7.677,7.677,0,0,0,.34888,1.89483,6.96368,6.96368,0,0,0,.63226,1.41761,7.46939,7.46939,0,0,0,3.68219,3.12847c-.06183-.00244-.1438-.003-.20471-.00512a11.15261,11.15261,0,0,1-1.43415-.13806A9.69642,9.69642,0,0,1,17.95618,8.433Zm6.5307,6.63471c-.0943.04913-.1864.09009-.27918.133a11.44548,11.44548,0,0,1-2.12-.89318A16.48326,16.48326,0,0,1,24.48688,15.06775Zm.946.269c.10779.02356.21656.04285.32624.05658-.061.03833-.12421.07306-.18665.10913-.07611-.01031-.15277-.02148-.2276-.03363L25.3161,15.465l.00183-.00153-.00268-.00061C25.35394,15.42212,25.39081,15.38293,25.43292,15.33673Zm1.83093-.8.00489-.00036h0a6.30156,6.30156,0,0,0,1.41034-.28595,3.97249,3.97249,0,0,1-.52576.767,5.22867,5.22867,0,0,1-1.62878.24933c-.03131,0-.06183,0-.09375-.00055l-.00519-.00024A5.97128,5.97128,0,0,0,27.26385,14.53668Zm2.8736-1.37427-.00012.00031-.001.0003Zm.80872-6.51525-.00092-.01886a6.39927,6.39927,0,0,0-.14319-.906,8.23424,8.23424,0,0,1,.768,1.79865A4.47462,4.47462,0,0,0,30.94617,6.64716ZM28.80627,2.624A4.41113,4.41113,0,0,1,30.1709,4.64679l.00366.01111a10.93066,10.93066,0,0,0-1.01349-1.1128l-.00683-.0072-.04883-.04217c-.11768-.15033-.14826-.18781-.27356-.33454A7.04193,7.04193,0,0,0,27.1817,1.74091,11.52129,11.52129,0,0,1,28.80627,2.624Zm-2.39685-.79364A7.86769,7.86769,0,0,0,25.2298,1.4483c1.47516.43305,2.99139,1.59845,4.33453,4.03608a10.06615,10.06615,0,0,0-1.97821-.951,6.22791,6.22791,0,0,0-3.39777-1.97767,5.515,5.515,0,0,0-1.94531-.001l.00818-.00885a4.50207,4.50207,0,0,1,2.026-1.25141,7.89037,7.89037,0,0,1,.95258.15393,5.08358,5.08358,0,0,0-.88532-.17511l.01544-.00427.05848-.014A3.37524,3.37524,0,0,1,26.40942,1.83038ZM24.741,1.09161l-.00141-.00018.002.00018Zm-.51947-.066h-.00013c-.04956-.00366-.0979-.01715-.14758-.01873C24.12354,1.00848,24.17194,1.022,24.2215,1.02563Zm-1.83612.38343a5.03337,5.03337,0,0,0-1.98926,1.7428l-.00006.00006-.00012.00018c-.119.0495-.2016.08453-.2016.08453a4.61192,4.61192,0,0,0-.98114-.22784c-.02778-.00031-.06537.00146-.09357.00146A9.21287,9.21287,0,0,1,22.38538,1.40906ZM18.66681,3.42151c-.01538.02106-.03076.04-.04443.058l.00439-.02667.00439-.01947.00007-.00012Zm-.55658,1.084c.0097.056.02.11524.03308.17725l.00269.00879c-.03968.01514-.07917.03039-.11774.04779l.00268-.00989C18.05518,4.65521,18.08148,4.58,18.11023,4.50549Zm-.56018,1.01545a6.78012,6.78012,0,0,0-.87622,1.83978l-.00134-.01581a3.68171,3.68171,0,0,1,.06127-.85974l.0019-.00794A2.26475,2.26475,0,0,1,17.55005,5.52094Zm-.75446.70251.00837-.02319-.0116.03686Zm-.18725.60156.00152-.00586-.00018.0011-.00116.00427-.00018.00055c-.00574.02265-.01081.04822-.0163.07111L16.592,6.8963C16.59747,6.87335,16.6026,6.84772,16.60834,6.825Zm-.19855,1.51111a8.24406,8.24406,0,0,1,.084-.88373,4.47382,4.47382,0,0,0-.00061.47284c.00061.01264.003.02533.00378.038-.03211.13324-.06793.26519-.08722.40069C16.41016,8.35419,16.40936,8.34589,16.40979,8.33612Zm.01386.44617c-.00568.13434.00439.26794.00646.402-.002-.02509-.00909-.04957-.01086-.07465V9.10956c-.00269-.03473-.004-.07068-.00574-.1062C16.41815,8.92969,16.41528,8.85577,16.42365,8.78229Zm.79138,3.52289-.00019-.00037-.01684-.03113c-.00775-.01648-.05445-.10486-.1142-.23212-.01617-.03533-.03393-.0794-.0509-.11883.06531.14667.13946.28906.21374.43152C17.23724,12.33722,17.2243,12.32233,17.215,12.30518Zm3.22418,3.29449-.04755-.02661c-.11572-.0647-.23907-.13507-.33764-.19617l-.002-.00146-.00348-.00214c-.0083-.00531-.01526-.01227-.02356-.01758l.017.00965c-.02514-.0152-.04675-.03571-.07171-.05127l-.00586-.00354-.01953-.01459c.00878.00555.01654.01263.02539.01813.06524.04144.1314.081.19787.12048a7.18586,7.18586,0,0,0,.95374.47,7.28785,7.28785,0,0,1-.901-.43787C20.29456,15.50958,20.36407,15.55927,20.43921,15.59967Zm-.466-.47479a9.40315,9.40315,0,0,1-1.1308-.8404,8.39219,8.39219,0,0,1-1.62055-2.14636,8.80268,8.80268,0,0,1-.35315-.85284c-.00494-.03028-.00409-.05835-.00824-.08832a5.34723,5.34723,0,0,0,1.99891,1.94873,38.78372,38.78372,0,0,0,4.73132,2.30542A4.32049,4.32049,0,0,1,19.97321,15.12488Zm4.9486.63556.00055.00006c.027.00317.08142.012.11573.017-.15192.06836-.30225.14007-.46009.19561A2.35012,2.35012,0,0,0,24.92181,15.76044Zm1.08289-.215-.00653-.00061c.06116-.0365.12372-.07135.1831-.10968l.00129.00012c.06359.00269.1286.00446.19372.00446.10181,0,.205-.0036.3089-.01227a6.2494,6.2494,0,0,0,1.30518-.22809c-.0644.064-.13178.11994-.19867.17719a4.95742,4.95742,0,0,1-1.36988.18359C26.28259,15.56018,26.14319,15.55475,26.0047,15.54547Zm2.7381-.53516-.00464.00409.00464-.00409Zm.12665-.11608a4.02475,4.02475,0,0,1-.816.4l-.02277.00726c.07379-.06237.1507-.1214.21973-.18908l.00158-.00055a3.77273,3.77273,0,0,0,.86084-.4491A3.17445,3.17445,0,0,1,28.86945,14.89423Zm.73754-.67743c-.02844.0238-.05889.0437-.08776.06665a3.03779,3.03779,0,0,0,.46356-.75959c.01221-.01025.02569-.01892.03778-.02929l.00006-.00019a4.22386,4.22386,0,0,0,.453-.46344,4.17113,4.17113,0,0,1-.57531.91266C29.8045,14.03821,29.70886,14.131,29.607,14.2168Zm2.24982-4.93506v.00012l-.01184.07538-.00348.01172c.0011-.03882-.004-.07031-.0039-.10785-.00123.04931-.0055.09833-.00788.14752a3.86832,3.86832,0,0,1-.20666.696v.01678l-.00055-.01831-.03369.08057a4.76537,4.76537,0,0,1-.33765.62884v.00006L31.243,10.824a9.5448,9.5448,0,0,0-.279-3.4389l.00134-.01715c.00238-.08929.00452-.18744.00177-.29645a2.98959,2.98959,0,0,1,.87049,2.18964c.00286-.12024.02337-.2392.01922-.35962.00659.07983.01093.17535.01373.26636C31.86609,9.20911,31.86182,9.24744,31.85681,9.28174Z"/><path class="a" d="M17.827,13.30731c.06573.09223.1344.18537.20831.27881l.0199.02454C18.00067,13.53912,17.92975,13.44476,17.827,13.30731Z"/><path class="a" d="M16.37195,8.31274c.013-.17669.03607-.37884.074-.71093C16.403,7.92072,16.38226,8.11,16.37195,8.31274Z"/><path class="a" d="M31.751,10.2511l.0028-.01434.01154-.05964-.00287.01319c-.02545.12732-.059.274-.095.41955.0235-.08831.045-.18414.08325-.35724Z"/><path class="a" d="M30.16028,13.65948c-.04389.0542-.08832.1012-.13251.15241.01984-.02148.04022-.04272.06006-.0647Z"/><path class="a" d="M17.385,12.624c.02924.04938.05945.1.09051.14881-.01354-.02155-.02716-.04731-.04351-.07514C17.41516,12.67285,17.40033,12.648,17.385,12.624Z"/><path class="a" d="M19.26172,2.71576l.02222-.01843h-.00007l-.00555.00421Z"/><path class="a" d="M21.282,1.54083c.29767-.10449.47809-.16742.63263-.21655C21.72339,1.37823,21.56329,1.43512,21.282,1.54083Z"/><path class="a" d="M16.37177,8.31891c.01373-.23377.03826-.46692.07226-.69885q-.05109.34634-.07214.69574l.00006-.00306-.00012.00342-.0011.0329c-.00769.1217-.01276.2345-.01276.37451,0,.09375.00244.19824.00385.32611.00085-.30945.00171-.50274.0086-.6795-.01184.22619-.016.45288-.0086.6795-.00739-.23242-.00354-.4649.00909-.6969Zm-.00007.00073-.00061.01819Z"/><path class="a" d="M20.28339,2.019l-.02991.01825.02667-.01587Z"/><path class="a" d="M22.579,1.15784c.28876-.04767.46454-.07758.6087-.09766C22.99176,1.08087,22.85187,1.10571,22.579,1.15784Z"/><path class="a" d="M17.88593,4.14459c-.04078.05994-.07959.11829-.1178.1734.04114-.06225.08258-.12127.12072-.17724Z"/><path class="a" d="M17.32489,5.023c.01288-.02185.02979-.04779.04346-.07044.09-.15606.19037-.30975.29382-.46636.059-.08808.113-.17957.17566-.26508.01849-.02582.03223-.05469.051-.08032-.06054.089-.13.196-.19769.29937.02765-.04156.04773-.07867.077-.12213-.04792.07245-.09723.15039-.14624.22711l-.04792.07416.0047-.00708-.00769.012.003-.00489c-.05114.08008-.10919.1554-.15734.23743-.03461.06049-.07868.14044-.11243.19977a7.481,7.481,0,0,0-.34918.737,7.83821,7.83821,0,0,1,.34741-.73011Z"/><path class="a" d="M19.01642,2.92578c.09057-.0802.16833-.14667.2453-.21-.12042.09692-.24194.20087-.403.34778C18.91638,3.01294,18.96851,2.96741,19.01642,2.92578Z"/><polygon class="a" points="18.75 3.164 18.75 3.165 18.75 3.164 18.75 3.164"/><path class="a" d="M75.91906,33.82969H64.732l6.5741-7.78465a4.03769,4.03769,0,0,0,1.171-2.36121,1.68707,1.68707,0,0,0-.49022-1.26071,1.73774,1.73774,0,0,0-1.27134-.48034q-1.95057,0-1.9508,2.34146v.18027H65.2421V24.3639a5.24616,5.24616,0,0,1,1.45132-3.93665,5.4643,5.4643,0,0,1,3.98277-1.41614,5.96807,5.96807,0,0,1,3.78154,1.14033,4.20444,4.20444,0,0,1,1.60105,3.51263,6.36408,6.36408,0,0,1-1.98151,4.14238l-2.64135,2.91161h4.48315ZM88.6958,26.75535a9.64121,9.64121,0,0,1-1.20067,5.0635,5.09668,5.09668,0,0,1-8.69455-.07126,9.94508,9.94508,0,0,1-1.19065-5.13208,9.9413,9.9413,0,0,1,1.19065-5.1231,5.09619,5.09619,0,0,1,8.75459.05032A10.45183,10.45183,0,0,1,88.6958,26.75535Zm-7.39416-.13984q0,4.614,1.86156,4.61281,1.83964,0,1.841-4.61281,0-4.61223-1.841-4.61282-1.23144,0-1.6509,1.84075A13.479,13.479,0,0,0,81.30164,26.61551ZM101.2231,33.8297H90.037L96.61131,26.045a4.02915,4.02915,0,0,0,1.17027-2.36121,1.68412,1.68412,0,0,0-.491-1.26071,1.73725,1.73725,0,0,0-1.27044-.48034q-1.95014,0-1.95065,2.34146v.18027h-3.522V24.3639a5.24833,5.24833,0,0,1,1.45026-3.93665,5.462,5.462,0,0,1,3.98245-1.41614,5.96517,5.96517,0,0,1,3.78138,1.14033,4.20079,4.20079,0,0,1,1.60118,3.51263,6.36575,6.36575,0,0,1-1.98029,4.14238l-2.64207,2.91161h4.48269ZM114,26.75535a9.647,9.647,0,0,1-1.19977,5.06351,5.09722,5.09722,0,0,1-8.69515-.07127,9.949,9.949,0,0,1-1.19125-5.13208,9.93737,9.93737,0,0,1,1.19125-5.1231,5.0962,5.0962,0,0,1,8.7546.05032A10.45312,10.45312,0,0,1,114,26.75535Zm-7.39342-.13984q0,4.614,1.86113,4.61281,1.84143,0,1.84-4.61281,0-4.61223-1.84-4.61282-1.23213,0-1.65106,1.84075a13.39166,13.39166,0,0,0-.21006,2.77207Z"/></svg>