<?xml version="1.0" encoding="utf-8"?>
<!-- Generator: Adobe Illustrator 24.0.2, SVG Export Plug-In . SVG Version: 6.00 Build 0)  -->
<svg version="1.1" id="Layer_1" xmlns="http://www.w3.org/2000/svg" xmlns:xlink="http://www.w3.org/1999/xlink" x="0px" y="0px"
	 viewBox="0 0 341 150" style="enable-background:new 0 0 341 150;" xml:space="preserve">
<style type="text/css">
	.st0{fill:#999999;}
</style>
<g>
	<g>
		<path class="st0" d="M87.2,114.4L109.9,95c2.3-1.9,4.2-3.6,5.8-5.1c1.6-1.6,2.9-3,3.8-4.4c1-1.4,1.7-2.7,2.1-4.1
			c0.4-1.3,0.7-2.7,0.7-4.3c0-3.3-1-5.8-3.1-7.6c-2.1-1.8-4.6-2.7-7.6-2.7s-5.7,0.8-8,2.5s-4.7,4.1-7.3,7.5l-8.2-6.4
			c1.6-2.2,3.2-4.2,4.8-5.9c1.6-1.7,3.4-3.2,5.3-4.4s4-2.1,6.3-2.7c2.3-0.6,4.9-0.9,7.9-0.9c3.2,0,6.2,0.5,8.8,1.4
			c2.7,0.9,5,2.3,6.9,4c1.9,1.7,3.4,3.8,4.5,6.3c1.1,2.4,1.6,5.1,1.6,8.1v0.2c0,2.6-0.4,5-1,7.1c-0.7,2.1-1.8,4.1-3.2,6.1
			c-1.4,1.9-3.2,3.9-5.4,5.9c-2.2,2-4.7,4.2-7.6,6.6l-13.6,11.3H135v10.2H87.2V114.4z"/>
		<path class="st0" d="M174.9,123.5c-5.1,0-9.8-0.9-14-2.7c-4.2-1.8-7.9-4.2-10.9-7.3c-3-3.1-5.4-6.7-7.1-10.8
			c-1.7-4.1-2.5-8.5-2.5-13.2v-0.2c0-4.7,0.9-9.1,2.5-13.2c1.7-4.1,4.1-7.8,7.2-10.9c3.1-3.1,6.7-5.6,11-7.4c4.2-1.8,8.9-2.7,14-2.7
			s9.8,0.9,14,2.7s7.8,4.2,10.9,7.3c3,3.1,5.4,6.7,7.1,10.8c1.7,4.1,2.5,8.5,2.5,13.2v0.2c0,4.7-0.9,9.1-2.5,13.2
			c-1.7,4.1-4.1,7.8-7.2,10.9c-3.1,3.1-6.7,5.6-11,7.4C184.7,122.6,180,123.5,174.9,123.5 M175.1,112.9c3.3,0,6.3-0.6,9-1.9
			c2.7-1.2,5.1-2.9,7-5c2-2.1,3.5-4.6,4.6-7.4s1.6-5.8,1.6-9.1v-0.2c0-3.2-0.5-6.3-1.6-9.1c-1.1-2.8-2.6-5.3-4.6-7.5
			c-2-2.1-4.4-3.8-7.1-5.1c-2.8-1.3-5.8-1.9-9-1.9c-3.3,0-6.3,0.6-9,1.8c-2.7,1.2-5.1,2.9-7,5s-3.5,4.6-4.6,7.4s-1.7,5.9-1.7,9.1
			v0.2c0,3.2,0.6,6.2,1.7,9.1c1.1,2.9,2.6,5.4,4.6,7.5s4.4,3.8,7.1,5.1C168.8,112.2,171.8,112.9,175.1,112.9"/>
		<path class="st0" d="M214.1,114.4L236.9,95c2.3-1.9,4.2-3.6,5.8-5.1c1.6-1.6,2.9-3,3.8-4.4c1-1.4,1.7-2.7,2.1-4.1
			c0.4-1.3,0.7-2.7,0.7-4.3c0-3.3-1-5.8-3.1-7.6c-2.1-1.8-4.6-2.7-7.6-2.7s-5.7,0.8-8,2.5s-4.8,4.1-7.3,7.5l-8.2-6.4
			c1.6-2.2,3.2-4.2,4.8-5.9c1.6-1.7,3.4-3.2,5.3-4.4c1.9-1.2,4-2.1,6.3-2.7c2.3-0.6,4.9-0.9,7.9-0.9c3.2,0,6.2,0.5,8.8,1.4
			c2.7,0.9,5,2.3,6.9,4c1.9,1.7,3.4,3.8,4.5,6.3c1.1,2.4,1.6,5.1,1.6,8.1v0.2c0,2.6-0.3,5-1,7.1s-1.7,4.1-3.2,6.1
			c-1.4,1.9-3.2,3.9-5.4,5.9s-4.7,4.2-7.6,6.6l-13.6,11.3H262v10.2h-47.8L214.1,114.4L214.1,114.4z"/>
		<path class="st0" d="M301.9,123.5c-5.1,0-9.8-0.9-14-2.7c-4.2-1.8-7.8-4.2-10.9-7.3c-3-3.1-5.4-6.7-7.1-10.8
			c-1.7-4.1-2.5-8.5-2.5-13.2v-0.2c0-4.7,0.8-9.1,2.5-13.2s4.1-7.8,7.2-10.9s6.7-5.6,11-7.4c4.2-1.8,8.9-2.7,14-2.7s9.8,0.9,14,2.7
			s7.8,4.2,10.9,7.3c3,3.1,5.4,6.7,7.1,10.8c1.7,4.1,2.6,8.5,2.6,13.2v0.2c0,4.7-0.9,9.1-2.6,13.2s-4.1,7.8-7.2,10.9
			s-6.8,5.6-11,7.4C311.6,122.6,307,123.5,301.9,123.5 M302.1,112.9c3.3,0,6.3-0.6,9-1.9c2.7-1.2,5.1-2.9,7-5s3.5-4.6,4.6-7.4
			s1.6-5.8,1.6-9.1v-0.2c0-3.2-0.5-6.3-1.6-9.1c-1.1-2.8-2.6-5.3-4.6-7.5c-2-2.1-4.4-3.8-7.1-5.1c-2.8-1.3-5.8-1.9-9-1.9
			c-3.3,0-6.3,0.6-9,1.8c-2.7,1.2-5.1,2.9-7,5s-3.5,4.6-4.6,7.4s-1.6,5.9-1.6,9.1v0.2c0,3.2,0.6,6.2,1.6,9.1
			c1.1,2.9,2.6,5.4,4.6,7.5s4.3,3.8,7.1,5.1C295.8,112.2,298.8,112.9,302.1,112.9"/>
	</g>
	<g>
		<path class="st0" d="M94.3,34.8c-0.3,0-0.7,0-1.2,0v4c0.8,0,1.7,0.2,2.4,0.3v2.2h-8.4V39c0.7-0.1,1.6-0.3,2.4-0.3V25.3
			c-0.8-0.1-1.7-0.2-2.4-0.3v-2.2h2.2c0.9,0,3.3-0.1,5.2-0.1c4.5,0,7,2.1,7,5.7C101.6,31.9,98.8,34.8,94.3,34.8z M94.4,25.5
			c-0.4,0-0.8,0-1.2,0v6.2c0.4,0.1,0.7,0.1,1,0.1c2.2,0,3.7-1.2,3.7-3.2C97.9,26.7,96.8,25.5,94.4,25.5z M111.6,41.6
			c-5.7,0-8.4-3.6-8.4-9.3c0-6.1,4.1-9.8,9.1-9.8c4.9,0,8.4,3,8.4,9.3C120.7,37.9,116.6,41.6,111.6,41.6z M111.9,25.6
			c-2.6,0-4.9,2-4.9,6.2c0,3.9,1.5,6.5,4.9,6.5c2.4,0,5-1.9,5-6.3C116.9,27.9,115.1,25.6,111.9,25.6z M132.9,41.3l-4.5-7.7h-0.5v5.1
			c0.5,0,1.1,0.1,1.7,0.3v2.3H122V39c0.7-0.1,1.6-0.3,2.4-0.3V25.3c-0.8-0.1-1.7-0.2-2.4-0.3v-2.2h2.1c0.7,0,3.3-0.1,5.6-0.1
			c4.1,0,6.7,1.4,6.7,5.2c0,2.6-1.8,4.5-4.4,5c0.3,0.4,0.7,0.9,0.9,1.3l2.9,4.5c0.5,0.1,1.2,0.2,1.8,0.3v2.3
			C137.6,41.3,132.9,41.3,132.9,41.3z M129.3,25.5c-0.5,0-1,0-1.4,0.1V31c0.2,0,0.7,0.1,1.3,0.1c2.2,0,3.5-1.1,3.5-2.8
			C132.7,26.4,131.6,25.5,129.3,25.5z M150.4,27.9c-0.1-0.9-0.3-1.6-0.3-2.3h-2.9v13.1c0.8,0,1.7,0.2,2.4,0.3v2.2h-8.4V39
			c0.7-0.1,1.6-0.3,2.4-0.3V25.6h-2.8c0,0.7-0.2,1.4-0.3,2.3h-2.6v-5.2H153v5.2C153,27.9,150.4,27.9,150.4,27.9z M171.1,25.3v8.9
			c0,4.9-2.7,7.4-7.7,7.4c-5.9,0-7.2-3.2-7.2-6.7v-9.6c-0.6-0.1-1.2-0.2-1.7-0.3v-2.3h7.3V25c-0.6,0.2-1.3,0.2-2,0.3v9.3
			c0,2.3,0.8,4,3.8,4c2.7,0,3.9-1.2,3.9-4.3v-9c-0.7-0.1-1.4-0.1-2-0.3v-2.3h7.2V25C172.2,25.1,171.7,25.2,171.1,25.3z M189.5,34.1
			v6.3c-1.8,0.7-4.2,1.1-6.4,1.1c-5.9,0-9.3-3.5-9.3-9.1c0-5.9,4-10,10.3-10c1.7,0,3.5,0.2,5.2,0.7v5h-2.8c-0.2-0.8-0.2-1.5-0.3-2.2
			c-0.7-0.2-1.5-0.3-2.3-0.3c-3.6,0-6.2,2.3-6.2,6.5c0,3.9,2.2,6.3,5.9,6.3c0.9,0,1.6-0.1,2.4-0.3v-3.9c-0.8-0.1-1.7-0.2-2.4-0.4
			v-2.2h7.5v2.3C190.6,33.9,190,34,189.5,34.1z M202.4,41.3V39c0.6-0.1,1.3-0.2,1.9-0.3l-0.8-2.2h-6.8l-0.8,2.2
			c0.6,0.1,1.4,0.2,2,0.3v2.2h-7V39c0.4-0.1,1-0.2,1.5-0.3l5.7-16.1h4.4l5.8,16.1c0.5,0,1,0.1,1.4,0.3v2.2L202.4,41.3L202.4,41.3z
			 M201,29.2c-0.4-1-0.6-1.9-0.8-2.9l0,0c-0.2,0.9-0.5,2-0.9,3.1l-1.6,4.4h5L201,29.2z M210.6,41.3V39c0.7-0.1,1.6-0.3,2.4-0.3V25.3
			c-0.8-0.1-1.7-0.2-2.4-0.3v-2.2h8.4V25c-0.7,0.1-1.6,0.3-2.4,0.3v13.1h3.6c0.1-0.7,0.2-1.5,0.3-2.3h2.6v5.2
			C223.1,41.3,210.6,41.3,210.6,41.3z"/>
	</g>
	<g>
		<path class="st0" d="M31.5,23.2C15.1,29.7,4.9,46.7,4.9,73v40c0,0,3.3-25.7,26.6-33.1V23.2z"/>
		<path class="st0" d="M39.4,83.9c-9.5,1.9-23.5,9.5-27.6,20.2c20.4-24.8,62.1-0.8,64-47.5c0.6-14.8,0.6-32.9,0.6-32.9
			c-21.8,1.2-37,7-37,7V83.9z"/>
		<path class="st0" d="M36.7,97.3c0,0-22.2,1.8-24,14.4c-1.5,9.9,24,10.1,24,10.1V97.3z"/>
	</g>
</g>
</svg>
