<?xml version="1.0" encoding="utf-8"?>
<!-- Generator: Adobe Illustrator 24.0.2, SVG Export Plug-In . SVG Version: 6.00 Build 0)  -->
<svg version="1.1" id="Layer_1" xmlns="http://www.w3.org/2000/svg" xmlns:xlink="http://www.w3.org/1999/xlink" x="0px" y="0px"
	 viewBox="0 0 433 150" style="enable-background:new 0 0 433 150;" xml:space="preserve">
<style type="text/css">
	.st0{opacity:0.8;fill:#999999;enable-background:new    ;}
	.st1{fill:#999999;}
</style>
<g>
	<g>
		<path class="st0" d="M203,20.5h1.7v7.6c0,1.3-0.2,2.4-0.4,3.2c-0.3,0.8-0.9,1.4-1.6,1.9c-0.8,0.5-1.8,0.7-3.1,0.7
			c-1.2,0-2.2-0.2-3-0.6c-0.8-0.4-1.3-1-1.7-1.8c-0.3-0.8-0.5-1.9-0.5-3.3v-7.6h1.7v7.6c0,1.1,0.1,2,0.3,2.5s0.6,1,1.1,1.3
			s1.1,0.4,1.9,0.4c1.3,0,2.2-0.3,2.7-0.9s0.8-1.7,0.8-3.3v-7.7H203z"/>
		<path class="st0" d="M207.6,33.6V20.5h1.8l6.9,10.3V20.5h1.7v13.1h-1.8l-6.9-10.3v10.3H207.6z"/>
		<path class="st0" d="M221.2,33.6V20.5h1.7v13.1H221.2z"/>
		<path class="st0" d="M224.5,33.6l5.1-13.1h1.9l5.4,13.1h-2l-1.5-4h-5.5l-1.4,4H224.5z M227.7,19.7c0-0.6,0.2-1.1,0.5-1.5
			c0.4-0.4,0.8-0.6,1.3-0.6c0.4,0,0.9,0.2,1.5,0.5c0.4,0.2,0.6,0.3,0.8,0.3s0.4-0.1,0.5-0.2s0.2-0.3,0.2-0.6h1.2
			c0,0.7-0.2,1.2-0.5,1.5s-0.7,0.5-1.2,0.5c-0.4,0-0.9-0.2-1.5-0.5c-0.4-0.2-0.7-0.3-0.9-0.3s-0.4,0.1-0.5,0.2
			c-0.1,0.2-0.2,0.4-0.2,0.6h-1.2V19.7z M228.3,28.3h4.4l-1.4-3.6c-0.4-1.1-0.7-2-0.9-2.7c-0.2,0.8-0.4,1.7-0.7,2.5L228.3,28.3z"/>
		<path class="st0" d="M237.7,27.3c0-2.2,0.6-3.9,1.8-5.1s2.7-1.8,4.5-1.8c1.2,0,2.3,0.3,3.3,0.9s1.7,1.4,2.2,2.4s0.8,2.2,0.8,3.5
			s-0.3,2.5-0.8,3.6s-1.3,1.8-2.3,2.4c-1,0.5-2.1,0.8-3.2,0.8c-1.2,0-2.4-0.3-3.3-0.9c-1-0.6-1.7-1.4-2.2-2.5
			C237.9,29.5,237.7,28.4,237.7,27.3z M239.5,27.3c0,1.6,0.4,2.8,1.3,3.7c0.9,0.9,1.9,1.4,3.2,1.4s2.4-0.5,3.2-1.4s1.3-2.2,1.3-3.9
			c0-1.1-0.2-2-0.5-2.8c-0.4-0.8-0.9-1.4-1.6-1.9c-0.7-0.4-1.5-0.7-2.3-0.7c-1.2,0-2.3,0.4-3.2,1.3
			C239.9,23.9,239.5,25.3,239.5,27.3z"/>
		<path class="st0" d="M257.6,33.6V20.5h9.5v1.6h-7.8v4h7.3v1.5h-7.3v4.5h8.1v1.5H257.6z"/>
		<path class="st0" d="M278.4,20.5h1.7v7.6c0,1.3-0.1,2.4-0.5,3.2c-0.3,0.8-0.8,1.4-1.6,1.9c-0.8,0.5-1.8,0.7-3.1,0.7
			c-1.2,0-2.2-0.2-3-0.6c-0.8-0.4-1.3-1-1.7-1.8c-0.3-0.8-0.5-1.9-0.5-3.3v-7.6h1.7v7.6c0,1.1,0.1,2,0.3,2.5c0.2,0.5,0.6,1,1.1,1.3
			s1.1,0.4,1.9,0.4c1.3,0,2.2-0.3,2.8-0.9c0.5-0.6,0.8-1.7,0.8-3.3v-7.7H278.4z"/>
		<path class="st0" d="M283.1,33.6V20.5h5.8c1.2,0,2.1,0.1,2.7,0.4c0.6,0.2,1.1,0.7,1.5,1.2c0.4,0.6,0.5,1.3,0.5,2
			c0,0.9-0.3,1.7-0.9,2.4c-0.6,0.6-1.5,1-2.8,1.2c0.5,0.2,0.8,0.4,1.1,0.7c0.5,0.5,1,1,1.5,1.7l2.3,3.6h-2.2l-1.7-2.7
			c-0.5-0.8-0.9-1.4-1.3-1.8c-0.3-0.4-0.6-0.7-0.9-0.9c-0.3-0.2-0.5-0.3-0.8-0.4c-0.2,0-0.5-0.1-1-0.1h-2v5.8
			C284.9,33.6,283.1,33.6,283.1,33.6z M284.8,26.3h3.7c0.8,0,1.4-0.1,1.9-0.2c0.5-0.2,0.8-0.4,1-0.8s0.4-0.8,0.4-1.2
			c0-0.6-0.2-1.1-0.7-1.5S289.9,22,289,22h-4.2L284.8,26.3L284.8,26.3z"/>
		<path class="st0" d="M295.8,27.3c0-2.2,0.6-3.9,1.8-5.1c1.2-1.2,2.7-1.8,4.5-1.8c1.2,0,2.3,0.3,3.3,0.9s1.7,1.4,2.2,2.4
			s0.8,2.2,0.8,3.5s-0.3,2.5-0.8,3.6c-0.6,1.1-1.3,1.8-2.3,2.4c-1,0.5-2.1,0.8-3.2,0.8c-1.3,0-2.4-0.3-3.3-0.9
			c-1-0.6-1.7-1.4-2.2-2.5C296.1,29.5,295.8,28.4,295.8,27.3z M297.6,27.3c0,1.6,0.4,2.8,1.3,3.7c0.9,0.9,1.9,1.4,3.2,1.4
			c1.3,0,2.4-0.5,3.2-1.4c0.9-0.9,1.3-2.2,1.3-3.9c0-1.1-0.2-2-0.6-2.8c-0.3-0.8-0.9-1.4-1.6-1.9c-0.7-0.4-1.5-0.7-2.3-0.7
			c-1.2,0-2.3,0.4-3.2,1.3C298,23.9,297.6,25.3,297.6,27.3z"/>
		<path class="st0" d="M310.6,33.6V20.5h5c0.9,0,1.5,0,2,0.1c0.6,0.1,1.2,0.3,1.6,0.6c0.4,0.3,0.8,0.7,1.1,1.3
			c0.3,0.5,0.4,1.1,0.4,1.8c0,1.1-0.4,2.1-1.1,2.8c-0.7,0.8-2,1.2-3.8,1.2h-3.4v5.3H310.6z M312.4,26.8h3.4c1.1,0,1.9-0.2,2.4-0.6
			s0.7-1,0.7-1.8c0-0.5-0.1-1-0.4-1.4s-0.6-0.7-1.1-0.8c-0.3-0.1-0.8-0.1-1.6-0.1h-3.4V26.8z"/>
		<path class="st0" d="M322.9,33.6V20.5h9.5v1.6h-7.8v4h7.3v1.5h-7.3v4.5h8.1v1.5H322.9z"/>
		<path class="st0" d="M335.4,33.6V20.5h1.7v13.1H335.4z"/>
		<path class="st0" d="M338.8,33.6l5.1-13.1h1.9l5.4,13.1h-2l-1.5-4h-5.5l-1.4,4H338.8z M342.6,28.3h4.5l-1.4-3.6
			c-0.4-1.1-0.7-2-0.9-2.7c-0.2,0.8-0.4,1.7-0.7,2.5L342.6,28.3z"/>
		<path class="st0" d="M194.4,99.7V86.6h8.9v1.6h-7.2v4.1h6.2v1.6h-6.2v6h-1.7V99.7z"/>
		<path class="st0" d="M211.6,99.7v-1.4c-0.7,1.1-1.7,1.6-3,1.6c-0.6,0-1.1-0.1-1.6-0.3c-0.5-0.2-0.9-0.5-1.1-0.8
			c-0.2-0.3-0.4-0.7-0.5-1.2c-0.1-0.3-0.1-0.8-0.1-1.5v-5.9h1.6v5.3c0,0.8,0,1.4,0.1,1.7c0.1,0.4,0.3,0.8,0.6,1s0.7,0.4,1.2,0.4
			s0.9-0.1,1.4-0.4c0.4-0.2,0.7-0.6,0.9-1s0.3-1,0.3-1.8v-5.1h1.6v9.5L211.6,99.7L211.6,99.7z"/>
		<path class="st0" d="M215.6,99.7v-9.5h1.4v1.4c0.7-1,1.7-1.6,3-1.6c0.6,0,1.1,0.1,1.6,0.3c0.5,0.2,0.8,0.5,1.1,0.8
			c0.2,0.3,0.4,0.7,0.5,1.2c0,0.3,0.1,0.8,0.1,1.6v5.9h-1.6V94c0-0.7,0-1.2-0.2-1.5c-0.1-0.3-0.4-0.6-0.7-0.8
			c-0.3-0.2-0.7-0.3-1.1-0.3c-0.7,0-1.3,0.2-1.8,0.7c-0.5,0.4-0.8,1.3-0.8,2.5v5.2L215.6,99.7L215.6,99.7z"/>
		<path class="st0" d="M231.9,99.7v-1.2c-0.6,0.9-1.5,1.4-2.7,1.4c-0.8,0-1.5-0.2-2.1-0.6s-1.1-1-1.5-1.7c-0.4-0.8-0.5-1.6-0.5-2.6
			c0-0.9,0.1-1.8,0.5-2.6c0.3-0.8,0.8-1.4,1.4-1.8c0.6-0.4,1.3-0.6,2.1-0.6c0.6,0,1.1,0.1,1.5,0.4c0.4,0.2,0.8,0.5,1.1,1v-4.7h1.6
			v13.1h-1.4V99.7z M226.8,95c0,1.2,0.3,2.1,0.8,2.7s1.1,0.9,1.8,0.9s1.3-0.3,1.8-0.9s0.7-1.5,0.7-2.7c0-1.3-0.2-2.2-0.7-2.9
			c-0.5-0.6-1.1-0.9-1.8-0.9s-1.3,0.3-1.8,0.9C227.1,92.8,226.8,93.7,226.8,95z"/>
		<path class="st0" d="M235.4,95c0-1.8,0.5-3.1,1.5-3.9c0.8-0.7,1.8-1.1,3-1.1c1.3,0,2.4,0.4,3.2,1.3s1.3,2,1.3,3.6
			c0,1.2-0.2,2.2-0.5,2.9c-0.4,0.7-0.9,1.2-1.6,1.6c-0.7,0.4-1.5,0.6-2.3,0.6c-1.3,0-2.4-0.4-3.2-1.3
			C235.8,97.8,235.4,96.6,235.4,95z M237,95c0,1.2,0.3,2.1,0.8,2.7s1.2,0.9,2,0.9s1.5-0.3,2-0.9s0.8-1.5,0.8-2.8
			c0-1.2-0.3-2.1-0.8-2.7s-1.2-0.9-2-0.9s-1.5,0.3-2,0.9C237.3,92.9,237,93.8,237,95z"/>
		<path class="st0" d="M245.5,96.9l1.6-0.2c0.1,0.6,0.3,1.1,0.8,1.5c0.4,0.3,1,0.5,1.7,0.5c0.8,0,1.3-0.1,1.7-0.5
			c0.4-0.3,0.6-0.6,0.6-1s-0.2-0.7-0.5-0.9c-0.2-0.1-0.8-0.3-1.6-0.5c-1.2-0.3-2-0.6-2.5-0.8c-0.5-0.2-0.8-0.5-1-0.9
			s-0.4-0.8-0.4-1.3c0-0.4,0.1-0.8,0.3-1.2c0.2-0.4,0.5-0.7,0.8-0.9c0.2-0.2,0.6-0.3,1-0.5c0.4-0.1,0.9-0.2,1.4-0.2
			c0.8,0,1.4,0.1,2,0.3c0.6,0.2,1,0.5,1.3,0.9s0.5,0.9,0.6,1.4l-1.6,0.2c-0.1-0.5-0.3-0.9-0.6-1.1c-0.3-0.3-0.8-0.4-1.5-0.4
			s-1.2,0.1-1.6,0.4c-0.3,0.3-0.5,0.5-0.5,0.9c0,0.2,0.1,0.4,0.2,0.6c0.1,0.2,0.3,0.3,0.6,0.4c0.2,0.1,0.6,0.2,1.4,0.4
			c1.2,0.3,1.9,0.6,2.4,0.7c0.5,0.2,0.8,0.5,1.1,0.9s0.4,0.8,0.4,1.4c0,0.5-0.2,1-0.5,1.5s-0.8,0.9-1.4,1.1c-0.6,0.3-1.3,0.4-2,0.4
			c-1.2,0-2.2-0.3-2.8-0.8C246.1,98.7,245.7,97.9,245.5,96.9z"/>
		<path class="st0" d="M260.7,99.7V86.6h9.5v1.6h-7.8v4h7.3v1.5h-7.3v4.5h8.1v1.5H260.7z"/>
		<path class="st0" d="M278.9,99.7v-1.4c-0.7,1.1-1.7,1.6-3,1.6c-0.5,0-1.1-0.1-1.6-0.3c-0.5-0.2-0.9-0.5-1.1-0.8s-0.4-0.7-0.5-1.2
			c-0.1-0.3-0.1-0.8-0.1-1.5v-5.9h1.6v5.3c0,0.8,0,1.4,0.1,1.7c0.1,0.4,0.3,0.8,0.6,1c0.3,0.2,0.7,0.4,1.2,0.4s0.9-0.1,1.4-0.4
			c0.4-0.2,0.7-0.6,0.9-1c0.2-0.4,0.3-1,0.3-1.8v-5.1h1.6v9.5L278.9,99.7L278.9,99.7z"/>
		<path class="st0" d="M282.9,99.7v-9.5h1.5v1.4c0.4-0.7,0.7-1.1,1-1.3c0.3-0.2,0.6-0.3,1-0.3c0.5,0,1.1,0.2,1.7,0.5l-0.6,1.5
			c-0.4-0.2-0.8-0.4-1.2-0.4c-0.4,0-0.7,0.1-1,0.3c-0.3,0.2-0.5,0.5-0.6,0.9c-0.2,0.6-0.3,1.2-0.3,1.9v5H282.9z"/>
		<path class="st0" d="M288.4,95c0-1.8,0.5-3.1,1.5-3.9c0.8-0.7,1.8-1.1,3-1.1c1.3,0,2.4,0.4,3.2,1.3c0.8,0.9,1.3,2,1.3,3.6
			c0,1.2-0.2,2.2-0.6,2.9c-0.4,0.7-0.9,1.2-1.6,1.6s-1.5,0.6-2.3,0.6c-1.3,0-2.4-0.4-3.2-1.3C288.8,97.8,288.4,96.6,288.4,95z
			 M290.1,95c0,1.2,0.3,2.1,0.8,2.7s1.2,0.9,2,0.9s1.5-0.3,2-0.9s0.8-1.5,0.8-2.8c0-1.2-0.3-2.1-0.8-2.7s-1.2-0.9-2-0.9
			s-1.5,0.3-2,0.9C290.3,92.9,290.1,93.8,290.1,95z"/>
		<path class="st0" d="M299.2,103.4V90.2h1.5v1.2c0.4-0.5,0.7-0.8,1.2-1.1c0.4-0.3,1-0.4,1.6-0.4c0.8,0,1.5,0.2,2.1,0.6
			s1.1,1,1.4,1.8s0.5,1.6,0.5,2.5c0,1-0.2,1.8-0.5,2.6c-0.4,0.8-0.9,1.4-1.5,1.8c-0.7,0.4-1.4,0.6-2.1,0.6c-0.5,0-1-0.1-1.4-0.3
			c-0.4-0.2-0.8-0.5-1.1-0.9v4.6h-1.7V103.4z M300.7,95c0,1.2,0.2,2.1,0.7,2.7s1.1,0.9,1.8,0.9c0.7,0,1.3-0.3,1.8-0.9
			s0.8-1.6,0.8-2.8c0-1.2-0.3-2.1-0.7-2.7c-0.5-0.6-1.1-0.9-1.8-0.9c-0.7,0-1.3,0.3-1.8,1C301,92.9,300.7,93.8,300.7,95z"/>
		<path class="st0" d="M316,96.7l1.7,0.2c-0.2,1-0.7,1.7-1.4,2.3c-0.7,0.5-1.6,0.8-2.7,0.8c-1.4,0-2.5-0.4-3.3-1.3
			c-0.8-0.8-1.2-2-1.2-3.6s0.4-2.9,1.2-3.7c0.8-0.9,1.9-1.3,3.2-1.3c1.3,0,2.3,0.5,3.1,1.3c0.8,0.9,1.2,2.1,1.2,3.6
			c0,0.1,0,0.3,0,0.4h-7.1c0,1.1,0.4,1.9,0.9,2.4c0.5,0.6,1.2,0.8,2,0.8c0.6,0,1.1-0.2,1.5-0.5C315.4,97.9,315.7,97.4,316,96.7z
			 M310.7,94.1h5.3c-0.1-0.8-0.3-1.4-0.6-1.8c-0.5-0.6-1.2-0.9-2-0.9c-0.7,0-1.4,0.2-1.9,0.8C311,92.6,310.7,93.2,310.7,94.1z"/>
		<path class="st0" d="M325.9,99.7v-1.4c-0.7,1.1-1.8,1.6-3,1.6c-0.5,0-1.1-0.1-1.6-0.3c-0.5-0.2-0.9-0.5-1.1-0.8s-0.4-0.7-0.5-1.2
			c-0.1-0.3-0.1-0.8-0.1-1.5v-5.9h1.6v5.3c0,0.8,0,1.4,0.1,1.7c0.1,0.4,0.3,0.8,0.6,1c0.3,0.2,0.7,0.4,1.2,0.4s0.9-0.1,1.4-0.4
			c0.4-0.2,0.7-0.6,0.9-1c0.2-0.4,0.3-1,0.3-1.8v-5.1h1.6v9.5L325.9,99.7L325.9,99.7z"/>
		<path class="st0" d="M329.2,96.9l1.6-0.2c0.1,0.6,0.3,1.1,0.8,1.5c0.4,0.3,1,0.5,1.7,0.5s1.3-0.1,1.7-0.5c0.3-0.3,0.5-0.6,0.5-1
			s-0.2-0.7-0.5-0.9c-0.2-0.1-0.8-0.3-1.6-0.5c-1.2-0.3-2-0.6-2.5-0.8c-0.5-0.2-0.8-0.5-1-0.9s-0.3-0.8-0.3-1.3
			c0-0.4,0.1-0.8,0.3-1.2c0.2-0.4,0.5-0.7,0.8-0.9c0.2-0.2,0.6-0.3,1-0.5c0.4-0.1,0.9-0.2,1.4-0.2c0.7,0,1.4,0.1,2,0.3
			c0.6,0.2,1,0.5,1.3,0.9s0.5,0.9,0.5,1.4l-1.6,0.2c-0.1-0.5-0.3-0.9-0.6-1.1c-0.4-0.3-0.8-0.4-1.5-0.4c-0.8,0-1.3,0.1-1.6,0.4
			c-0.3,0.3-0.5,0.5-0.5,0.9c0,0.2,0.1,0.4,0.2,0.6s0.3,0.3,0.6,0.4c0.2,0.1,0.6,0.2,1.4,0.4c1.1,0.3,1.9,0.6,2.4,0.7
			c0.5,0.2,0.8,0.5,1.1,0.9c0.3,0.4,0.4,0.8,0.4,1.4c0,0.5-0.1,1-0.4,1.5s-0.8,0.9-1.4,1.1c-0.6,0.3-1.2,0.4-2,0.4
			c-1.2,0-2.2-0.3-2.8-0.8C329.8,98.7,329.4,97.9,329.2,96.9z"/>
		<path class="st0" d="M194.4,121.8v-13.1h9.5v1.5h-7.7v4h7.3v1.5h-7.3v4.5h8.1v1.5L194.4,121.8L194.4,121.8z"/>
		<path class="st0" d="M205.7,118.9l1.6-0.2c0.1,0.6,0.3,1.1,0.8,1.5c0.4,0.4,1,0.5,1.7,0.5c0.8,0,1.3-0.2,1.7-0.5s0.5-0.7,0.5-1.1
			s-0.2-0.6-0.5-0.9c-0.2-0.2-0.8-0.3-1.6-0.5c-1.2-0.3-2-0.6-2.5-0.8c-0.5-0.2-0.8-0.5-1-0.9s-0.4-0.8-0.4-1.3
			c0-0.4,0.1-0.8,0.3-1.2c0.2-0.4,0.5-0.7,0.8-0.9c0.2-0.2,0.6-0.3,1-0.5c0.4-0.1,0.9-0.2,1.4-0.2c0.7,0,1.4,0.1,2,0.3
			c0.6,0.2,1,0.5,1.2,0.9c0.3,0.4,0.5,0.9,0.6,1.5l-1.6,0.2c-0.1-0.5-0.3-0.9-0.6-1.1c-0.3-0.3-0.8-0.4-1.5-0.4s-1.3,0.1-1.6,0.4
			c-0.3,0.2-0.5,0.5-0.5,0.9c0,0.2,0.1,0.4,0.2,0.6c0.1,0.2,0.3,0.3,0.6,0.4c0.2,0.1,0.6,0.2,1.4,0.4c1.1,0.3,1.9,0.6,2.4,0.8
			c0.4,0.2,0.8,0.5,1,0.8c0.3,0.4,0.4,0.8,0.4,1.4c0,0.5-0.2,1-0.5,1.5s-0.7,0.8-1.4,1.1c-0.6,0.3-1.2,0.4-2,0.4
			c-1.2,0-2.2-0.3-2.8-0.8C206.3,120.7,205.9,119.9,205.7,118.9z"/>
		<path class="st0" d="M219.1,120.3l0.2,1.4c-0.5,0.1-0.9,0.2-1.2,0.2c-0.6,0-1-0.1-1.4-0.3c-0.3-0.2-0.6-0.4-0.7-0.7
			c-0.1-0.3-0.2-0.9-0.2-1.9v-5.5h-1.2v-1.3h1.2v-2.3l1.6-1v3.3h1.6v1.3h-1.6v5.6c0,0.5,0,0.8,0.1,0.9s0.2,0.2,0.3,0.3
			c0.1,0.1,0.3,0.1,0.5,0.1C218.6,120.4,218.8,120.4,219.1,120.3z"/>
		<path class="st0" d="M220.6,121.8v-9.5h1.4v1.5c0.4-0.7,0.7-1.1,1-1.3c0.3-0.2,0.6-0.3,1-0.3c0.5,0,1.1,0.2,1.7,0.5l-0.6,1.5
			c-0.4-0.2-0.8-0.3-1.2-0.3s-0.7,0.1-1,0.3c-0.3,0.2-0.5,0.5-0.6,0.9c-0.2,0.6-0.3,1.2-0.3,1.9v5h-1.4V121.8z"/>
		<path class="st0" d="M233,121.8v-1.4c-0.7,1.1-1.7,1.6-3,1.6c-0.6,0-1.1-0.1-1.6-0.3c-0.5-0.2-0.9-0.5-1.1-0.8
			c-0.2-0.3-0.4-0.7-0.5-1.2c-0.1-0.3-0.1-0.8-0.1-1.5v-5.9h1.6v5.3c0,0.8,0,1.4,0.1,1.7c0.1,0.4,0.3,0.8,0.6,1s0.7,0.4,1.2,0.4
			s0.9-0.1,1.4-0.4c0.4-0.2,0.7-0.6,0.9-1s0.3-1,0.3-1.9v-5.1h1.6v9.5C234.4,121.8,233,121.8,233,121.8z"/>
		<path class="st0" d="M240.5,120.3l0.2,1.4c-0.5,0.1-0.9,0.2-1.2,0.2c-0.6,0-1-0.1-1.4-0.3c-0.3-0.2-0.6-0.4-0.7-0.7
			c-0.1-0.3-0.2-0.9-0.2-1.9v-5.5H236v-1.3h1.2v-2.3l1.6-1v3.3h1.6v1.3h-1.6v5.6c0,0.5,0,0.8,0.1,0.9s0.2,0.2,0.3,0.3
			c0.1,0.1,0.3,0.1,0.5,0.1C240,120.4,240.2,120.4,240.5,120.3z"/>
		<path class="st0" d="M248.3,121.8v-1.4c-0.7,1.1-1.7,1.6-3,1.6c-0.6,0-1.1-0.1-1.6-0.3c-0.5-0.2-0.9-0.5-1.1-0.8
			c-0.2-0.3-0.4-0.7-0.5-1.2c-0.1-0.3-0.1-0.8-0.1-1.5v-5.9h1.6v5.3c0,0.8,0,1.4,0.1,1.7c0.1,0.4,0.3,0.8,0.6,1s0.7,0.4,1.2,0.4
			s0.9-0.1,1.4-0.4c0.4-0.2,0.7-0.6,0.9-1s0.3-1,0.3-1.9v-5.1h1.6v9.5C249.7,121.8,248.3,121.8,248.3,121.8z"/>
		<path class="st0" d="M252.3,121.8v-9.5h1.4v1.5c0.4-0.7,0.7-1.1,1-1.3c0.3-0.2,0.7-0.3,1-0.3c0.5,0,1.1,0.2,1.7,0.5l-0.6,1.5
			c-0.4-0.2-0.8-0.3-1.2-0.3s-0.7,0.1-1,0.3c-0.3,0.2-0.5,0.5-0.6,0.9c-0.2,0.6-0.3,1.2-0.3,1.9v5h-1.4V121.8z"/>
		<path class="st0" d="M264.6,120.6c-0.6,0.5-1.2,0.9-1.7,1.1c-0.6,0.2-1.1,0.3-1.8,0.3c-1,0-1.8-0.3-2.4-0.8s-0.8-1.2-0.8-2
			c0-0.5,0.1-0.9,0.3-1.3c0.2-0.4,0.5-0.7,0.8-0.9c0.3-0.2,0.7-0.4,1.2-0.5c0.3-0.1,0.8-0.2,1.4-0.2c1.3-0.2,2.3-0.3,2.9-0.6
			c0-0.2,0-0.4,0-0.4c0-0.6-0.2-1.1-0.5-1.4c-0.4-0.4-1-0.5-1.8-0.5s-1.3,0.1-1.7,0.4c-0.4,0.3-0.6,0.7-0.8,1.4l-1.6-0.2
			c0.1-0.7,0.4-1.2,0.7-1.6c0.3-0.4,0.8-0.7,1.4-1c0.6-0.2,1.3-0.3,2.2-0.3c0.8,0,1.5,0.1,2,0.3c0.5,0.2,0.9,0.4,1.1,0.7
			c0.2,0.3,0.4,0.7,0.5,1.1c0.1,0.3,0.1,0.8,0.1,1.5v2.2c0,1.5,0,2.4,0.1,2.8s0.2,0.8,0.4,1.1h-1.7
			C264.8,121.4,264.7,121,264.6,120.6z M264.5,117c-0.6,0.2-1.5,0.4-2.6,0.6c-0.7,0.1-1.1,0.2-1.4,0.3c-0.3,0.1-0.5,0.3-0.6,0.5
			s-0.2,0.5-0.2,0.8c0,0.4,0.2,0.8,0.5,1.1c0.3,0.3,0.8,0.4,1.4,0.4s1.2-0.1,1.7-0.4s0.8-0.7,1.1-1.1c0.2-0.4,0.3-0.9,0.3-1.6V117
			H264.5z"/>
		<path class="st0" d="M268.6,110.5v-1.9h1.6v1.9H268.6z M268.6,121.8v-9.5h1.6v9.5H268.6z"/>
		<path class="st0" d="M272.1,118.9l1.6-0.2c0.1,0.6,0.3,1.1,0.8,1.5c0.4,0.4,1,0.5,1.7,0.5s1.3-0.2,1.6-0.5
			c0.4-0.3,0.5-0.7,0.5-1.1s-0.2-0.6-0.5-0.9c-0.2-0.2-0.8-0.3-1.6-0.5c-1.2-0.3-2-0.6-2.5-0.8c-0.5-0.2-0.8-0.5-1-0.9
			s-0.4-0.8-0.4-1.3c0-0.4,0.1-0.8,0.3-1.2c0.2-0.4,0.4-0.7,0.8-0.9c0.2-0.2,0.6-0.3,1-0.5c0.4-0.1,0.9-0.2,1.4-0.2
			c0.8,0,1.4,0.1,2,0.3c0.6,0.2,1,0.5,1.2,0.9c0.3,0.4,0.5,0.9,0.5,1.5l-1.6,0.2c-0.1-0.5-0.3-0.9-0.6-1.1c-0.3-0.3-0.8-0.4-1.5-0.4
			s-1.3,0.1-1.6,0.4c-0.3,0.2-0.5,0.5-0.5,0.9c0,0.2,0.1,0.4,0.2,0.6s0.4,0.3,0.6,0.4s0.6,0.2,1.4,0.4c1.1,0.3,1.9,0.6,2.4,0.8
			c0.5,0.2,0.8,0.5,1.1,0.8c0.3,0.4,0.4,0.8,0.4,1.4c0,0.5-0.1,1-0.5,1.5c-0.3,0.5-0.8,0.8-1.4,1.1c-0.6,0.3-1.2,0.4-2,0.4
			c-1.2,0-2.2-0.3-2.8-0.8C272.6,120.7,272.2,119.9,272.1,118.9z"/>
		<path class="st0" d="M293.5,118.7l1.7,0.2c-0.3,1-0.7,1.7-1.5,2.3c-0.7,0.5-1.6,0.8-2.7,0.8c-1.4,0-2.5-0.4-3.3-1.3
			s-1.2-2.1-1.2-3.6c0-1.6,0.4-2.8,1.2-3.7c0.8-0.9,1.9-1.3,3.2-1.3c1.3,0,2.3,0.4,3.1,1.3c0.8,0.9,1.2,2.1,1.2,3.7
			c0,0.1,0,0.2,0,0.4h-7.1c0.1,1,0.4,1.8,0.9,2.4c0.5,0.5,1.2,0.8,2,0.8c0.6,0,1.1-0.2,1.5-0.5C292.9,119.9,293.3,119.4,293.5,118.7
			z M288.2,116.1h5.3c-0.1-0.8-0.3-1.4-0.6-1.8c-0.5-0.6-1.2-0.9-2-0.9s-1.4,0.2-1.9,0.7C288.5,114.6,288.2,115.3,288.2,116.1z"/>
		<path class="st0" d="M308.5,121.8v-1.2c-0.6,0.9-1.5,1.4-2.7,1.4c-0.7,0-1.5-0.2-2.1-0.6s-1.1-1-1.5-1.7c-0.4-0.8-0.5-1.6-0.5-2.6
			c0-0.9,0.2-1.8,0.5-2.6c0.3-0.8,0.8-1.4,1.4-1.8s1.3-0.6,2.1-0.6c0.6,0,1.1,0.1,1.5,0.4c0.4,0.2,0.8,0.6,1.1,1v-4.7h1.6v13.1h-1.4
			V121.8z M303.4,117c0,1.2,0.3,2.1,0.8,2.8c0.5,0.6,1.1,0.9,1.8,0.9c0.7,0,1.3-0.3,1.8-0.9s0.7-1.5,0.7-2.6c0-1.3-0.3-2.3-0.8-2.9
			s-1.1-0.9-1.9-0.9c-0.7,0-1.3,0.3-1.8,0.9C303.6,114.8,303.4,115.8,303.4,117z"/>
		<path class="st0" d="M319,118.7l1.7,0.2c-0.3,1-0.8,1.7-1.5,2.3c-0.7,0.5-1.6,0.8-2.7,0.8c-1.4,0-2.5-0.4-3.3-1.3
			s-1.2-2.1-1.2-3.6c0-1.6,0.4-2.8,1.2-3.7c0.8-0.9,1.9-1.3,3.2-1.3c1.3,0,2.3,0.4,3.1,1.3c0.8,0.9,1.2,2.1,1.2,3.7
			c0,0.1,0,0.2,0,0.4h-7.1c0.1,1,0.4,1.8,0.9,2.4c0.5,0.5,1.2,0.8,2,0.8c0.6,0,1.1-0.2,1.5-0.5C318.4,119.9,318.8,119.4,319,118.7z
			 M313.7,116.1h5.3c-0.1-0.8-0.3-1.4-0.6-1.8c-0.5-0.6-1.2-0.9-2-0.9c-0.7,0-1.4,0.2-1.9,0.7C314,114.6,313.8,115.3,313.7,116.1z"
			/>
		<path class="st0" d="M328.3,121.8v-13.1h1.7v13.1H328.3z"/>
		<path class="st0" d="M332.9,121.8v-9.5h1.5v1.4c0.7-1.1,1.7-1.6,3-1.6c0.6,0,1.1,0.1,1.6,0.3c0.5,0.2,0.8,0.5,1.1,0.8
			c0.2,0.3,0.4,0.7,0.5,1.2c0.1,0.3,0.1,0.8,0.1,1.6v5.8H339V116c0-0.6-0.1-1.1-0.2-1.5c-0.1-0.3-0.3-0.6-0.7-0.8
			c-0.3-0.2-0.7-0.3-1.1-0.3c-0.7,0-1.3,0.2-1.8,0.7c-0.5,0.4-0.7,1.3-0.7,2.5v5.2L332.9,121.8L332.9,121.8z"/>
		<path class="st0" d="M345.8,121.8l-3.6-9.5h1.7l2,5.7c0.2,0.6,0.4,1.3,0.6,1.9c0.1-0.5,0.3-1.1,0.6-1.8l2.1-5.8h1.6l-3.6,9.5
			C347.2,121.8,345.8,121.8,345.8,121.8z"/>
		<path class="st0" d="M358.8,118.7l1.7,0.2c-0.2,1-0.7,1.7-1.5,2.3c-0.7,0.5-1.6,0.8-2.7,0.8c-1.4,0-2.5-0.4-3.3-1.3
			s-1.2-2.1-1.2-3.6c0-1.6,0.4-2.8,1.2-3.7c0.8-0.9,1.9-1.3,3.2-1.3c1.3,0,2.3,0.4,3.1,1.3c0.8,0.9,1.2,2.1,1.2,3.7
			c0,0.1,0,0.2,0,0.4h-7.1c0.1,1,0.3,1.8,0.9,2.4c0.5,0.5,1.2,0.8,2,0.8c0.6,0,1.1-0.2,1.5-0.5S358.6,119.4,358.8,118.7z
			 M353.5,116.1h5.3c-0.1-0.8-0.3-1.4-0.6-1.8c-0.5-0.6-1.2-0.9-2-0.9s-1.4,0.2-1.9,0.7C353.9,114.6,353.6,115.3,353.5,116.1z"/>
		<path class="st0" d="M361.9,118.9l1.6-0.2c0.1,0.6,0.4,1.1,0.7,1.5c0.4,0.4,1,0.5,1.7,0.5s1.3-0.2,1.6-0.5
			c0.4-0.3,0.5-0.7,0.5-1.1s-0.2-0.6-0.5-0.9c-0.2-0.2-0.8-0.3-1.7-0.5c-1.2-0.3-2-0.6-2.5-0.8c-0.5-0.2-0.8-0.5-1-0.9
			s-0.4-0.8-0.4-1.3c0-0.4,0.1-0.8,0.3-1.2c0.2-0.4,0.5-0.7,0.8-0.9c0.2-0.2,0.6-0.3,1-0.5c0.5-0.1,0.9-0.2,1.4-0.2
			c0.7,0,1.4,0.1,2,0.3c0.6,0.2,1,0.5,1.3,0.9s0.5,0.9,0.5,1.5l-1.6,0.2c-0.1-0.5-0.3-0.9-0.6-1.1c-0.3-0.3-0.8-0.4-1.4-0.4
			c-0.7,0-1.3,0.1-1.6,0.4c-0.3,0.2-0.5,0.5-0.5,0.9c0,0.2,0.1,0.4,0.2,0.6s0.3,0.3,0.6,0.4c0.1,0.1,0.6,0.2,1.4,0.4
			c1.1,0.3,1.9,0.6,2.4,0.8c0.4,0.2,0.8,0.5,1.1,0.8c0.3,0.4,0.4,0.8,0.4,1.4c0,0.5-0.2,1-0.5,1.5s-0.8,0.8-1.4,1.1
			c-0.6,0.3-1.2,0.4-2,0.4c-1.2,0-2.2-0.3-2.8-0.8C362.5,120.7,362,119.9,361.9,118.9z"/>
		<path class="st0" d="M375.2,120.3l0.2,1.4c-0.4,0.1-0.8,0.2-1.2,0.2c-0.6,0-1-0.1-1.4-0.3c-0.3-0.2-0.5-0.4-0.7-0.7
			c-0.1-0.3-0.2-0.9-0.2-1.9v-5.5h-1.2v-1.3h1.2v-2.3l1.6-1v3.3h1.6v1.3h-1.6v5.6c0,0.5,0,0.8,0.1,0.9s0.1,0.2,0.3,0.3
			c0.1,0.1,0.3,0.1,0.5,0.1C374.7,120.4,374.9,120.4,375.2,120.3z"/>
		<path class="st0" d="M376.8,110.5v-1.9h1.6v1.9H376.8z M376.8,121.8v-9.5h1.6v9.5H376.8z"/>
		<path class="st0" d="M380.9,121.8v-9.5h1.5v1.3c0.3-0.5,0.7-0.8,1.2-1.1c0.5-0.3,1.1-0.4,1.7-0.4c0.7,0,1.3,0.1,1.7,0.4
			c0.4,0.3,0.8,0.7,1,1.2c0.8-1.1,1.7-1.7,2.9-1.7c0.9,0,1.7,0.3,2.2,0.8s0.8,1.3,0.8,2.4v6.5h-1.6v-6c0-0.6-0.1-1.1-0.2-1.4
			s-0.3-0.5-0.6-0.7c-0.3-0.2-0.6-0.3-1-0.3c-0.7,0-1.2,0.2-1.7,0.7c-0.5,0.4-0.7,1.2-0.7,2.1v5.5h-1.6v-6.2c0-0.7-0.1-1.2-0.4-1.6
			c-0.3-0.3-0.7-0.5-1.3-0.5c-0.4,0-0.9,0.1-1.3,0.4c-0.4,0.2-0.7,0.6-0.8,1c-0.2,0.5-0.3,1.1-0.3,2v4.9h-1.5V121.8z"/>
		<path class="st0" d="M402.7,118.7l1.7,0.2c-0.3,1-0.7,1.7-1.5,2.3c-0.7,0.5-1.6,0.8-2.7,0.8c-1.4,0-2.5-0.4-3.3-1.3
			s-1.3-2.1-1.3-3.6c0-1.6,0.4-2.8,1.3-3.7c0.8-0.9,1.9-1.3,3.2-1.3c1.3,0,2.3,0.4,3.1,1.3c0.8,0.9,1.2,2.1,1.2,3.7
			c0,0.1,0,0.2,0,0.4h-7.1c0.1,1,0.4,1.8,0.9,2.4c0.5,0.5,1.2,0.8,2,0.8c0.6,0,1.1-0.2,1.5-0.5C402.1,119.9,402.4,119.4,402.7,118.7
			z M397.4,116.1h5.3c-0.1-0.8-0.3-1.4-0.6-1.8c-0.5-0.6-1.2-0.9-2-0.9c-0.7,0-1.3,0.2-1.9,0.7C397.7,114.6,397.4,115.3,397.4,116.1
			z"/>
		<path class="st0" d="M406.4,121.8v-9.5h1.5v1.4c0.7-1.1,1.7-1.6,3-1.6c0.5,0,1.1,0.1,1.6,0.3c0.5,0.2,0.9,0.5,1.1,0.8
			s0.4,0.7,0.5,1.2c0.1,0.3,0.1,0.8,0.1,1.6v5.8h-1.6V116c0-0.6-0.1-1.1-0.2-1.5c-0.1-0.3-0.3-0.6-0.7-0.8c-0.3-0.2-0.7-0.3-1.1-0.3
			c-0.7,0-1.3,0.2-1.8,0.7c-0.5,0.4-0.8,1.3-0.8,2.5v5.2L406.4,121.8L406.4,121.8z"/>
		<path class="st0" d="M420.1,120.3l0.2,1.4c-0.5,0.1-0.9,0.2-1.2,0.2c-0.6,0-1.1-0.1-1.4-0.3c-0.3-0.2-0.6-0.4-0.7-0.7
			c-0.1-0.3-0.2-0.9-0.2-1.9v-5.5h-1.2v-1.3h1.2v-2.3l1.6-1v3.3h1.6v1.3h-1.6v5.6c0,0.5,0,0.8,0.1,0.9c0,0.1,0.1,0.2,0.2,0.3
			c0.1,0.1,0.3,0.1,0.6,0.1C419.6,120.4,419.8,120.4,420.1,120.3z"/>
		<path class="st0" d="M421.1,117c0-1.8,0.5-3.1,1.5-3.9c0.8-0.7,1.8-1,3-1c1.3,0,2.4,0.4,3.2,1.3c0.8,0.8,1.2,2,1.2,3.5
			c0,1.2-0.2,2.2-0.6,2.9c-0.4,0.7-0.9,1.2-1.6,1.7c-0.7,0.4-1.5,0.6-2.3,0.6c-1.3,0-2.4-0.4-3.2-1.3
			C421.5,119.8,421.1,118.6,421.1,117z M422.7,117c0,1.2,0.2,2.1,0.8,2.8c0.5,0.6,1.2,0.9,2,0.9s1.5-0.3,2-0.9s0.8-1.5,0.8-2.8
			c0-1.2-0.3-2.1-0.8-2.7s-1.2-0.9-2-0.9s-1.5,0.3-2,0.9S422.7,115.8,422.7,117z"/>
	</g>
	<path class="st1" d="M4.8,16.1c0,38,0,76,0,113.9c57.6,0,115.1,0,172.7,0c0-38,0-76,0-113.9C119.9,16.1,62.4,16.1,4.8,16.1z
		 M128.1,49.3l1.5-3l1.5,3l3.4,0.5l-2.4,2.4l0.6,3.3l-3-1.6l-3,1.6l0.6-3.3l-2.4-2.4L128.1,49.3z M45,77.4l0.6-3.3l-2.4-2.4l3.4-0.5
		l1.5-3l1.5,3l3.4,0.5l-2.4,2.4l0.6,3.3l-3-1.6L45,77.4z M57,98.3l-3-1.6l-3,1.6l0.6-3.3l-2.4-2.4l3.4-0.5l1.5-3l1.5,3l3.4,0.5
		L56.4,95L57,98.3z M56.4,52.2l0.6,3.3l-3-1.6l-3,1.6l0.6-3.3l-2.4-2.4l3.4-0.5l1.5-3l1.5,3l3.4,0.5L56.4,52.2z M72.9,114.2l-3-1.6
		l-3,1.6l0.6-3.3l-2.4-2.4l3.4-0.5l1.5-3l1.5,3l3.4,0.5l-2.4,2.4L72.9,114.2z M72.3,36.2l0.6,3.3l-3-1.6l-3,1.6l0.6-3.3L65,33.9
		l3.4-0.5l1.5-3l1.5,3l3.4,0.5L72.3,36.2z M93.8,121.2l-3-1.6l-3,1.6l0.6-3.3l-2.4-2.4l3.4-0.5l1.5-3l1.5,3l3.4,0.5l-2.4,2.4
		L93.8,121.2z M94.2,30.3l0.6,3.3l-3-1.6l-3,1.6l0.6-3.3L87,27.9l3.4-0.5l1.5-3l1.5,3l3.4,0.5L94.2,30.3z M111.2,34.4l1.5-3l1.5,3
		l3.4,0.5l-2.4,2.4l0.6,3.3l-3-1.6l-3,1.6l0.6-3.3l-2.4-2.4L111.2,34.4z M116.7,114.2l-3-1.6l-3,1.6l0.6-3.3l-2.4-2.4l3.4-0.5l1.5-3
		l1.5,3l3.4,0.5l-2.4,2.4L116.7,114.2z M132.6,98.3l-3-1.6l-3,1.6l0.6-3.3l-2.4-2.4l3.4-0.5l1.5-3l1.5,3l3.4,0.5l-2.4,2.4
		L132.6,98.3z M137.6,76.4l-3-1.6l-3,1.6l0.6-3.3l-2.4-2.4l3.4-0.5l1.5-3l1.5,3l3.4,0.5l-2.4,2.4L137.6,76.4z"/>
</g>
</svg>
