<svg xmlns="http://www.w3.org/2000/svg" width="92.83" height="85.67" viewBox="0 0 92.83 85.67"><title>monitor_icons_intro_access_monitor_XL_light_color</title><path d="M62,23.46a1.18,1.18,0,1,1-2.29,0V5.74h0a3.46,3.46,0,0,0-3.46-3.44H5.73A3.45,3.45,0,0,0,2.29,5.74V56.28a3.44,3.44,0,0,0,3.44,3.41H28.32a1.18,1.18,0,1,1,0,2.3H5.73A5.74,5.74,0,0,1,0,56.46V5.57A5.73,5.73,0,0,1,5.77,0H56.28A5.74,5.74,0,0,1,62,5.74Z" style="fill:#333"/><path d="M56,9.18a1.35,1.35,0,0,1,1.42,1.16A1.35,1.35,0,0,1,56,11.48H6.06a1.35,1.35,0,0,1-1.47-1.14A1.35,1.35,0,0,1,5.91,9.17H56Z" style="fill:#333"/><path d="M51.35,17.73a1.35,1.35,0,0,1,1.46,1.15A1.35,1.35,0,0,1,51.35,20H44.72a1.35,1.35,0,0,1-1.45-1.15,1.35,1.35,0,0,1,1.45-1.15Z" style="fill:#333"/><path d="M46,22.32a1.35,1.35,0,0,1,1.45,1.15A1.35,1.35,0,0,1,46,24.62H32.47A1.34,1.34,0,0,1,31,23.47a1.34,1.34,0,0,1,1.44-1.15H46Z" style="fill:#333"/><path d="M39.11,17.73a1.35,1.35,0,0,1,1.45,1.15A1.34,1.34,0,0,1,39.23,20H21a1.34,1.34,0,0,1-1.44-1.15A1.34,1.34,0,0,1,21,17.73Z" style="fill:#333"/><path d="M36.59,31.51a1.36,1.36,0,0,1,1.47,1.15,1.35,1.35,0,0,1-1.45,1.15H21.75a1.35,1.35,0,0,1-1.45-1.15,1.36,1.36,0,0,1,1.45-1.15Z" style="fill:#333"/><path d="M34.29,36.11a1.34,1.34,0,0,1,1.47,1.14,1.35,1.35,0,0,1-1.45,1.15H31.7a1.35,1.35,0,0,1-1.45-1.15,1.35,1.35,0,0,1,1.45-1.14Z" style="fill:#333"/><path d="M30.78,45.3a1.18,1.18,0,1,1-.53,2.29H21a1.23,1.23,0,0,1-.54,0A1.18,1.18,0,1,1,21,45.3h9.27A1.19,1.19,0,0,1,30.78,45.3Z" style="fill:#333"/><path d="M27,49.89a1.18,1.18,0,1,1-.54,2.3H21a1.23,1.23,0,0,1-.54,0,1.18,1.18,0,0,1,.27-2.33,1.24,1.24,0,0,1,.27,0h5.44a1.23,1.23,0,0,1,.54,0Z" style="fill:#333"/><path d="M26.86,22.32a1.36,1.36,0,0,1,1.46,1.15,1.36,1.36,0,0,1-1.46,1.15H21a1.34,1.34,0,0,1-1.44-1.15A1.34,1.34,0,0,1,21,22.32Z" style="fill:#333"/><path d="M26.34,36.11a1.34,1.34,0,0,1,1.47,1.14,1.35,1.35,0,0,1-1.45,1.15H21.75a1.35,1.35,0,0,1-1.45-1.15,1.35,1.35,0,0,1,1.45-1.14Z" style="fill:#333"/><path d="M13.43,47.92l-1.25,1.24a1.35,1.35,0,0,1-1.46.43l-.2-.08-.19-.12a1.36,1.36,0,0,1,.23-1.86l1.25-1.28a3.36,3.36,0,0,0-.74-.24,3.06,3.06,0,0,0-.74-.09,3.11,3.11,0,0,0-.69.07,3.62,3.62,0,0,0-.56.17,2.76,2.76,0,0,0-.39.18,3.17,3.17,0,0,0-.54.36,0,0,0,0,1,0,0,1.7,1.7,0,0,0-.24.22,3.25,3.25,0,0,0-.79,1.23.64.64,0,0,0-.06.18,3.11,3.11,0,0,0-.16,1,4.17,4.17,0,0,0,.07.71,2.88,2.88,0,0,0,.2.63h0a3.44,3.44,0,0,0,.73,1.08,3.4,3.4,0,0,0,1.24.8l.18.06a1.57,1.57,0,0,0,.31.08,1,1,0,0,0,.24,0,2.42,2.42,0,0,0,.47,0h0a3.44,3.44,0,0,0,2.17-.8,1.7,1.7,0,0,0,.24-.22,3.44,3.44,0,0,0,1-2.43A3.28,3.28,0,0,0,13.43,47.92Zm3.76-5.42a1.36,1.36,0,0,1-.2,1.89l-1.88,1.86a5.75,5.75,0,1,1-1.62-1.65l1.85-1.87A1.34,1.34,0,0,1,17.19,42.5Z" style="fill:#333"/><path d="M17.19,14.93a1.34,1.34,0,0,1-.2,1.84l-1.88,1.88A5.76,5.76,0,1,1,13.49,17l1.85-1.87A1.35,1.35,0,0,1,17.19,14.93ZM13.8,21.81a3,3,0,0,0-.12-.79,3.23,3.23,0,0,0-.23-.66s0,0,0,0l-1.25,1.25a1.35,1.35,0,0,1-1.88.18l-.12-.19-.06-.15A1.34,1.34,0,0,1,10.56,20l1.25-1.28a3.4,3.4,0,0,0-.74-.25,3.66,3.66,0,0,0-.74-.1,3,3,0,0,0-1,.16,3.44,3.44,0,0,0,0,6.58,3.27,3.27,0,0,0,1,.15,4.17,4.17,0,0,0,.71-.07A3.44,3.44,0,0,0,13.8,21.81Z" style="fill:#333"/><path d="M17.19,28.71a1.35,1.35,0,0,1-.2,1.85l-1.88,1.88a5.77,5.77,0,1,1-1.62-1.62l1.85-1.88A1.35,1.35,0,0,1,17.19,28.71ZM13.8,35.59a3.44,3.44,0,0,0-.35-1.45h0v0l-1.25,1.24a1.34,1.34,0,0,1-1.86.24h0a1.36,1.36,0,0,1,.25-1.83l1.25-1.27a3.27,3.27,0,0,0-1.08-.32,2.6,2.6,0,0,0-.4,0,3,3,0,0,0-1,.16,3.44,3.44,0,0,0,0,6.58,3.27,3.27,0,0,0,1,.15h0A3.11,3.11,0,0,0,11,39a2.73,2.73,0,0,0,.65-.2,2.52,2.52,0,0,0,.58-.32h0A3.42,3.42,0,0,0,13.8,35.59Z" style="fill:#333"/><path d="M14.92,4.59a1.15,1.15,0,1,1-1.15,1.15A1.14,1.14,0,0,1,14.92,4.59Z" style="fill:#333"/><path d="M13.77,21.82a2.69,2.69,0,0,0-.09-.8,3,3,0,0,1,.12.79A3.44,3.44,0,0,1,11,25.18,3.43,3.43,0,0,0,13.77,21.82Z" style="fill:#333"/><path d="M13.45,34.14a3.35,3.35,0,0,1-1.17,4.3,3.47,3.47,0,0,0,1.49-2.85,3.24,3.24,0,0,0-.33-1.44Z" style="fill:#333"/><path d="M12.53,52l.24-.22A1.7,1.7,0,0,1,12.53,52Z" style="fill:#333"/><path d="M12.27,38.44a2.52,2.52,0,0,1-.58.32A4.08,4.08,0,0,0,12.27,38.44Z" style="fill:#333"/><path d="M11.81,18.71,10.56,20a1.34,1.34,0,0,0-.44,1.42,1.33,1.33,0,0,1,.41-1.51l1.25-1.19a2.85,2.85,0,0,0-.71-.25A3.4,3.4,0,0,1,11.81,18.71Z" style="fill:#333"/><path d="M11.81,32.49l-1.25,1.27a1.36,1.36,0,0,0-.25,1.83h0a1.36,1.36,0,0,1,.23-1.86l1.25-1.24a3.46,3.46,0,0,0-1-.32A3.27,3.27,0,0,1,11.81,32.49Z" style="fill:#333"/><path d="M11.81,46.25l-1.25,1.28a1.36,1.36,0,0,0-.23,1.86l.19.12a1,1,0,0,1-.22-.13,1.35,1.35,0,0,1,.23-1.85l1.25-1.27a3.32,3.32,0,0,0-.71-.25A3.36,3.36,0,0,1,11.81,46.25Z" style="fill:#333"/><path d="M11.69,38.76A2.73,2.73,0,0,1,11,39,4.47,4.47,0,0,0,11.69,38.76Z" style="fill:#333"/><path d="M10.52,49.51l.2.08A.5.5,0,0,1,10.52,49.51Z" style="fill:#333"/><path d="M10.33,4.59A1.15,1.15,0,1,1,9.18,5.74,1.15,1.15,0,0,1,10.33,4.59Z" style="fill:#333"/><path d="M9.08,46.16A3.62,3.62,0,0,1,9.64,46,3.31,3.31,0,0,0,9.08,46.16Z" style="fill:#333"/><path d="M9.13,52.59l.18.06Z" style="fill:#333"/><path d="M8.15,46.7a3.17,3.17,0,0,1,.54-.36A3.17,3.17,0,0,0,8.15,46.7Z" style="fill:#333"/><path d="M8.14,46.71l-.24.22A1.7,1.7,0,0,1,8.14,46.71Z" style="fill:#333"/><path d="M7.16,50.71a3.81,3.81,0,0,0,.73,1.08A3.44,3.44,0,0,1,7.16,50.71Z" style="fill:#333"/><path d="M7.11,48.16l-.06.18A.64.64,0,0,1,7.11,48.16Z" style="fill:#333"/><path d="M7,50.07a4.21,4.21,0,0,0,.2.63A2.88,2.88,0,0,1,7,50.07Z" style="fill:#333"/><path d="M5.73,4.59A1.15,1.15,0,1,1,4.58,5.74,1.15,1.15,0,0,1,5.73,4.59Z" style="fill:#333"/><path d="M62,85.67a29.25,29.25,0,0,0,28.1-37.46,2.48,2.48,0,0,0-4.68,1.36h0a24.34,24.34,0,1,1-9.74-13.52,2.48,2.48,0,0,0,2.72-4A29.25,29.25,0,1,0,62,85.67Z" style="fill:#16b455"/><path d="M88.37,34,63.27,59.08l-8-8a2.48,2.48,0,0,0-3.45,3.45l9.74,9.74a2.48,2.48,0,0,0,3.44,0h0L91.79,37.43A2.48,2.48,0,1,0,88.34,34h0Z" style="fill:#16b455"/></svg>