<svg _ngcontent-nav-c46="" xmlns="http://www.w3.org/2000/svg"  fill="#339" width="16" height="16" viewBox="0 0 16 16"><title _ngcontent-nav-c46="">monitor_icons_tools_download</title><path _ngcontent-nav-c46="" d="M1.59,16.07H14.41a.91.91,0,1,0,0-1.82H1.59a.91.91,0,1,0,0,1.82Z"></path><path _ngcontent-nav-c46="" d="M7,8.74l-.85-.85L4.61,6.37A1,1,0,1,0,3,7.69l.14.14,2,2,2,2a1.12,1.12,0,0,0,1.59,0h0l2-2,2-2a1,1,0,0,0-1.31-1.6l-.14.14-.79.79L9,8.74V4.86a1,1,0,1,0-2,0h0V8.74Z"></path><circle _ngcontent-nav-c46="" cx="7.97" cy="1.41" r="0.99"></circle></svg>