<?xml version="1.0" standalone="no"?>
<!DOCTYPE svg PUBLIC "-//W3C//DTD SVG 1.1//EN" "http://www.w3.org/Graphics/SVG/1.1/DTD/svg11.dtd" >
<svg xmlns="http://www.w3.org/2000/svg">
<metadata>Generated by IcoMoon</metadata>
<defs>
<font id="AMA" horiz-adv-x="1024">
<font-face units-per-em="1024" ascent="960" descent="-64" />
<missing-glyph horiz-adv-x="1024" />
<glyph unicode="&#x20;" horiz-adv-x="0" d="" />
<glyph unicode="&#x41;" glyph-name="AMA-Formulario-Line" d="M412 160c-4 4-8 8-14 8-40 4-100 20-116 42v478c16 24 76 40 116 42 10 2 18 12 18 22s-10 18-20 18h-2c-10 0-92-8-132-44-40 34-118 44-132 44h-4c-10 0-18-8-20-18 0-10 8-20 18-22 40-4 102-20 118-42v-478c-18-24-78-38-118-42-10-2-16-10-16-20s8-20 18-20h2c10 0 92 10 134 46 40-34 122-44 132-46h2c8 0 14 4 18 12 2 6 2 14-2 20zM344 174c10-2 20-4 28-6-8 2-18 4-28 6-14 4-30 10-42 16 12-6 28-12 42-16zM288 198c-4 2-6 4-8 6 2-2 6-4 8-6zM288 702c8 6 18 12 28 16-10-4-18-10-28-16zM334 724c6 2 14 4 20 6-6-2-12-4-18-6zM400 766v0zM120 766v0zM188 722c-8 2-14 4-20 6 6-2 12-4 20-6s16-6 26-10c-10 4-18 8-26 10zM222 708c6-2 12-6 18-12-6 6-12 10-18 14zM122 134h-2zM412 146c0-2-2-4-2-6 2 4 2 6 2 10 0-2 0-2 0-4zM990 672h-632c-12 0-20-10-20-20 0-12 8-20 20-20h612v-344h-612c-12 0-20-8-20-20s8-20 20-20h632c10 0 20 8 20 20v384c0 10-10 20-20 20zM48 460v172h106c12 0 20 8 20 20s-8 20-20 20h-126c-4 0-10-2-14-6s-6-10-6-14v-384c0-10 10-20 20-20h126c12 0 20 10 20 20 0 12-8 20-20 20h-106z" />
<glyph unicode="&#x42;" glyph-name="AMA-Email2-Line" d="M1028 568c0 0-2 2-2 2 0 2 0 2 0 4 0 0-2 2-2 2 0 2-2 2-2 2l-2 2-164 128v132c0 28-22 52-52 52h-184l-76 58c-18 14-44 14-62 0l-74-58h-186c-28 0-50-24-50-52v-132l-166-128v-2c0 0-2 0-2-2-2 0-2-2-2-2 0-2 0-2-2-4 0 0 0-2 0-2s0-2 0-2v-582c0-10 4-22 10-30 10-14 26-22 42-22h924c16 0 32 8 40 20 8 10 10 20 10 32v582c0 0 0 0 0 2zM504 922c6 4 14 4 20 0l40-30h-100zM56-32l448 346c6 4 14 4 20 0l448-346zM992-6l-448 348c-18 14-44 14-62 0l-448-348v546l280-218c8-6 20-4 24 4 6 6 6 18-2 24l-286 220 122 94v-132c0-10 6-18 16-18s18 8 18 18v308c0 10 8 18 16 18h582c6 0 10-2 12-6 4-2 6-8 6-12v-308c0-10 8-18 18-18 8 0 16 8 16 18v132l120-94-284-222c-8-4-10-16-4-24 6-6 16-8 24-2l280 218zM720 550v68c0 114-92 206-206 206s-206-92-206-206c0-114 92-206 206-206 10 0 16 8 16 18 0 8-6 16-16 16-94 0-172 76-172 172 0 94 76 170 172 170 94 0 170-76 170-170v-68c0-20-14-36-34-36-18 0-34 16-34 36v68c0 8-8 16-16 16-10 0-18-8-18-16 0-38-30-68-68-68s-68 30-68 68c0 38 30 68 68 68 10 0 16 8 16 18 0 8-6 16-16 16-46 0-86-30-98-74-14-44 4-92 44-116 38-24 88-20 122 12 4-36 36-64 72-62s66 32 66 68z" />
<glyph unicode="&#x43;" glyph-name="AMA-ListaPesquisa-Line" d="M648 98c-8 0-14-6-14-14v-30h-604v706c0 8-6 14-14 14-10 0-16-6-16-14v-720c0-8 6-16 16-16h632c8 0 16 8 16 16v44c0 8-8 14-16 14zM530 210h-412c-8 0-14-8-14-16s6-14 14-14h412c10 0 16 6 16 14s-6 16-16 16zM644 708c-78 78-204 78-282 0-30-30-50-70-56-112s0-86 20-122c4-8 14-10 20-6 8 4 10 12 6 20-16 32-22 68-18 102 6 36 22 70 48 96 66 66 174 66 240 0s66-174 0-240c-66-66-174-66-240 0-6 6-14 6-20 0s-6-14 0-20c78-78 204-78 282 0s78 204 0 282zM1008 134l-232 232c-2 2-6 4-10 4s-8-2-12-4l-14-16-38 38c52 56 76 130 68 206-8 74-46 142-106 188v78c0 4-2 6-4 10-4 2-8 4-12 4h-632c-10 0-16-6-16-14v-40c0-8 6-14 16-14 8 0 14 6 14 14v24h604v-42c-130 72-294 26-366-104h-150c-8 0-14-6-14-14s6-16 14-16h136c-18-42-24-88-18-132h-118c-8 0-14-8-14-16s6-14 14-14h122c12-50 36-94 72-130l4-4h-198c-8 0-14-6-14-14s6-16 14-16h236c84-56 192-60 280-10v-190c0-8 6-14 14-14s16 6 16 14v210c6 4 12 8 18 14l36-36-16-16c-2-2-4-6-4-10s2-8 4-10l234-234c12-14 32-18 50-14s32 18 38 38c4 18-2 38-16 50zM672 398c-94-94-246-94-338 0-94 94-94 244 0 338 92 92 244 92 338 0 92-94 92-244 0-338zM986 82c-8-8-22-8-30 0l-222 222 16 14 16 16 220-222c10-8 10-22 0-30z" />
<glyph unicode="&#x44;" glyph-name="AMA-Equipa-Line" d="M590 486c-4 4-10 6-16 4-6 0-10-6-12-12s0-12 4-16c8-6 18-6 24 0s6 18 0 24zM462 486c-4 4-10 6-16 4-6 0-10-6-12-12s0-12 6-16c6-6 16-6 22 0s6 18 0 24zM526 422c-2-4-8-6-12-6s-8 2-12 6c-4 4-10 6-16 4-6 0-10-6-12-12s0-12 4-16c20-18 52-18 72 0 6 6 6 18 0 24-8 6-18 6-24 0zM526-8c-4 4-10 6-16 4s-10-6-12-12c-2-6 0-12 4-16 8-6 18-6 24 0s6 16 0 24zM900 310l-66 16v30h2c36 22 58 62 58 104v72c0 50-32 96-80 114s-102 6-136-34l-2-2-2 4c-22 70-86 118-160 118-72 0-138-48-158-118l-2-6-4 4c-32 38-86 52-134 34s-80-64-80-114v-72c0-42 22-82 58-104v0-30l-66-16c-58-14-100-66-100-126v-128c0-4 2-8 6-12 2-2 8-4 12-4h154v-60c0-10 8-16 18-16h208c10 0 18 6 18 16 0 8-8 16-18 16h-88v86c0 10-6 18-16 18s-16-8-16-18v-86h-72v88c-2 66 44 124 108 138l96 24 62-140c2-6 8-10 14-10s12 4 16 10l60 140 96-24c64-14 110-72 110-138v-22c-2-4-2-8 0-12v-54h-72v86c0 10-8 18-16 18-10 0-18-8-18-18v-86h-96c-8 0-16-8-16-18 0-8 8-16 16-16h218c8 0 16 8 16 16v62h156c8 0 16 6 16 16v128c0 60-40 112-100 126zM684 556c12 44 54 70 100 64 44-6 76-44 76-88v-10h-56c-42 0-84 10-120 32h-2zM680 464c0 0 0 34 0 50v4l4-2c38-18 78-26 120-26h56v-30c0-50-40-90-90-90s-90 40-90 90zM382 568c0 74 60 132 132 132 74 0 132-58 132-132v-8l-74 46c-6 2-16 2-20-4-28-34-70-54-114-54h-56zM168 532c0 44 34 82 78 88 44 8 88-20 100-64v-2h-2c-36-22-76-32-118-32h-58zM168 460v30h58c42 0 82 8 120 28l4 2v-60c0-50-42-90-92-90s-90 40-90 90zM240 194c-26-30-40-70-40-110v-12h-62v88c0 8-8 16-16 16-10 0-16-8-16-16v-88h-46v112c0 46 32 84 76 94l64 16 40-98zM290 310l-30-74-32 76c0 0 0 0 0 2v28l2-2c20-4 38-4 58 0l2 2v-28c0 0 0-2 0-2zM334 254c-10-2-20-6-32-10l-6-4 22 54 64-16c4 0 8-2 14-4l8-4zM432 292l-4 2c-12 8-26 14-38 16l-68 16v28l2 2c16 10 28 22 38 38l4 4 2-4c14-28 36-50 62-66l2-2zM564 268l-50-114-50 114v44l4-2c30-8 62-8 94 0l4 2zM514 336c-72 0-132 60-132 132v48h56c48 0 94 18 128 52l2 2 80-46v-60c-4-70-62-128-134-128zM598 292v36c28 16 50 38 64 66l2 4 2-4c10-16 24-28 38-38l2-2v-28l-66-16c-14-2-26-8-38-16zM726 244c-10 4-20 8-32 10l-68 18 8 2c4 2 8 4 14 6l62 14 22-54zM738 310v2c0 0 0 0 0 2v26h4c18-4 38-4 56 0h4v-28l-32-76zM968 72h-44v88c0 8-8 16-18 16-8 0-16-8-16-16v-88h-62v12c0 40-14 80-38 110l-2 2 42 98 62-16c44-10 76-50 76-94zM854 792c-8 0-16-8-16-16v-14c0-8 8-16 18-16 8 0 16 8 16 16v14c0 4-2 8-6 10-2 4-6 6-12 6zM802 798h14c8 0 16 8 16 18 0 8-8 16-16 16h-14c-10 0-16-8-16-16 0-10 6-18 16-18zM894 798h14c8 0 16 8 16 18 0 8-8 16-16 16h-14c-8 0-16-8-16-16 0-10 8-18 16-18zM854 838c10 0 18 8 18 16v14c0 8-8 16-18 16-8 0-16-8-16-16v-14c0-4 2-8 4-10 4-4 8-6 12-6zM120 798h14c8 0 16 8 16 18 0 8-8 16-16 16h-14c-8 0-16-8-16-16 0-10 8-18 16-18zM214 798h12c10 0 16 8 16 18 0 8-6 16-16 16h-12c-10 0-18-8-18-16 0-10 8-18 18-18zM174 838c8 0 16 8 16 16v14c0 8-8 16-16 16-10 0-18-8-18-16v-14c0-4 2-8 6-10 2-4 8-6 12-6zM174 792c-10 0-16-8-16-16v-14c0-8 6-16 16-16 8 0 16 8 16 16v14c0 4-2 8-4 10-4 4-8 6-12 6zM526 906c6 6 6 18 0 24-4 4-10 6-16 4-6 0-10-6-12-12s0-12 6-16c6-6 16-6 22 0zM514 778c10 0 18 8 18 18v50c0 8-8 16-18 16-8 0-16-8-16-16v-52c0-4 2-8 6-10 2-4 6-6 10-6zM422 836c8-6 18-6 24 0s6 16 0 22l-28 28c-4 6-10 6-16 6-6-2-10-6-12-12s0-12 4-16zM606 836l28 28c4 4 6 10 6 16-2 6-6 10-12 12s-12 0-16-4l-30-30c-6-6-6-16 0-22 8-6 18-6 24 0z" />
<glyph unicode="&#x45;" glyph-name="AMA-Selecao-Line" d="M832 498c-10 0-20-8-20-20v-70c0-12 10-20 20-20s20 8 20 20v70c0 12-10 20-20 20zM852 732c0 12-10 20-20 20s-20-8-20-20v-126c0-12 10-20 20-20s20 8 20 20zM818 606c0-2 0-4 0-6 0 2 0 4 0 6zM848 606c0-2-2-4-2-6 0 2 2 4 2 6zM762 912h50v-52c0-10 10-20 20-20 12 0 20 10 20 20v72c0 4-2 10-6 14-4 2-8 4-14 4h-70c-12 0-20-8-20-18 0-12 8-20 20-20zM358 950h-134c-10 0-18-8-18-18 0-12 8-20 18-20h134c12 0 20 8 20 20 0 10-8 18-20 18zM370 942c-4 2-8 4-12 4 4 0 8-2 12-4zM358 916c4 0 8 2 12 4-4-2-8-4-12-4zM492 912h134c12 0 20 8 20 20 0 10-8 18-20 18h-134c-10 0-18-8-18-18 0-12 8-20 18-20zM626 916c2 0 4 0 6 2-2-2-4-2-6-2zM626 946c2 0 4 0 6 0-2 0-4 0-6 0zM90 950h-70c-12 0-20-8-20-18v-72c0-10 8-20 20-20 10 0 18 10 18 20v52h52c12 0 20 8 20 20 0 10-8 18-20 18zM34 860c0-8-6-14-14-14 8 0 14 6 14 14v56zM20 572c10 0 18 10 18 20v134c0 10-8 20-18 20-12 0-20-10-20-20v-134c0-10 8-20 20-20zM20 578c8 0 14 6 14 14v134c0 8-6 14-14 14 8 0 14-6 14-14v-134c0-8-6-14-14-14s-16 6-16 14c0-8 8-14 16-14zM20 304c10 0 18 10 18 20v134c0 10-8 20-18 20-12 0-20-10-20-20v-134c0-10 8-20 20-20zM34 458v-134c0-8-6-16-14-16 8 0 14 8 14 16v134c0 8-6 14-14 14 8 0 14-6 14-14zM90 138h-52v52c0 10-8 20-18 20-12 0-20-10-20-20v-72c0-10 8-18 20-18h70c12 0 20 8 20 18 0 12-8 20-20 20zM34 190v0c0 8-6 14-14 14 8 0 14-6 14-14zM348 138h-128c-10 0-20-8-20-20 0-10 10-18 20-18h128c12 0 20 8 20 18 0 12-8 20-20 20zM548 138h-70c-10 0-20-8-20-20 0-10 10-18 20-18h70c12 0 20 8 20 18 0 12-8 20-20 20zM856 246c2-8 10-16 18-16 2 0 4 0 6 0l104 26c8 2 14 10 14 18 0 10-4 16-12 20l-462 164c-6 2-14 2-20-4s-8-14-4-20l162-462c4-8 10-12 20-12v0c8 0 16 6 18 14l32 132 136-136c8-6 20-6 28 0l92 92c4 4 6 10 6 14 0 6-2 10-6 14l-112 112c-8 6-20 6-26-2-8-6-8-18-2-26l98-98-64-64-146 146c-6 4-12 6-20 4-6-2-12-6-12-14l-26-102-128 362 362-128-42-10c-10-4-16-14-14-24zM860 248c0-2 2-4 2-6 0 2-2 4-2 6zM864 240c0 0 2 0 2-2 0 2-2 2-2 2zM868 238c2 0 2-2 4-2-2 0-2 2-4 2zM874 236v0c0 0 2 0 4 0-2 0-2 0-4 0zM512 454v0zM696-24c0-2-2-4-2-6 0 2 2 4 2 6l34 138zM984 66v0c2 2 2 2 4 4-2-2-2-2-4-4zM984 86c2 0 2-2 4-4-2 2-2 4-4 4l-112 112zM882 6l-150 148c0 2-2 2-4 4 2-2 4-2 4-4zM726 158c0 0-2 0-4 0 2 0 4 0 4 0z" />
<glyph unicode="&#x46;" glyph-name="AMA-Globo-Line" d="M560 612c0 2 16 4 18 4 4 0-8-20-18-4zM470 742c0-2 4 0 4 0s-4-2-4-4c2-4 2-10 0-14 0-4-4 0-8-4-2-4 12-4 12-4s-16-4-12-6c2-4 34 8 30 8 8 4 0 4-4 8-2 10-4 20-10 28 0 0 4 4 4 4-6 12-12-16-12-16zM1024 448c0-282-230-512-512-512s-512 230-512 512c0 282 230 512 512 512s512-230 512-512zM670 678c0 6-8 12-16 0s-6-20-8-24c-4-6 24-16 24-8s32 2 36 0c6-2 28 10 10 16s-24 12-24 22c0 0 8 8 4 8s-26-30-26-14zM938 448c0 38-4 76-14 112-4 8-10 14-16 16-12 4-58-26-64-10-8 14-14-8-24 0-12 6-20 22-26 18-14-4 20-42 28-46 10 8 36 20 44 0 10-34-32-70-54-90-32-30-26 18-50 36-12 8-10 28-22 34-12 10-22 22-30 34 0-2 0-4 0-6-4-4-12 12-14 14 0-14 20-34 28-44 8-20 20-38 32-56 8-8 36-38 42-38s34 20 40 18c26-6-66-138-74-152-8-16 6-48 4-64 0-16-16-24-30-34-12-10-10-32-22-40-24-14-38-58-70-58-10 0-48-14-54 0-4 10-10 20-14 30-6 12 0 22-8 32-8 8-20 20-22 28s6 28 12 30c8 4 0 20 0 28-2 16-10 28-22 36-18 14-8 24-4 44 0 8-6 20-18 16-24-6-16 18-34 18-12-4-24-8-34-12-16-4-30 2-44 4-60 8-78 76-64 126 0 8-4 24 0 30 10 16 20 30 34 42 6 6 14 6 22 10 8 6 14 24 26 34 18 10 40 16 62 16 12 0 58 12 64 2 0 0 8-24 0-24 18 0 42-32 62-24 10 4 6 32 24 18 24-10 48-10 72-4 6 6 10 40 2 44 6-6-26-6-28-6-4 2-10-4-18 0 4-2-28 16-10 30-8-6-14 0-24-6-8-4 4-6-4-10s-24 22-28 24c-4 4-42 32-32 14s38-32 32-34c-4-4-8 12-8 2 2 6 0-24-4-14s4 6 0 10c-4 6-10 8-12 10-8 10-18 18-30 26-12-2-24-2-36-6-2-4-6-8-8-12-6-2-12-6-18-10-4-4-2-12-6-14-4-4-32-12-32-14-2 0-22 8-20 14 4 12 6 24 8 38 0 8 44-12 48 10 0 10 0 20-12 22 12 4 22 8 34 16 8 10 18 16 30 18 12 0 10 18 14 26 6-2-2-16 4-20 0 4 20-4 22 0 2 2 28 0 24 12s2 8 8 10c0 0 14 28 18 18 0 10-18-2-24-2-12 0-8 22-2 28 4 6-10 10-12 0 0-12-12-28-10-46 6-28-30 8-34 6-12-8-22 8-16 18 8 10 22 10 28 20 4 8 10 16 16 22 24 20 30 4 52 0 24-4 8-4 4-14-2-8 14-10 18-4 6 8 10 14 14 22 4 10 38 8 14 22-42 20-88 30-132 32-10 0-18-10-26-16-14-14-54-38-76-30-20 6-68-28-76-30-8 0 0 28 14 30-6 0 54 30 52 36-40-6-80-20-114-42 2-4 12-4 0-12-12-10-16-34-22-34-22-10-24 18-48-18-4-8-30-8-38-16-58-60-96-138-110-220 0-4 14-10 16-12s6-30 8-38c8-20 18-36 32-52 8-14 14-32 14-50 4 8 44-36 52-42 18-22 32-46 4-68-10-6 14-48 0-58 0 0-12 0-16-4-16-8-8-32 0-42 120-128 304-168 468-104 162 64 268 222 268 396zM448 720c4 2 12 2 12 8 2 8 0 0 4 6 4 4-4 4-4 6-2 0-6-4-8-4-2-2 0 0-2 0-2-2-2-4-4-4 0 0-2-4-4-6 0 0 0-6 4-4z" />
<glyph unicode="&#x47;" glyph-name="AMA-Paginas-Line" d="M776 786v-704c-2-16 6-30 20-40 12-8 30-8 44 0 12 10 20 24 18 40v704c2 16-6 32-18 40-14 8-32 8-44 0-14-8-22-24-20-40zM950 718v-586c0-16 6-32 20-40 14-10 30-10 44 0 14 8 20 24 20 40v584c0 16-6 32-20 40s-30 8-44 0c-14-8-20-24-20-40zM642 912h-600c-24-2-42-22-42-46v-856c0-24 18-44 42-46h602c24 2 42 22 42 46v856c0 24-20 44-44 46zM82 828h518v-780h-518z" />
<glyph unicode="&#x49;" glyph-name="AMA-Validador-Line" d="M784 550c8 2 14 10 14 20v228c0 40-34 74-74 74h-650c-40 0-72-32-74-72v-654c2-40 34-72 74-72h290c6-2 12 0 16 6s4 12 0 18c-4 4-10 6-16 6h-290c-24 0-44 20-44 44v650c0 24 20 44 44 44h650c12 0 22-4 30-14 10-8 14-18 14-30v-228c0-10 6-18 16-20zM88 798c0-8-6-16-14-16s-16 8-16 16c0 8 8 14 16 14s14-6 14-14zM148 798c0-8-6-16-16-16-8 0-14 8-14 16s6 14 14 14c10 0 16-6 16-14zM206 798c0-8-6-16-14-16s-14 8-14 16c0 8 6 14 14 14s14-6 14-14zM738 738c0 10-8 16-18 16h-642c-10 0-18-6-18-16 0-8 8-16 18-14h642c8-2 18 6 18 14zM222 680c-8 4-18 4-24-4l-24-24c-32 22-74 14-98-14-24-30-22-74 4-100 28-26 70-30 100-4 30 24 36 66 14 98l24 24c8 6 8 16 4 24zM132 546c-24 0-44 20-44 44 0 26 20 46 44 46 8-2 14-2 20-6l-16-14c-8-6-10-16-4-24 8-6 18-6 24 2l16 16c4-6 6-12 6-20 0-24-20-44-46-44zM660 604h-390c-10 0-18-6-18-14 0-10 8-16 18-16h390c10 0 18 6 20 16-2 8-10 14-20 14zM222 502c-8 6-18 4-24-4l-24-24c-32 22-74 16-98-14s-22-72 4-100c28-26 70-28 100-4s36 66 14 98l24 24c8 6 8 16 4 24zM132 370c-24 0-44 20-44 44s20 44 44 44c8 0 14-2 20-4l-16-16c-8-6-10-18-4-24 8-6 18-6 24 2l16 16c4-6 6-12 6-18 0-24-20-44-44-44zM496 426h-216c-10 2-18-6-18-14 0-10 8-16 18-16h216c10 0 18 6 20 16-2 8-10 16-20 14zM222 324c-8 6-18 4-24-2l-24-24c-32 20-74 14-98-14-26-30-24-72 4-100 26-28 68-30 98-6s38 66 16 98l24 24c8 6 10 18 4 24zM132 192c-24 0-44 20-44 44s20 44 44 44c8 0 14 0 20-4l-16-16c-8-6-10-16-4-24 8-6 18-4 24 2l16 18c4-6 6-14 6-20 0-24-20-44-44-44zM444 250h-174c-6 0-12-2-16-8-4-4-4-10 0-16s10-8 16-6h174c6-2 12 0 16 6s4 12 0 16c-4 6-10 8-16 8zM776 24c74 0 142 34 186 92 44 60 58 136 38 206-4 8-14 12-24 10-8-2-14-12-14-22 26-90-18-186-102-226s-186-16-240 62c-56 76-48 180 18 248 64 66 170 78 246 24 10-4 20 0 24 8 6 8 4 18-2 24-82 56-190 52-270-8-78-62-110-166-78-260 30-94 118-158 218-158zM986 454l-200-198-64 62c-8 6-18 6-26-2-6-6-6-16-2-24l78-78c8-8 20-8 28 0l212 214c8 4 10 12 8 20-2 6-6 12-14 14s-16 0-20-8z" />
<glyph unicode="&#x4a;" glyph-name="AMA-Ferramentas-Line" d="M512 706c10 0 20 10 20 20 0 0 0 0 0 0 0 12-10 20-20 20s-20-8-20-20c0 0 0 0 0 0 0-10 10-20 20-20zM632 508c0 66-54 120-120 120s-120-54-120-120c0-66 54-120 120-120s120 54 120 120zM512 428c-44 0-80 36-80 80s36 80 80 80c44 0 80-36 80-80s-36-80-80-80zM1006 528l-86 16c-10 44-28 86-52 124l54 76c4 8 4 20-2 26l-86 86c-6 6-18 6-26 2l-76-54c-38 24-80 42-124 52l-16 86c-2 10-10 16-20 16h-120c-10 0-18-6-20-16l-16-86c-44-10-86-28-124-52l-76 54c-8 4-20 4-26-2l-86-86c-6-6-8-18-2-26l54-76c-24-38-42-80-52-124l-86-16c-10-2-16-10-16-20v-120c0-10 6-18 16-20l86-18c10-42 28-84 52-122l-54-78c-4-8-4-18 2-24l86-84c6-8 16-8 24-4l78 54c38-24 80-42 124-52l16-86c2-10 10-18 20-18h120c10 0 18 8 20 18l18 86c42 10 84 28 122 52l78-54c8-4 18-4 24 2l86 86c6 6 6 18 2 26l-54 76c24 38 42 80 52 124l86 16c10 2 16 10 18 20v120c-2 10-8 18-18 20zM984 404l-84-16c-8-2-14-8-16-16-10-48-28-92-56-132-4-8-4-16 0-22l52-76-62-62-76 52c-6 4-14 4-22 0-40-26-84-46-132-56-8 0-14-8-16-16l-16-82h-88l-16 82c-2 8-8 14-16 16-48 10-92 28-134 56-6 4-14 4-22 0l-74-52-62 62 52 76c4 6 4 14 0 22-26 40-46 84-56 132 0 8-8 14-16 16l-82 16v88l82 16c8 2 14 8 16 16 10 48 28 92 56 134 4 6 4 14 0 22l-52 74 62 62 76-52c6-4 14-4 22 0 40 26 84 46 132 56 8 0 14 6 16 14l16 84h88l16-84c2-8 8-14 16-14 48-10 92-28 132-56 6-4 14-4 22 0 0 0 0 0 76 52l62-62-52-74c-4-8-4-16 0-22 28-42 46-86 56-134 2-8 8-14 16-16l82-16zM596 736c-8 2-16 2-22-4s-8-14-6-22c4-6 10-12 18-12 110-34 184-136 184-250 0-74-30-144-86-192-20 78-92 132-172 132-82 0-152-54-174-132-70 62-100 158-80 250s90 164 180 192c8 0 14 6 16 12 2 8 0 16-4 20-6 6-14 8-20 6h-4c-142-42-232-182-212-330 22-148 148-256 298-256 148 0 274 108 296 256 20 148-70 288-212 330zM512 188c-50 0-98 14-138 40 10 68 68 118 138 118 68 0 128-50 138-118-42-26-90-40-138-40z" />
<glyph unicode="&#x4b;" glyph-name="AMA-Ideia-Solid" d="M74 958h880v-1016h-880zM734 568c0 90-88 152-170 152-80 0-168-62-168-152-2-50 24-96 66-120 2-2 6-4 10-6-14-8-22-20-26-36-2-14 4-30 14-42-12-12-16-30-12-46s16-30 32-34v-20c0-28 22-52 50-52h68c28 0 52 24 52 52v20c16 4 28 18 32 34s0 34-12 46c10 12 14 28 12 42-2 16-10 28-24 36 4 2 6 4 10 6 42 24 68 70 66 120zM430 568c0 70 70 118 134 118s136-48 136-118c0-56-28-74-52-92-12-6-20-16-28-26h-38v70c32 8 54 40 50 74s-34 58-68 58c-34 0-62-24-66-58s18-66 50-74v-70h-38c-8 10-18 20-28 26-26 18-52 36-52 92zM480 398c0 10 8 18 18 18h134c10 0 18-8 18-18 0-8-8-16-18-16h-134c-10 0-18 8-18 16zM564 550c-12 0-26 8-30 22-6 12-4 26 6 36s24 14 38 8c12-6 20-18 20-32 0-18-14-34-34-34zM598 246h-66c-10 0-18 8-18 18v16h102v-16c0-6-2-10-6-12-2-4-8-6-12-6zM632 314h-134c-10 0-18 8-18 16 0 10 8 18 18 18h134c10 0 18-8 18-18 0-8-8-16-18-16zM938 78c8 0 16 6 16 16v812c0 14-6 26-14 36-10 10-24 16-36 16h-746c-46 0-84-38-84-86v-846c0-22 10-44 24-60 16-16 38-24 60-24h780c8 0 16 8 16 16 0 10-8 18-16 18-28 0-52 22-52 50s24 52 52 52zM158 924h18v-814h-18c-18 0-36-6-50-16v778c0 28 22 52 50 52zM870-24h-712c-28 0-50 22-50 50s22 52 50 52h712c-24-30-24-72 0-102zM210 110v814h694c4 0 8-2 12-6 2-2 4-8 4-12v-796zM548 838h34v-68h-34zM424 796l28 16 34-58-28-16zM336 696l18 30 58-34-16-28zM312 602h66v-34h-66zM336 472l60 34 16-30-58-32zM644 754l34 58 28-16-34-58zM718 692l58 34 18-30-60-32zM752 602h66v-34h-66zM718 476l16 30 60-34-18-28z" />
<glyph unicode="&#x4c;" glyph-name="AMA-Lei-Line" d="M732 684c0 8-8 16-16 16h-318c-8 0-14-8-14-16s6-14 14-14h318c8 0 16 6 16 14zM278 670h50c10 0 16 6 16 14s-6 16-16 16h-50c-8 0-14-8-14-16s6-14 14-14zM278 242c-8 0-14-8-14-16s6-14 14-14h156c10 0 16 6 16 14s-6 16-16 16zM512 378c0 10-6 16-14 16h-220c-8 0-14-6-14-16 0-8 6-14 14-14h220c8 0 14 6 14 14zM620 532c0 8-8 14-16 14h-326c-8 0-14-6-14-14s6-16 14-16h326c8 0 16 8 16 16zM802 340c-4 0-8 0-10-4-2-2-4-6-4-10v-182c0-38-32-68-70-68h-2c-38 0-68 32-68 74 0 8-8 14-16 14h-432v588c0 40 32 70 70 70h546l-2-2v-2h-2l-4-4v-2l-4-4v-2l-4-4v-2l-2-2v-2l-2-2v-2l-2-2v-4l-2-2v-4c0-2 0-2-2-4v-4c0 0 0-2 0-2v-2c0-2 0-2 0-4 0 0 0 0 0-2 0 0 0-2 0-2 0-2 0-2 0-2 0-2 0-4 0-6v-132c0-8 6-14 14-14s16 6 16 14v112h152c4 0 8 2 10 6 2 2 4 6 4 10 0 60-42 104-98 104h-618c-56 0-100-44-100-100v-588h-156c-4 0-6 0-10-4-2-2-4-6-4-10 0-60 44-104 100-104h618c56 0 100 44 100 98v182c0 8-8 14-16 14zM818 762v8l2 2v4h2v2l2 2v2l2 2v2c2 4 4 6 6 8v2l8 8c10 8 22 12 34 16h12c34 0 62-26 68-60h-136zM100 76c-34 0-64 26-68 58h586c0 0 0-2 2-4v-2c0 0 0-2 0-2v-6l2-2v-2l2-4v-4l2-2v-2l4-4v-2l2-2 2-4 2-2v-2l4-4 2-4h2v-2l2-2zM1020 576c0 0 0 0 0 2 0 0-2 2-2 4 0 0 0 0 0 2h-2v2l-2 2h-2l-2 2h-4c-124 2-288-28-370-122-36-40-52-92-68-144l-4-12-26-90c-2-4 0-8 2-12 2-2 4-6 8-6 2-2 4-2 4-2 8 0 14 6 14 12l24 82c26 12 54 22 84 30 16 4 34 8 56 16 48 14 140 76 182 122 32 34 66 68 104 98l2 2v2c2 2 2 2 2 4 0 0 0 0 0 2 0 0 0 0 0 0 0 2 0 4 0 4zM656 450c36 40 88 70 160 90 18 6 38 10 58 12-44-22-88-48-130-76-46-30-88-62-130-98 10 26 24 52 42 72zM888 486c-42-44-130-102-170-114-20-6-38-12-54-16s-28-8-42-12c6 6 14 12 22 18 36 34 76 62 116 90 76 50 144 86 194 102-22-22-42-42-66-68z" />
<glyph unicode="&#x62;" glyph-name="AMA-SetaBaixo3-Solid" d="M580 460l-14-14c-28-26-72-26-98 0l-168 168c-26 20-60 18-84-4-12-12-18-30-18-48s8-34 22-46l252-252c26-26 70-26 98 0l252 252c26 24 28 66 4 94-28 24-68 22-94-4l-54-48" />
<glyph unicode="&#x63;" glyph-name="AMA-Lista-Line" d="M124 864c0-34-28-62-62-62s-62 28-62 62c0 34 28 62 62 62s62-28 62-62zM124 456c0-34-28-62-62-62s-62 28-62 62c0 34 28 62 62 62s62-28 62-62zM124 44c0-34-28-62-62-62s-62 28-62 62c0 34 28 62 62 62s62-28 62-62zM936 926h-602c-34 0-64-26-68-62 4-36 34-62 68-62h602c36 0 66 26 68 62-2 36-32 62-68 62zM732 516h-398c-34 0-64-26-68-62 4-36 34-62 68-62h398c34 0 64 26 68 62-4 36-34 62-68 62zM936 106h-602c-34 0-62-28-62-62s28-62 62-62h602c34 0 62 28 62 62s-28 62-62 62z" />
<glyph unicode="&#x64;" glyph-name="AMA-Valido-Line" d="M512-64c162 0 312 76 410 204 96 130 126 296 82 450-6 24-30 36-54 30-22-6-34-30-28-54 56-198-38-408-224-500-186-90-410-34-530 134-122 168-106 398 38 546s374 172 546 56c18-12 44-6 58 12 12 20 8 46-10 58-182 124-422 116-598-16-174-134-244-364-174-572s264-348 484-348zM952 862l-440-438-140 140c-18 16-44 16-62 0-16-16-16-44 0-60l172-172c8-8 18-12 30-12s22 4 30 12l470 470c16 16 16 44 0 60-18 18-44 18-62 0z" />
<glyph unicode="&#x65;" glyph-name="AMA-Erro2-Line" d="M512 960c-282 0-512-230-512-512s230-512 512-512c282 0 512 230 512 512s-230 512-512 512zM738 244l-18-20c-8-8-20-12-30-12-12 0-24 4-32 12l-146 146-146-148c-16-16-44-16-60 0l-18 18c-8 8-12 20-12 30 0 12 4 22 12 30l116 118 30 30-90 86-58 60c-16 16-16 44 0 60l18 18c8 8 20 12 30 12 12 0 22-4 30-12l56-56 92-90 48 50 96 98c18 16 44 16 60 0l20-18c8-8 12-20 12-30 0-12-4-24-12-32l-146-146 30-30 118-114c16-18 16-44 0-60z" />
<glyph unicode="&#x66;" glyph-name="AMA-AlinhadoEsq-Line" d="M944 926h-876c-36 0-64-26-68-62 4-36 32-62 68-62h876c34 0 64 26 68 62-4 36-34 62-68 62zM670 516h-602c-36 0-64-26-68-62 4-36 32-62 68-62h602c36 0 66 26 68 62-2 36-32 62-68 62zM670 106h-602c-34 0-62-28-62-62s28-62 62-62h602c34 0 62 28 62 62s-28 62-62 62z" />
<glyph unicode="&#x67;" glyph-name="AMA-OrdenarBaixo-Line" d="M616 760h-572c-22 0-42-18-44-40 2-24 22-42 44-42h572c22 0 42 18 44 42-2 22-22 40-44 40zM438 492h-394c-22 0-42-16-44-40 2-24 22-40 44-40h394c22 0 42 16 44 40-2 24-22 40-44 40zM438 226h-394c-22 0-40-18-40-42 0-22 18-40 40-40h394c22 0 40 18 40 40 0 24-18 42-40 42zM712 282l-34 32-62 60c-10 12-26 18-40 14-16-2-28-14-30-30-4-16 2-32 14-40l80-82 80-80c8-8 20-12 32-12 10 0 22 4 30 12l80 80 80 82c14 8 18 24 14 40-2 16-14 28-30 30-14 4-30-2-40-14l-32-30-62-62v154c0 22-18 40-40 40-24 0-42-18-42-40v-154zM788 572c0-22-16-40-38-40s-40 18-40 40c0 20 18 38 40 38s38-18 38-38z" />
<glyph unicode="&#x68;" glyph-name="AMA-EsqAlinhado-Line" d="M616 760h-572c-22 0-42-18-44-40 2-24 22-42 44-42h572c22 0 42 18 44 42-2 22-22 40-44 40zM438 492h-394c-22 0-42-16-44-40 2-24 22-40 44-40h394c22 0 42 16 44 40-2 24-22 40-44 40zM438 226h-394c-22 0-40-18-40-42 0-22 18-40 40-40h394c22 0 40 18 40 40 0 24-18 42-40 42zM674 390l94 94c16 16 18 42 2 60-16 14-42 14-58-2l-160-160c-8-8-14-20-14-32s6-24 14-32l160-160c10-12 26-18 42-14 14 4 26 16 30 30 4 16-2 32-14 42l-94 94h152c24 0 42 18 44 40-2 24-20 40-44 40zM1004 352c0-22-18-40-40-40-20 0-38 18-38 40s18 38 38 38c22 0 40-16 40-38z" />
<glyph unicode="&#x69;" glyph-name="AMA-DirAlinhado-Line" d="M616 760h-572c-22 0-42-18-44-40 2-24 22-42 44-42h572c22 0 42 18 44 42-2 22-22 40-44 40zM438 492h-394c-22 0-42-16-44-40 2-24 22-40 44-40h394c22 0 42 16 44 40-2 24-22 40-44 40zM438 226h-394c-22 0-40-18-40-42 0-22 18-40 40-40h394c22 0 40 18 40 40 0 24-18 42-40 42zM868 310l-94-94c-12-10-18-26-14-42 4-14 16-26 30-30 16-4 32 2 42 14l160 160c8 8 12 20 12 32s-4 24-12 32l-160 160c-18 16-44 18-62 2-14-18-12-44 4-60l94-94h-156c-22 0-42-16-44-40 2-22 22-40 44-40zM616 348c0-22-18-38-40-38s-38 16-38 38c0 22 16 40 38 40s40-18 40-40z" />
<glyph unicode="&#x6a;" glyph-name="AMA-OrdenarCima2-Line" d="M616 760h-572c-22 0-42-18-44-40 2-24 22-42 44-42h572c22 0 42 18 44 42-2 22-22 40-44 40zM438 492h-394c-22 0-42-16-44-40 2-24 22-40 44-40h394c22 0 42 16 44 40-2 24-22 40-44 40zM438 226h-394c-22 0-40-18-40-42 0-22 18-40 40-40h394c22 0 40 18 40 40 0 24-18 42-40 42zM792 474l94-94c10-12 26-18 40-14 16 4 28 16 32 30 2 16-2 32-14 42l-160 160c-10 8-20 14-32 14s-24-6-32-14l-160-160c-12-10-18-26-14-42 4-14 14-26 30-30s32 2 42 14l30 32 64 62v-154c0-22 18-40 40-40 24 0 42 18 42 40v154zM792 184c0-22-18-40-40-40-20 0-38 18-38 40 0 20 18 38 38 38 22 0 40-18 40-38z" />
<glyph unicode="&#x6b;" glyph-name="AMA-EscuroClaro-Line" d="M512 874c236 0 426-190 426-426s-190-426-426-426c-236 0-426 190-426 426s190 426 426 426zM512 960c-282 0-512-230-512-512s230-512 512-512c282 0 512 230 512 512s-230 512-512 512zM512 790c-188 0-342-154-342-342s154-342 342-342z" />
<glyph unicode="&#x6c;" glyph-name="AMA-MenuHamburguer-Line" d="M512 960c-282 0-512-230-512-512s230-512 512-512c282 0 512 230 512 512s-230 512-512 512zM768 278c0-24-20-44-42-44h-428c-22 0-42 20-42 44 0 22 20 42 42 42h428c22 0 42-20 42-42zM768 448c0-24-20-42-42-42h-428c-22 0-42 18-42 42s20 42 42 42h428c22 0 42-18 42-42zM768 618c0-22-20-42-42-42h-428c-22 0-42 20-42 42 0 24 20 44 42 44h428c22 0 42-20 42-44z" />
<glyph unicode="&#x6d;" glyph-name="AMA-Info-Line" d="M512 874c236 0 426-190 426-426s-190-426-426-426c-236 0-426 190-426 426s190 426 426 426zM512 960c-282 0-512-230-512-512s230-512 512-512c282 0 512 230 512 512s-230 512-512 512zM554 192h-84v342h84zM512 714c30 0 54-24 54-52 0-30-24-54-54-54s-54 24-54 54c0 28 24 52 54 52z" />
<glyph unicode="&#x6e;" glyph-name="xl-conversation" d="M22-34h410c8 0 16 8 18 18 0 8-6 18-16 20v0 66c0 44-14 88-38 126-22 34-58 54-96 58h-4l2 2c12 16 18 36 18 56v62c0 2 0 2 0 2v2c0 0 0 0 0 0 0 52-42 94-94 94h-6c-52 0-94-44-94-96v-64c0-20 6-40 18-56l2-2h-4c-40-2-76-24-98-58-24-38-38-80-38-126v-86c0-10 10-18 20-18zM316 4h-194v110h194zM158 374c0 34 28 60 60 60h2c26 0 48-16 56-42l2-2h-4c-22 4-44-6-66-14l-12-4c-4-2-8-2-12-2-8 0-16 0-24 2h-2zM158 336h2c16-4 32-4 48 2l12 4c22 8 40 14 54 12l4-2h2v-38c0-32-26-58-58-60h-8c-32 2-56 28-56 60zM40 70c0 38 10 74 30 106 18 26 44 40 74 40h148c30 0 56-14 74-40 20-32 30-68 30-106v-66h-42v128c0 12-10 20-20 20h-230c-10 0-18-8-18-20v-128h-46zM890 254h-2v2c14 16 20 36 20 56v62c0 0 0 2 0 2v2c-2 52-44 92-94 94h-8c-52 0-94-44-94-96v-62c0-22 6-42 20-58v-2h-2c-40-2-78-24-100-58-24-36-36-80-36-126v-66h-4c-10 0-18-8-18-18 0-12 8-20 18-20h416c10 0 18 8 18 18v86c0 44-12 88-36 126-22 34-58 54-98 58zM750 374c0 34 26 60 60 60v0c26 0 50-16 58-42v-2h-2c-22 4-44-6-68-14l-12-4c-4-2-6-2-10-2-8 0-18 2-26 4h-2zM750 336h2c16-4 32-4 46 0l14 6c22 8 40 14 54 12l4-2v-40c0-30-24-56-56-58h-8c-32 2-56 28-56 58zM906 4h-192v110h192zM988 4h-44v128c0 12-8 20-18 20h-230c-12 0-20-8-20-20v-128h-46v66c0 38 12 74 32 106 16 26 44 40 74 40h146c30 0 58-14 74-40 20-32 32-68 32-106zM826 74h-32c-10 0-18-8-18-20 0-10 8-18 18-18h32c10 0 18 8 18 18 0 12-8 20-18 20zM218 90c-10 0-18-10-18-20v-32c0-10 8-18 18-18 12 0 20 8 20 18v32c0 10-8 20-20 20zM496-4c6 8 18 10 26 4 6-6 10-14 6-20-2-8-8-14-16-14-4 0-8 2-12 4-8 6-10 18-4 26zM18 584h104l34-44c8-10 20-14 32-14s24 6 30 18l28 40h144v-54c0-4 2-10 6-12 2-4 8-6 12-6h218l56-42c8-6 20-8 32-6 10 2 20 10 26 20l12 28h104c10 0 18 8 18 18v346c0 10-8 18-18 18h-356v20c0 6-2 10-4 14-4 4-8 6-14 6h-158c-10 0-18-8-18-20 0-10 8-18 18-18h140v-276h-230c-6 0-12-2-14-8l-34-50-42 52c-2 4-8 6-14 6h-92v276h124c10 0 18 8 18 18s-8 20-18 20h-144c-10 0-18-10-18-20v-312c0-10 8-18 18-18zM426 584h56c4 0 10 2 14 6 2 2 4 8 4 12v256h338v-310h-96c-8 0-14-4-18-10l-18-40-62 48c-4 2-8 2-12 2h-206zM258 904c-6-8-16-10-26-4-6 6-6 16-2 24 6 8 16 10 24 6 10-6 10-18 4-26z" />
<glyph unicode="&#x6f;" glyph-name="AMA-Codigo-Line" d="M1000 804c12 0 22 10 22 22v58c0 42-34 76-76 76h-870c-42 0-76-34-76-76v-870c0-42 34-76 76-76h870c42 0 76 34 76 76v748c0 12-10 22-22 22h-956v100c0 18 14 32 32 32h870c18 0 32-14 32-32v-58c0-12 10-22 22-22zM76-22c-8 0-14 2-20 6 6-4 12-6 20-6zM978 740v-726c0-18-14-32-32-32h-870c-18 0-32 14-32 32v726zM56 914c6 4 12 8 20 8-8 0-14-4-20-8zM150 850c0-16-12-28-28-28-18 0-30 12-30 28 0 18 12 30 30 30 16 0 28-12 28-30zM248 850c0-16-14-28-30-28s-30 12-30 28c0 18 14 30 30 30s30-12 30-30zM646 596c-12 6-24 2-30-8l-248-434c-4-8-6-16-2-24 4-6 12-12 20-10 10 0 16 4 20 12l248 434c6 12 2 24-8 30zM852 378l-154 124c-6 6-16 8-22 4-8-2-14-10-16-18 0-8 4-16 10-20l134-108-134-108c-8-6-10-14-6-24 2-8 10-14 20-14 4 0 10 2 14 4l154 126c6 4 8 10 8 16s-2 14-8 18zM324 218c10-6 22-6 30 4s6 24-2 30l-134 108 134 108c6 6 8 16 6 24-4 8-12 14-20 14-6 0-10-2-14-4l-154-124c-6-6-8-12-8-18s2-12 8-16z" />
<glyph unicode="&#x70;" glyph-name="AMA-Ideia-Line" d="M292 36c-30 0-52-24-52-52v-18h-224c-8 0-16-6-16-16s8-18 16-18h994c10 0 18 8 18 18s-8 16-18 16h-224v18c0 28-22 52-50 52h-50v68h256c48 0 86 38 86 86v616c0 48-38 86-86 86h-136c-10 0-18-8-18-18s8-16 18-16h136c28 0 52-24 52-52v-548h-960v548c0 14 6 26 16 36 8 10 22 16 36 16h138c8 0 16 6 16 16s-8 18-16 18h-138c-48 0-86-38-86-86v-616c0-48 38-86 86-86h256v-68zM754-16v-18h-480v18c0 10 8 16 18 16h444c10 0 18-6 18-16zM34 190v34h960v-34c0-14-6-28-16-38-10-8-22-14-36-14h-856c-28 0-52 22-52 52zM376 104h274v-68h-274zM428 566c0-38 30-68 68-68h36c36 0 68 30 68 68v46c-2 30 8 62 28 86 58 66 52 164-14 224-32 28-74 42-118 36-72-8-128-66-136-138-4-42 8-86 36-120 20-24 32-54 32-86zM566 566c0-18-16-34-34-34h-36c-18 0-34 16-34 34v18h104zM422 722c-22 26-32 60-28 94 6 58 50 102 106 108 34 4 68-6 92-28 52-46 56-124 12-176-24-30-38-66-38-102h-104c0 38-16 74-40 104zM232 782c0-10 8-18 16-18h72c8 2 16 10 16 18 0 10-8 16-16 18h-72c-8 0-16-8-16-18zM326 706l-54-54c-8-6-8-18 0-24 6-8 18-8 26 0l52 52c8 8 8 18 0 26-6 6-18 6-24 0zM818 800h-72c-8-2-14-8-14-18 0-8 6-16 14-18h72c8 2 16 10 16 18 0 10-8 16-16 18zM716 680l54-52c6-8 18-8 24 0 8 6 8 18 0 24l-52 54c-8 6-18 6-26 0-6-8-6-18 0-26zM350 884l-52 52c-8 6-18 6-24 0s-8-18-2-24l54-54c6-6 18-6 24 0 8 8 8 18 0 26zM728 854c6 0 10 2 14 4l52 54c6 6 6 18 0 24-8 6-18 6-24 0l-54-52c-4-6-6-14-4-20 4-6 10-10 18-10zM160 408c-20 0-36-14-36-34v-36c0-20 16-34 36-34h36c18 0 34 14 34 34v34c0 20-16 36-34 36zM160 338v34h36v-34zM302 302h604c20 0 36 16 36 36v34c0 20-16 36-36 36h-604c-20 0-34-16-34-36v-34c0-20 14-36 34-36zM906 338h-302v34h302zM302 372h266v-34h-266z" />
<glyph unicode="&#x71;" glyph-name="AMA-Alerta3-Line" d="M902-38h-782c-44 0-84 22-106 60-20 38-20 84 0 120l392 678c22 38 62 60 104 60 44 0 84-22 106-60l162-282c6-10 2-22-8-28-8-6-20-2-26 8l-164 282c-14 26-40 40-70 40-28 0-56-14-70-40l-390-678c-16-24-16-56 0-80 14-26 40-40 70-40h782c28 0 56 14 70 40 14 24 14 56 0 80l-138 240c-6 8-2 22 6 26 10 6 22 4 28-6l138-240c22-36 22-82 0-120s-62-60-104-60zM806 430c-10 0-18 6-20 16-2 8 2 18 12 22 8 4 18 0 24-8s4-18-2-24c-4-4-10-6-14-6zM510 130c-38 0-68 30-68 68s30 68 68 68c38 0 68-30 68-68s-30-68-68-68zM510 226c-16 0-28-14-28-28 0-16 12-28 28-28s28 12 28 28c0 14-12 28-28 28zM510 316c-38 0-68 32-68 70v168c0 24 12 48 34 60 22 14 48 14 70 0 20-12 34-36 32-60v-168c0-38-30-70-68-70zM510 582c-16 0-28-12-28-28v-168c0-16 12-30 28-30s28 14 28 30v168c0 14-12 28-28 28z" />
<glyph unicode="&#x72;" glyph-name="AMA-Duvida-Line" d="M778 732c4-2 8-4 14-2 4 2 8 4 10 10 2 2 2 6 2 8v80c-2 8-6 12-12 14s-12 0-16-2c-4-4-8-10-8-16v-78c0-6 4-10 10-14zM652 884c-28-32-40-76-32-118v-2c0 0 0-2 0-2 0-2 0-2-2-4 0 0-2-2-4-2l-2-2c-4-4-10-8-14-12-6-8-12-16-16-26-10-28-6-62 14-86 18-24 50-36 80-30 4 0 6 0 10 2h2c0 0 0 0 2 0s2 0 2-2c4-4 10-10 14-14 8-6 18-12 28-16 22-10 46-12 68-4 6 2 14 4 20 8h2c2 2 4 4 6 4 0 0 2-2 2-2h2l4-2c12-4 26-6 40-6 46 2 88 30 108 74 18 42 10 94-20 128l-2 2c18 30 16 68-6 96s-58 40-92 30c-4-2-6-2-10-4h-2c0-2 0-2-2-2 0 0-2 0-2 2-42 38-102 48-154 24-18-8-32-20-44-34zM804 884c10-6 16-12 24-18 0-2 2-4 4-4 2-2 4-4 4-6 8-6 16-6 22-2h2c4 4 8 6 12 8 22 10 48 2 60-18 14-18 14-46-2-62-8-8-8-18 0-26l4-4c2-2 4-4 6-6 20-22 26-52 18-80s-30-50-58-60c-18-4-38-4-58 4l-4 2c-2 2-6 2-10 4-4 0-8-2-12-4l-4-2c-2-2-6-4-8-6-32-16-70-6-88 24l-2 4c0 2-2 4-4 6-4 4-10 6-14 4-2 0-6-2-8-2-2-2-4-2-6-4-4-2-10-2-16-2-18-2-34 6-44 20-10 16-12 34-6 50 6 12 16 22 28 28h2c4 2 6 2 8 4 4 4 6 8 6 14 0 4-2 6-2 10-2 2-2 4-2 4-4 12-4 22-4 34 2 36 22 68 52 84 32 18 70 18 100 0zM526 564c-8-4-10-12-8-20 0-8 8-12 16-12 6-2 14 4 16 10 4 8 0 16-6 20s-12 6-18 2zM570 604c-6-4-8-12-6-20 2-6 8-12 16-12s14 4 16 12c4 6 2 14-4 20-6 4-16 4-22 0zM786 684c-8 0-14-4-16-12s0-16 6-20c8-4 16-4 22 0 6 6 8 14 6 22-4 6-10 10-18 10zM740-8c34 26 54 64 54 108v180c0 10-8 20-18 20 18 54-8 112-60 136-6 2-12 4-20 6-2 0-6 2-10 2 0 0-2 0-4 0 0 0 0 0 0 0v40c0 34-26 62-60 62s-60-28-60-62v-128c0-10 0-22 0-32 0-8 2-16 4-24-4 0-10-2-14-6-2-4-4-8-4-14v-72c-32 46-76 82-128 104l-10 4h-4c-2 0-2 0-4 2v24c0 2 2 2 4 4 22 12 40 30 56 50 14 22 24 46 28 72v196c0 24-8 46-18 68-22 42-62 72-108 84-72 18-148-12-186-74-14-20-22-44-24-68v-194c2-26 8-52 22-74s32-42 52-56c4-2 6-2 10-4 0 0 2-2 4-2 0-2 0 0 0-2v-24c0-2-6-2-6-2-24-8-46-20-66-34s-38-30-54-50c-32-38-52-86-58-134-2-16-4-32-2-50 0-16 0-58 0-64-2-8 6-18 16-18h66c4 0 10 4 12 10s2 12-2 18c-4 4-8 8-14 8s-12 0-18 0h-22c-2 0-2 0-2 2v52c0 22 4 44 8 64 6 24 18 48 30 68 14 20 32 40 50 54 20 16 40 28 64 36 6-38 40-64 78-64s72 26 80 64c54-20 98-58 124-110 6-12 12-24 16-38 2-8 4-14 6-22s10-16 20-14c10 0 18 10 18 20 0 2 0 134 0 146 0 2 0 2 0 2h170v-162c0-44-28-82-70-94-10-2-20-4-30-4h-372c-10 0-18-8-18-18s8-20 18-20h372c8 0 18 2 26 2 20 4 40 12 58 26zM626 506c10 0 20-10 18-22 0-8 0-38 0-40 2 0 2-2 0-2 0 0 0 0-2 0l-6-4c-14-4-26-10-36-20v66c0 6 2 14 8 18 4 4 10 6 18 4zM744 336c0-10-2-18-6-26 0-2-2-4-2-8-2-2-2-2-4-2h-122c-2 0-4 4-4 6-4 8-6 16-6 24-2 40 30 74 70 74 38 2 72-30 74-68zM296 364c-28 6-52 20-70 40-22 24-34 54-34 88v112c0 0 4 0 4 2 24 2 46 14 64 32 2 2 4 4 6 8 12-10 24-18 40-24 14-4 30-8 44-10 32-6 66-8 98-10 0 0 6 0 6 0s0 0 0 0v-110c0-22-4-42-16-62-28-52-86-78-142-66zM392 644c-20 2-40 6-60 10-8 2-16 6-24 10-8 2-14 8-20 14-2 4-4 6-8 10-4 2-8 4-14 4-8 0-16-4-22-12-2-4-6-8-8-12-4-4-8-8-12-12-10-6-22-10-32-14 0 12 0 24 2 34 2 14 8 28 14 42 20 32 52 56 92 64 38 6 76-4 106-28 24-20 40-46 46-74 2-14 2-26 2-38-20 0-42 0-62 2zM280 294v34c22-4 44-6 68-2 6 0 12 2 18 2v-22c0-6 0-14-2-22-4-20-24-34-46-32s-38 20-38 42zM226-10c-4 6-10 10-16 10h-2c-8 0-14-6-16-12-2-8 2-16 8-20s14-4 20 2c6 4 8 12 6 20z" />
<glyph unicode="&#x73;" glyph-name="AMA-Twitter2-Solid" d="M512 960c-282 0-512-230-512-512s230-512 512-512c282 0 512 230 512 512s-230 512-512 512zM770 548c8-130-60-252-172-318-114-64-254-62-364 8 66-6 130 12 182 52-52 0-98 36-114 86 18-6 36-6 56 0-58 10-100 62-100 120 18-8 38-14 56-14-54 36-70 108-38 164 62-78 154-124 254-128-14 54 12 110 60 136 50 26 110 16 148-26 28 8 54 18 78 34-10-30-28-54-54-68 24 2 48 8 70 18-16-24-38-46-62-64z" />
<glyph unicode="&#x74;" glyph-name="AMA-Twitter2-Line" d="M512 874c236 0 426-190 426-426s-190-426-426-426c-236 0-426 190-426 426s190 426 426 426zM512 960c-282 0-512-230-512-512s230-512 512-512c282 0 512 230 512 512s-230 512-512 512zM790 586c-20-10-40-14-60-18 22 14 38 34 46 60-22-14-44-22-68-26-32 34-84 44-126 22-42-24-64-72-52-118-84 4-164 44-216 110-28-48-14-110 32-140-16 0-32 4-48 12 0-50 36-94 86-104-16-4-32-4-48 0 14-42 54-72 98-72-44-34-100-50-154-44 94-60 214-62 310-6s154 160 148 272c20 14 38 32 52 52z" />
<glyph unicode="&#x75;" glyph-name="AMA-Linkedin2-Solid" d="M512 960c-282 0-512-230-512-512s230-512 512-512c282 0 512 230 512 512s-230 512-512 512zM426 278h-84v256h84zM384 572c-20 0-36 10-44 28s-4 38 10 52c14 14 34 18 52 10 18-6 28-24 28-44 2-12-4-24-12-32-10-10-22-14-34-14zM726 278h-86v122c0 80-86 72-86 0v-122h-84v256h84v-48c38 70 172 76 172-66z" />
<glyph unicode="&#x76;" glyph-name="AMA-Linkedin2-Line" d="M512 874c236 0 426-190 426-426s-190-426-426-426c-236 0-426 190-426 426s190 426 426 426zM512 960c-282 0-512-230-512-512s230-512 512-512c282 0 512 230 512 512s-230 512-512 512zM426 618c0-22-18-42-42-42s-42 20-42 42c0 24 18 44 42 44s42-20 42-44zM426 534h-84v-256h84zM554 534h-84v-256h84v122c0 72 86 80 86 0v-122h86v142c0 140-134 136-172 66z" />
<glyph unicode="&#x77;" glyph-name="AMA-Facebook2-Solid" d="M512 960c-282 0-512-230-512-512s230-512 512-512c282 0 512 230 512 512s-230 512-512 512zM640 618h-58c-22 0-28-8-28-32v-52h86l-8-86h-78v-298h-128v298h-84v86h84v98c0 76 40 114 128 114h86z" />
<glyph unicode="&#x78;" glyph-name="AMA-Facebook2-Line" d="M512 874c236 0 426-190 426-426s-190-426-426-426c-236 0-426 190-426 426s190 426 426 426zM512 960c-282 0-512-230-512-512s230-512 512-512c282 0 512 230 512 512s-230 512-512 512zM426 534h-84v-86h84v-256h128v256h78l8 86h-86v34c0 22 4 30 24 30h62v106h-102c-78 0-112-34-112-98z" />
<glyph unicode="&#x79;" glyph-name="AMA-Pesquisa3-Line" d="M966-22l12 14c16 16 24 38 24 60s-8 44-24 60l-210 210c10 18 20 36 28 54 2 8 4 16 8 24 8 18 14 38 18 56v6c0 8 2 16 4 26 2 16 4 34 4 50 0 168-104 322-262 382s-338 16-450-112c-112-126-132-310-54-460 80-150 244-234 412-212l14 4 28 4c12 4 24 8 36 12 6 2 14 4 20 6 20 8 40 18 58 30l214-214c32-32 86-32 120 0zM426 286c-140 0-252 112-252 252s112 254 252 254c140 0 254-114 254-254s-114-252-254-252z" />
<glyph unicode="&#x7a;" glyph-name="AMA-RSS-Line" d="M810 960h-596c-118 0-214-96-214-214v-596c0-118 96-214 214-214h596c118 0 214 96 214 214v596c0 118-96 214-214 214zM264 106c-38 0-72 24-86 58s-6 74 20 100c26 28 66 36 100 20 36-14 58-48 58-86 0-50-42-92-92-92zM484 106c-2 172-142 312-314 314v136c248 0 450-202 452-450zM716 106c0 302-244 546-546 546v138c378 0 684-306 684-684z" />
<glyph unicode="&#xe900;" glyph-name="AMA-Assistente-Solid" horiz-adv-x="983" d="M316.948 748.306c45.94 43.522 108.7 68.334 174.572 68.334s128.631-24.811 174.572-68.334c45.867-43.451 71.188-101.895 71.188-162.336v-194.024c0-60.441-25.321-118.882-71.188-162.333-20.193-19.132-43.639-34.656-69.198-46.047-21.492 35.729-60.641 59.634-105.374 59.634-67.867 0-122.88-55.013-122.88-122.88s55.013-122.88 122.88-122.88c61.506 0 112.46 45.191 121.467 104.182 40.464 15.401 77.791 38.531 109.445 68.518 34.607 32.788 60.842 72.278 77.206 115.405 80.376 10.486 142.442 79.221 142.442 162.456 0 76.607-52.576 140.932-123.613 158.865-5.325 75.935-39.518 147.369-96.035 200.912-61.6 58.359-144.699 90.783-230.912 90.783s-169.311-32.425-230.912-90.783c-56.518-53.543-90.712-124.977-96.037-200.912-71.036-17.932-123.612-82.257-123.612-158.865 0-90.485 73.354-163.84 163.84-163.84 22.621 0 40.96 18.338 40.96 40.96v260.85c0 60.441 25.324 118.885 71.188 162.336z" />
<glyph unicode="&#xe901;" glyph-name="AMA-Calculadora-Solid" horiz-adv-x="983" d="M122.88 939.52c-22.621 0-40.96-18.338-40.96-40.96v-901.12c0-22.622 18.339-40.96 40.96-40.96h737.28c22.622 0 40.96 18.338 40.96 40.96v901.12c0 22.622-18.338 40.96-40.96 40.96h-737.28zM245.76 734.72c0 22.621 18.339 40.96 40.96 40.96h409.6c22.622 0 40.96-18.339 40.96-40.96v-122.88c0-22.621-18.338-40.96-40.96-40.96h-409.6c-22.621 0-40.96 18.339-40.96 40.96v122.88zM286.72 448c22.621 0 40.96-18.338 40.96-40.96v-40.96c0-22.622-18.339-40.96-40.96-40.96s-40.96 18.338-40.96 40.96v40.96c0 22.622 18.339 40.96 40.96 40.96zM286.72 243.2c22.621 0 40.96-18.338 40.96-40.96v-40.96c0-22.622-18.339-40.96-40.96-40.96s-40.96 18.338-40.96 40.96v40.96c0 22.622 18.339 40.96 40.96 40.96zM532.48 407.040c0 22.622-18.338 40.96-40.96 40.96s-40.96-18.338-40.96-40.96v-40.96c0-22.622 18.338-40.96 40.96-40.96s40.96 18.338 40.96 40.96v40.96zM491.52 243.2c22.622 0 40.96-18.338 40.96-40.96v-40.96c0-22.622-18.338-40.96-40.96-40.96s-40.96 18.338-40.96 40.96v40.96c0 22.622 18.338 40.96 40.96 40.96zM737.28 407.040c0 22.622-18.338 40.96-40.96 40.96s-40.96-18.338-40.96-40.96v-40.96c0-22.622 18.338-40.96 40.96-40.96s40.96 18.338 40.96 40.96v40.96zM696.32 243.2c22.622 0 40.96-18.338 40.96-40.96v-40.96c0-22.622-18.338-40.96-40.96-40.96s-40.96 18.338-40.96 40.96v40.96c0 22.622 18.338 40.96 40.96 40.96z" />
<glyph unicode="&#xe902;" glyph-name="AMA-CartaAberta-Solid" horiz-adv-x="983" d="M940.851 621.67c-1.229 4.915-3.277 9.421-6.144 13.517 0 0.41 0 0.819-0.819 1.638 0 0-0.41 0-0.819 0.819-2.458 3.277-5.325 6.144-8.602 8.192l-409.6 286.31c-13.926 9.83-32.768 9.83-47.104 0l-409.19-286.72c-3.277-2.458-6.144-5.325-8.602-8.192 0 0-0.41 0-0.819-0.819 0-0.41 0-0.819-0.819-1.638-2.867-4.096-4.915-8.192-6.144-13.107-0.819-3.277-1.229-6.554-1.229-10.24v-491.52c0-67.584 55.296-122.88 122.88-122.88h655.36c67.584 0 122.88 55.296 122.88 122.88v491.93c0 3.277 0 6.554-1.229 9.83zM491.11 848.589l339.968-237.978-299.008-224.051-16.794 12.288c-7.373 5.325-15.565 7.782-24.166 7.782s-17.203-2.458-24.166-7.782l-16.794-12.288-298.598 224.051 339.558 237.978z" />
<glyph unicode="&#xe903;" glyph-name="AMA-Cartao-Solid" horiz-adv-x="983" d="M0 693.76c0 67.865 55.015 122.88 122.88 122.88h737.28c67.867 0 122.88-55.015 122.88-122.88v-491.52c0-67.867-55.013-122.88-122.88-122.88h-737.28c-67.865 0-122.88 55.013-122.88 122.88v491.52zM901.12 488.96h-819.2v-286.72c0-22.622 18.339-40.96 40.96-40.96h737.28c22.622 0 40.96 18.338 40.96 40.96v286.72z" />
<glyph unicode="&#xe904;" glyph-name="AMA-Carta-Solid" horiz-adv-x="983" d="M163.84 816.64c-67.677 0-122.88-55.203-122.88-122.88v-491.52c0-67.678 55.203-122.88 122.88-122.88h655.36c67.678 0 122.88 55.202 122.88 122.88v491.52c0 67.677-55.202 122.88-122.88 122.88h-655.36zM88.798 675.521c12.549 18.822 37.979 23.908 56.801 11.36l345.92-230.612 345.919 230.612c18.821 12.548 44.253 7.462 56.799-11.36 12.55-18.822 7.463-44.253-11.358-56.801l-391.361-260.906-391.361 260.906c-18.822 12.548-23.908 37.979-11.36 56.801z" />
<glyph unicode="&#xe905;" glyph-name="AMA-Carteira-Solid" horiz-adv-x="983" d="M901.12 529.744h-40.96v163.839c0 22.528-18.432 40.96-40.96 40.96h-43.008l-131.072 149.914c-11.469 12.698-29.491 17.613-45.466 11.469l-422.707-161.382h-95.027c-22.528 0-40.96-18.432-40.96-40.96v-655.359c0-22.528 18.432-40.96 40.96-40.96h737.28c22.528 0 40.96 18.432 40.96 40.96v163.84h40.96c22.528 0 40.96 18.432 40.96 40.96v245.76c0 22.528-18.432 40.96-40.96 40.96zM602.522 809.090l65.126-74.547h-260.506l195.379 74.547zM860.16 283.984h-245.76c-45.056 0-81.92 36.864-81.92 81.92s36.864 81.92 81.92 81.92h245.76v-163.84z" />
<glyph unicode="&#xe906;" glyph-name="AMA-Casa-Solid" horiz-adv-x="983" d="M885.146 603.238l-368.64 286.72c-14.746 11.469-35.635 11.469-50.381 0l-368.23-286.72c-9.83-7.782-15.974-19.661-15.974-32.358v-450.56c0-32.768 13.107-63.898 36.045-86.835s54.477-36.045 86.835-36.045h573.44c32.768 0 63.898 13.107 86.835 36.045s36.045 54.477 36.045 86.835v450.56c0 12.698-5.734 24.576-15.974 32.358zM573.44 79.36h-163.84v327.68h163.84v-327.68z" />
<glyph unicode="&#xe907;" glyph-name="AMA-Conversa-Solid" horiz-adv-x="983" d="M122.968 38.4c-10.65 0-21.299 4.096-29.082 11.878-11.059 11.059-14.746 27.443-9.83 41.779l74.957 224.461c-21.299 48.333-31.949 100.352-31.949 153.6 0 213.811 173.67 387.482 387.074 387.482 213.402 0 387.072-173.67 387.072-387.072s-173.67-387.072-387.072-387.072c-53.658 0-105.679 10.65-154.012 31.949l-224.051-74.957c-4.096-1.638-8.602-2.048-13.107-2.048z" />
<glyph unicode="&#xe908;" glyph-name="AMA-Favorito-Solid" horiz-adv-x="983" d="M528.249 875.73c-6.902 13.98-21.139 22.83-36.729 22.83s-29.827-8.85-36.729-22.83l-117.044-237.121-261.75-38.258c-15.424-2.254-28.231-13.068-33.039-27.896s-0.782-31.098 10.384-41.977l189.367-184.443-44.691-260.571c-2.636-15.364 3.682-30.896 16.297-40.063 12.615-9.163 29.338-10.371 43.139-3.113l234.067 123.097 234.066-123.097c13.804-7.258 30.527-6.050 43.139 3.113 12.616 9.167 18.936 24.699 16.298 40.063l-44.691 260.571 189.366 184.443c11.166 10.879 15.192 27.149 10.383 41.977-4.805 14.828-17.613 25.642-33.038 27.896l-261.747 38.258-117.047 237.121z" />
<glyph unicode="&#xe909;" glyph-name="AMA-MarcadorEsq-Solid" horiz-adv-x="983" d="M872.448 534.835l-351.846 351.846c-7.782 7.782-18.022 11.878-29.082 11.878h-409.6c-22.528 0-40.96-18.432-40.96-40.96v-409.6c0-11.059 4.506-21.299 11.878-29.082l351.846-351.437c23.347-23.347 54.067-36.045 86.835-36.045s63.488 12.698 86.835 36.045l293.683 293.683c47.514 47.923 47.514 125.338 0 173.261l0.41 0.41zM287.13 611.84c-22.528 0-40.96 18.432-40.96 40.96s18.022 40.96 40.96 40.96c22.528 0 40.96-18.432 40.96-40.96s-18.432-40.96-40.96-40.96z" />
<glyph unicode="&#xe90a;" glyph-name="AMA-Calculadora-Line" d="M298.667 789.333c-23.564 0-42.667-19.103-42.667-42.667v-128c0-23.564 19.103-42.667 42.667-42.667h426.667c23.565 0 42.667 19.103 42.667 42.667v128c0 23.564-19.102 42.667-42.667 42.667h-426.667zM341.333 661.333v42.667h341.333v-42.667h-341.333zM298.667 448c23.564 0 42.667-19.102 42.667-42.667v-42.667c0-23.565-19.103-42.667-42.667-42.667s-42.667 19.102-42.667 42.667v42.667c0 23.565 19.103 42.667 42.667 42.667zM341.333 192c0 23.565-19.103 42.667-42.667 42.667s-42.667-19.102-42.667-42.667v-42.667c0-23.565 19.103-42.667 42.667-42.667s42.667 19.102 42.667 42.667v42.667zM512 448c23.565 0 42.667-19.102 42.667-42.667v-42.667c0-23.565-19.102-42.667-42.667-42.667s-42.667 19.102-42.667 42.667v42.667c0 23.565 19.102 42.667 42.667 42.667zM554.667 192c0 23.565-19.102 42.667-42.667 42.667s-42.667-19.102-42.667-42.667v-42.667c0-23.565 19.102-42.667 42.667-42.667s42.667 19.102 42.667 42.667v42.667zM725.333 448c23.565 0 42.667-19.102 42.667-42.667v-42.667c0-23.565-19.102-42.667-42.667-42.667s-42.667 19.102-42.667 42.667v42.667c0 23.565 19.102 42.667 42.667 42.667zM768 192c0 23.565-19.102 42.667-42.667 42.667s-42.667-19.102-42.667-42.667v-42.667c0-23.565 19.102-42.667 42.667-42.667s42.667 19.102 42.667 42.667v42.667zM128 960c-23.564 0-42.667-19.103-42.667-42.667v-938.667c0-23.565 19.103-42.667 42.667-42.667h768c23.565 0 42.667 19.102 42.667 42.667v938.667c0 23.564-19.102 42.667-42.667 42.667h-768zM170.667 21.333v853.333h682.667v-853.333h-682.667z" />
<glyph unicode="&#xe90b;" glyph-name="AMA-Cartao-Line" d="M0 704v-512c0-70.694 57.308-128 128-128h768c70.694 0 128 57.306 128 128v512c0 70.692-57.306 128-128 128h-768c-70.692 0-128-57.308-128-128zM85.333 704c0 23.564 19.103 42.667 42.667 42.667h768c23.565 0 42.667-19.103 42.667-42.667v-128h-853.333v128zM938.667 490.667v-298.667c0-23.565-19.102-42.667-42.667-42.667h-768c-23.564 0-42.667 19.102-42.667 42.667v298.667h853.333z" />
<glyph unicode="&#xe90c;" glyph-name="AMA-Ticket-Line" d="M682.667 533.333c0 23.564-19.102 42.667-42.667 42.667s-42.667-19.103-42.667-42.667v-170.667c0-23.565 19.102-42.667 42.667-42.667s42.667 19.102 42.667 42.667v170.667zM128 832h768c70.694 0 128-57.308 128-128v-85.333c0-23.564-19.102-42.667-42.667-42.667-70.694 0-128-57.306-128-128s57.306-128 128-128c23.565 0 42.667-19.102 42.667-42.667v-85.333c0-70.694-57.306-128-128-128h-768c-70.692 0-128 57.306-128 128v85.333c0 23.565 19.103 42.667 42.667 42.667 70.692 0 128 57.306 128 128s-57.308 128-128 128c-23.564 0-42.667 19.103-42.667 42.667v85.333c0 70.692 57.308 128 128 128zM128 746.667c-23.564 0-42.667-19.103-42.667-42.667v-46.934c97.376-19.766 170.667-105.857 170.667-209.066 0-103.211-73.291-189.299-170.667-209.067v-46.933c0-23.565 19.103-42.667 42.667-42.667h469.333v42.667c0 23.565 19.102 42.667 42.667 42.667s42.667-19.102 42.667-42.667v-42.667h213.333c23.565 0 42.667 19.102 42.667 42.667v46.933c-97.374 19.767-170.667 105.856-170.667 209.067 0 103.209 73.293 189.3 170.667 209.066v46.934c0 23.564-19.102 42.667-42.667 42.667h-213.333v-42.667c0-23.564-19.102-42.667-42.667-42.667s-42.667 19.103-42.667 42.667v42.667h-469.333z" />
<glyph unicode="&#xe90d;" glyph-name="AMA-Carteira-Line" d="M938.667 533.15h-42.667v170.665c0 23.467-19.2 42.667-42.667 42.667h-44.8l-136.533 156.16c-11.947 13.227-30.72 18.347-47.36 11.947l-440.32-168.107h-98.987c-23.467 0-42.667-19.2-42.667-42.667v-682.665c0-23.467 19.2-42.667 42.667-42.667h768c23.467 0 42.667 19.2 42.667 42.667v170.667h42.667c23.467 0 42.667 19.2 42.667 42.667v256c0 23.467-19.2 42.667-42.667 42.667zM627.627 824.135l67.84-77.653h-271.36l203.52 77.653zM810.667 63.817h-682.667v597.332h682.667v-127.999h-170.667c-94.293 0-170.667-76.373-170.667-170.667s76.373-170.667 170.667-170.667h170.667v-128zM896 277.15h-256c-46.933 0-85.333 38.4-85.333 85.333s38.4 85.333 85.333 85.333h256v-170.667z" />
<glyph unicode="&#xe90e;" glyph-name="AMA-MarcadorEsq-Line" d="M908.8 538.453l-366.507 366.507c-8.107 8.107-18.773 12.373-30.293 12.373h-426.667c-23.467 0-42.667-19.2-42.667-42.667v-426.667c0-11.52 4.693-22.187 12.373-30.293l366.507-366.080c24.32-24.32 56.32-37.547 90.453-37.547s66.133 13.227 90.453 37.547l305.92 305.92c49.493 49.92 49.493 130.56 0 180.48l0.427 0.427zM848.213 418.133l-305.92-305.92c-8.107-8.107-18.773-12.373-30.293-12.373s-22.187 4.267-30.293 12.373l-353.707 353.707v366.080h366.507l353.707-353.707c16.64-16.64 16.64-43.52 0-60.16zM299.084 704c-23.467 0-42.667-19.2-42.667-42.667s19.2-42.667 42.667-42.667c23.467 0 42.667 19.2 42.667 42.667s-19.2 42.667-42.667 42.667z" />
<glyph unicode="&#xe90f;" glyph-name="AMA-Sino-Line" d="M512.004 917.333c-79.211 0-155.18-31.467-211.19-87.477s-87.477-131.978-87.477-211.189c0-143.049-30.595-231.876-58.79-283.567-14.156-25.954-27.942-42.982-37.517-53.090-4.799-5.065-8.57-8.422-10.84-10.317-1.136-0.947-1.898-1.527-2.226-1.771l-0.122-0.090c-15.296-10.509-22.064-29.726-16.674-47.531 5.449-17.993 22.034-30.302 40.836-30.302h768.001c18.803 0 35.388 12.309 40.836 30.302 5.389 17.805-1.378 37.022-16.674 47.531l-0.124 0.090c-0.329 0.243-1.088 0.823-2.223 1.771-2.274 1.894-6.042 5.252-10.842 10.317-9.574 10.108-23.36 27.136-37.517 53.090-28.194 51.691-58.79 140.518-58.79 283.567 0 79.211-31.467 155.178-87.479 211.189-56.009 56.011-131.977 87.477-211.187 87.477zM804.301 277.333h-584.593c3.247 5.321 6.505 10.948 9.752 16.9 35.805 65.643 69.21 168.815 69.21 324.433 0 56.579 22.476 110.842 62.484 150.849s94.27 62.484 150.851 62.484c56.58 0 110.839-22.476 150.848-62.484s62.485-94.27 62.485-150.849c0-155.618 33.404-258.79 69.21-324.433 3.247-5.952 6.507-11.58 9.754-16.9zM475.102 85.41c-11.823 20.382-37.931 27.319-58.316 15.497-20.383-11.823-27.322-37.931-15.498-58.317 11.252-19.396 27.401-35.494 46.836-46.686 19.43-11.196 41.459-17.084 63.885-17.084s44.454 5.888 63.885 17.084c19.435 11.191 35.584 27.29 46.835 46.686 11.823 20.386 4.885 46.494-15.497 58.317-20.386 11.823-46.494 4.885-58.317-15.497-3.75-6.464-9.135-11.831-15.612-15.565-6.477-3.729-13.82-5.692-21.295-5.692s-14.818 1.963-21.295 5.692c-6.477 3.733-11.861 9.101-15.612 15.565z" />
<glyph unicode="&#xe910;" glyph-name="AMA-Assistente-Line" d="M512 832c-68.617 0-133.991-25.845-181.845-71.181-47.776-45.261-74.155-106.141-74.155-169.1v-271.719c0-23.565-19.103-42.667-42.667-42.667-94.257 0-170.667 76.412-170.667 170.667 0 79.799 54.766 146.804 128.762 165.484 5.546 79.099 41.166 153.51 100.038 209.283 64.167 60.79 150.728 94.566 240.533 94.566s176.367-33.776 240.533-94.566c58.871-55.774 94.49-130.185 100.036-209.283 73.997-18.679 128.764-85.684 128.764-165.484 0-86.703-64.653-158.302-148.378-169.225-17.045-44.924-44.373-86.059-80.422-120.213-32.973-31.236-71.855-55.33-114.005-71.373-9.382-61.449-62.46-108.523-126.528-108.523-70.694 0-128 57.306-128 128s57.306 128 128 128c46.596 0 87.377-24.9 109.764-62.118 26.624 11.866 51.046 28.036 72.081 47.966 47.778 45.261 74.155 106.138 74.155 169.097v202.109c0 62.959-26.377 123.839-74.155 169.1-47.855 45.336-113.229 71.181-181.845 71.181zM128 448c0 31.586 17.161 59.162 42.667 73.916v-147.831c-25.506 14.754-42.667 42.33-42.667 73.916zM853.333 374.084c25.506 14.754 42.667 42.33 42.667 73.916s-17.161 59.162-42.667 73.916v-147.831zM469.333 106.667c0 23.565 19.102 42.667 42.667 42.667s42.667-19.102 42.667-42.667c0-23.565-19.102-42.667-42.667-42.667s-42.667 19.102-42.667 42.667z" />
<glyph unicode="&#xe911;" glyph-name="AMA-Conversa-Line" d="M128.092 21.333c-11.093 0-22.187 4.267-30.293 12.373-11.52 11.52-15.36 28.587-10.24 43.52l78.080 233.813c-22.187 50.347-33.28 104.533-33.28 160 0 222.72 180.907 403.627 403.202 403.627 222.293 0 403.2-180.907 403.2-403.2s-180.907-403.2-403.2-403.2c-55.893 0-110.082 11.093-160.429 33.28l-233.387-78.080c-4.267-1.707-8.96-2.133-13.653-2.133zM535.561 789.333c-175.362 0-317.869-142.507-317.869-317.867 0-48.64 10.667-95.573 32-139.093 4.693-10.24 5.547-21.76 2.133-32l-56.32-168.533 168.533 56.32c10.667 3.413 22.187 2.56 32.427-2.133 43.522-21.333 90.455-32 139.522-32 175.36 0 317.867 142.507 317.867 317.867s-142.507 317.867-317.867 317.867l-0.427-0.427z" />
<glyph unicode="&#xe912;" glyph-name="AMA-Carta-Line" d="M170.667 832h682.667c70.498 0 128-57.503 128-128v-512c0-70.498-57.502-128-128-128h-682.667c-70.497 0-128 57.502-128 128v512c0 70.497 57.503 128 128 128zM132.547 723.031l379.453-265.618 379.452 265.619c-7.053 13.953-21.564 23.636-38.118 23.636h-682.667c-16.553 0-31.064-9.682-38.12-23.636zM128 622.051v-430.051c0-23.369 19.297-42.667 42.667-42.667h682.667c23.369 0 42.667 19.298 42.667 42.667v430.051l-359.531-251.674c-14.694-10.283-34.244-10.283-48.939 0l-359.531 251.674z" />
<glyph unicode="&#xe913;" glyph-name="AMA-CartaAberta-Line" d="M980.053 628.907c-1.28 5.12-3.413 9.813-6.4 14.080 0 0.427 0 0.853-0.853 1.707 0 0-0.427 0-0.853 0.853-2.56 3.413-5.547 6.4-8.96 8.533l-426.667 298.24c-14.507 10.24-34.133 10.24-49.067 0l-426.24-298.667c-3.413-2.56-6.4-5.547-8.96-8.533 0 0-0.427 0-0.853-0.853 0-0.427 0-0.853-0.853-1.707-2.987-4.267-5.12-8.533-6.4-13.653-0.853-3.413-1.28-6.827-1.28-10.667v-512c0-70.4 57.6-128 128-128h682.667c70.4 0 128 57.6 128 128v512.427c0 3.413 0 6.827-1.28 10.24zM896 132.693l-269.653 198.827 269.653 202.24v-401.067zM128 533.333l269.227-202.24-269.227-198.4v400.64zM511.573 309.76l17.92-13.227 315.733-232.533h-666.88l333.227 245.76zM511.573 865.28l354.133-247.893-311.467-233.387-17.493 12.8c-7.68 5.547-16.213 8.107-25.173 8.107s-17.92-2.56-25.173-8.107l-17.493-12.8-311.040 233.387 353.707 247.893z" />
<glyph unicode="&#xe914;" glyph-name="AMA-Email-Line" d="M628.361 946.602c112.533-26.262 212.873-89.82 284.702-180.338 71.834-90.519 110.929-202.678 110.938-318.234v-46.545c0-49.378-19.614-96.734-54.532-131.652-34.914-34.914-82.27-54.532-131.648-54.532s-96.734 19.618-131.652 54.532c-7.39 7.39-14.097 15.339-20.075 23.748-42.633-48.021-104.828-78.281-174.093-78.281-128.531 0-232.727 104.196-232.727 232.73 0 128.53 104.196 232.726 232.727 232.726 52.39 0 100.74-17.312 139.635-46.528 0.009 25.699 20.847 46.529 46.545 46.529 25.707 0 46.545-20.839 46.545-46.545v-232.726c0-24.691 9.809-48.367 27.268-65.826s41.135-27.264 65.826-27.264c24.687 0 48.367 9.805 65.822 27.264 17.459 17.459 27.268 41.135 27.268 65.826v46.545c-0.009 94.545-31.996 186.308-90.769 260.368-58.769 74.061-140.864 126.063-232.939 147.549-92.070 21.487-188.705 11.196-274.187-29.201s-154.785-108.522-196.64-193.3c-41.855-84.777-53.8-181.219-33.894-273.647s70.494-175.403 143.537-235.435c73.043-60.028 164.246-93.585 258.778-95.211s186.833 28.774 261.901 86.259c20.407 15.629 49.621 11.755 65.25-8.657 15.633-20.407 11.755-49.621-8.653-65.25-91.746-70.259-204.561-107.418-320.098-105.429-115.54 1.984-227.010 42.999-316.285 116.369-89.275 73.374-151.104 174.788-175.435 287.753-24.33 112.969-9.731 230.842 41.425 334.459s135.859 186.882 240.337 236.255c104.478 49.374 222.587 61.952 335.12 35.69zM651.635 448.030c0 77.116-62.515 139.635-139.635 139.635s-139.636-62.519-139.636-139.635c0-77.12 62.516-139.639 139.636-139.639s139.635 62.519 139.635 139.639z" />
<glyph unicode="&#xe915;" glyph-name="AMA-Casa-Line" d="M538.193 908.346c-15.407 11.984-36.979 11.984-52.386 0l-384.002-298.667c-10.393-8.083-16.472-20.512-16.472-33.679v-469.333c0-33.95 13.486-66.505 37.49-90.509s56.562-37.491 90.51-37.491h597.333c33.95 0 66.505 13.487 90.509 37.491s37.491 56.559 37.491 90.509v469.333c0 13.167-6.080 25.596-16.474 33.679l-384 298.667zM682.667 64h128c11.315 0 22.17 4.497 30.17 12.497s12.497 18.854 12.497 30.17v448.466l-341.333 265.481-341.333-265.481v-448.466c0-11.315 4.495-22.17 12.497-30.17s18.854-12.497 30.17-12.497h128v384c0 23.565 19.103 42.667 42.667 42.667h256c23.565 0 42.667-19.102 42.667-42.667v-384zM426.667 64v341.333h170.667v-341.333h-170.667z" />
<glyph unicode="&#xe916;" glyph-name="AMA-Favorito-Line" d="M512 917.333c16.239 0 31.070-9.219 38.259-23.782l121.924-247.001 272.653-39.852c16.068-2.348 29.41-13.613 34.415-29.059 5.009-15.446 0.815-32.395-10.816-43.724l-197.257-192.13 46.554-271.428c2.748-16.004-3.836-32.183-16.977-41.732-13.137-9.545-30.558-10.803-44.937-3.243l-243.819 128.226-243.82-128.226c-14.375-7.561-31.796-6.302-44.936 3.243-13.14 9.549-19.721 25.728-16.976 41.732l46.553 271.428-197.257 192.13c-11.632 11.329-15.825 28.279-10.817 43.724s18.349 26.71 34.416 29.059l272.656 39.852 121.921 247.001c7.189 14.563 22.020 23.782 38.259 23.782zM512 778.272l-93.579-189.584c-6.21-12.58-18.207-21.304-32.089-23.333l-209.332-30.597 151.438-147.499c10.064-9.805 14.658-23.932 12.283-37.777l-35.73-208.329 187.148 98.423c12.433 6.537 27.29 6.537 39.723 0l187.149-98.423-35.729 208.329c-2.377 13.845 2.219 27.972 12.284 37.777l151.437 147.499-209.331 30.597c-13.884 2.029-25.882 10.753-32.090 23.333l-93.581 189.584z" />
<glyph unicode="&#xe917;" glyph-name="AMA-Entrar-Line" d="M597.333 832c0 23.564 19.102 42.667 42.667 42.667h170.667c33.95 0 66.505-13.486 90.509-37.49s37.491-56.562 37.491-90.51v-597.333c0-33.95-13.487-66.505-37.491-90.509s-56.559-37.491-90.509-37.491h-170.667c-23.565 0-42.667 19.102-42.667 42.667s19.102 42.667 42.667 42.667h170.667c11.315 0 22.17 4.497 30.17 12.497s12.497 18.854 12.497 30.17v597.333c0 11.316-4.497 22.168-12.497 30.17s-18.854 12.497-30.17 12.497h-170.667c-23.565 0-42.667 19.103-42.667 42.667zM396.497 691.503c16.663 16.662 43.678 16.662 60.34 0l213.333-213.334c16.661-16.661 16.661-43.678 0-60.339l-213.333-213.333c-16.661-16.661-43.677-16.661-60.34 0s-16.662 43.678 0 60.339l183.164 183.164-183.164 183.163c-16.662 16.663-16.662 43.677 0 60.34zM85.333 448c0 23.565 19.103 42.667 42.667 42.667h512c23.565 0 42.667-19.102 42.667-42.667s-19.102-42.667-42.667-42.667h-512c-23.564 0-42.667 19.102-42.667 42.667z" />
<glyph unicode="&#xe918;" glyph-name="AMA-Sair-Line" d="M213.333 789.333c-11.316 0-22.168-4.495-30.17-12.497s-12.497-18.854-12.497-30.17v-597.333c0-11.315 4.495-22.17 12.497-30.17s18.854-12.497 30.17-12.497h170.667c23.564 0 42.667-19.102 42.667-42.667s-19.103-42.667-42.667-42.667h-170.667c-33.948 0-66.505 13.487-90.51 37.491s-37.49 56.559-37.49 90.509v597.333c0 33.948 13.486 66.505 37.49 90.51s56.562 37.49 90.51 37.49h170.667c23.564 0 42.667-19.103 42.667-42.667s-19.103-42.667-42.667-42.667h-170.667zM652.497 691.503c16.661 16.662 43.678 16.662 60.339 0l213.333-213.334c16.661-16.661 16.661-43.678 0-60.339l-213.333-213.333c-16.661-16.661-43.678-16.661-60.339 0s-16.661 43.678 0 60.339l183.164 183.164-183.164 183.163c-16.661 16.663-16.661 43.677 0 60.34zM341.333 448c0 23.565 19.103 42.667 42.667 42.667h512c23.565 0 42.667-19.102 42.667-42.667s-19.102-42.667-42.667-42.667h-512c-23.564 0-42.667 19.102-42.667 42.667z" />
<glyph unicode="&#xe919;" glyph-name="AMA-Pesquisar-Line" d="M709.022 190.639l156.809-156.809c16.661-16.666 43.678-16.666 60.339 0 16.661 16.661 16.661 43.678 0 60.339l-156.809 156.809c52.548 65.694 83.972 149.022 83.972 239.689 0 212.077-171.921 384-384 384-212.077 0-384-171.923-384-384 0-212.079 171.923-384 384-384 90.667 0 173.995 31.424 239.689 83.972zM170.667 490.667c0 164.949 133.718 298.667 298.667 298.667s298.667-133.718 298.667-298.667c0-80.469-31.825-153.506-83.571-207.211-1.459-1.122-2.863-2.351-4.198-3.686s-2.569-2.739-3.691-4.198c-53.705-51.75-126.737-83.571-207.206-83.571-164.949 0-298.667 133.717-298.667 298.667z" />
<glyph unicode="&#xe91a;" glyph-name="AMA-Menu-Line" d="M85.333 448c0 23.565 19.103 42.667 42.667 42.667h768c23.565 0 42.667-19.102 42.667-42.667s-19.102-42.667-42.667-42.667h-768c-23.564 0-42.667 19.102-42.667 42.667zM85.333 704c0 23.564 19.103 42.667 42.667 42.667h768c23.565 0 42.667-19.103 42.667-42.667s-19.102-42.667-42.667-42.667h-768c-23.564 0-42.667 19.103-42.667 42.667zM85.333 192c0 23.565 19.103 42.667 42.667 42.667h768c23.565 0 42.667-19.102 42.667-42.667s-19.102-42.667-42.667-42.667h-768c-23.564 0-42.667 19.102-42.667 42.667z" />
<glyph unicode="&#xe91b;" glyph-name="AMA-Grafico-Line" d="M384 874.667c18.365 0 34.67-11.752 40.477-29.174l215.523-646.568 87.522 262.566c5.807 17.425 22.114 29.175 40.478 29.175h170.667c23.565 0 42.667-19.102 42.667-42.667s-19.102-42.667-42.667-42.667h-139.913l-118.276-354.825c-5.807-17.425-22.114-29.175-40.478-29.175s-34.671 11.75-40.478 29.175l-215.522 646.567-87.523-262.567c-5.807-17.425-22.112-29.175-40.477-29.175h-170.667c-23.564 0-42.667 19.102-42.667 42.667s19.103 42.667 42.667 42.667h139.914l118.275 354.826c5.807 17.423 22.112 29.174 40.477 29.174z" />
<glyph unicode="&#xe91c;" glyph-name="AMA-Externo-Line" d="M213.333 661.333c-11.316 0-22.168-4.495-30.17-12.497s-12.497-18.854-12.497-30.17v-469.333c0-11.315 4.495-22.17 12.497-30.17s18.854-12.497 30.17-12.497h469.333c11.315 0 22.17 4.497 30.17 12.497s12.497 18.854 12.497 30.17v256c0 23.565 19.102 42.667 42.667 42.667s42.667-19.102 42.667-42.667v-256c0-33.95-13.487-66.505-37.491-90.509s-56.559-37.491-90.509-37.491h-469.333c-33.948 0-66.505 13.487-90.51 37.491s-37.49 56.559-37.49 90.509v469.333c0 33.948 13.486 66.505 37.49 90.51s56.562 37.49 90.51 37.49h256c23.565 0 42.667-19.103 42.667-42.667s-19.102-42.667-42.667-42.667h-256zM597.333 832c0 23.564 19.102 42.667 42.667 42.667h256c23.565 0 42.667-19.103 42.667-42.667v-256c0-23.564-19.102-42.667-42.667-42.667s-42.667 19.103-42.667 42.667v213.333h-213.333c-23.565 0-42.667 19.103-42.667 42.667zM926.17 862.17c16.661-16.663 16.661-43.677 0-60.34l-469.333-469.333c-16.661-16.661-43.677-16.661-60.34 0s-16.662 43.678 0 60.339l469.334 469.334c16.661 16.662 43.678 16.662 60.339 0z" />
<glyph unicode="&#xe91d;" glyph-name="AMA-Copiar-Line" d="M348.276 782.403c4.445 4.445 10.475 6.942 16.761 6.942h365.036c23.565 0 42.667 19.1 42.667 42.661s-19.102 42.661-42.667 42.661h-365.036c-28.918 0-56.652-11.486-77.101-31.932s-31.936-48.176-31.936-77.090v-61.739h-61.63c-28.918 0-56.652-11.486-77.101-31.932s-31.936-48.176-31.936-77.090v-464.529c0-28.915 11.488-56.644 31.936-77.090s48.183-31.932 77.101-31.932h464.591c28.919 0 56.653 11.486 77.103 31.932 20.446 20.446 31.936 48.175 31.936 77.090v61.739h61.628c28.919 0 56.653 11.486 77.103 31.932s31.936 48.175 31.936 77.090v232.265c0 23.561-19.102 42.661-42.667 42.661s-42.667-19.1-42.667-42.661v-232.265c0-6.285-2.496-12.314-6.942-16.759s-10.475-6.942-16.764-6.942h-464.591c-6.287 0-12.316 2.496-16.761 6.942s-6.942 10.475-6.942 16.759v464.529c0 6.286 2.497 12.314 6.942 16.759zM194.37 618.585h61.63v-317.469c0-28.915 11.488-56.644 31.936-77.090s48.183-31.932 77.101-31.932h317.629v-61.739c0-6.285-2.496-12.314-6.942-16.759s-10.475-6.942-16.764-6.942h-464.591c-6.287 0-12.316 2.5-16.761 6.942-4.445 4.446-6.943 10.475-6.943 16.759v464.529c0 6.286 2.497 12.314 6.943 16.759s10.474 6.942 16.761 6.942zM926.357 777.269c16.393-16.105 16.414-42.238 0.051-58.37l-302.298-301.452c-7.863-7.753-18.534-12.109-29.662-12.113-11.132-0.004-21.807 4.343-29.675 12.087l-125.824 123.825c-16.378 16.118-16.378 42.252 0 58.37 16.38 16.119 42.935 16.119 59.315 0l96.141-94.613 272.64 272.218c16.363 16.132 42.918 16.154 59.311 0.049z" />
<glyph unicode="&#xe91e;" glyph-name="AMA-Atualizar-Line" d="M606.396 864.043c-70.298 15.906-143.475 13.744-212.713-6.282-69.015-19.963-131.869-57.029-182.735-107.757l-125.615-118.035v157.364c0 23.564-19.103 42.667-42.667 42.667s-42.667-19.103-42.667-42.667v-256.107c0.012-4.915 0.855-9.634 2.396-14.029 1.91-5.453 4.965-10.603 9.177-15.087 7.136-7.59 16.396-11.994 25.992-13.141 1.874-0.226 3.761-0.329 5.647-0.303h255.454c23.564 0 42.667 19.102 42.667 42.667s-19.103 42.667-42.667 42.667h-148.282l119.473 112.263c0.325 0.305 0.645 0.616 0.96 0.931 40.761 40.781 91.188 70.572 146.576 86.594 55.387 16.021 113.934 17.75 170.169 5.026 56.239-12.724 108.335-39.488 151.433-77.792s75.789-86.902 95.023-141.258c7.859-22.214 32.243-33.849 54.455-25.989s33.852 32.241 25.988 54.456c-24.043 67.945-64.905 128.692-118.775 176.573s-118.993 81.335-189.291 97.24zM1009.562 394.662c-7.522 6.639-17.404 10.671-28.228 10.671h-256c-23.565 0-42.667-19.102-42.667-42.667s19.102-42.667 42.667-42.667h148.288l-120.439-113.199c-40.759-40.785-91.187-70.575-146.577-86.596-55.386-16.021-113.933-17.749-170.167-5.026-56.237 12.727-108.335 39.488-151.431 77.794-43.096 38.302-75.788 86.903-95.022 141.257-7.861 22.217-32.242 33.852-54.456 25.988-22.214-7.859-33.85-32.239-25.989-54.455 24.044-67.942 64.907-128.691 118.778-176.572s118.993-81.335 189.289-97.242c70.296-15.902 143.473-13.743 212.713 6.285 69.013 19.964 131.866 57.028 182.733 107.755l125.615 118.037v-157.359c0-23.565 19.102-42.667 42.667-42.667s42.667 19.102 42.667 42.667v256c0 6.336-1.378 12.348-3.857 17.749-1.109 2.428-2.445 4.736-3.972 6.891-1.916 2.701-4.134 5.171-6.609 7.356z" />
<glyph unicode="&#xe91f;" glyph-name="AMA-Natal-Line" d="M542.17 904.837l341.333-341.333c12.203-12.203 15.855-30.554 9.25-46.499s-22.161-26.338-39.42-26.338h-152.994l183.164-183.164c12.203-12.203 15.855-30.554 9.25-46.498s-22.161-26.338-39.42-26.338h-298.667v-213.333c0-23.565-19.102-42.667-42.667-42.667s-42.667 19.102-42.667 42.667v213.333h-298.665c-17.257 0-32.815 10.394-39.419 26.338s-2.954 34.295 9.249 46.498l183.164 183.164h-152.994c-17.257 0-32.815 10.394-39.419 26.338s-2.954 34.296 9.249 46.499l341.332 341.333c16.661 16.662 43.678 16.662 60.339 0zM750.327 320l-183.164 183.164c-12.203 12.203-15.855 30.554-9.25 46.497s22.161 26.339 39.42 26.339h152.994l-238.327 238.327-238.326-238.327h152.992c17.259 0 32.815-10.395 39.42-26.339s2.953-34.295-9.25-46.497l-183.162-183.164h476.653z" />
<glyph unicode="&#xe920;" glyph-name="AMA-Pasta-Line" d="M170.667 789.333c-11.316 0-22.168-4.495-30.17-12.497s-12.497-18.854-12.497-30.17v-597.333c0-11.315 4.495-22.17 12.497-30.17s18.854-12.497 30.17-12.497h682.667c11.315 0 22.17 4.497 30.17 12.497s12.497 18.854 12.497 30.17v469.333c0 11.316-4.497 22.168-12.497 30.17s-18.854 12.497-30.17 12.497h-384c-14.268 0-27.588 7.13-35.503 18.999l-72.665 109.001h-190.499zM80.157 837.176c24.005 24.005 56.562 37.49 90.51 37.49h213.333c14.266 0 27.587-7.13 35.501-18.999l72.668-109.001h361.165c33.95 0 66.505-13.486 90.509-37.49s37.491-56.562 37.491-90.51v-469.333c0-33.95-13.487-66.505-37.491-90.509s-56.559-37.491-90.509-37.491h-682.667c-33.948 0-66.505 13.487-90.51 37.491s-37.49 56.559-37.49 90.509v597.333c0 33.948 13.486 66.505 37.49 90.51z" />
<glyph unicode="&#xe921;" glyph-name="AMA-Doc-Line" d="M892.587 592.214c-2.133 5.12-5.12 9.813-9.387 13.653l-298.24 299.093c-3.84 3.84-8.533 7.253-13.653 9.387s-10.667 3.413-16.64 3.413h-298.667c-34.133-0.427-66.133-13.653-90.453-37.973s-37.547-56.32-37.547-90.453v-682.667c0-34.133 13.227-66.133 37.547-90.453s56.32-37.547 90.453-37.547h512c34.133 0 66.133 13.227 90.453 37.547s37.547 56.32 37.547 90.453v469.334c0 5.547-1.28 11.093-3.413 16.213zM597.333 771.84l153.173-153.173h-153.173v153.173zM798.293 76.8c-8.107-8.107-18.773-12.373-30.293-12.373h-512c-11.093 0-22.187 4.693-30.293 12.373-8.107 8.107-12.373 18.773-12.373 30.293v682.24c0 11.52 4.267 22.187 12.373 30.293s18.773 12.373 30.293 12.373h256v-256c0-23.467 19.2-42.667 42.667-42.667h256v-426.667c0-11.093-4.693-22.187-12.373-30.293v0.427z" />
<glyph unicode="&#xe922;" glyph-name="AMA-Folha-Line" d="M883.2 648.534c4.267-3.84 7.253-8.533 9.387-13.653s3.413-10.667 3.413-16.213v-512c0-34.133-13.227-66.133-37.547-90.453s-56.32-37.547-90.453-37.547h-512c-34.133 0-66.133 13.227-90.453 37.547s-37.547 56.32-37.547 90.453v682.667c0 34.133 13.227 66.133 37.547 90.453s56.32 37.547 90.453 37.973h341.333c5.973 0 11.52-1.28 16.64-3.413s9.813-5.547 13.653-9.387l255.573-256.427zM750.507 660.907l-110.507 110.507v-110.507h110.507zM798.293 75.947c7.68 8.107 12.373 19.2 12.373 30.293v469.76h-213.333c-23.467 0-42.667 19.2-42.667 42.667v213.333h-298.667c-11.52 0-22.187-4.267-30.293-12.373-7.68-8.107-12.373-19.2-12.373-30.293v-683.094c0-11.52 4.267-22.187 12.373-30.293 8.107-7.68 19.2-12.373 30.293-12.373h512c11.52 0 22.613 4.267 30.293 12.373zM341.333 362.667c-23.467 0-42.667 19.2-42.667 42.667s19.2 42.667 42.667 42.667h341.333c23.467 0 42.667-19.2 42.667-42.667s-19.2-42.667-42.667-42.667h-341.333zM682.667 277.333h-341.333c-23.467 0-42.667-19.2-42.667-42.667s19.2-42.667 42.667-42.667h341.333c23.467 0 42.667 19.2 42.667 42.667s-19.2 42.667-42.667 42.667zM426.667 533.333h-85.333c-23.467 0-42.667 19.2-42.667 42.667s19.2 42.667 42.667 42.667h85.333c23.467 0 42.667-19.2 42.667-42.667s-19.2-42.667-42.667-42.667z" />
<glyph unicode="&#xe923;" glyph-name="AMA-Livro-Line" d="M85.333 874.667h256c56.579 0 110.844-22.476 150.848-62.484 7.181-7.18 13.798-14.819 19.819-22.848 6.020 8.029 12.638 15.668 19.819 22.848 40.004 40.008 94.268 62.484 150.848 62.484h256c23.565 0 42.667-19.103 42.667-42.667v-640c0-23.565-19.102-42.667-42.667-42.667h-298.667c-22.63 0-44.335-8.99-60.339-24.994s-24.994-37.709-24.994-60.339c0-23.565-19.102-42.667-42.667-42.667s-42.667 19.102-42.667 42.667c0 22.63-8.99 44.335-24.994 60.339s-37.708 24.994-60.339 24.994h-298.667c-23.564 0-42.667 19.102-42.667 42.667v640c0 23.564 19.103 42.667 42.667 42.667zM554.667 211.802c25.724 14.852 55.117 22.865 85.333 22.865h256v554.667h-213.333c-33.946 0-66.505-13.486-90.509-37.49s-37.491-56.562-37.491-90.51v-449.532zM469.333 211.802v449.532c0 33.948-13.487 66.505-37.491 90.51s-56.561 37.49-90.509 37.49h-213.333v-554.667h256c30.218 0 59.61-8.013 85.333-22.865z" />
<glyph unicode="&#xe924;" glyph-name="AMA-Caixa-Line" d="M512 917.245c-22.434 0-44.471-5.896-63.91-17.096l-136.351-77.916c-8.968-1.774-17.333-6.406-23.631-13.503l-138.775-79.301c-15.785-9.114-29.399-21.467-39.974-36.195-2.576-2.576-4.861-5.527-6.772-8.83-1.646-2.845-2.927-5.801-3.857-8.814-8.776-17.641-13.377-37.105-13.398-56.881v-341.423c0.023-22.443 5.948-44.489 17.181-63.923s27.379-35.571 46.819-46.797l0.165-0.094 298.583-170.615c13.534-7.804 28.331-13.030 43.644-15.488 6.033-3.264 12.937-5.116 20.275-5.116s14.242 1.852 20.275 5.116c15.313 2.458 30.114 7.689 43.648 15.488l0.077 0.043 298.667 170.667c19.439 11.226 35.584 27.362 46.818 46.797s17.161 41.481 17.182 63.923v341.423c-0.021 19.775-4.621 39.239-13.397 56.88-0.93 3.013-2.21 5.969-3.857 8.815-1.911 3.303-4.198 6.255-6.771 8.831-10.577 14.728-24.188 27.081-39.974 36.195l-298.756 170.717c-19.435 11.201-41.476 17.097-63.91 17.097zM554.667 81.993l277.402 158.515c6.447 3.742 11.806 9.105 15.539 15.561 3.742 6.477 5.717 13.824 5.726 21.308v318.356l-298.667-172.768v-340.971zM469.333 422.963l-298.667 172.768v-318.373c0.011-7.475 1.986-14.818 5.727-21.291 3.732-6.455 9.089-11.819 15.539-15.561l0.067-0.038 277.333-158.477v340.971zM533.333 826.195l275.669-157.525-104.781-60.612-296.29 170.86 82.735 47.278c6.485 3.745 13.845 5.716 21.333 5.716s14.848-1.972 21.333-5.716zM512 496.866l106.944 61.862-296.811 171.162-107.136-61.22 297.003-171.804z" />
<glyph unicode="&#xe925;" glyph-name="AMA-Partilhar-Line" d="M908.919 619.907c4.655-4.187 7.91-9.305 10.24-14.888 2.325-5.583 3.721-11.631 3.721-17.679v-511.769c0-37.218-14.426-72.111-40.947-98.628-26.522-26.522-61.419-40.943-98.645-40.943h-558.363c-37.225 0-72.122 14.421-98.644 40.943-26.522 26.517-40.947 61.41-40.947 98.628v744.391c0 37.219 14.424 72.113 40.947 98.631s61.42 40.941 98.644 41.407h325.714c6.511 0 12.561-1.396 18.146-3.722 5.581-2.326 10.701-6.048 14.891-10.235l325.244-326.135zM764.211 633.865l-167.044 167.023v-167.023h167.044zM783.287 29.513c12.565 0 24.196 4.655 33.037 13.491v-0.465c8.375 8.841 13.495 20.937 13.495 33.033v465.245h-279.181c-25.596 0-46.532 20.936-46.532 46.525v279.146h-279.182c-12.563 0-24.196-4.652-33.037-13.492s-13.494-20.471-13.494-33.032v-743.926c0-12.561 4.653-24.192 13.494-33.033 8.841-8.371 20.939-13.491 33.037-13.491h558.363zM586.731 394.667c0 11.78 9.553 21.333 21.338 21.333s21.338-9.553 21.338-21.333c0-11.78-9.553-21.333-21.338-21.333-7.514 0-14.118 3.883-17.92 9.745-0.158 0.294-0.32 0.585-0.491 0.875-0.166 0.286-0.337 0.572-0.512 0.853-1.545 2.948-2.415 6.302-2.415 9.86zM523.593 382.451c-0.572 3.989-0.87 8.068-0.87 12.215 0 47.13 38.212 85.333 85.346 85.333s85.346-38.204 85.346-85.333c0-47.13-38.212-85.333-85.346-85.333-19.674 0-37.79 6.656-52.224 17.835l-76.659-44.727c0.572-3.989 0.866-8.068 0.866-12.215 0-4.143-0.294-8.213-0.866-12.198l76.719-44.702c14.426 11.153 32.521 17.788 52.164 17.788 47.134 0 85.346-38.204 85.346-85.333 0-47.125-38.212-85.333-85.346-85.333s-85.346 38.208-85.346 85.333c0 4.177 0.303 8.282 0.879 12.297l-76.655 44.663c-14.438-11.187-32.56-17.847-52.239-17.847-47.134 0-85.344 38.204-85.344 85.333 0 47.125 38.21 85.333 85.344 85.333 19.673 0 37.792-6.656 52.227-17.839l76.659 44.732zM412.622 281.813c-3.802 5.867-10.406 9.745-17.915 9.745-11.783 0-21.336-9.553-21.336-21.333 0-11.785 9.553-21.333 21.336-21.333 7.51 0 14.114 3.878 17.917 9.745 0.085 0.154 0.171 0.311 0.259 0.465 0.073 0.132 0.148 0.26 0.223 0.388 0.172 0.294 0.348 0.589 0.527 0.875 1.54 2.948 2.41 6.302 2.41 9.86 0 3.554-0.87 6.908-2.409 9.856-0.176 0.282-0.349 0.567-0.518 0.858s-0.335 0.585-0.494 0.875zM586.731 145.779c0 3.136 0.678 6.114 1.89 8.794 0.431 0.627 0.836 1.276 1.225 1.941 0.367 0.623 0.708 1.254 1.024 1.894 3.883 5.278 10.142 8.704 17.199 8.704 11.785 0 21.338-9.549 21.338-21.333 0-11.78-9.553-21.333-21.338-21.333s-21.338 9.553-21.338 21.333z" />
<glyph unicode="&#xe926;" glyph-name="AMA-Editar-Line" d="M469.333 106.667c0 23.565 19.102 42.667 42.667 42.667h384c23.565 0 42.667-19.102 42.667-42.667s-19.102-42.667-42.667-42.667h-384c-23.565 0-42.667 19.102-42.667 42.667zM768 794.511c-12.689 0-24.858-5.041-33.83-14.013l-524.975-524.975-22.554-90.214 90.214 22.554 524.976 524.976c4.442 4.443 7.966 9.717 10.372 15.522 2.402 5.804 3.639 12.026 3.639 18.309s-1.237 12.504-3.639 18.309c-2.406 5.804-5.931 11.079-10.372 15.521s-9.715 7.967-15.522 10.371c-5.803 2.404-12.023 3.642-18.308 3.642zM673.83 840.837c24.977 24.976 58.85 39.007 94.17 39.007 17.489 0 34.807-3.445 50.965-10.138s30.839-16.502 43.204-28.869c12.369-12.367 22.178-27.048 28.868-43.205 6.694-16.158 10.138-33.475 10.138-50.964s-3.443-34.807-10.138-50.964c-6.69-16.158-16.499-30.839-28.868-43.206l-533.332-533.334c-5.468-5.466-12.32-9.348-19.822-11.221l-170.667-42.667c-14.54-3.635-29.92 0.623-40.518 11.221s-14.858 25.98-11.223 40.521l42.667 170.667c1.876 7.501 5.755 14.353 11.223 19.819l533.332 533.334z" />
<glyph unicode="&#xe927;" glyph-name="AMA-Mais-Line" d="M512 832c-212.077 0-384-171.923-384-384 0-212.079 171.923-384 384-384 212.079 0 384 171.921 384 384 0 212.077-171.921 384-384 384zM42.667 448c0 259.206 210.128 469.333 469.333 469.333 259.204 0 469.333-210.128 469.333-469.333 0-259.204-210.129-469.333-469.333-469.333-259.206 0-469.333 210.129-469.333 469.333zM554.667 618.667c0 23.564-19.102 42.667-42.667 42.667s-42.667-19.103-42.667-42.667v-128h-128c-23.564 0-42.667-19.102-42.667-42.667s19.103-42.667 42.667-42.667h128v-128c0-23.565 19.102-42.667 42.667-42.667s42.667 19.102 42.667 42.667v128h128c23.565 0 42.667 19.102 42.667 42.667s-19.102 42.667-42.667 42.667h-128v128z" />
<glyph unicode="&#xe928;" glyph-name="AMA-SimplesMais-Line" d="M554.667 746.667c0 23.564-19.102 42.667-42.667 42.667s-42.667-19.103-42.667-42.667v-256h-256c-23.564 0-42.667-19.102-42.667-42.667s19.103-42.667 42.667-42.667h256v-256c0-23.565 19.102-42.667 42.667-42.667s42.667 19.102 42.667 42.667v256h256c23.565 0 42.667 19.102 42.667 42.667s-19.102 42.667-42.667 42.667h-256v256z" />
<glyph unicode="&#xe929;" glyph-name="AMA-Menus-Line" d="M512 832c-212.077 0-384-171.923-384-384 0-212.079 171.923-384 384-384 212.079 0 384 171.921 384 384 0 212.077-171.921 384-384 384zM42.667 448c0 259.206 210.128 469.333 469.333 469.333 259.204 0 469.333-210.128 469.333-469.333 0-259.204-210.129-469.333-469.333-469.333-259.206 0-469.333 210.129-469.333 469.333zM298.667 448c0 23.565 19.103 42.667 42.667 42.667h341.333c23.565 0 42.667-19.102 42.667-42.667s-19.102-42.667-42.667-42.667h-341.333c-23.564 0-42.667 19.102-42.667 42.667z" />
<glyph unicode="&#xe92a;" glyph-name="AMA-SimplesMenus-Line" d="M170.667 448c0 23.565 19.103 42.667 42.667 42.667h597.333c23.565 0 42.667-19.102 42.667-42.667s-19.102-42.667-42.667-42.667h-597.333c-23.564 0-42.667 19.102-42.667 42.667z" />
<glyph unicode="&#xe92b;" glyph-name="AMA-Carregar-Line" d="M128 362.667c23.564 0 42.667-19.102 42.667-42.667v-170.667c0-11.315 4.495-22.17 12.497-30.17s18.854-12.497 30.17-12.497h597.333c11.315 0 22.17 4.497 30.17 12.497s12.497 18.854 12.497 30.17v170.667c0 23.565 19.102 42.667 42.667 42.667s42.667-19.102 42.667-42.667v-170.667c0-33.95-13.487-66.505-37.491-90.509s-56.559-37.491-90.509-37.491h-597.333c-33.948 0-66.505 13.487-90.51 37.491s-37.49 56.559-37.49 90.509v170.667c0 23.565 19.103 42.667 42.667 42.667zM481.83 862.17c16.661 16.662 43.678 16.662 60.339 0l213.333-213.333c16.661-16.663 16.661-43.677 0-60.34s-43.678-16.662-60.339 0l-183.164 183.164-183.163-183.164c-16.663-16.662-43.677-16.662-60.34 0s-16.662 43.677 0 60.34l213.334 213.333zM512 874.667c23.565 0 42.667-19.103 42.667-42.667v-512c0-23.565-19.102-42.667-42.667-42.667s-42.667 19.102-42.667 42.667v512c0 23.564 19.102 42.667 42.667 42.667z" />
<glyph unicode="&#xe92c;" glyph-name="AMA-Descarregar-Line" d="M128 362.667c23.564 0 42.667-19.102 42.667-42.667v-170.667c0-11.315 4.495-22.17 12.497-30.17s18.854-12.497 30.17-12.497h597.333c11.315 0 22.17 4.497 30.17 12.497s12.497 18.854 12.497 30.17v170.667c0 23.565 19.102 42.667 42.667 42.667s42.667-19.102 42.667-42.667v-170.667c0-33.95-13.487-66.505-37.491-90.509s-56.559-37.491-90.509-37.491h-597.333c-33.948 0-66.505 13.487-90.51 37.491s-37.49 56.559-37.49 90.509v170.667c0 23.565 19.103 42.667 42.667 42.667zM268.497 563.503c16.663 16.662 43.677 16.662 60.34 0l183.163-183.164 183.164 183.164c16.661 16.662 43.678 16.662 60.339 0s16.661-43.678 0-60.34l-213.333-213.333c-16.661-16.661-43.678-16.661-60.339 0l-213.334 213.333c-16.662 16.661-16.662 43.677 0 60.34zM512 874.667c23.565 0 42.667-19.103 42.667-42.667v-512c0-23.565-19.102-42.667-42.667-42.667s-42.667 19.102-42.667 42.667v512c0 23.564 19.102 42.667 42.667 42.667z" />
<glyph unicode="&#xe92d;" glyph-name="AMA-Anexar-Line" d="M673.271 858.12c-33.975 0-66.556-13.495-90.577-37.518l-392.106-392.105c-40.035-40.038-62.526-94.336-62.526-150.95 0-56.619 22.491-110.916 62.526-150.95s94.333-62.528 150.95-62.528c56.617 0 110.916 22.494 150.95 62.528l392.107 392.107c16.661 16.661 43.678 16.661 60.339 0 16.661-16.666 16.661-43.678 0-60.339l-392.107-392.107c-56.038-56.038-132.041-87.522-211.29-87.522s-155.252 31.484-211.29 87.522c-56.038 56.034-87.519 132.041-87.519 211.29s31.482 155.251 87.519 211.29l392.107 392.105c40.026 40.025 94.31 62.511 150.916 62.511s110.891-22.486 150.916-62.511c40.026-40.026 62.511-94.312 62.511-150.917s-22.485-110.891-62.511-150.917l-392.533-392.105c-24.014-24.017-56.583-37.508-90.543-37.508s-66.53 13.491-90.543 37.508c-24.014 24.013-37.504 56.58-37.504 90.543 0 33.958 13.491 66.526 37.504 90.543l362.257 361.83c16.67 16.653 43.686 16.637 60.339-0.035s16.636-43.687-0.034-60.34l-362.223-361.794c-7.999-8.013-12.511-18.884-12.511-30.204 0-11.332 4.5-22.195 12.511-30.204 8.011-8.013 18.875-12.514 30.203-12.514s22.193 4.501 30.204 12.514l392.534 392.105c24.013 24.021 37.517 56.612 37.517 90.577 0 33.973-13.495 66.554-37.517 90.577s-56.606 37.518-90.577 37.518z" />
<glyph unicode="&#xe92e;" glyph-name="AMA-Lista2-Line-" d="M298.667 704c0 23.564 19.103 42.667 42.667 42.667h554.667c23.565 0 42.667-19.103 42.667-42.667s-19.102-42.667-42.667-42.667h-554.667c-23.564 0-42.667 19.103-42.667 42.667zM298.667 448c0 23.565 19.103 42.667 42.667 42.667h554.667c23.565 0 42.667-19.102 42.667-42.667s-19.102-42.667-42.667-42.667h-554.667c-23.564 0-42.667 19.102-42.667 42.667zM298.667 192c0 23.565 19.103 42.667 42.667 42.667h554.667c23.565 0 42.667-19.102 42.667-42.667s-19.102-42.667-42.667-42.667h-554.667c-23.564 0-42.667 19.102-42.667 42.667zM85.333 704c0 23.564 19.103 42.667 42.667 42.667h0.427c23.564 0 42.667-19.103 42.667-42.667s-19.103-42.667-42.667-42.667h-0.427c-23.564 0-42.667 19.103-42.667 42.667zM85.333 448c0 23.565 19.103 42.667 42.667 42.667h0.427c23.564 0 42.667-19.102 42.667-42.667s-19.103-42.667-42.667-42.667h-0.427c-23.564 0-42.667 19.102-42.667 42.667zM85.333 192c0 23.565 19.103 42.667 42.667 42.667h0.427c23.564 0 42.667-19.102 42.667-42.667s-19.103-42.667-42.667-42.667h-0.427c-23.564 0-42.667 19.102-42.667 42.667z" />
<glyph unicode="&#xe92f;" glyph-name="AMA-Configurar-Line" d="M602.709 618.667c18.948-73.61 85.769-128 165.291-128 94.255 0 170.667 76.41 170.667 170.667s-76.412 170.667-170.667 170.667c-79.522 0-146.342-54.39-165.291-128h-474.709c-23.564 0-42.667-19.103-42.667-42.667s19.103-42.667 42.667-42.667h474.709zM768 576c-47.13 0-85.333 38.205-85.333 85.333s38.204 85.333 85.333 85.333c47.13 0 85.333-38.205 85.333-85.333s-38.204-85.333-85.333-85.333zM256 405.333c-94.257 0-170.667-76.412-170.667-170.667s76.41-170.667 170.667-170.667c79.524 0 146.344 54.391 165.29 128h474.71c23.565 0 42.667 19.102 42.667 42.667s-19.102 42.667-42.667 42.667h-474.71c-18.946 73.609-85.766 128-165.29 128zM256 149.333c-47.128 0-85.333 38.204-85.333 85.333s38.205 85.333 85.333 85.333c47.128 0 85.333-38.204 85.333-85.333s-38.205-85.333-85.333-85.333z" />
<glyph unicode="&#xe930;" glyph-name="AMA-Ponto-Line" d="M512 490.667c-23.565 0-42.667-19.102-42.667-42.667s19.102-42.667 42.667-42.667c23.565 0 42.667 19.102 42.667 42.667s-19.102 42.667-42.667 42.667zM384 448c0 70.694 57.306 128 128 128s128-57.306 128-128c0-70.694-57.306-128-128-128s-128 57.306-128 128z" />
<glyph unicode="&#xe931;" glyph-name="AMA-Transferir-Line" d="M311.163 819.503c16.663 16.662 43.677 16.662 60.34 0l170.666-170.667c16.661-16.663 16.661-43.677 0-60.34s-43.678-16.662-60.339 0l-97.83 97.83v-238.327c0-23.565-19.103-42.667-42.667-42.667s-42.667 19.102-42.667 42.667v238.327l-97.83-97.83c-16.663-16.662-43.677-16.662-60.34 0s-16.662 43.677 0 60.34l170.667 170.667zM640 209.673v238.327c0 23.565 19.102 42.667 42.667 42.667s42.667-19.102 42.667-42.667v-238.327l97.83 97.83c16.661 16.661 43.678 16.661 60.339 0s16.661-43.678 0-60.339l-170.667-170.667c-16.661-16.661-43.678-16.661-60.339 0l-170.667 170.667c-16.661 16.661-16.661 43.678 0 60.339s43.678 16.661 60.339 0l97.83-97.83z" />
<glyph unicode="&#xe932;" glyph-name="AMA-OrdenarBaixo2-Line" d="M353.387 264.96l-55.040-55.040v579.413c0 23.467-19.2 42.667-42.667 42.667s-42.667-19.2-42.667-42.667v-579.84l-55.040 55.040c-16.64 16.64-43.52 16.64-60.16 0s-16.64-43.52 0-60.16l128-128c3.84-3.84 8.533-7.253 14.080-9.387 5.12-2.133 10.667-3.413 16.213-3.413s11.093 1.28 16.213 3.413c5.12 2.133 9.813 5.12 14.080 9.387l128 128c16.64 16.64 16.64 43.52 0 60.16s-43.52 16.64-60.16 0l-0.853 0.427zM559.898 234.667h85.333c23.467 0 42.667-19.2 42.667-42.667s-19.2-42.667-42.667-42.667h-85.333c-23.467 0-42.667 19.2-42.667 42.667s19.2 42.667 42.667 42.667zM559.898 405.333h170.667c23.467 0 42.667-19.2 42.667-42.667s-19.2-42.667-42.667-42.667h-170.667c-23.467 0-42.667 19.2-42.667 42.667s19.2 42.667 42.667 42.667zM559.898 576h256c23.467 0 42.667-19.2 42.667-42.667s-19.2-42.667-42.667-42.667h-256c-23.467 0-42.667 19.2-42.667 42.667s19.2 42.667 42.667 42.667zM901.231 661.333h-341.333c-23.467 0-42.667 19.2-42.667 42.667s19.2 42.667 42.667 42.667h341.333c23.467 0 42.667-19.2 42.667-42.667s-19.2-42.667-42.667-42.667z" />
<glyph unicode="&#xe933;" glyph-name="AMA-Ordenar-Line" d="M353.387 264.96l-55.040-55.040v579.413c0 23.467-19.2 42.667-42.667 42.667s-42.667-19.2-42.667-42.667v-579.84l-55.040 55.040c-16.64 16.64-43.52 16.64-60.16 0s-16.64-43.52 0-60.16l128-128c3.84-3.84 8.533-7.253 14.080-9.387 5.12-2.133 10.667-3.413 16.213-3.413s11.093 1.28 16.213 3.413c5.12 2.133 9.813 5.12 14.080 9.387l128 128c16.64 16.64 16.64 43.52 0 60.16s-43.52 16.64-60.16 0l-0.853 0.427zM559.898 661.333h85.333c23.467 0 42.667 19.2 42.667 42.667s-19.2 42.667-42.667 42.667h-85.333c-23.467 0-42.667-19.2-42.667-42.667s19.2-42.667 42.667-42.667zM559.898 490.667h170.667c23.467 0 42.667 19.2 42.667 42.667s-19.2 42.667-42.667 42.667h-170.667c-23.467 0-42.667-19.2-42.667-42.667s19.2-42.667 42.667-42.667zM559.898 320h256c23.467 0 42.667 19.2 42.667 42.667s-19.2 42.667-42.667 42.667h-256c-23.467 0-42.667-19.2-42.667-42.667s19.2-42.667 42.667-42.667zM901.231 234.667h-341.333c-23.467 0-42.667-19.2-42.667-42.667s19.2-42.667 42.667-42.667h341.333c23.467 0 42.667 19.2 42.667 42.667s-19.2 42.667-42.667 42.667z" />
<glyph unicode="&#xe934;" glyph-name="AMA-OrdenarAlfabetico-Line" d="M268.053 76.373c3.84-3.84 8.533-7.253 14.080-9.387 10.24-4.267 22.187-4.267 32.427 0 5.12 2.133 9.813 5.12 14.080 9.387l128 128c16.64 16.64 16.64 43.52 0 60.16s-43.52 16.64-60.16 0l-55.040-55.040v579.84c0 23.467-19.2 42.667-42.667 42.667s-42.667-19.2-42.667-42.667v-579.84l-55.040 55.040c-8.533 8.533-19.2 12.373-30.293 12.373s-21.76-4.267-30.293-12.373c-16.64-16.64-16.64-43.52 0-60.16l127.573-128zM597.333 490.667h247.633v51.63h-174.012l169.233 248.112v41.591h-238.076v-51.63h164.932l-169.711-248.112v-41.591zM826.505 64l-33.114 89.975h-137.041l-32.606-89.975h-69.286l133.478 341.333h74.377l133.478-341.333h-69.286zM744.994 293.935c-1.361 4.446-3.396 10.475-6.114 18.091s-5.436 15.394-8.154 23.326c-2.377 8.252-4.245 15.078-5.602 20.471-1.698-6.349-3.904-13.645-6.622-21.897-2.377-8.252-4.757-16.030-7.134-23.33-2.039-7.296-3.738-12.851-5.094-16.661l-32.094-87.595h102.4l-31.586 87.595z" />
<glyph unicode="&#xe935;" glyph-name="AMA-Lixo-Line" d="M298.667 746.667h-170.667c-23.564 0-42.667-19.103-42.667-42.667s19.103-42.667 42.667-42.667h42.667v-554.667c0-33.95 13.486-66.505 37.49-90.509s56.562-37.491 90.51-37.491h426.667c33.95 0 66.505 13.487 90.509 37.491s37.491 56.559 37.491 90.509v554.667h42.667c23.565 0 42.667 19.103 42.667 42.667s-19.102 42.667-42.667 42.667h-170.667v42.667c0 33.948-13.487 66.505-37.491 90.51s-56.563 37.49-90.509 37.49h-170.667c-33.948 0-66.505-13.486-90.51-37.49s-37.49-56.562-37.49-90.51v-42.667zM396.497 819.503c8.002 8.001 18.854 12.497 30.17 12.497h170.667c11.315 0 22.17-4.495 30.17-12.497s12.497-18.854 12.497-30.17v-42.667h-256v42.667c0 11.316 4.495 22.168 12.497 30.17zM256 661.333h512v-554.667c0-11.315-4.497-22.17-12.497-30.17s-18.854-12.497-30.17-12.497h-426.667c-11.316 0-22.168 4.497-30.17 12.497s-12.497 18.854-12.497 30.17v554.667z" />
<glyph unicode="&#xe936;" glyph-name="AMA-Imprimir-Line" d="M213.333 874.667v-256h-42.667c-33.948 0-66.505-13.486-90.51-37.49s-37.49-56.564-37.49-90.51v-213.333c0-33.946 13.486-66.505 37.49-90.509s56.562-37.491 90.51-37.491h42.667v-128c0-23.565 19.103-42.667 42.667-42.667h512c23.565 0 42.667 19.102 42.667 42.667v128h42.667c33.95 0 66.505 13.487 90.509 37.491s37.491 56.559 37.491 90.509v213.333c0 33.95-13.487 66.505-37.491 90.51s-56.559 37.49-90.509 37.49h-42.667v256c0 23.564-19.102 42.667-42.667 42.667h-512c-23.564 0-42.667-19.103-42.667-42.667zM298.667 64v256h426.667v-256h-426.667zM810.667 234.667v128c0 23.565-19.102 42.667-42.667 42.667h-512c-23.564 0-42.667-19.102-42.667-42.667v-128h-42.667c-11.316 0-22.168 4.497-30.17 12.497s-12.497 18.854-12.497 30.17v213.333c0 11.315 4.495 22.17 12.497 30.17s18.854 12.497 30.17 12.497h682.667c11.315 0 22.17-4.497 30.17-12.497s12.497-18.854 12.497-30.17v-213.333c0-11.315-4.497-22.17-12.497-30.17s-18.854-12.497-30.17-12.497h-42.667zM725.333 832v-213.333h-426.667v213.333h426.667z" />
<glyph unicode="&#xe937;" glyph-name="AMA-Apagar-Line" d="M895.893 832h-554.667c-12.373 0-23.893-5.12-32-14.507l-298.667-341.333c-14.080-16.213-14.080-40.107 0-56.32l298.667-341.333c8.107-9.387 19.627-14.507 32-14.507h554.667c70.4 0 128 57.6 128 128v512c0 70.4-57.6 128-128 128zM938.56 192c0-23.467-19.2-42.667-42.667-42.667h-535.467l-261.12 298.667 261.12 298.667h535.467c23.467 0 42.667-19.2 42.667-42.667v-512zM798.191 606.293c-16.64 16.64-43.52 16.64-60.16 0l-97.707-97.707-97.707 97.707c-16.64 16.64-43.52 16.64-60.16 0s-16.64-43.52 0-60.16l97.707-97.707-97.707-97.707c-16.64-16.64-16.64-43.52 0-60.16 8.533-8.533 19.2-12.373 30.293-12.373s21.76 4.267 30.293 12.373l97.707 97.707 97.707-97.707c8.533-8.533 19.2-12.373 30.293-12.373s21.76 4.267 30.293 12.373c16.64 16.64 16.64 43.52 0 60.16l-97.707 97.707 97.707 97.707c16.64 16.64 16.64 43.52 0 60.16h-0.853z" />
<glyph unicode="&#xe938;" glyph-name="AMA-Cafe-Line" d="M298.667 874.667c0 23.564-19.103 42.667-42.667 42.667s-42.667-19.103-42.667-42.667v-128c0-23.564 19.103-42.667 42.667-42.667s42.667 19.103 42.667 42.667v128zM42.667 576v-384c0-56.58 22.476-110.844 62.484-150.848 40.008-40.009 94.27-62.485 150.849-62.485h341.333c56.58 0 110.844 22.477 150.848 62.485 40.009 40.004 62.485 94.268 62.485 150.848 56.58 0 110.844 22.477 150.848 62.485 40.009 40.004 62.485 94.268 62.485 150.848s-22.477 110.844-62.485 150.849c-40.004 40.008-94.268 62.484-150.848 62.484h-725.333c-23.564 0-42.667-19.103-42.667-42.667zM810.667 277.333v256c33.946 0 66.505-13.487 90.509-37.491s37.491-56.563 37.491-90.509c0-33.946-13.487-66.505-37.491-90.509s-56.563-37.491-90.509-37.491zM725.333 533.333v-341.333c0-33.946-13.487-66.505-37.491-90.509s-56.563-37.491-90.509-37.491h-341.333c-33.948 0-66.505 13.487-90.51 37.491s-37.49 56.559-37.49 90.509v341.333h597.333zM426.667 917.333c23.565 0 42.667-19.103 42.667-42.667v-128c0-23.564-19.102-42.667-42.667-42.667s-42.667 19.103-42.667 42.667v128c0 23.564 19.102 42.667 42.667 42.667zM640 874.667c0 23.564-19.102 42.667-42.667 42.667s-42.667-19.103-42.667-42.667v-128c0-23.564 19.102-42.667 42.667-42.667s42.667 19.103 42.667 42.667v128z" />
<glyph unicode="&#xe939;" glyph-name="AMA-Opcao-Line" d="M512 618.667c-94.257 0-170.667-76.41-170.667-170.667 0-94.255 76.41-170.667 170.667-170.667 94.255 0 170.667 76.412 170.667 170.667 0 94.257-76.412 170.667-170.667 170.667zM426.667 448c0 47.13 38.204 85.333 85.333 85.333s85.333-38.204 85.333-85.333c0-47.13-38.204-85.333-85.333-85.333s-85.333 38.204-85.333 85.333zM512 960c-33.946 0-66.505-13.486-90.51-37.49s-37.49-56.562-37.49-90.51v-7.147c-0.034-5.386-1.635-10.647-4.61-15.139-2.004-3.025-4.572-5.614-7.547-7.633-2.907-0.609-5.751-1.521-8.483-2.727-5.070-2.237-10.694-2.905-16.146-1.916-5.393 0.978-10.374 3.532-14.315 7.337l-2.339 2.339c-11.888 11.901-26.004 21.342-41.544 27.784s-32.195 9.757-49.016 9.757c-16.821 0-33.478-3.315-49.016-9.757-15.532-6.438-29.643-15.874-41.527-27.767-11.893-11.884-21.328-25.996-27.767-41.527-6.442-15.539-9.757-32.195-9.757-49.016s3.315-33.478 9.757-49.016c6.441-15.539 15.883-29.656 27.784-41.544l2.339-2.339c3.805-3.941 6.359-8.922 7.337-14.315 0.989-5.452 0.321-11.076-1.916-16.146-0.363-0.822-0.7-1.656-1.010-2.499-1.921-5.223-5.368-9.747-9.895-12.984-4.422-3.163-9.673-4.954-15.1-5.157h-3.227c-33.948 0-66.505-13.486-90.51-37.49s-37.49-56.564-37.49-90.51c0-33.946 13.486-66.505 37.49-90.509s56.562-37.491 90.51-37.491h7.147c5.386-0.034 10.647-1.634 15.139-4.612 4.509-2.982 8.045-7.223 10.176-12.198l0.185-0.418c2.237-5.069 2.905-10.692 1.916-16.145-0.978-5.393-3.532-10.372-7.336-14.315l-2.339-2.338c-11.901-11.887-21.342-26.005-27.784-41.545s-9.757-32.196-9.757-49.015c0-16.819 3.315-33.476 9.757-49.015s15.883-29.658 27.784-41.545c11.881-11.887 25.986-21.316 41.51-27.75 15.539-6.443 32.195-9.758 49.016-9.758s33.478 3.315 49.016 9.758c15.532 6.438 29.659 15.889 41.544 27.785l2.338 2.338c3.941 3.806 8.922 6.357 14.316 7.334 5.452 0.99 11.076 0.324 16.146-1.916 0.822-0.363 1.656-0.7 2.499-1.007 5.223-1.924 9.747-5.372 12.984-9.894 3.163-4.425 4.954-9.677 5.157-15.104v-3.226c0-33.95 13.486-66.505 37.49-90.509s56.56-37.491 90.51-37.491c33.95 0 66.505 13.487 90.509 37.491s37.491 56.559 37.491 90.509v7.147c0.034 5.385 1.634 10.645 4.612 15.138 2.982 4.51 7.223 8.047 12.198 10.176l0.418 0.183c5.069 2.24 10.692 2.906 16.145 1.916 5.393-0.977 10.372-3.529 14.315-7.334l2.355-2.355c11.883-11.895 25.997-21.329 41.527-27.767 15.539-6.443 32.196-9.758 49.015-9.758s33.476 3.315 49.015 9.758c15.531 6.438 29.645 15.872 41.527 27.767 11.895 11.883 21.329 25.997 27.767 41.527 6.443 15.539 9.758 32.196 9.758 49.015s-3.315 33.476-9.758 49.015c-6.438 15.531-15.889 29.662-27.785 41.545l-2.338 2.338c-3.806 3.942-6.357 8.922-7.334 14.315-0.99 5.453-0.32 11.076 1.916 16.145l0.179 0.422c2.133 4.971 5.67 9.212 10.18 12.194 4.493 2.978 9.754 4.578 15.138 4.612h3.733c33.95 0 66.505 13.487 90.509 37.491s37.491 56.559 37.491 90.509c0 33.95-13.487 66.505-37.491 90.51s-56.559 37.49-90.509 37.49h-7.147c-5.385 0.034-10.645 1.635-15.138 4.61-3.025 2.004-5.615 4.572-7.633 7.547-0.61 2.908-1.523 5.751-2.726 8.483-2.24 5.070-2.906 10.694-1.916 16.146 0.977 5.393 3.529 10.374 7.334 14.315l2.355 2.356c11.895 11.884 21.329 25.995 27.767 41.527 6.443 15.539 9.758 32.195 9.758 49.016s-3.315 33.478-9.758 49.016c-6.434 15.524-15.863 29.629-27.75 41.51-11.887 11.901-26.005 21.342-41.545 27.784s-32.196 9.757-49.015 9.757c-16.819 0-33.476-3.315-49.015-9.757s-29.658-15.883-41.545-27.784l-2.338-2.339c-3.942-3.805-8.922-6.358-14.315-7.336-5.453-0.989-11.076-0.319-16.145 1.919l-0.422 0.18c-4.971 2.131-9.212 5.668-12.194 10.178-2.978 4.492-4.578 9.753-4.612 15.139v3.733c0 33.948-13.487 66.505-37.491 90.51s-56.563 37.49-90.509 37.49zM481.83 862.17c8 8.001 18.854 12.497 30.17 12.497s22.17-4.495 30.17-12.497c8-8.002 12.497-18.854 12.497-30.17v-4.010c0.090-22.051 6.622-43.594 18.799-61.978 12.13-18.321 29.338-32.708 49.515-41.404 20.617-9.048 43.465-11.738 65.617-7.721 22.229 4.031 42.743 14.626 58.893 30.423l2.91 2.91c3.964 3.967 8.67 7.114 13.85 9.261s10.731 3.252 16.337 3.252c5.606 0 11.157-1.105 16.337-3.252s9.886-5.295 13.85-9.261l0.034-0.034c3.968-3.962 7.113-8.668 9.259-13.848 2.15-5.18 3.255-10.732 3.255-16.339s-1.105-11.159-3.255-16.339c-2.146-5.18-5.308-9.902-9.276-13.865l-2.564-2.558-0.329-0.336c-15.795-16.15-26.394-36.662-30.426-58.892-3.499-19.299-1.907-39.124 4.54-57.541 0.508-3.875 1.545-7.67 3.093-11.278 8.687-20.268 23.108-37.554 41.493-49.727 18.385-12.177 39.927-18.709 61.978-18.799h7.424c11.315 0 22.17-4.497 30.17-12.497s12.497-18.854 12.497-30.17c0-11.315-4.497-22.17-12.497-30.17s-18.854-12.497-30.17-12.497h-4.011c-22.050-0.090-43.593-6.622-61.978-18.799-18.321-12.134-32.713-29.342-41.408-49.519-9.045-20.612-11.733-43.46-7.718-65.613 4.032-22.229 14.626-42.743 30.426-58.893l2.91-2.91c3.968-3.964 7.113-8.67 9.259-13.85 2.15-5.18 3.255-10.731 3.255-16.337s-1.105-11.157-3.255-16.337c-2.146-5.18-5.291-9.886-9.259-13.85l-0.034-0.034c-3.964-3.968-8.67-7.113-13.85-9.259-5.18-2.15-10.731-3.255-16.337-3.255s-11.157 1.105-16.337 3.255c-5.18 2.146-9.903 5.308-13.867 9.276l-2.893 2.893c-16.154 15.795-36.663 26.394-58.893 30.426-22.153 4.015-45.001 1.327-65.613-7.718-20.177-8.695-37.385-23.087-49.519-41.408-12.177-18.385-18.709-39.927-18.799-61.978v-7.424c0-11.315-4.497-22.17-12.497-30.17s-18.854-12.497-30.17-12.497c-11.315 0-22.17 4.497-30.17 12.497s-12.497 18.854-12.497 30.17v3.84l-0.013 0.998c-0.529 22.682-7.872 44.676-21.069 63.13-12.937 18.091-30.915 31.953-51.675 39.872-20.344 8.687-42.801 11.221-64.588 7.275-22.229-4.032-42.743-14.626-58.893-30.426l-2.909-2.91c-3.962-3.968-8.668-7.113-13.848-9.259-5.18-2.15-10.732-3.255-16.339-3.255s-11.159 1.105-16.339 3.255c-5.18 2.146-9.885 5.291-13.848 9.259l-0.034 0.034c-3.967 3.964-7.114 8.67-9.261 13.85s-3.252 10.731-3.252 16.337c0 5.606 1.105 11.157 3.252 16.337s5.311 9.903 9.278 13.867l2.562 2.556 0.329 0.337c15.798 16.154 26.395 36.663 30.426 58.893 4.017 22.153 1.328 45.001-7.721 65.617-8.696 20.177-23.083 37.385-41.404 49.515-18.385 12.177-39.928 18.709-61.978 18.799h-7.424c-11.316 0-22.168 4.497-30.17 12.497s-12.497 18.854-12.497 30.17c0 11.315 4.495 22.17 12.497 30.17s18.854 12.497 30.17 12.497h3.84l0.998 0.013c22.682 0.529 44.679 7.872 63.133 21.069 18.088 12.937 31.951 30.915 39.868 51.674 8.69 20.344 11.226 42.801 7.275 64.588-4.031 22.229-14.626 42.743-30.423 58.893l-2.91 2.909c-3.967 3.962-7.114 8.668-9.261 13.848s-3.252 10.732-3.252 16.339c0 5.607 1.105 11.159 3.252 16.339s5.295 9.885 9.261 13.848l0.034 0.034c3.962 3.967 8.668 7.114 13.848 9.261s10.732 3.252 16.339 3.252c5.607 0 11.159-1.105 16.339-3.252s9.902-5.311 13.865-9.278l2.558-2.562 0.336-0.329c16.15-15.798 36.662-26.395 58.892-30.426 19.299-3.5 39.124-1.91 57.541 4.539 3.875 0.507 7.67 1.544 11.278 3.090 20.268 8.687 37.554 23.11 49.727 41.495 12.177 18.385 18.709 39.928 18.799 61.978v7.424c0 11.316 4.497 22.168 12.497 30.17z" />
<glyph unicode="&#xe93a;" glyph-name="AMA-Wifi-Line" d="M88.797 543.991c116.897 103.041 267.372 159.894 423.198 159.894s306.304-56.852 423.198-159.894c17.677-15.582 44.642-13.884 60.224 3.793s13.884 44.639-3.797 60.221c-132.48 116.78-303.019 181.213-479.625 181.213-176.604 0-347.142-64.433-479.625-181.213-17.677-15.582-19.376-42.543-3.794-60.221s42.543-19.375 60.221-3.793zM240.641 391.753c76.666 63.855 173.289 98.825 273.065 98.825 99.78 0 196.399-34.97 273.067-98.825 18.108-15.083 45.009-12.629 60.092 5.474 15.083 18.108 12.629 45.013-5.478 60.092-91.998 76.63-207.945 118.593-327.68 118.593-119.732 0-235.679-41.963-327.679-118.593-18.106-15.078-20.559-41.984-5.478-60.092 15.081-18.103 41.984-20.557 60.091-5.474zM512.209 277.282c-44.279 0-87.461-13.777-123.557-39.424-19.209-13.645-45.846-9.139-59.493 10.074-13.648 19.209-9.139 45.845 10.071 59.49 50.534 35.904 110.989 55.194 172.979 55.194s122.445-19.29 172.979-55.194c19.209-13.645 23.718-40.282 10.069-59.49-13.649-19.213-40.286-23.718-59.494-10.074-36.096 25.647-79.275 39.424-123.554 39.424zM512 149.333c-23.565 0-42.667-19.102-42.667-42.667s19.102-42.667 42.667-42.667h0.427c23.565 0 42.667 19.102 42.667 42.667s-19.102 42.667-42.667 42.667h-0.427z" />
<glyph unicode="&#xe93b;" glyph-name="AMA-GPS-Line" d="M968.836 904.835c12.749-12.75 16.111-32.139 8.388-48.435l-404.207-853.333c-7.718-16.286-24.832-25.971-42.765-24.196-17.933 1.779-32.819 14.63-37.188 32.111l-83.616 334.464-334.462 83.614c-17.484 4.373-30.335 19.255-32.111 37.188-1.776 17.937 7.907 35.051 24.194 42.765l853.332 404.212c16.294 7.719 35.686 4.361 48.435-8.39zM211.344 482.931l243.636-60.907c15.287-3.823 27.221-15.761 31.044-31.044l60.911-243.639 302.029 637.623-637.62-302.033z" />
<glyph unicode="&#xe93c;" glyph-name="AMA-Conduzir-Line" d="M512-64c-282.77 0-512 229.231-512 512s229.23 512 512 512c282.769 0 512-229.23 512-512s-229.231-512-512-512zM511.061 874.667c-226.056 0-411.052-175.8-425.728-398.14 91.856 137.167 248.246 227.473 425.728 227.473 177.481 0 333.871-90.306 425.728-227.477-14.677 222.344-199.671 398.144-425.728 398.144zM809.728 405.333c27.046 0 53.116-4.194 77.589-11.968-71.919 134.101-213.436 225.301-376.256 225.301-162.818 0-304.335-91.2-376.255-225.301 24.473 7.774 50.541 11.968 77.588 11.968 141.385 0 256-114.615 256-256 0-44.058-11.127-85.513-30.729-121.711 23.846-4.134 48.367-6.289 73.395-6.289s49.549 2.155 73.395 6.289c-19.601 36.198-30.729 77.653-30.729 121.711 0 141.385 114.615 256 256 256zM669.666 51.785c108.075 43.302 194.308 129.536 237.611 237.611-27.648 19.29-61.278 30.605-97.549 30.605-94.255 0-170.667-76.412-170.667-170.667 0-36.271 11.315-69.897 30.605-97.549zM352.455 51.785c19.292 27.652 30.607 61.278 30.607 97.549 0 94.255-76.41 170.667-170.667 170.667-36.271 0-69.899-11.315-97.547-30.605 43.301-108.075 129.536-194.308 237.607-237.611zM468.395 448c0 23.565 19.102 42.667 42.667 42.667s42.667-19.102 42.667-42.667c0-23.565-19.102-42.667-42.667-42.667s-42.667 19.102-42.667 42.667zM511.061 576c-70.69 0-128-57.306-128-128s57.309-128 128-128c70.694 0 128 57.306 128 128s-57.306 128-128 128z" />
<glyph unicode="&#xe93d;" glyph-name="AMA-Mapa-Line" d="M341.333 917.333c7.166 0 13.92-1.767 19.849-4.888l320.14-160.071 278.844 159.337c13.205 7.546 29.427 7.492 42.581-0.142s21.252-21.693 21.252-36.903v-682.667c0-15.313-8.205-29.449-21.5-37.043l-298.014-170.295c-6.383-3.806-13.845-5.995-21.82-5.995-0.469 0-0.943 0.009-1.412 0.021-6.643 0.218-12.898 1.95-18.436 4.868l-320.142 160.068-278.841-159.334c-13.205-7.548-29.429-7.492-42.584 0.141s-21.251 21.692-21.251 36.902v682.667c0 15.311 8.204 29.449 21.498 37.045l298.016 170.295c6.385 3.807 13.847 5.994 21.82 5.994zM725.333 94.857l213.333 121.903v584.385l-213.333-121.905v-584.383zM640 677.631l-256 128v-587.263l256-128v587.263zM85.333 679.24v-584.383l213.333 121.903v584.385l-213.333-121.905z" />
<glyph unicode="&#xe93e;" glyph-name="AMA-Pin-Line" d="M341.333 533.333c0 94.293 76.373 170.667 170.667 170.667s170.667-76.373 170.667-170.667c0-94.293-76.373-170.667-170.667-170.667s-170.667 76.373-170.667 170.667zM426.667 533.333c0-46.933 38.4-85.333 85.333-85.333s85.333 38.4 85.333 85.333c0 46.933-38.4 85.333-85.333 85.333s-85.333-38.4-85.333-85.333zM512 960c113.92 0 221.013-44.373 301.653-125.013s125.013-187.733 125.013-301.653c0-317.867-386.56-578.987-403.2-590.080-6.827-4.693-15.36-7.253-23.467-7.253s-16.213 2.56-23.467 7.253c-16.64 10.667-403.2 272.213-403.2 590.080 0 113.92 44.373 221.013 125.013 301.653s187.733 125.013 301.653 125.013zM170.667 533.333c0-230.827 260.267-442.027 341.333-502.187 81.067 60.16 341.333 271.36 341.333 502.187 0 91.307-35.413 177.067-99.84 241.493s-150.187 99.84-241.493 99.84c-91.307 0-177.067-35.413-241.493-99.84s-99.84-150.187-99.84-241.493z" />
<glyph unicode="&#xe93f;" glyph-name="AMA-Centrar-Line" d="M512 576c-70.694 0-128-57.306-128-128s57.306-128 128-128c70.694 0 128 57.306 128 128s-57.306 128-128 128zM469.333 448c0 23.565 19.102 42.667 42.667 42.667s42.667-19.102 42.667-42.667c0-23.565-19.102-42.667-42.667-42.667s-42.667 19.102-42.667 42.667zM512 917.333c23.565 0 42.667-19.103 42.667-42.667v-131.025c130.803-18.71 234.266-122.173 252.975-252.975h131.025c23.565 0 42.667-19.102 42.667-42.667s-19.102-42.667-42.667-42.667h-131.025c-18.709-130.803-122.172-234.266-252.975-252.975v-131.025c0-23.565-19.102-42.667-42.667-42.667s-42.667 19.102-42.667 42.667v131.025c-130.803 18.709-234.266 122.172-252.975 252.975h-131.025c-23.564 0-42.667 19.102-42.667 42.667s19.103 42.667 42.667 42.667h131.025c18.71 130.803 122.173 234.266 252.975 252.975v131.025c0 23.564 19.102 42.667 42.667 42.667zM512 234.667c117.82 0 213.333 95.514 213.333 213.333s-95.514 213.333-213.333 213.333c-117.821 0-213.333-95.513-213.333-213.333s95.513-213.333 213.333-213.333z" />
</font>
</defs>
</svg>
