<?xml version="1.0" encoding="UTF-8" standalone="no"?>
<!DOCTYPE svg PUBLIC "-//W3C//DTD SVG 1.1//EN" "http://www.w3.org/Graphics/SVG/1.1/DTD/svg11.dtd">
<svg width="100%" height="100%" viewBox="0 0 16 16" version="1.1" xmlns="http://www.w3.org/2000/svg" xmlns:xlink="http://www.w3.org/1999/xlink" xml:space="preserve" xmlns:serif="http://www.serif.com/" style="fill-rule:evenodd;clip-rule:evenodd;stroke-linejoin:round;stroke-miterlimit:2;">
    <path d="M7.5,6.94L7.73,7.17C8.153,7.596 8.153,8.294 7.73,8.72L5.07,11.38C4.754,11.768 4.775,12.337 5.12,12.7C5.314,12.881 5.57,12.981 5.835,12.981C6.13,12.981 6.411,12.857 6.61,12.64L10.61,8.64C11.033,8.214 11.033,7.516 10.61,7.09L6.61,3.09C6.223,2.666 5.556,2.635 5.13,3.02C4.945,3.207 4.841,3.46 4.841,3.723C4.841,4.019 4.973,4.3 5.2,4.49L6,5.4" style="fill:rgb(182,220,246);fill-rule:nonzero;"/>
</svg>
