<svg _ngcontent-ng-c414844101="" xmlns="http://www.w3.org/2000/svg" xmlns:xlink="http://www.w3.org/1999/xlink" width="26" height="28" viewBox="0 0 26 28" aria-label="Selo Bronze"><defs _ngcontent-ng-c414844101=""><linearGradient _ngcontent-ng-c414844101="" id="a" x1="13" x2="13" y2="28" gradientUnits="userSpaceOnUse"><stop _ngcontent-ng-c414844101="" offset="0" stop-color="#b9764e"></stop><stop _ngcontent-ng-c414844101="" offset="1" stop-color="#7f4930"></stop></linearGradient><linearGradient _ngcontent-ng-c414844101="" id="a" x1="13" x2="13" y2="28" gradientUnits="userSpaceOnUse"><stop _ngcontent-ng-c414844101="" offset="0" stop-color="#b9764e"></stop><stop _ngcontent-ng-c414844101="" offset="1" stop-color="#7f4930"></stop></linearGradient></defs><rect _ngcontent-ng-c414844101="" width="26" height="28" rx="3" ry="3" style="" fill="url(&quot;#a&quot;)"></rect><path _ngcontent-ng-c414844101="" d="M13.36,5h-.1a2.56,2.56,0,0,0-2.46,2.46A2.49,2.49,0,0,0,13.3,9.91h.11a2.48,2.48,0,0,0,2.49-2.41A2.54,2.54,0,0,0,13.36,5Zm1.78.84-.09-.09Zm.69,1.62a2.44,2.44,0,0,1,0,.24,2.44,2.44,0,0,0,0-.24,2.48,2.48,0,0,0,0-.25A2.48,2.48,0,0,1,15.83,7.49Zm0-.33c0-.06,0-.11,0-.17S15.78,7.11,15.79,7.16Zm-.06-.26,0-.14Zm-.08-.24-.05-.12Zm-.1-.22-.06-.11Zm-.12-.21-.07-.11ZM15.3,6,15.22,6Zm-.36,1.44h0Zm-1.7,1.38a1.5,1.5,0,0,1-1.38-1.38,1.51,1.51,0,0,1,1.5-1.38h.12A1.5,1.5,0,0,1,14.86,7.5a1.51,1.51,0,0,1-1.5,1.38ZM14.89,7.8l0,.1Zm-.4-2.42.11.06Zm.2.12.1.07Zm-1.13-.38h0Zm.24,0,.12,0ZM14,5.2l.12,0Zm.23.08.11,0Zm-2,1.15.1-.08Zm.24-.17.12-.06Zm.27-.13.13,0Zm.29-.07h0ZM11.84,7.18l0-.1Zm.11-.28L12,6.8Zm.16-.25.08-.09Zm-.33.84a1.58,1.58,0,0,0,.14.55,1.58,1.58,0,0,1-.14-.55Zm.21,2-.1-.07Zm-.19-.13-.09-.08Zm.39.25-.1-.06Zm.43.17-.12,0Zm-.22-.08-.11,0Zm2-1.1-.1.08Zm-.24.17-.12.06Zm-.27.13-.13,0Zm-.29.07h0Zm1.17-.84-.06.1Zm-.16.25-.08.09ZM14.43,9.6l-.11.05ZM15,9.23l-.09.08Zm-.18.14-.1.07Zm-.19.13-.11.06Zm.25-3.87.09.08Zm-1.52-.52h0ZM11.09,6.58a2.47,2.47,0,0,0-.21.91h0A2.47,2.47,0,0,1,11.09,6.58Zm.24,2.23-.07-.1Zm-.12-.19-.06-.11Zm-.11-.21,0-.12ZM11,8.2l0-.13ZM10.95,8s0-.1,0-.15S10.94,7.92,10.95,8Zm0-.24q0-.12,0-.24Q10.89,7.61,10.9,7.73Zm.64,1.34.08.08ZM11.4,8.9l.07.09Zm2,.93h0Zm-.63-.07.12,0Zm.23,0,.12,0Zm1.25-.11-.12,0ZM14,9.76l-.12,0Zm-.23,0-.12,0Zm1.33-.64.09-.09ZM15.8,7.8c0,.06,0,.11,0,.17S15.79,7.86,15.8,7.8Zm-.06.25,0,.14Zm-.08.23-.05.13Zm-.1.22-.06.12Zm-.12.2-.07.11Zm-.13.19-.08.1Z" style="" fill="#FFFFFF"></path><path _ngcontent-ng-c414844101="" d="M21.1,10.73a1.4,1.4,0,0,0-1.33-1l-.27,0a29.82,29.82,0,0,1-5.12.38A65.63,65.63,0,0,1,7,9.67H6.87a1.38,1.38,0,0,0-1.35,1.11,1.29,1.29,0,0,0,.24,1,1.42,1.42,0,0,0,1,.54c.29,0,.54.07.82.12a20.38,20.38,0,0,0,2.78.29c.25,0,.59.19.59.29l0,1.65a3.35,3.35,0,0,1-.18,1l-1.18,6a1.29,1.29,0,0,0,.07,1,1.41,1.41,0,0,0,2.57-.13l1.24-4.08,1.41,4.13a1.37,1.37,0,0,0,1.27.84h0a1.44,1.44,0,0,0,.49-.08l0,0a1.32,1.32,0,0,0,.85-1.66l-1.37-5.57a5.5,5.5,0,0,1-.3-1.9V13.07a.31.31,0,0,1,.31-.28h0a20.13,20.13,0,0,0,3.77-.4l.11,0a1.38,1.38,0,0,0,.92-.61A1.29,1.29,0,0,0,21.1,10.73Zm-.34-.46-.09-.1Zm-4.5,12.16a.43.43,0,0,1-.16,0,.43.43,0,0,0,.16,0l.05,0Zm-5.71-.07a.39.39,0,0,1-.1-.12.33.33,0,0,1,0-.26l1-4.79-1,4.79a.33.33,0,0,0,0,.26.39.39,0,0,0,.24.2h0A.39.39,0,0,1,10.55,22.36Zm.13,1-.22,0Zm5-11.47a1.26,1.26,0,0,1,.39-.07A1.26,1.26,0,0,0,15.72,11.88Zm-.47.29a1.28,1.28,0,0,1,.29-.2A1.28,1.28,0,0,0,15.24,12.17Zm.89-.44A1.35,1.35,0,0,0,14.78,13l0,1.15a6.53,6.53,0,0,0,.36,2.25L16.48,22a.28.28,0,0,1-.18.35l-.05,0-.13,0a.35.35,0,0,1-.31-.18l-1.7-4.84a.74.74,0,0,0-.69-.47h-.05a.75.75,0,0,0-.7.5l-1.47,4.8a.36.36,0,0,1-.32.2l-.13,0a.32.32,0,0,1-.2-.16.26.26,0,0,1,0-.19l1.19-6A4.38,4.38,0,0,0,12,14.68L12,13c0-.72-.86-1.31-1.6-1.35a19.53,19.53,0,0,1-2.7-.29c-.29-.05-.53-.09-.82-.12a.35.35,0,0,1-.24-.13.26.26,0,0,1-.05-.19.32.32,0,0,1,.32-.24h.05a68.6,68.6,0,0,0,7.52.47,30.51,30.51,0,0,0,5.25-.39h.08a.34.34,0,0,1,.32.23.26.26,0,0,1,0,.2.32.32,0,0,1-.22.14h-.1A19.19,19.19,0,0,1,16.13,11.73ZM14,17.38a.67.67,0,0,0-.1-.17A.67.67,0,0,1,14,17.38ZM11.9,13l0,1.65q0,.17,0,.34a4.34,4.34,0,0,1-.1.6,4.34,4.34,0,0,0,.1-.6q0-.17,0-.34ZM6.55,10.8l0,0Zm13.52,0,0,0Zm-.26-.12h0Zm.14,0,0,0Zm-.27,0-.57.09Zm-5.23.39h0Zm.62,0h0Zm.74,0,.39,0Zm.71,0,.39,0Zm.69,0,.38,0Zm.66-.06.38,0Zm.63-.07.4-.05ZM14,10.21h0Zm-5.66.56-.33,0Zm-.11-.9.37,0Zm1.09.1.41,0Zm1,.08.41,0Zm1,.06.4,0Zm.93,0h0Zm.88,0h0Zm.76.9h0Zm-.84,0h0Zm-.87,0-.4,0Zm-.9,0-.41,0Zm-.94-.06-.39,0Zm-1-.08-.37,0ZM7,10.63H7Zm-.3.07,0,0Zm.13-.06h0Zm-.18-.87.13,0Zm-.22.07.12,0Zm1.3,1.63a19.54,19.54,0,0,0,2,.25,19.54,19.54,0,0,1-2-.25c-.27,0-.52-.09-.82-.12C7.15,11.38,7.4,11.42,7.67,11.47ZM11,22.42l0,0Zm-.17,0h0Zm.29-.13,0,0Zm0,1-.22,0Zm.06-1.11.74-2.4-.74,2.4h0Zm1.57-5h0Zm.53-.26h.05l.11,0-.12,0h0Zm-.2,0h0Zm-.18.09h0Zm.9.08-.1-.09ZM13.71,17,13.6,17Zm2.11,5.31,0,0Zm.16.09h0Zm-.21-9.51,0,0Zm.13-.14,0,0Zm.13-.06h0Zm2.83-1.15q-.91.14-1.82.19Q18,11.72,18.87,11.58Zm1.2-1.74.15,0Zm-.07,0-.23,0h0Zm.61.28L20.49,10ZM20.42,10l-.12-.06Zm-.9-.15-.43.07Zm-4.88.38h0Zm.81,0h0Zm.75,0,.4,0Zm.69,0,.37,0Zm.63,0,.34,0Zm.58-.06.32,0Zm.53-.06.33,0ZM7,9.74H7Zm-.76.14-.11.07ZM6.09,10l-.1.09Zm-.17.15-.09.11Zm-.14.18-.07.14Zm-.11.21a1.3,1.3,0,0,0-.07.23A1.3,1.3,0,0,1,5.67,10.55ZM5.58,11v0Zm4,10.69,1.18-6-1.18,6a1.21,1.21,0,0,0-.06.24A1.21,1.21,0,0,1,9.59,21.7Zm.07.94a1.33,1.33,0,0,0,.13.2A1.33,1.33,0,0,1,9.66,22.64Zm.17.25L10,23Zm.57.39-.17-.07Zm-.22-.1L10,23.06Zm.53.17h0Zm.51-.05.23-.09Zm4.85.06h0Zm.25,0,.23-.06Zm1.08-1.64h0l-.68-2.78.68,2.78Zm-.36-9,1-.08Zm3.82-1a1.3,1.3,0,0,1-.17.21,1.3,1.3,0,0,0,.17-.21,1.21,1.21,0,0,0,.12-.23A1.21,1.21,0,0,1,20.87,11.72Zm0-1.38.08.13Zm.21.41a1.31,1.31,0,0,0-.09-.22,1.31,1.31,0,0,1,.09.22,1.21,1.21,0,0,1,0,.25A1.21,1.21,0,0,0,21,10.75Z" style="" fill="#FFFFFF"></path></svg>