<svg _ngcontent-kja-c61="" xmlns="http://www.w3.org/2000/svg" xmlns:xlink="http://www.w3.org/1999/xlink" width="26" height="28" viewBox="0 0 26 28" aria-label="Declaração plenamente conforme"><defs _ngcontent-kja-c61=""><linearGradient _ngcontent-kja-c61="" id="f" x1="13" x2="13" y2="28" gradientUnits="userSpaceOnUse"><stop _ngcontent-kja-c61="" offset="0" stop-color="#15a950"></stop><stop _ngcontent-kja-c61="" offset="1" stop-color="#10813d"></stop></linearGradient><linearGradient _ngcontent-kja-c61="" id="f" x1="13" x2="13" y2="28" gradientUnits="userSpaceOnUse"><stop _ngcontent-kja-c61="" offset="0" stop-color="#15a950"></stop><stop _ngcontent-kja-c61="" offset="1" stop-color="#10813d"></stop></linearGradient></defs><rect _ngcontent-kja-c61="" width="26" height="28" rx="3" ry="3" style="" fill="url(&quot;#f&quot;)"></rect><path _ngcontent-kja-c61="" d="M19.92,18.91H6.08a.63.63,0,1,0,0,1.25H19.92a.63.63,0,0,0,0-1.25Zm-14.38.63a.55.55,0,0,1,.24-.46.55.55,0,0,0,0,.92A.55.55,0,0,1,5.53,19.54Zm14.38.55h0Z" style="" fill="#FFFFFF"></path><path _ngcontent-kja-c61="" d="M19.92,21.6H6.08a.63.63,0,0,0,0,1.25H19.92a.63.63,0,0,0,0-1.25Zm0,1.18h0Z" style="" fill="#FFFFFF"></path><path _ngcontent-kja-c61="" d="M16.07,8.95a.64.64,0,0,0-.44-.19h0a.63.63,0,0,0-.43.19l-2.75,2.73-1.07-1.07a.65.65,0,0,0-.9,0,.64.64,0,0,0,0,.91L12,13a.6.6,0,0,0,.87,0l3.18-3.18A.64.64,0,0,0,16.07,8.95Zm.11.45a.56.56,0,0,0-.06-.25A.56.56,0,0,1,16.18,9.4ZM15.25,9l.08-.07L15.25,9l-2.81,2.79Zm-3,4.11a.56.56,0,0,0,.21,0h0A.56.56,0,0,1,12.24,13.1Z" style="" fill="#FFFFFF"></path><path _ngcontent-kja-c61="" d="M13.25,4.75h0A6.24,6.24,0,1,0,19.48,11,6.25,6.25,0,0,0,13.24,4.75Zm2.82,10.42a5,5,0,0,1-2.81.86h0a5,5,0,0,0,4.18-2.22A5.07,5.07,0,0,1,16.07,15.17Zm1.4.3-.32.29Zm-.47.4-.32.24Zm-.5.35-.33.2Zm-.53.29-.34.16Zm-.58.25-.33.12Zm-7-7.27a4.92,4.92,0,0,0-.15,2.31,4.92,4.92,0,0,1,.15-2.31ZM8.22,7.41c.09-.12.17-.24.26-.35C8.39,7.17,8.31,7.29,8.22,7.41Zm5-1.4a5,5,0,0,1,0,9.93h0a5,5,0,0,1,0-9.93Zm4.82,3.46h0Zm.1.39,0,.1ZM13.53,6h0Zm.55.06.18,0Zm.53.12.13,0Zm.51.17.08,0Zm.5.23h0ZM11.08,5.22l.33-.12ZM11.67,5,12,4.95ZM10,5.76l.32-.2Zm.54-.3.32-.16Zm-1,.65.32-.24Zm.2,8.44,0,0Zm-.32-.35h0Zm-.29-.38v0Zm-.26-.43h0ZM8.61,13v0Zm-.16-.44v0Zm-.11-.39,0-.13ZM13,16h0ZM12.5,16l-.26,0ZM12,15.85l-.21-.05Zm-.49-.16-.18-.07ZM11,15.49l-.14-.07Zm-.46-.26-.1-.06Zm-.42-.3L10,14.88ZM18.29,11s0,0,0,0a5.06,5.06,0,0,0-.07-.79,5.05,5.05,0,0,1,.07.79v0a5,5,0,0,1-.61,2.4A5,5,0,0,0,18.29,11Zm.06-3.45a6.2,6.2,0,0,0-.75-.91A6.21,6.21,0,0,1,18.35,7.55Zm.73,5.4c-.05.15-.1.31-.17.45C19,13.25,19,13.1,19.08,12.94Zm-.23.59c-.06.14-.12.27-.19.4C18.72,13.81,18.79,13.67,18.85,13.54Zm-.27.53c-.07.13-.15.26-.23.38C18.43,14.32,18.5,14.19,18.58,14.06ZM13.25,4.83a6.17,6.17,0,0,1,1.83.28,6.17,6.17,0,0,0-1.83-.28l-.34,0,.32,0Zm-1,.08.32,0Zm-3,1.32L9,6.5Zm-.44.4-.29.31Zm-.75.91c-.08.12-.15.24-.22.36C8,7.77,8.05,7.65,8.13,7.54ZM7.82,8c-.06.12-.12.24-.17.36C7.7,8.28,7.76,8.16,7.82,8Zm-.26.54c-.05.13-.1.26-.14.39C7.46,8.84,7.51,8.71,7.56,8.58Zm-.21.57c0,.13-.07.26-.1.39C7.28,9.41,7.31,9.27,7.35,9.15Zm-.15.59c0,.12,0,.24-.06.36C7.16,10,7.18,9.86,7.2,9.74Zm-.09.61c0,.11,0,.22,0,.32C7.09,10.57,7.1,10.46,7.11,10.35Zm6.12,6.81h0l.33,0-.31,0Zm1.57-.21-.32.08Zm-.62.13-.32,0Zm3.41-1.72c.11-.11.2-.22.3-.33C17.79,15.14,17.7,15.25,17.59,15.36Zm.67-.8c-.09.12-.17.24-.27.36C18.08,14.8,18.17,14.68,18.26,14.56Zm1.11-2.93a6.24,6.24,0,0,0,0-.63h0A6.25,6.25,0,0,1,19.37,11.63Zm-.25,1.2c.05-.16.09-.33.13-.5C19.21,12.5,19.17,12.67,19.12,12.83Zm.15-.59c0-.17.06-.35.08-.53C19.34,11.89,19.31,12.07,19.28,12.24Z" style="" fill="#FFFFFF"></path></svg>