<svg xmlns="http://www.w3.org/2000/svg" width="177" height="163" viewBox="0 0 177 163" fill="none">
  <g clip-path="url(#clip0_345_6070)">
    <path d="M117.964 44.6365C118.047 44.9674 118.053 45.3127 117.982 45.6463C117.911 45.9799 117.765 46.2929 117.555 46.5616C117.345 46.8303 117.076 47.0477 116.77 47.1972C116.463 47.3466 116.127 47.4243 115.786 47.4243C115.445 47.4243 115.108 47.3466 114.802 47.1972C114.495 47.0477 114.227 46.8303 114.017 46.5616C113.807 46.2929 113.661 45.9799 113.59 45.6463C113.519 45.3127 113.525 44.9674 113.607 44.6365V10.9215C113.597 9.18214 112.899 7.51745 111.666 6.29108C110.432 5.06472 108.763 4.37636 107.024 4.37639H10.9022C9.16785 4.38141 7.50599 5.0726 6.27963 6.29896C5.05327 7.52532 4.36209 9.18718 4.35707 10.9215V107.081C4.37212 108.807 5.06833 110.458 6.29415 111.673C7.51997 112.888 9.17616 113.57 10.9022 113.569H53.883C54.212 113.494 54.5539 113.493 54.8831 113.568C55.2123 113.643 55.5204 113.791 55.7845 114.001C56.0486 114.211 56.2619 114.478 56.4085 114.783C56.5551 115.087 56.6312 115.42 56.6312 115.757C56.6312 116.095 56.5551 116.428 56.4085 116.732C56.2619 117.037 56.0486 117.304 55.7845 117.514C55.5204 117.724 55.2123 117.872 54.8831 117.947C54.5539 118.022 54.212 118.021 53.883 117.946H10.9022C8.07691 117.943 5.36274 116.845 3.3298 114.883C1.29686 112.921 0.103362 110.247 0 107.424L0 10.5981C0.0795785 7.74649 1.27367 5.0397 3.32607 3.05843C5.37848 1.07717 8.12569 -0.0207277 10.9783 0.000296474H107.081C109.971 0.0103658 112.739 1.16543 114.779 3.21247C116.819 5.2595 117.964 8.0316 117.964 10.9215V44.6365Z" fill="#333333"/>
    <path d="M106.549 17.4667C107.194 17.4269 107.831 17.632 108.332 18.0412C108.833 18.4503 109.161 19.0333 109.25 19.6737C109.152 20.3072 108.82 20.881 108.32 21.2824C107.82 21.6837 107.188 21.8836 106.549 21.8428H11.5303C10.8749 21.9088 10.2192 21.7205 9.69863 21.3169C9.17809 20.9132 8.83255 20.3249 8.7334 19.6737C8.81549 19.0632 9.11429 18.5024 9.57531 18.0938C10.0363 17.6852 10.6289 17.4558 11.2449 17.4476H106.549V17.4667Z" fill="#333333"/>
    <path d="M97.7006 33.7336C98.3557 33.6732 99.0091 33.8664 99.5259 34.2736C100.043 34.6807 100.384 35.2706 100.478 35.9217C100.371 36.5623 100.024 37.1384 99.5088 37.5338C98.9934 37.9292 98.3472 38.1146 97.7006 38.0527H85.086C84.4339 38.108 83.7854 37.9124 83.2726 37.5058C82.7599 37.0991 82.4218 36.5121 82.3271 35.8646C82.4218 35.2171 82.7599 34.6301 83.2726 34.2235C83.7854 33.8168 84.4339 33.6212 85.086 33.6766L97.7006 33.7336Z" fill="#333333"/>
    <path d="M87.5222 42.467C88.1742 42.4116 88.8228 42.6072 89.3355 43.0139C89.8482 43.4205 90.1864 44.0075 90.281 44.655C90.1864 45.3025 89.8482 45.8895 89.3355 46.2962C88.8228 46.7028 88.1742 46.8984 87.5222 46.8431H61.7793C61.1201 46.9136 60.4594 46.7245 59.9373 46.316C59.4152 45.9076 59.0727 45.3118 58.9824 44.655C59.0726 44.0091 59.4069 43.4222 59.9165 43.0153C60.4261 42.6083 61.0723 42.412 61.7222 42.467H87.5222Z" fill="#333333"/>
    <path d="M74.4136 33.7343C75.0656 33.6789 75.7142 33.8746 76.2269 34.2812C76.7397 34.6878 77.0778 35.2748 77.1724 35.9223C77.0729 36.5204 76.7635 37.0634 76.2997 37.454C75.836 37.8445 75.2482 38.057 74.6419 38.0533H39.9566C39.3067 38.1082 38.6605 37.912 38.1509 37.505C37.6412 37.098 37.307 36.5112 37.2168 35.8653C37.32 35.2297 37.6599 34.6568 38.1681 34.2615C38.6763 33.8663 39.3152 33.6779 39.9566 33.7343H74.4136Z" fill="#333333"/>
    <path d="M69.6182 59.9521C70.2755 59.8912 70.9313 60.0839 71.4512 60.4906C71.9711 60.8974 72.316 61.4875 72.4151 62.1401C72.3205 62.7876 71.9823 63.3746 71.4696 63.7813C70.9569 64.1879 70.3083 64.3835 69.6562 64.3282H41.3829C40.7308 64.3835 40.0822 64.1879 39.5695 63.7813C39.0568 63.3746 38.7186 62.7876 38.624 62.1401C38.7229 61.4946 39.0622 60.9103 39.5739 60.5045C40.0856 60.0987 40.7318 59.9013 41.3829 59.9521H69.6182Z" fill="#333333"/>
    <path d="M65.2414 68.7049C65.8977 68.6341 66.5559 68.8205 67.0775 69.225C67.5992 69.6296 67.9436 70.2207 68.0383 70.8739C67.9437 71.5215 67.6055 72.1085 67.0928 72.5151C66.5801 72.9217 65.9315 73.1173 65.2794 73.062H60.3135C59.6615 73.1173 59.0129 72.9217 58.5002 72.5151C57.9875 72.1085 57.6493 71.5215 57.5547 70.8739C57.6537 70.2299 57.9937 69.6476 58.5059 69.2448C59.0182 68.8421 59.6643 68.6491 60.3135 68.7049H65.2414Z" fill="#333333"/>
    <path d="M58.5636 86.1898C58.8724 86.2326 59.1689 86.3393 59.4342 86.5031C59.6996 86.6668 59.9279 86.884 60.1046 87.1408C60.2814 87.3977 60.4027 87.6885 60.4608 87.9948C60.519 88.3011 60.5127 88.6161 60.4424 88.9199C60.3722 89.2236 60.2394 89.5094 60.0525 89.759C59.8657 90.0086 59.629 90.2165 59.3573 90.3696C59.0857 90.5226 58.7852 90.6175 58.4749 90.648C58.1647 90.6785 57.8514 90.6441 57.5552 90.5469H39.9557C39.6174 90.623 39.2665 90.623 38.9283 90.5469C38.6223 90.4995 38.3294 90.3894 38.0681 90.2235C37.8067 90.0576 37.5825 89.8393 37.4095 89.5826C37.2365 89.3258 37.1185 89.0361 37.0629 88.7315C37.0073 88.427 37.0152 88.1142 37.0863 87.8129C37.1574 87.5115 37.29 87.2281 37.4758 86.9805C37.6616 86.7329 37.8967 86.5264 38.1661 86.374C38.4356 86.2215 38.7337 86.1265 39.0417 86.0948C39.3496 86.0631 39.6608 86.0955 39.9557 86.1898H57.5933C57.9129 86.1197 58.244 86.1197 58.5636 86.1898Z" fill="#333333"/>
    <path d="M51.3721 94.9231C51.6594 94.9906 51.9306 95.114 52.1703 95.2863C52.4099 95.4586 52.6133 95.6764 52.7688 95.9272C52.9243 96.1781 53.0288 96.4572 53.0764 96.7484C53.1241 97.0397 53.1139 97.3375 53.0464 97.6249C52.9789 97.9122 52.8555 98.1835 52.6833 98.4231C52.511 98.6628 52.2932 98.8661 52.0423 99.0216C51.7914 99.1771 51.5124 99.2816 51.2211 99.3293C50.9298 99.3769 50.632 99.3667 50.3446 99.2992H39.9562C39.6179 99.3753 39.267 99.3753 38.9287 99.2992C38.3902 99.1754 37.9163 98.8574 37.5976 98.406C37.2789 97.9546 37.1378 97.4016 37.2015 96.8527C37.2651 96.3038 37.5288 95.7977 37.9423 95.4311C38.3558 95.0646 38.8899 94.8634 39.4425 94.866C39.6132 94.8473 39.7854 94.8473 39.9562 94.866H50.3066C50.6448 94.7899 50.9958 94.7899 51.334 94.866L51.3721 94.9231Z" fill="#333333"/>
    <path d="M51.1061 42.4671C51.7604 42.4113 52.4113 42.6063 52.9271 43.0126C53.4429 43.4189 53.785 44.0061 53.884 44.6552C53.785 45.3043 53.4429 45.8914 52.9271 46.2977C52.4113 46.704 51.7604 46.899 51.1061 46.8432H39.9566C39.3067 46.8982 38.6605 46.7019 38.1509 46.2949C37.6412 45.8879 37.307 45.3011 37.2168 44.6552C37.307 44.0092 37.6412 43.4224 38.1509 43.0154C38.6605 42.6084 39.3067 42.4122 39.9566 42.4671H51.1061Z" fill="#333333"/>
    <path d="M50.116 68.7049C50.7723 68.6341 51.4305 68.8205 51.9522 69.225C52.4738 69.6296 52.8182 70.2207 52.9129 70.8739C52.8183 71.5215 52.4801 72.1085 51.9674 72.5151C51.4547 72.9217 50.8061 73.1173 50.1541 73.062H41.3829C40.7308 73.1173 40.0822 72.9217 39.5695 72.5151C39.0568 72.1085 38.7186 71.5215 38.624 70.8739C38.723 70.2299 39.063 69.6476 39.5753 69.2448C40.0875 68.8421 40.7337 68.6491 41.3829 68.7049H50.116Z" fill="#333333"/>
    <path d="M25.5532 91.1747L23.1748 93.534C22.8478 93.9339 22.4078 94.2259 21.9122 94.3718C21.4166 94.5178 20.8886 94.5109 20.397 94.3521L20.0164 94.1999L19.6549 93.9716C19.2601 93.4381 19.0854 92.7734 19.1668 92.1147C19.2483 91.4561 19.5797 90.8539 20.0925 90.4327L22.4709 87.9973C22.0208 87.7911 21.5483 87.6378 21.0629 87.5406C20.6023 87.4264 20.1295 87.3689 19.6549 87.3694C19.2137 87.3647 18.7734 87.4094 18.3421 87.5026C17.9788 87.5815 17.6225 87.6897 17.2766 87.826C17.0208 87.9208 16.7727 88.0353 16.5346 88.1685C16.1696 88.3611 15.8253 88.5906 15.5072 88.8535C15.3419 88.9781 15.189 89.1182 15.0505 89.2721C14.3783 89.9279 13.8642 90.7282 13.5474 91.6123C13.4926 91.7202 13.4541 91.8356 13.4333 91.9548C13.2285 92.5681 13.1257 93.2109 13.1288 93.8575C13.1346 94.3107 13.1791 94.7627 13.262 95.2083C13.3425 95.6212 13.4701 96.0234 13.6426 96.407C13.9703 97.1742 14.4418 97.8717 15.0315 98.4619C15.697 99.1358 16.5024 99.6554 17.3908 99.984L17.7333 100.098C17.9242 100.169 18.1218 100.22 18.3231 100.25C18.4747 100.269 18.6281 100.269 18.7797 100.25C19.0771 100.279 19.3766 100.279 19.674 100.25C21.1846 100.235 22.6434 99.6969 23.8027 98.7282C23.968 98.6036 24.1209 98.4635 24.2593 98.3096C25.4804 97.081 26.1646 95.4184 26.162 93.6862C26.1365 92.8157 25.9291 91.9602 25.5532 91.1747ZM32.7071 80.8623C33.1258 81.3928 33.3203 82.0659 33.2492 82.7379C33.1781 83.4098 32.847 84.0273 32.3266 84.4584L28.7496 87.9973C30.2207 90.2734 30.7945 93.0145 30.3601 95.6896C29.9256 98.3647 28.5137 100.783 26.3978 102.477C24.282 104.17 21.6129 105.018 18.9076 104.856C16.2024 104.694 13.6535 103.534 11.7548 101.6C9.85609 99.6664 8.74277 97.0967 8.63049 94.3889C8.51822 91.6811 9.41499 89.028 11.1471 86.9436C12.8791 84.8592 15.3232 83.4919 18.0058 83.1066C20.6884 82.7213 23.4186 83.3453 25.6673 84.8579L29.1872 81.3C29.6023 80.7843 30.2017 80.4504 30.8586 80.3687C31.5155 80.2871 32.1784 80.4641 32.7071 80.8623Z" fill="#333333"/>
    <path d="M32.7058 28.4067C33.1048 28.9272 33.2879 29.5814 33.2171 30.2334C33.1462 30.8854 32.8268 31.485 32.3253 31.9076L28.7483 35.4846C30.2229 37.7644 30.7987 40.5105 30.3642 43.1907C29.9296 45.8708 28.5156 48.2943 26.3961 49.9913C24.2766 51.6884 21.6027 52.5383 18.8923 52.3763C16.182 52.2143 13.6283 51.052 11.726 49.1145C9.82382 47.1771 8.70853 44.6025 8.59629 41.8896C8.48405 39.1768 9.38285 36.5188 11.1185 34.4309C12.8542 32.3429 15.3032 30.9736 17.9909 30.5882C20.6786 30.2029 23.4136 30.829 25.666 32.3452L29.1859 28.7872C29.6118 28.2844 30.2147 27.9645 30.8698 27.8937C31.525 27.8228 32.1823 28.0065 32.7058 28.4067ZM26.2558 41.4969C26.2471 40.988 26.1703 40.4825 26.0275 39.9939C25.9275 39.5607 25.7808 39.1396 25.5899 38.7381L23.2116 41.1164C22.7785 41.6299 22.1616 41.9532 21.493 42.0173C20.8243 42.0813 20.1572 41.8808 19.6346 41.4589L19.4063 41.0974L19.2921 40.812C19.1327 40.3251 19.1237 39.8014 19.2662 39.3093C19.4088 38.8172 19.6963 38.3795 20.0913 38.0531L22.4696 35.6178C22.0201 35.4056 21.5476 35.246 21.0616 35.1421C20.6 35.0308 20.1282 34.9671 19.6536 34.9518C19.0068 34.9448 18.3634 35.0477 17.751 35.2563C16.4101 35.6658 15.2361 36.495 14.4019 37.622C13.5678 38.7489 13.1175 40.1139 13.1175 41.516C13.1175 42.918 13.5678 44.283 14.4019 45.41C15.2361 46.5369 16.4101 47.3662 17.751 47.7757C18.3666 47.9689 19.0085 48.0652 19.6536 48.0611C20.1069 48.0554 20.5589 48.0108 21.0045 47.9279C22.4885 47.6287 23.8229 46.8242 24.7804 45.6516C25.7379 44.4791 26.2593 43.0108 26.2558 41.4969Z" fill="#333333"/>
    <path d="M32.7064 54.6254C33.1065 55.149 33.2902 55.8063 33.2194 56.4614C33.1486 57.1166 32.8287 57.7194 32.3258 58.1454L28.7488 61.7223C30.2532 63.9909 30.8611 66.7374 30.4546 69.4289C30.0481 72.1204 28.6562 74.5649 26.5491 76.288C24.4419 78.0112 21.7697 78.89 19.0511 78.7541C16.3325 78.6181 13.7613 77.4771 11.8366 75.5523C9.91182 73.6276 8.77075 71.0564 8.6348 68.3378C8.49886 65.6192 9.37773 62.947 11.1009 60.8398C12.824 58.7327 15.2685 57.3408 17.96 56.9343C20.6515 56.5278 23.398 57.1357 25.6665 58.64L29.1865 55.0631C29.6043 54.5515 30.2032 54.2206 30.8587 54.1391C31.5142 54.0576 32.1759 54.2318 32.7064 54.6254ZM26.2564 67.7157C26.2388 66.7584 26.0115 65.8167 25.5904 64.9568L23.2121 67.3161C22.7993 67.8401 22.1975 68.1814 21.5359 68.2667C20.8743 68.3521 20.2056 68.1748 19.6732 67.7728C19.2997 67.2391 19.1411 66.5841 19.2293 65.9387C19.3175 65.2933 19.6459 64.7048 20.1489 64.2909L22.5272 61.8745C21.8826 61.5543 21.1873 61.3483 20.4723 61.2657C20.219 61.2462 19.9646 61.2462 19.7113 61.2657C19.0644 61.2586 18.421 61.3616 17.8086 61.5701C16.4677 61.9796 15.2937 62.8089 14.4595 63.9358C13.6254 65.0628 13.1752 66.4278 13.1752 67.8298C13.1752 69.2319 13.6254 70.5969 14.4595 71.7238C15.2937 72.8508 16.4677 73.68 17.8086 74.0896C18.4242 74.2828 19.0661 74.3791 19.7113 74.375C20.122 74.3603 20.5301 74.3029 20.929 74.2037C21.3554 74.1289 21.7709 74.0011 22.1657 73.8232C22.5587 73.6697 22.9298 73.465 23.2692 73.2143C24.1891 72.6227 24.9451 71.8087 25.4672 70.8477C25.9893 69.8866 26.2607 68.8094 26.2564 67.7157Z" fill="#333333"/>
    <path d="M28.3883 8.73336C28.8211 8.73336 29.2441 8.86169 29.6039 9.10211C29.9638 9.34254 30.2442 9.68426 30.4098 10.0841C30.5754 10.4839 30.6188 10.9238 30.5343 11.3483C30.4499 11.7727 30.2415 12.1626 29.9355 12.4686C29.6295 12.7746 29.2396 12.983 28.8152 13.0674C28.3908 13.1518 27.9508 13.1085 27.551 12.9429C27.1512 12.7773 26.8095 12.4968 26.569 12.137C26.3286 11.7772 26.2003 11.3542 26.2003 10.9214C26.1977 10.6334 26.2526 10.3477 26.3617 10.0811C26.4707 9.81447 26.6318 9.57225 26.8355 9.36857C27.0392 9.16488 27.2814 9.00381 27.548 8.89475C27.8146 8.78568 28.1003 8.73082 28.3883 8.73336Z" fill="#333333"/>
    <path d="M26.1991 41.5161C26.2186 41.003 26.1609 40.4899 26.0278 39.994C26.1706 40.4826 26.2474 40.9881 26.2561 41.4971C26.2517 43.0185 25.7175 44.4908 24.7453 45.6609C23.773 46.8311 22.4235 47.626 20.9287 47.909C22.4114 47.6183 23.7474 46.8221 24.7085 45.6562C25.6696 44.4904 26.1965 43.0271 26.1991 41.5161Z" fill="#333333"/>
    <path d="M25.5904 64.9561C26.2872 66.3555 26.4454 67.9621 26.035 69.4706C25.6245 70.979 24.674 72.284 23.3643 73.1374C24.2393 72.5294 24.9542 71.7187 25.4479 70.7744C25.9415 69.8302 26.1993 68.7804 26.1992 67.7149C26.2037 66.7655 25.9888 65.8278 25.5713 64.9751L25.5904 64.9561Z" fill="#333333"/>
    <path d="M23.8408 98.9375L24.2975 98.5189C24.159 98.6727 24.0061 98.8129 23.8408 98.9375Z" fill="#333333"/>
    <path d="M23.3457 73.1382C23.0063 73.3888 22.6352 73.5935 22.2422 73.747C22.6259 73.5743 22.995 73.3707 23.3457 73.1382Z" fill="#333333"/>
    <path d="M22.4709 35.599L20.0926 38.0534C19.7019 38.3708 19.4139 38.7967 19.265 39.2775C19.116 39.7583 19.1127 40.2725 19.2554 40.7552C19.0651 40.2553 19.0381 39.708 19.1783 39.1918C19.3184 38.6756 19.6185 38.2171 20.0355 37.8822L22.4138 35.618C21.9865 35.4004 21.5323 35.2405 21.0629 35.1423C21.5482 35.2402 22.0206 35.3934 22.4709 35.599Z" fill="#333333"/>
    <path d="M22.47 61.8169L20.0917 64.2332C19.5887 64.6472 19.2604 65.2356 19.1722 65.881C19.084 66.5265 19.2425 67.1814 19.6161 67.7151C19.2213 67.1816 19.0465 66.5168 19.128 65.8582C19.2094 65.1995 19.5408 64.5974 20.0537 64.1761L22.432 61.8169C21.8324 61.5183 21.1908 61.313 20.5293 61.208C21.2053 61.3031 21.8609 61.5088 22.47 61.8169Z" fill="#333333"/>
    <path d="M22.4707 87.9972L20.0924 90.4326C19.5796 90.8538 19.2482 91.456 19.1667 92.1146C19.0853 92.7733 19.26 93.438 19.6548 93.9715L20.0163 94.1998C19.8668 94.1356 19.7261 94.0525 19.5977 93.9525C19.2041 93.422 19.0299 92.7603 19.1114 92.1048C19.1929 91.4494 19.5238 90.8505 20.0353 90.4326L22.4137 88.0162C21.9829 87.8069 21.5296 87.6474 21.0628 87.5405C21.5482 87.6377 22.0207 87.791 22.4707 87.9972Z" fill="#333333"/>
    <path d="M22.2415 73.7466C21.8264 73.9569 21.3848 74.1105 20.9287 74.2032C21.378 74.0871 21.8171 73.9344 22.2415 73.7466Z" fill="#333333"/>
    <path d="M20.0156 94.2004L20.3962 94.3527C20.2598 94.3302 20.1299 94.2782 20.0156 94.2004Z" fill="#333333"/>
    <path d="M19.6548 8.73328C20.0876 8.73328 20.5106 8.8616 20.8705 9.10203C21.2303 9.34245 21.5107 9.68418 21.6763 10.084C21.8419 10.4838 21.8853 10.9238 21.8008 11.3482C21.7164 11.7726 21.508 12.1625 21.202 12.4685C20.896 12.7745 20.5061 12.9829 20.0817 13.0673C19.6573 13.1518 19.2173 13.1084 18.8175 12.9428C18.4177 12.7772 18.076 12.4968 17.8355 12.1369C17.5951 11.7771 17.4668 11.3541 17.4668 10.9213C17.4668 10.341 17.6973 9.78448 18.1077 9.37414C18.518 8.9638 19.0745 8.73328 19.6548 8.73328Z" fill="#333333"/>
    <path d="M17.2764 87.8268C17.6228 87.6968 17.9791 87.595 18.3419 87.5223C17.9784 87.5923 17.6219 87.6942 17.2764 87.8268Z" fill="#333333"/>
    <path d="M15.4879 88.8728L15.0312 89.2914C15.1697 89.1376 15.3226 88.9974 15.4879 88.8728Z" fill="#333333"/>
    <path d="M13.623 96.4836C13.9645 97.2433 14.4344 97.9384 15.012 98.5385C14.4223 97.9483 13.9508 97.2509 13.623 96.4836Z" fill="#333333"/>
    <path d="M13.5282 91.632L13.4141 91.9744C13.4349 91.8552 13.4734 91.7398 13.5282 91.632Z" fill="#333333"/>
    <path d="M13.3184 95.2656C13.4136 95.6745 13.5408 96.0753 13.6989 96.4643C13.5265 96.0807 13.3988 95.6785 13.3184 95.2656Z" fill="#333333"/>
    <path d="M10.9019 8.73328C11.3347 8.73328 11.7577 8.8616 12.1175 9.10203C12.4773 9.34245 12.7578 9.68418 12.9234 10.084C13.089 10.4838 13.1323 10.9238 13.0479 11.3482C12.9635 11.7726 12.7551 12.1625 12.4491 12.4685C12.1431 12.7745 11.7532 12.9829 11.3288 13.0673C10.9043 13.1518 10.4644 13.1084 10.0646 12.9428C9.66477 12.7772 9.32305 12.4968 9.08262 12.1369C8.84219 11.7771 8.71387 11.3541 8.71387 10.9213C8.71387 10.341 8.94439 9.78448 9.35473 9.37414C9.76507 8.9638 10.3216 8.73328 10.9019 8.73328Z" fill="#333333"/>
    <path d="M117.964 163C126.611 163.008 135.142 161.001 142.878 157.137C150.614 153.274 157.344 147.661 162.533 140.743C167.721 133.826 171.227 125.794 172.771 117.286C174.316 108.778 173.856 100.027 171.429 91.7271C170.931 90.7469 170.107 89.9711 169.098 89.5338C168.09 89.0965 166.96 89.0251 165.904 89.3318C164.849 89.6386 163.933 90.3043 163.316 91.2141C162.699 92.1238 162.419 93.2205 162.524 94.3147C165.48 104.792 164.65 115.976 160.179 125.903C155.709 135.829 147.885 143.864 138.08 148.595C128.276 153.327 117.118 154.453 106.566 151.776C96.0133 149.099 86.7414 142.79 80.3779 133.957C74.0144 125.124 70.9662 114.331 71.7685 103.474C72.5708 92.6175 77.1723 82.3902 84.765 74.5885C92.3577 66.7867 102.456 61.9092 113.287 60.8124C124.119 59.7156 134.99 62.4696 143.992 68.5909C144.989 68.982 146.088 69.023 147.11 68.7071C148.133 68.3911 149.017 67.737 149.619 66.8521C150.221 65.9672 150.504 64.9041 150.422 63.8372C150.34 62.7702 149.898 61.7628 149.168 60.9803C141.948 56.1888 133.71 53.1492 125.108 52.1037C116.507 51.0581 107.78 52.0355 99.6227 54.9579C91.4656 57.8803 84.1035 62.667 78.1229 68.9368C72.1422 75.2066 67.7082 82.7863 65.1739 91.0722C62.6396 99.3581 62.075 108.121 63.5252 116.664C64.9754 125.207 68.4003 133.293 73.5271 140.278C78.6539 147.263 85.3409 152.955 93.0556 156.9C100.77 160.845 109.3 162.934 117.964 163Z" fill="#1ACC60"/>
    <path d="M168.138 64.6901L120.381 112.409L105.16 97.1874C104.252 96.5599 103.152 96.2708 102.052 96.3706C100.952 96.4703 99.9226 96.9525 99.1418 97.7333C98.361 98.5141 97.8788 99.5439 97.7791 100.644C97.6793 101.743 97.9684 102.843 98.5959 103.752L117.128 122.283C118.007 123.13 119.18 123.603 120.4 123.603C121.621 123.603 122.794 123.13 123.673 122.283L174.645 71.2162C175.224 70.8268 175.709 70.3139 176.066 69.7145C176.423 69.115 176.642 68.4439 176.708 67.7494C176.775 67.0549 176.686 66.3544 176.449 65.6983C176.212 65.0422 175.833 64.4467 175.338 63.9549C174.843 63.463 174.245 63.087 173.588 62.8538C172.93 62.6207 172.229 62.5362 171.535 62.6066C170.841 62.6769 170.171 62.9002 169.574 63.2605C168.977 63.6208 168.467 64.109 168.081 64.6901H168.138Z" fill="#1ACC60"/>
  </g>
  <defs>
    <clipPath id="clip0_345_6070">
      <rect width="176.623" height="163" fill="white"/>
    </clipPath>
  </defs>
</svg>